<svg width="30" height="30" viewBox="0 0 30 30" fill="none" xmlns="http://www.w3.org/2000/svg">
<path opacity="0.2" d="M15 17.8125C11.0494 17.8228 7.16704 16.7834 3.75 14.8008V24.375C3.75 24.6236 3.84877 24.8621 4.02459 25.0379C4.2004 25.2137 4.43886 25.3125 4.6875 25.3125H25.3125C25.5611 25.3125 25.7996 25.2137 25.9754 25.0379C26.1512 24.8621 26.25 24.6236 26.25 24.375V14.8008C22.8308 16.7782 18.9498 17.8172 15 17.8125Z" fill="#2B70C5"/>
<path d="M25.3125 8.4375H4.6875C4.16973 8.4375 3.75 8.85723 3.75 9.375V24.375C3.75 24.8928 4.16973 25.3125 4.6875 25.3125H25.3125C25.8303 25.3125 26.25 24.8928 26.25 24.375V9.375C26.25 8.85723 25.8303 8.4375 25.3125 8.4375Z" stroke="#2B70C5" stroke-width="1.95" stroke-linecap="round" stroke-linejoin="round"/>
<path d="M19.6875 8.4375V6.5625C19.6875 6.06522 19.49 5.58831 19.1383 5.23667C18.7867 4.88504 18.3098 4.6875 17.8125 4.6875H12.1875C11.6902 4.6875 11.2133 4.88504 10.8617 5.23667C10.51 5.58831 10.3125 6.06522 10.3125 6.5625V8.4375" stroke="#2B70C5" stroke-width="1.95" stroke-linecap="round" stroke-linejoin="round"/>
<path d="M26.25 14.8008C22.8308 16.7782 18.9498 17.8172 15 17.8125C11.0494 17.8228 7.16704 16.7834 3.75 14.8008" stroke="#2B70C5" stroke-width="1.95" stroke-linecap="round" stroke-linejoin="round"/>
<path d="M13.5938 14.0625H16.4062" stroke="#2B70C5" stroke-width="1.95" stroke-linecap="round" stroke-linejoin="round"/>
</svg>
