<svg width="30" height="30" viewBox="0 0 30 30" fill="none" xmlns="http://www.w3.org/2000/svg">
<g clip-path="url(#clip0_4484_27449)">
<path opacity="0.2" d="M23.7187 20.168C21.2109 24.8789 16.5 26.6953 15.293 27.0938C15.1039 27.1637 14.8961 27.1637 14.707 27.0938C13.5 26.6953 8.78906 24.8789 6.28125 20.168L15 14.0625L23.7187 20.168Z" fill="#2B70C5"/>
<path d="M4.6875 13.4414V6.5625C4.6875 6.31386 4.78627 6.0754 4.96209 5.89959C5.1379 5.72377 5.37636 5.625 5.625 5.625H24.375C24.6236 5.625 24.8621 5.72377 25.0379 5.89959C25.2137 6.0754 25.3125 6.31386 25.3125 6.5625V13.4414C25.3125 23.2852 16.957 26.543 15.293 27.0937C15.1039 27.1637 14.8961 27.1637 14.707 27.0937C13.043 26.543 4.6875 23.2852 4.6875 13.4414Z" stroke="#2B70C5" stroke-width="1.95" stroke-linecap="round" stroke-linejoin="round"/>
<path d="M23.7187 20.168L15 14.0625L6.28125 20.168" stroke="#2B70C5" stroke-width="1.95" stroke-linecap="round" stroke-linejoin="round"/>
</g>
<defs>
<clipPath id="clip0_4484_27449">
<rect width="30" height="30" fill="white"/>
</clipPath>
</defs>
</svg>
