<svg width="30" height="30" viewBox="0 0 30 30" fill="none" xmlns="http://www.w3.org/2000/svg">
<path d="M15.1492 15.9766C15.0496 15.9641 14.9488 15.9641 14.8492 15.9766C13.7892 15.9409 12.7845 15.4945 12.0474 14.7318C11.3103 13.9691 10.8986 12.9497 10.8992 11.8891C10.8992 9.62657 12.7242 7.78907 14.9992 7.78907C16.0735 7.7872 17.1055 8.20758 17.8727 8.95957C18.64 9.71156 19.081 10.7349 19.1006 11.8091C19.1203 12.8832 18.7171 13.922 17.9779 14.7016C17.2388 15.4812 16.2229 15.9391 15.1492 15.9766ZM23.4242 24.2266C21.1271 26.3379 18.1193 27.5071 14.9992 27.5016C11.7492 27.5016 8.79922 26.2641 6.57422 24.2266C6.69922 23.0516 7.44922 21.9016 8.78672 21.0016C12.2117 18.7266 17.8117 18.7266 21.2117 21.0016C22.5492 21.9016 23.2992 23.0516 23.4242 24.2266Z" fill="#D5E2F3" stroke="#2B70C5" stroke-width="1.95" stroke-linecap="round" stroke-linejoin="round"/>
<path d="M15 27.5C21.9037 27.5 27.5 21.9037 27.5 15C27.5 8.09625 21.9037 2.5 15 2.5C8.09625 2.5 2.5 8.09625 2.5 15C2.5 21.9037 8.09625 27.5 15 27.5Z" stroke="#2B70C5" stroke-width="1.95" stroke-linecap="round" stroke-linejoin="round"/>
</svg>
