<svg width="18" height="18" viewBox="0 0 18 18" fill="none" xmlns="http://www.w3.org/2000/svg">
<path d="M17.3346 17.3327L15.668 15.666M8.58463 16.4993C9.62427 16.4993 10.6537 16.2946 11.6142 15.8967C12.5747 15.4989 13.4474 14.9157 14.1826 14.1806C14.9177 13.4455 15.5008 12.5728 15.8987 11.6123C16.2965 10.6518 16.5013 9.62231 16.5013 8.58268C16.5013 7.54305 16.2965 6.5136 15.8987 5.5531C15.5008 4.59261 14.9177 3.71988 14.1826 2.98475C13.4474 2.24962 12.5747 1.66649 11.6142 1.26864C10.6537 0.870786 9.62427 0.666016 8.58463 0.666016C6.485 0.666016 4.47137 1.50009 2.98671 2.98475C1.50204 4.46942 0.667969 6.48305 0.667969 8.58268C0.667969 10.6823 1.50204 12.6959 2.98671 14.1806C4.47137 15.6653 6.485 16.4993 8.58463 16.4993Z" stroke="#676E76" stroke-width="1.25" stroke-linecap="round" stroke-linejoin="round"/>
</svg>
