<svg width="24" height="24" viewBox="0 0 24 24" fill="none" xmlns="http://www.w3.org/2000/svg">
<mask id="mask0_4484_27394" style="mask-type:luminance" maskUnits="userSpaceOnUse" x="-3" y="-3" width="30" height="30">
<path d="M-3 -3H27V27H-3V-3Z" fill="white"/>
</mask>
<g mask="url(#mask0_4484_27394)">
<path d="M9.37492 18.2115L18.6699 8.91648C20.0048 7.58126 20.9344 5.89543 21.3512 4.05398L21.7487 2.30273L19.9962 2.69898C18.1546 3.11614 16.4687 4.04617 15.1337 5.38148L8.48992 12.024M9.37492 18.2115L12.0262 22.6302C13.4987 21.1577 15.5612 19.0952 12.0262 15.559L9.37492 18.2115ZM9.37492 18.2115L5.83867 14.6752L9.37492 18.2115ZM5.83867 14.6752L1.41992 12.024C2.89242 10.5502 4.95492 8.48773 8.48992 12.024M5.83867 14.6752L8.48992 12.024L5.83867 14.6752ZM3.18742 17.3277C3.18742 17.3277 1.05867 20.5027 2.30367 21.7477C3.54742 22.9927 6.72242 20.864 6.72242 20.864" fill="#D5E2F3"/>
<path d="M9.37492 18.2115L18.6699 8.91648C20.0048 7.58126 20.9344 5.89543 21.3512 4.05398L21.7487 2.30273L19.9962 2.69898C18.1546 3.11614 16.4687 4.04617 15.1337 5.38148L8.48992 12.024M9.37492 18.2115L12.0262 22.6302C13.4987 21.1577 15.5612 19.0952 12.0262 15.559L9.37492 18.2115ZM9.37492 18.2115L5.83867 14.6752M8.48992 12.024C4.95492 8.48773 2.89242 10.5502 1.41992 12.024L5.83867 14.6752M8.48992 12.024L5.83867 14.6752M3.18742 17.3277C3.18742 17.3277 1.05867 20.5027 2.30367 21.7477C3.54742 22.9927 6.72242 20.864 6.72242 20.864" stroke="#2B70C5" stroke-width="1.95" stroke-linecap="round" stroke-linejoin="round"/>
</g>
</svg>
