<svg width="18" height="18" viewBox="0 0 18 18" fill="none" xmlns="http://www.w3.org/2000/svg">
<path d="M1.91699 9.77213V11.918H16.0837V9.77213H1.91699ZM1.91699 0.667969H16.0837C16.4309 0.667969 16.726 0.789497 16.9691 1.03255C17.2121 1.27561 17.3337 1.57075 17.3337 1.91797V11.918C17.3337 12.2652 17.2121 12.5603 16.9691 12.8034C16.726 13.0464 16.4309 13.168 16.0837 13.168H12.042V17.3346L9.00032 15.793L5.95866 17.3346V13.168H1.91699C1.56977 13.168 1.27463 13.0464 1.03158 12.8034C0.78852 12.5603 0.666992 12.2652 0.666992 11.918V1.91797C0.666992 1.57075 0.78852 1.27561 1.03158 1.03255C1.27463 0.789497 1.56977 0.667969 1.91699 0.667969ZM1.91699 7.52213H16.0837V1.91797H1.91699V7.52213ZM1.91699 11.918V1.91797V11.918Z" fill="#2E2E2E"/>
</svg>
