<svg width="399" height="529" viewBox="0 0 399 529" fill="none" xmlns="http://www.w3.org/2000/svg">
<rect width="399" height="529" rx="20" fill="#F0F4FA"/>
<g opacity="0.76">
<path d="M298.499 309.987H91.5577C88.4903 309.987 86 307.494 86 304.423V164.898C86 161.615 88.6118 159 91.8614 159H300.108C303.358 159 306 161.615 306 164.898V302.477C306 306.642 302.629 309.987 298.499 309.987Z" fill="#263238"/>
<path d="M129.581 184.021H114.062V180.646H129.581V184.021Z" fill="#455A64"/>
<path d="M121.836 199.193H114.062V195.818H121.836V199.193Z" fill="#FF725E"/>
<path d="M130.825 206.822H119.922V203.447H130.825V206.822Z" fill="#455A64"/>
<path d="M138.935 206.822H132.588V203.447H138.935V206.822Z" fill="#455A64"/>
<path d="M196.03 206.822H182.91V203.447H196.03V206.822Z" fill="#455A64"/>
<path d="M234.266 214.275H212.156V210.9H234.266V214.275Z" fill="#455A64"/>
<path d="M268.403 206.822H257.773V203.447H268.403V206.822Z" fill="#455A64"/>
<path d="M293.002 206.822H271.652V203.447H293.002V206.822Z" fill="#455A64"/>
<path d="M130.826 214.273H119.923V210.898H130.826V214.273Z" fill="#455A64"/>
<path d="M124.115 221.687H113.212V218.312H124.115V221.687Z" fill="#FF725E"/>
<path d="M124.114 229.109H119.012V225.734H124.114V229.109Z" fill="#455A64"/>
<path d="M142.852 244.738H137.75V241.363H142.852V244.738Z" fill="#455A64"/>
<path d="M217.957 272.984H207.965V269.609H217.957V272.984Z" fill="#455A64"/>
<path d="M273.656 272.984H249.238V269.609H273.656V272.984Z" fill="#455A64"/>
<path d="M180.389 265.564H170.428V262.189H180.389V265.564Z" fill="#E0E0E0"/>
<path d="M144.249 259.207H134.288V255.832H144.249V259.207Z" fill="#455A64"/>
<path d="M205.901 272.984H190.169V269.609H205.901V272.984Z" fill="#455A64"/>
<path d="M127.303 236.683H119.012V233.277H127.303V236.683Z" fill="#455A64"/>
<path d="M134.379 244.857H119.012V241.482H134.379V244.857Z" fill="#455A64"/>
<path d="M141.485 251.152H119.012V247.777H141.485V251.152Z" fill="#455A64"/>
<path d="M182.241 251.152H159.737V247.777H182.241V251.152Z" fill="#455A64"/>
<path d="M165.66 265.564H134.075V262.189H165.66V265.564Z" fill="#455A64"/>
<path d="M187.466 272.984H134.075V269.609H187.466V272.984Z" fill="#455A64"/>
<path d="M171.34 280.4H117.949V277.025H171.34V280.4Z" fill="#455A64"/>
<path d="M157.368 251.152H143.884V247.777H157.368V251.152Z" fill="#455A64"/>
<path d="M140.059 229.109H126.149V225.734H140.059V229.109Z" fill="#455A64"/>
<path d="M143.126 236.683H129.217V233.277H143.126V236.683Z" fill="#455A64"/>
<path d="M197.033 236.683H160.194V233.277H197.033V236.683Z" fill="#455A64"/>
<path d="M240.613 236.683H198.034V233.277H240.613V236.683Z" fill="#455A64"/>
<path d="M156.914 236.683H145.403V233.277H156.914V236.683Z" fill="#455A64"/>
<path d="M160.193 229.109H141.971V225.734H160.193V229.109Z" fill="#455A64"/>
<path d="M172.371 229.109H162.228V225.734H172.371V229.109Z" fill="#E0E0E0"/>
<path d="M143.976 214.273H132.587V210.898H143.976V214.273Z" fill="#455A64"/>
<path d="M207.935 214.275H151.689V210.9H207.935V214.275Z" fill="#455A64"/>
<path d="M271.073 236.683H244.469V233.277H271.073V236.683Z" fill="#455A64"/>
<path d="M247.143 272.984H220.539V269.609H247.143V272.984Z" fill="#455A64"/>
<path d="M253.643 206.822H198.248V203.447H253.643V206.822Z" fill="#455A64"/>
<path d="M179.479 206.822H140.939V203.447H179.479V206.822Z" fill="#455A64"/>
<path d="M140.028 191.229H114.062V187.824H140.028V191.229Z" fill="#455A64"/>
<path d="M178.173 191.229H142.609V187.824H178.173V191.229Z" fill="#455A64"/>
<path d="M143.429 184.021H132.01V180.646H143.429V184.021Z" fill="#E0E0E0"/>
<path d="M102.216 184.021H98.9365V180.646H102.216V184.021Z" fill="#455A64"/>
<path d="M102.217 191.441H98.9375V188.066H102.217V191.441Z" fill="#455A64"/>
<path d="M102.217 198.857H98.9375V195.482H102.217V198.857Z" fill="#455A64"/>
<path d="M102.217 206.276H98.9375V202.871H102.217V206.276Z" fill="#455A64"/>
<path d="M102.217 213.694H98.9375V210.289H102.217V213.694Z" fill="#455A64"/>
<path d="M102.217 221.084H98.9375V217.709H102.217V221.084Z" fill="#455A64"/>
<path d="M102.217 228.502H98.9375V225.127H102.217V228.502Z" fill="#455A64"/>
<path d="M102.217 235.922H98.9375V232.547H102.217V235.922Z" fill="#455A64"/>
<path d="M102.217 243.339H98.9375V239.934H102.217V243.339Z" fill="#455A64"/>
<path d="M141.607 296.427H136.505V293.021H141.607V296.427Z" fill="#E0E0E0"/>
<path d="M133.406 296.427H118.039V293.021H133.406V296.427Z" fill="#FF725E"/>
<path d="M102.216 296.029H98.9365V292.654H102.216V296.029Z" fill="#455A64"/>
<path d="M102.217 250.759H98.9375V247.354H102.217V250.759Z" fill="#455A64"/>
<path d="M102.217 258.177H98.9375V254.771H102.217V258.177Z" fill="#455A64"/>
<path d="M102.216 265.564H98.9365V262.189H102.216V265.564Z" fill="#455A64"/>
<path d="M102.216 272.984H98.9365V269.609H102.216V272.984Z" fill="#455A64"/>
<path d="M102.217 280.4H98.9375V277.025H102.217V280.4Z" fill="#455A64"/>
<path d="M133.499 288.218H117.949V284.812H133.499V288.218Z" fill="#455A64"/>
<path d="M171.704 288.218H136.505V284.812H171.704V288.218Z" fill="#455A64"/>
<path d="M102.216 288.218H98.9365V284.812H102.216V288.218Z" fill="#455A64"/>
<path d="M193.935 191.196H182.485V187.791H193.935V191.196Z" fill="#E0E0E0"/>
<path d="M100.577 168.759C100.577 170.036 99.5447 171.07 98.2692 171.07C96.9936 171.07 95.9307 170.036 95.9307 168.759C95.9307 167.482 96.9936 166.418 98.2692 166.418C99.5447 166.418 100.577 167.482 100.577 168.759Z" fill="#455A64"/>
<path d="M107.046 168.759C107.046 170.036 105.983 171.07 104.708 171.07C103.432 171.07 102.399 170.036 102.399 168.759C102.399 167.482 103.432 166.418 104.708 166.418C105.983 166.418 107.046 167.482 107.046 168.759Z" fill="#455A64"/>
<path d="M113.485 168.759C113.485 170.036 112.452 171.07 111.176 171.07C109.87 171.07 108.838 170.036 108.838 168.759C108.838 167.482 109.87 166.418 111.176 166.418C112.452 166.418 113.485 167.482 113.485 168.759Z" fill="#455A64"/>
<g opacity="0.3">
<path d="M286.686 302.02H203.836C201.407 302.02 199.433 300.074 199.433 297.642V253.86C199.433 251.427 201.407 249.451 203.836 249.451H286.686C289.115 249.451 291.059 251.427 291.059 253.86V297.642C291.059 300.074 289.115 302.02 286.686 302.02Z" fill="black"/>
</g>
<path d="M294.824 296.425H208.603C207.115 296.425 205.9 295.209 205.9 293.719V246.532C205.9 245.042 207.115 243.826 208.603 243.826H294.824C296.342 243.826 297.527 245.042 297.527 246.532V293.719C297.527 295.209 296.342 296.425 294.824 296.425Z" fill="#0948B4"/>
<path fill-rule="evenodd" clip-rule="evenodd" d="M241.797 276.54H233.445L231.896 280.402H226.187L234.903 260.578H240.43L249.177 280.402H243.376L241.797 276.54ZM240.157 272.405L237.606 266.081L235.055 272.405H240.157Z" fill="white"/>
<path fill-rule="evenodd" clip-rule="evenodd" d="M264.483 261.49C265.799 262.078 266.811 262.929 267.52 264.044C268.249 265.139 268.613 266.436 268.613 267.936C268.613 269.416 268.249 270.703 267.52 271.797C266.811 272.892 265.799 273.733 264.483 274.321C263.167 274.929 261.608 275.233 259.806 275.233H256.374V280.402H250.756V260.578H259.806C261.608 260.578 263.167 260.882 264.483 261.49ZM262.084 270.064C262.671 269.557 262.965 268.848 262.965 267.936C262.965 267.004 262.671 266.284 262.084 265.777C261.497 265.271 260.626 265.017 259.472 265.017H256.374V270.794H259.472C260.626 270.794 261.497 270.551 262.084 270.064Z" fill="white"/>
<path d="M271.316 260.578H276.904V280.402H271.316V260.578Z" fill="white"/>
<path d="M108.017 179.668C108.108 179.668 108.169 208.825 108.169 244.794C108.169 280.762 108.108 309.919 108.017 309.919C107.926 309.919 107.865 280.762 107.865 244.794C107.865 208.825 107.926 179.668 108.017 179.668Z" fill="#455A64"/>
</g>
<path d="M239.092 528.999H119.919C117.909 528.999 116.272 527.361 116.272 525.395V411.659C116.272 409.646 117.909 408.055 119.919 408.055H239.092C241.055 408.055 242.692 409.646 242.692 411.659V525.395C242.692 527.361 241.055 528.999 239.092 528.999Z" fill="#CEDFFA"/>
<path d="M242.926 446.671C242.926 446.765 214.687 446.905 179.856 446.905C145.026 446.905 116.787 446.765 116.787 446.671C116.787 446.531 145.026 446.391 179.856 446.391C214.687 446.391 242.926 446.531 242.926 446.671Z" fill="#263238"/>
<path d="M242.926 485.47C242.926 485.611 214.687 485.751 179.856 485.751C145.026 485.751 116.787 485.611 116.787 485.47C116.787 485.33 145.026 485.236 179.856 485.236C214.687 485.236 242.926 485.33 242.926 485.47Z" fill="#263238"/>
<path d="M142.033 428.465C142.033 429.962 140.771 431.179 139.275 431.179C137.732 431.179 136.517 429.962 136.517 428.465C136.517 426.92 137.732 425.703 139.275 425.703C140.771 425.703 142.033 426.92 142.033 428.465Z" fill="white"/>
<path d="M151.898 428.465C151.898 429.962 150.635 431.179 149.139 431.179C147.596 431.179 146.381 429.962 146.381 428.465C146.381 426.92 147.596 425.703 149.139 425.703C150.635 425.703 151.898 426.92 151.898 428.465Z" fill="white"/>
<path d="M211.367 433.562H210.9C210.339 433.562 209.871 433.141 209.871 432.579V425.231C209.871 424.669 210.339 424.201 210.9 424.201H211.367C211.928 424.201 212.396 424.669 212.396 425.231V432.579C212.396 433.141 211.928 433.562 211.367 433.562Z" fill="#263238"/>
<path d="M217.726 433.562H217.258C216.697 433.562 216.229 433.141 216.229 432.579V425.231C216.229 424.669 216.697 424.201 217.258 424.201H217.726C218.287 424.201 218.707 424.669 218.707 425.231V432.579C218.707 433.141 218.287 433.562 217.726 433.562Z" fill="#263238"/>
<path d="M223.569 433.562H223.102C222.494 433.562 222.073 433.141 222.073 432.579V425.231C222.073 424.669 222.494 424.201 223.102 424.201H223.569C224.13 424.201 224.551 424.669 224.551 425.231V432.579C224.551 433.141 224.13 433.562 223.569 433.562Z" fill="white"/>
<path d="M204.962 433.562H204.494C203.933 433.562 203.466 433.141 203.466 432.579V425.231C203.466 424.669 203.933 424.201 204.494 424.201H204.962C205.523 424.201 205.99 424.669 205.99 425.231V432.579C205.99 433.141 205.523 433.562 204.962 433.562Z" fill="#FF725E"/>
<path d="M142.033 466.185C142.033 467.683 140.771 468.947 139.275 468.947C137.732 468.947 136.517 467.683 136.517 466.185C136.517 464.641 137.732 463.424 139.275 463.424C140.771 463.424 142.033 464.641 142.033 466.185Z" fill="white"/>
<path d="M151.337 466.185C151.337 467.683 150.122 468.947 148.579 468.947C147.083 468.947 145.867 467.683 145.867 466.185C145.867 464.641 147.083 463.424 148.579 463.424C150.122 463.424 151.337 464.641 151.337 466.185Z" fill="white"/>
<path d="M211.367 471.336H210.9C210.339 471.336 209.871 470.868 209.871 470.306V462.957C209.871 462.396 210.339 461.928 210.9 461.928H211.367C211.928 461.928 212.396 462.396 212.396 462.957V470.306C212.396 470.868 211.928 471.336 211.367 471.336Z" fill="#263238"/>
<path d="M217.726 471.336H217.258C216.697 471.336 216.229 470.868 216.229 470.306V462.957C216.229 462.396 216.697 461.928 217.258 461.928H217.726C218.287 461.928 218.707 462.396 218.707 462.957V470.306C218.707 470.868 218.287 471.336 217.726 471.336Z" fill="#263238"/>
<path d="M223.569 471.336H223.102C222.494 471.336 222.073 470.868 222.073 470.306V462.957C222.073 462.396 222.494 461.928 223.102 461.928H223.569C224.13 461.928 224.551 462.396 224.551 462.957V470.306C224.551 470.868 224.13 471.336 223.569 471.336Z" fill="white"/>
<path d="M204.962 471.336H204.494C203.933 471.336 203.466 470.868 203.466 470.306V462.957C203.466 462.396 203.933 461.928 204.494 461.928H204.962C205.523 461.928 205.99 462.396 205.99 462.957V470.306C205.99 470.868 205.523 471.336 204.962 471.336Z" fill="#FF725E"/>
<path d="M142.033 506.812C142.033 508.31 140.771 509.527 139.275 509.527C137.732 509.527 136.517 508.31 136.517 506.812C136.517 505.268 137.732 504.051 139.275 504.051C140.771 504.051 142.033 505.268 142.033 506.812Z" fill="white"/>
<path d="M152.132 506.812C152.132 508.31 150.917 509.527 149.374 509.527C147.878 509.527 146.662 508.31 146.662 506.812C146.662 505.268 147.878 504.051 149.374 504.051C150.917 504.051 152.132 505.268 152.132 506.812Z" fill="white"/>
<path d="M211.367 511.916H210.9C210.339 511.916 209.871 511.494 209.871 510.933V503.584C209.871 503.023 210.339 502.555 210.9 502.555H211.367C211.928 502.555 212.396 503.023 212.396 503.584V510.933C212.396 511.494 211.928 511.916 211.367 511.916Z" fill="#263238"/>
<path d="M217.726 511.916H217.258C216.697 511.916 216.229 511.494 216.229 510.933V503.584C216.229 503.023 216.697 502.555 217.258 502.555H217.726C218.287 502.555 218.707 503.023 218.707 503.584V510.933C218.707 511.494 218.287 511.916 217.726 511.916Z" fill="#263238"/>
<path d="M223.569 511.916H223.102C222.494 511.916 222.073 511.494 222.073 510.933V503.584C222.073 503.023 222.494 502.555 223.102 502.555H223.569C224.13 502.555 224.551 503.023 224.551 503.584V510.933C224.551 511.494 224.13 511.916 223.569 511.916Z" fill="white"/>
<path d="M204.962 511.916H204.494C203.933 511.916 203.466 511.494 203.466 510.933V503.584C203.466 503.023 203.933 502.555 204.494 502.555H204.962C205.523 502.555 205.99 503.023 205.99 503.584V510.933C205.99 511.494 205.523 511.916 204.962 511.916Z" fill="#FF725E"/>
<path d="M179.295 235.16C179.108 232.96 176.771 231.182 174.62 231.65C173.404 229.216 170.038 228.186 167.7 229.497C166.578 230.152 165.737 231.182 164.662 231.837C163.586 232.492 162.371 232.773 161.249 233.288C160.127 233.803 159.098 234.739 158.958 235.956C158.771 237.313 159.846 238.577 161.155 239.092C162.417 239.607 163.82 239.513 165.176 239.466C164.615 239.794 164.475 240.683 164.755 241.292C165.082 241.9 165.69 242.321 166.345 242.555C168.449 243.398 171.067 242.93 172.75 241.385L175.321 239.419C177.519 239.466 179.482 237.36 179.295 235.16Z" fill="#263238"/>
<path d="M172.89 243.725C172.422 244.193 171.581 244.147 171.113 243.678C170.599 243.21 170.505 242.462 170.692 241.853C170.879 241.198 171.347 240.683 171.908 240.309C172.469 239.934 173.077 239.747 173.731 239.513C174.713 239.232 175.695 238.998 176.723 238.951C177.098 238.951 177.472 238.951 177.799 239.092C178.173 239.232 178.453 239.56 178.453 239.887C178.5 240.402 178.079 240.823 177.659 241.104C176.116 242.274 174.479 243.257 172.75 244.1" fill="#FF725E"/>
<path d="M171.394 243.442C169.01 240.727 162.932 241.102 161.529 242.88C159.425 241.757 156.527 242.693 155.451 244.799C153.332 245.268 151.197 245.736 149.046 246.204C147.924 246.391 146.802 246.672 145.961 247.421C145.119 248.123 144.698 249.527 145.4 250.416C143.109 250.978 142.22 254.348 143.903 255.986C142.968 256.922 143.109 258.747 144.231 259.496C142.454 261.603 141.005 264.036 140.023 266.611C139.602 267.734 139.275 268.904 139.696 270.027C140.07 271.104 141.519 271.853 142.454 271.198C141.8 272.04 141.753 273.351 142.314 274.287C141.192 274.287 140.865 275.972 141.613 276.767C142.361 277.563 143.576 277.657 144.651 277.61C145.727 277.61 146.896 277.563 147.784 278.172C147.737 278.499 147.644 278.733 147.457 278.874C145.587 280.371 145.026 282.993 146.381 284.958C146.537 285.146 146.662 285.317 146.755 285.473C147.363 286.362 148.906 287.205 149.888 287.72C152.319 288.984 153.815 288.75 156.527 289.171C155.779 290.949 160.22 294.881 165.316 291.09C175.462 293.898 182.802 294.975 193.321 295.068C194.817 295.115 196.64 294.881 197.295 293.57C198.511 293.898 199.82 293.336 200.755 292.447C201.643 291.605 202.204 290.435 202.765 289.311C205.383 288.609 207.394 286.128 207.534 283.414C209.31 282.056 210.433 279.903 210.62 277.704C213.144 276.955 214.547 273.678 213.378 271.291C212.864 268.202 211.835 265.16 210.339 262.398C212.069 262.024 212.723 259.73 212.022 258.092C211.321 256.501 209.778 255.424 208.282 254.488C209.544 254.816 210.713 253.224 210.386 251.914C210.105 250.603 208.936 249.714 207.814 249.012C206.131 247.982 204.355 247.187 202.485 246.625C201.877 244.331 199.025 241.71 196.921 240.727C188.365 236.609 182.381 235.532 171.394 243.442Z" fill="#263238"/>
<path d="M164.802 257.203C164.708 255.377 164.428 253.599 166.204 253.318L184.391 247.842C190.235 246.953 194.49 254.02 195.144 259.964C195.845 266.517 196.453 274.521 195.892 279.482C194.77 289.405 186.027 292.073 186.027 292.073L186.261 298.111C185.513 302.744 184.344 307.987 182.427 309.859C176.022 308.642 165.503 294.46 165.503 294.46L164.802 257.203Z" fill="#AE7461"/>
<path d="M185.603 274.941C185.603 274.847 186.445 274.66 187.801 274.426C188.128 274.379 188.455 274.332 188.502 274.051C188.595 273.817 188.408 273.443 188.221 273.068C187.878 272.226 187.504 271.352 187.099 270.447C185.51 266.75 184.341 263.707 184.481 263.614C184.621 263.567 186.024 266.516 187.614 270.213C188.019 271.118 188.393 271.992 188.736 272.834C188.876 273.209 189.156 273.677 188.969 274.192C188.923 274.473 188.642 274.66 188.455 274.753C188.221 274.8 188.034 274.8 187.847 274.847C186.492 274.987 185.603 275.034 185.603 274.941Z" fill="#263238"/>
<path d="M186.026 292.064C186.026 292.064 180.649 291.737 173.917 288.086C173.917 288.086 176.208 294.311 186.119 295.06L186.026 292.064Z" fill="#6F4439"/>
<path d="M179.808 259.776C179.668 260.15 178.312 260.01 176.722 260.291C175.133 260.525 173.87 261.039 173.636 260.712C173.543 260.571 173.73 260.197 174.244 259.822C174.759 259.448 175.553 259.074 176.535 258.933C177.47 258.793 178.358 258.886 178.966 259.12C179.527 259.308 179.855 259.588 179.808 259.776Z" fill="#263238"/>
<path d="M192.899 259.541C192.665 259.869 191.73 259.588 190.561 259.635C189.439 259.635 188.504 259.915 188.27 259.588C188.177 259.447 188.317 259.12 188.691 258.839C189.112 258.511 189.766 258.23 190.561 258.23C191.356 258.23 192.01 258.465 192.431 258.792C192.852 259.073 192.992 259.401 192.899 259.541Z" fill="#263238"/>
<path d="M199.585 264.693C199.492 263.148 198.977 261.557 197.949 260.433C197.341 259.825 196.593 259.357 196.079 258.655C195.003 257.204 195.144 255.191 194.676 253.413C194.068 251.119 192.292 249.2 190.048 248.404C188.224 247.749 186.12 247.843 184.391 246.907C183.082 246.205 182.1 245.034 180.791 244.426C178.219 243.256 175.227 244.566 172.796 246.017C172.328 247.983 173.544 249.621 174.713 251.26C175.882 252.851 177.799 253.881 179.809 254.021C181.352 254.115 183.128 253.74 184.204 254.864C185.372 255.987 184.905 258.046 185.84 259.357C187.196 261.276 190.235 260.527 192.245 261.697C193.788 262.633 194.442 264.459 195.237 266.097C195.985 267.688 197.341 269.373 199.118 269.28C199.398 267.782 199.679 266.237 199.585 264.693Z" fill="#263238"/>
<path d="M176.631 249.573C172.142 249.48 167.654 250.322 163.446 251.961C162.184 252.429 160.922 253.037 160.174 254.207C159.566 255.19 159.472 256.454 159.519 257.624C159.566 261.322 161.062 265.862 162.465 269.278L167.046 272.04C170.6 271.197 168.963 265.019 168.823 261.977C171.301 260.854 173.031 258.232 173.031 255.565C175.088 254.254 176.444 251.961 176.631 249.573Z" fill="#263238"/>
<path d="M166.996 270.67C166.856 268.564 164.284 268.143 162.461 269.266C161.432 269.828 160.684 271.045 160.825 273.292C161.199 279.283 167.136 277.691 167.136 277.504C167.136 277.41 167.183 273.151 166.996 270.67Z" fill="#AE7461"/>
<path d="M165.176 275.362C165.129 275.362 165.083 275.456 164.896 275.549C164.709 275.596 164.428 275.69 164.101 275.596C163.446 275.409 162.885 274.426 162.792 273.35C162.745 272.788 162.839 272.273 162.979 271.852C163.166 271.384 163.4 271.056 163.727 270.962C164.054 270.916 164.288 271.056 164.381 271.243C164.428 271.384 164.428 271.524 164.428 271.524C164.475 271.524 164.568 271.431 164.522 271.197C164.475 271.056 164.381 270.916 164.241 270.822C164.101 270.728 163.867 270.682 163.68 270.682C163.213 270.775 162.839 271.197 162.652 271.665C162.418 272.179 162.324 272.788 162.371 273.396C162.465 274.566 163.166 275.69 164.054 275.877C164.475 275.971 164.802 275.83 164.989 275.643C165.176 275.503 165.176 275.362 165.176 275.362Z" fill="#6F4439"/>
<path d="M164.474 277.893C164.506 277.893 164.506 277.908 164.474 277.939C164.474 277.986 164.474 278.08 164.381 278.174C164.334 278.408 164.1 278.642 163.726 278.829C163.352 278.969 162.838 279.11 162.23 279.11C161.919 279.141 161.591 279.125 161.249 279.063C160.921 279.016 160.547 278.922 160.22 278.735L160.313 278.688C160.173 279.531 159.612 280.42 158.724 280.888C157.789 281.356 156.526 281.309 155.545 280.607L155.638 280.561C155.498 280.841 155.217 281.029 154.89 281.122C154.563 281.169 154.236 281.122 153.908 281.029C153.581 280.888 153.301 280.701 153.114 280.373C152.927 280.093 152.833 279.765 152.833 279.39C152.786 278.688 153.02 277.986 153.488 277.425C153.908 276.816 154.469 276.348 155.03 275.88L155.077 276.02C154.563 275.693 154.236 275.178 154.095 274.57C154.002 274.008 154.049 273.399 154.282 272.838C154.516 272.276 154.89 271.761 155.311 271.34C155.778 270.872 156.246 270.497 156.713 270.123V270.263C156.293 269.842 156.106 269.14 156.152 268.532C156.152 267.876 156.433 267.268 156.807 266.753C157.602 265.77 158.677 265.208 159.706 264.694L159.659 264.834C159.332 263.477 159.752 262.073 160.641 261.136C161.482 260.2 162.791 259.779 164.007 259.919L163.913 260.013C163.68 258.937 164.054 257.86 164.708 257.064C165.363 256.315 166.298 255.847 167.233 255.847L167.139 255.941C167.139 254.818 167.747 253.882 168.495 253.32C169.243 252.711 170.178 252.477 171.02 252.618L170.926 252.665C170.973 252.103 171.16 251.588 171.441 251.12C171.69 250.683 171.986 250.324 172.329 250.044C172.983 249.435 173.778 249.201 174.386 249.154C174.448 249.154 174.526 249.154 174.62 249.154C174.682 249.154 174.744 249.154 174.807 249.154C174.947 249.154 175.087 249.154 175.181 249.201C175.415 249.248 175.602 249.295 175.742 249.342C175.898 249.404 176.022 249.451 176.116 249.482C176.178 249.513 176.209 249.529 176.209 249.529C176.209 249.56 176.163 249.56 176.069 249.529C176.007 249.498 175.898 249.451 175.742 249.388C175.602 249.342 175.415 249.295 175.181 249.248C175.087 249.201 174.947 249.201 174.807 249.201C174.744 249.201 174.682 249.201 174.62 249.201C174.526 249.201 174.448 249.201 174.386 249.201C173.778 249.248 173.03 249.529 172.376 250.09C172.048 250.371 171.768 250.746 171.534 251.167C171.254 251.635 171.067 252.103 171.067 252.665V252.758L170.973 252.711C170.225 252.618 169.29 252.852 168.589 253.414C167.887 253.975 167.28 254.865 167.28 255.894V255.988H167.233C166.345 255.988 165.456 256.456 164.802 257.205C164.194 257.907 163.82 258.937 164.054 259.966L164.1 260.06H163.96C162.838 259.919 161.576 260.388 160.734 261.277C159.893 262.166 159.565 263.523 159.846 264.787L159.893 264.834L159.799 264.881C158.771 265.396 157.695 265.911 156.947 266.847C156.573 267.362 156.339 267.923 156.339 268.532C156.293 269.14 156.433 269.749 156.854 270.123L156.947 270.217L156.854 270.263C155.872 271.012 154.89 271.808 154.423 272.885C154.236 273.399 154.189 274.008 154.282 274.57C154.376 275.084 154.703 275.599 155.124 275.88L155.264 275.927L155.171 276.02C154.563 276.489 154.002 276.957 153.581 277.518C153.16 278.08 152.927 278.735 152.973 279.39C153.02 280.046 153.347 280.701 153.955 280.888C154.516 281.122 155.217 280.982 155.545 280.514L155.591 280.42L155.638 280.467C156.573 281.169 157.789 281.216 158.677 280.748C159.519 280.327 160.08 279.484 160.173 278.688L160.22 278.642H160.267C160.594 278.829 160.968 278.922 161.295 278.969C161.607 279.032 161.919 279.063 162.23 279.063C162.838 279.016 163.306 278.922 163.68 278.782C164.054 278.595 164.287 278.361 164.381 278.174C164.474 277.986 164.474 277.893 164.474 277.893Z" fill="#455A64"/>
<path d="M141.706 271.479C141.706 271.479 141.612 271.385 141.472 271.104C141.378 270.87 141.191 270.449 141.145 269.934C141.145 269.419 141.238 268.717 141.659 268.062C142.08 267.407 142.828 266.798 143.809 266.658L143.763 266.752C143.576 265.815 143.716 264.739 144.324 263.803C144.604 263.288 144.978 262.867 145.493 262.539C145.96 262.211 146.568 262.024 147.129 261.743C147.409 261.65 147.643 261.509 147.877 261.322C148.126 261.104 148.313 260.854 148.438 260.573C148.718 260.012 148.812 259.309 149.139 258.701C149.794 257.484 151.29 256.642 152.786 256.876L152.692 256.969C152.459 255.612 152.926 254.114 153.908 253.038C154.983 251.914 156.526 251.353 157.975 251.54L157.882 251.633C157.695 249.902 158.677 248.17 160.126 247.468C161.529 246.719 163.259 246.906 164.427 247.702H164.334C164.942 247.093 165.69 246.719 166.391 246.438C167.139 246.157 167.887 246.017 168.542 245.923C169.944 245.783 171.16 245.923 172.095 246.157C173.077 246.438 173.778 246.766 174.199 247.047C174.432 247.187 174.573 247.327 174.713 247.421C174.806 247.483 174.853 247.53 174.853 247.561C174.853 247.561 174.619 247.374 174.199 247.093C173.731 246.813 173.03 246.485 172.095 246.251C171.113 246.064 169.944 245.876 168.588 246.064C167.887 246.11 167.186 246.298 166.438 246.578C165.736 246.813 165.035 247.234 164.427 247.842H164.381H164.334C163.212 247.093 161.575 246.906 160.173 247.608C158.817 248.31 157.882 249.948 158.069 251.633V251.727H157.975C156.573 251.54 155.077 252.055 154.048 253.131C153.066 254.161 152.646 255.659 152.833 256.969L152.879 257.063H152.739C151.337 256.829 149.934 257.625 149.279 258.795C148.952 259.356 148.859 260.012 148.578 260.62C148.438 260.948 148.251 261.229 148.017 261.416C147.737 261.65 147.456 261.79 147.176 261.931C146.615 262.165 146.054 262.352 145.586 262.679C145.072 262.96 144.698 263.382 144.417 263.85C143.856 264.786 143.716 265.815 143.903 266.705V266.798H143.856C142.874 266.939 142.126 267.5 141.752 268.109C141.285 268.717 141.191 269.419 141.238 269.934C141.238 270.449 141.378 270.87 141.519 271.104C141.612 271.338 141.706 271.479 141.706 271.479Z" fill="#455A64"/>
<path d="M198.931 273.071C198.931 273.118 198.791 272.931 198.885 272.603C198.931 272.463 199.072 272.276 199.259 272.088C199.446 271.948 199.679 271.808 199.96 271.714C200.287 271.62 200.614 271.574 200.895 271.339C201.222 271.152 201.456 270.778 201.596 270.403C201.736 269.982 201.783 269.514 201.736 268.999C201.736 268.531 201.643 268.016 201.643 267.455C201.643 266.285 202.11 265.161 202.391 263.897C202.531 263.289 202.578 262.587 202.484 261.932C202.344 261.276 202.017 260.621 201.409 260.247C200.801 259.872 200.053 259.732 199.305 259.545C198.931 259.404 198.557 259.264 198.23 259.03C197.903 258.796 197.622 258.468 197.482 258.094C197.108 257.345 197.014 256.502 196.827 255.707C196.734 255.332 196.64 254.958 196.407 254.583C196.22 254.256 195.892 253.975 195.565 253.834C195.051 253.6 194.443 253.647 193.882 253.6C193.601 253.554 193.321 253.507 193.04 253.366C192.807 253.273 192.573 253.039 192.386 252.805C192.059 252.337 191.918 251.775 191.778 251.307C191.622 250.776 191.373 250.324 191.03 249.95C190.329 249.154 189.347 248.733 188.412 248.686C187.43 248.686 186.542 249.013 185.887 249.622L185.794 249.669L185.747 249.575C184.999 247.984 183.55 246.907 182.194 246.533C181.493 246.299 180.791 246.299 180.183 246.345C179.576 246.392 179.015 246.58 178.547 246.814C177.612 247.282 177.098 247.937 176.817 248.405C176.63 248.639 176.584 248.826 176.49 248.967C176.537 248.826 176.63 248.639 176.771 248.405C177.051 247.89 177.565 247.188 178.5 246.72C178.968 246.486 179.529 246.299 180.183 246.252C180.791 246.158 181.493 246.205 182.241 246.392C183.643 246.814 185.139 247.843 185.887 249.528L185.747 249.481C186.448 248.873 187.383 248.499 188.412 248.545C189.394 248.545 190.422 249.013 191.124 249.809C191.498 250.23 191.778 250.698 191.918 251.213C192.105 251.728 192.246 252.29 192.526 252.711C192.853 253.179 193.368 253.366 193.929 253.413C194.443 253.46 195.051 253.413 195.612 253.647C196.033 253.834 196.36 254.115 196.594 254.49C196.781 254.864 196.921 255.285 197.014 255.707C197.201 256.502 197.295 257.298 197.622 258C197.809 258.374 198.043 258.655 198.323 258.889C198.651 259.123 198.978 259.264 199.352 259.357C200.053 259.591 200.848 259.685 201.503 260.106C201.783 260.293 202.064 260.574 202.251 260.902C202.438 261.183 202.578 261.557 202.625 261.885C202.765 262.587 202.671 263.289 202.531 263.944C202.251 265.208 201.783 266.331 201.783 267.455C201.783 267.97 201.83 268.484 201.83 268.999C201.877 269.514 201.83 269.982 201.69 270.403C201.549 270.825 201.269 271.199 200.942 271.433C200.661 271.62 200.287 271.714 200.007 271.808C199.726 271.901 199.446 271.995 199.259 272.135C199.118 272.276 198.978 272.463 198.931 272.603C198.838 272.931 198.931 273.071 198.931 273.071Z" fill="#455A64"/>
<path d="M210.479 263.71C210.417 263.616 210.354 263.507 210.292 263.382C210.136 263.07 209.933 262.633 209.684 262.072C209.404 261.51 209.123 260.808 208.656 260.059C208.235 259.263 207.627 258.421 206.645 257.906C206.178 257.625 205.617 257.438 205.056 257.204C204.775 257.064 204.495 256.923 204.261 256.736C203.98 256.502 203.793 256.268 203.653 255.94C203.373 255.332 203.326 254.63 203.139 253.974C202.999 253.647 202.811 253.366 202.531 253.179C202.25 252.945 201.923 252.804 201.596 252.711C201.222 252.617 200.848 252.477 200.521 252.289C200.193 252.149 199.866 251.821 199.726 251.447C199.352 250.745 199.352 249.902 199.212 249.153C199.118 248.732 199.025 248.358 198.791 248.03C198.604 247.702 198.23 247.515 197.856 247.422C197.061 247.234 196.219 247.515 195.331 247.375C194.91 247.328 194.49 247.094 194.209 246.766C193.882 246.486 193.648 246.111 193.461 245.737C193.227 245.409 193.04 245.035 192.806 244.707C192.526 244.379 192.245 244.098 191.918 243.958C191.217 243.63 190.375 243.818 189.627 243.958C188.926 244.145 188.131 244.332 187.383 244.192C186.635 244.005 185.981 243.63 185.419 243.256C184.812 242.928 184.251 242.507 183.643 242.273C182.427 241.852 181.165 241.899 180.09 242.179C179.014 242.46 178.126 242.975 177.472 243.537C176.77 244.098 176.349 244.754 176.022 245.269C175.711 245.799 175.492 246.22 175.368 246.532C175.337 246.688 175.29 246.813 175.227 246.907C175.259 246.813 175.305 246.688 175.368 246.532C175.461 246.22 175.648 245.783 175.929 245.222C176.303 244.707 176.724 244.052 177.378 243.443C178.079 242.882 178.968 242.32 180.043 242.039C181.118 241.758 182.427 241.711 183.69 242.133C184.344 242.367 184.905 242.788 185.466 243.116C186.074 243.49 186.682 243.864 187.43 244.005C188.131 244.145 188.879 244.005 189.627 243.818C190.001 243.724 190.375 243.63 190.796 243.584C191.17 243.584 191.591 243.63 191.965 243.818C192.386 243.958 192.666 244.286 192.947 244.613C193.18 244.941 193.367 245.315 193.601 245.643C193.788 246.017 194.022 246.345 194.303 246.626C194.583 246.954 194.957 247.141 195.378 247.188C196.173 247.328 197.014 247.047 197.902 247.234C198.323 247.328 198.697 247.562 198.931 247.936C199.165 248.311 199.305 248.685 199.352 249.107C199.539 249.902 199.539 250.698 199.866 251.4C200.006 251.728 200.287 252.009 200.614 252.149C200.941 252.336 201.269 252.43 201.643 252.57C201.97 252.664 202.344 252.804 202.624 253.038C202.952 253.225 203.139 253.6 203.279 253.928C203.513 254.583 203.513 255.285 203.793 255.893C204.027 256.455 204.588 256.829 205.102 257.064C205.663 257.344 206.224 257.485 206.739 257.766C207.721 258.327 208.328 259.217 208.749 259.965C209.17 260.761 209.497 261.463 209.731 262.025C209.98 262.587 210.183 263.023 210.339 263.335C210.401 263.491 210.448 263.616 210.479 263.71Z" fill="#455A64"/>
<path d="M204.167 257.533C204.167 257.533 204.198 257.533 204.261 257.533C204.354 257.533 204.448 257.533 204.588 257.627C204.822 257.72 205.149 258.095 205.196 258.657C205.196 258.937 205.149 259.265 205.056 259.546C204.962 259.873 204.869 260.201 204.915 260.576C204.915 260.95 205.102 261.324 205.336 261.699C205.57 262.073 205.85 262.401 206.084 262.869C206.318 263.243 206.458 263.852 206.224 264.367C206.037 264.882 205.663 265.303 205.476 265.818C205.289 266.333 205.43 266.941 205.663 267.456C205.897 268.018 206.224 268.532 206.458 269.141C206.552 269.469 206.645 269.796 206.645 270.124C206.645 270.451 206.552 270.779 206.411 271.107C206.131 271.715 205.663 272.23 205.289 272.839C204.869 273.353 204.541 274.009 204.635 274.711C204.728 275.413 205.102 276.021 205.383 276.723C205.523 277.098 205.617 277.472 205.617 277.847C205.57 278.221 205.476 278.596 205.336 278.923C204.962 279.578 204.448 280.093 204.027 280.608C203.56 281.123 203.185 281.685 202.998 282.293C202.765 282.902 202.671 283.557 202.344 284.165C202.204 284.446 202.017 284.727 201.736 284.914C201.502 285.101 201.175 285.242 200.895 285.335C200.614 285.429 200.334 285.523 200.1 285.616C199.819 285.741 199.586 285.897 199.399 286.084C198.978 286.459 198.697 286.927 198.417 287.395C198.136 287.816 197.856 288.284 197.575 288.659C197.014 289.454 196.266 289.969 195.518 290.203C194.77 290.437 194.069 290.437 193.554 290.39C192.993 290.297 192.619 290.156 192.339 290.016C192.105 289.922 191.965 289.829 191.965 289.829C192.012 289.782 192.479 290.156 193.554 290.297C194.069 290.39 194.77 290.344 195.471 290.11C196.173 289.876 196.921 289.361 197.482 288.565C197.762 288.191 197.996 287.769 198.276 287.301C198.557 286.833 198.884 286.365 199.305 285.991C199.492 285.804 199.726 285.632 200.006 285.476C200.287 285.336 200.567 285.289 200.848 285.195C201.128 285.101 201.409 284.961 201.643 284.774C201.876 284.633 202.063 284.353 202.204 284.072C202.484 283.51 202.578 282.902 202.811 282.246C202.998 281.591 203.419 281.029 203.887 280.468C204.354 279.953 204.822 279.438 205.149 278.83C205.289 278.502 205.43 278.174 205.43 277.847C205.43 277.472 205.336 277.145 205.196 276.817C204.962 276.115 204.541 275.46 204.448 274.711C204.401 274.383 204.495 273.962 204.635 273.634C204.728 273.307 204.915 272.979 205.149 272.698C205.523 272.136 205.991 271.622 206.271 271.013C206.396 270.732 206.458 270.436 206.458 270.124C206.458 269.796 206.411 269.515 206.271 269.188C206.084 268.626 205.757 268.064 205.523 267.503C205.243 266.988 205.149 266.333 205.336 265.771C205.57 265.209 205.944 264.788 206.084 264.32C206.318 263.852 206.224 263.337 205.991 262.916C205.757 262.495 205.476 262.12 205.243 261.746C205.009 261.418 204.822 260.997 204.775 260.622C204.775 260.201 204.869 259.873 204.962 259.546C205.056 259.218 205.102 258.937 205.102 258.657C205.056 258.142 204.822 257.767 204.588 257.627C204.308 257.486 204.167 257.58 204.167 257.533Z" fill="#455A64"/>
<path d="M181.306 276.956C181.493 276.534 181.96 276.347 182.334 276.488C183.581 276.956 184.828 277.424 186.075 277.892L186.495 278.032C186.308 278.687 186.028 279.67 185.701 280.232C185.326 280.794 184.719 281.308 184.064 281.402C183.55 281.449 182.895 281.262 182.475 280.981C181.727 280.513 180.978 279.998 180.838 279.109C180.698 278.453 181.072 277.564 181.306 276.956Z" fill="#6F4439"/>
<path d="M160.968 276.909C160.968 276.909 160.594 277.003 160.08 277.424C159.565 277.799 158.864 278.594 158.63 279.811C158.49 280.42 158.49 281.075 158.677 281.777C158.864 282.479 159.191 283.134 159.752 283.743C160.313 284.351 161.015 284.819 161.856 285.1C162.651 285.381 163.633 285.428 164.521 285.147C165.409 284.913 166.204 284.445 166.765 283.79C167.373 283.134 167.747 282.339 167.887 281.543C168.121 279.952 167.56 278.454 166.718 277.611C166.251 277.143 165.783 276.909 165.316 276.722C164.895 276.535 164.474 276.441 164.147 276.395C163.82 276.395 163.539 276.395 163.399 276.441C163.212 276.488 163.119 276.535 163.119 276.535C163.119 276.535 163.493 276.395 164.147 276.488C164.474 276.535 164.848 276.629 165.269 276.816C165.69 277.05 166.157 277.284 166.578 277.705C167.373 278.548 167.934 279.952 167.654 281.496C167.513 282.245 167.186 282.994 166.625 283.603C166.064 284.258 165.316 284.726 164.428 284.96C163.586 285.194 162.698 285.147 161.903 284.913C161.108 284.632 160.454 284.164 159.893 283.603C159.378 283.041 159.051 282.386 158.864 281.73C158.677 281.075 158.677 280.42 158.771 279.858C159.004 278.688 159.612 277.892 160.126 277.471C160.641 277.05 160.968 276.909 160.968 276.909Z" fill="#E0E0E0"/>
<path d="M180.793 269.183C180.84 269.838 180.326 270.494 179.624 270.541C178.876 270.634 178.268 270.119 178.222 269.417C178.175 268.762 178.689 268.153 179.391 268.06C180.139 268.013 180.746 268.481 180.793 269.183Z" fill="#263238"/>
<path d="M193.274 268.863C193.32 269.565 192.806 270.173 192.105 270.22C191.357 270.314 190.749 269.799 190.702 269.097C190.655 268.442 191.17 267.833 191.871 267.74C192.619 267.693 193.227 268.161 193.274 268.863Z" fill="#263238"/>
<path d="M192.761 264.079C192.621 264.266 191.639 263.611 190.377 263.751C189.068 263.845 188.226 264.734 188.086 264.547C187.993 264.5 188.133 264.126 188.46 263.751C188.834 263.377 189.489 262.956 190.283 262.862C191.078 262.768 191.78 263.049 192.2 263.377C192.621 263.658 192.808 263.985 192.761 264.079Z" fill="#263238"/>
<path d="M180.557 265.121C180.37 265.308 179.294 264.465 177.751 264.512C176.255 264.465 175.133 265.355 174.946 265.121C174.853 265.027 175.04 264.699 175.507 264.325C176.022 263.904 176.816 263.529 177.798 263.529C178.733 263.529 179.528 263.904 179.996 264.278C180.51 264.699 180.65 265.027 180.557 265.121Z" fill="#263238"/>
<path d="M184.906 280.935C184.906 280.935 184.813 281.076 184.485 281.216C184.205 281.357 183.69 281.45 183.129 281.357C182.522 281.216 181.867 280.935 181.259 280.374C180.979 280.093 180.745 279.672 180.652 279.25C180.558 278.829 180.605 278.361 180.698 277.893C180.792 277.472 180.979 277.05 181.166 276.676C181.259 276.489 181.4 276.255 181.727 276.161C182.007 276.114 182.194 276.208 182.381 276.255C183.036 276.536 183.659 276.785 184.252 277.004C185.28 277.472 185.935 277.753 185.935 277.799C185.888 277.846 185.233 277.659 184.158 277.285C183.566 277.097 182.927 276.879 182.241 276.629C181.867 276.442 181.68 276.489 181.493 276.863C181.353 277.191 181.166 277.612 181.072 277.987C180.885 278.782 181.026 279.625 181.54 280.093C182.054 280.608 182.662 280.935 183.176 281.076C183.69 281.216 184.158 281.169 184.439 281.076C184.719 280.982 184.906 280.889 184.906 280.935Z" fill="#263238"/>
<path d="M209.918 239.092C209.871 239.139 209.404 238.624 208.282 238.156C207.721 237.922 206.973 237.735 206.131 237.781C205.243 237.781 204.261 238.015 203.373 238.577L203.232 238.624L203.186 238.53C202.578 237.5 201.503 236.658 200.194 236.284C198.838 235.956 197.248 236.05 195.986 236.986L195.799 237.079L195.705 236.939C194.583 235.394 192.713 234.177 190.563 233.85C188.973 233.569 187.29 233.85 185.934 234.552C184.531 235.207 183.409 236.237 182.661 237.407L182.615 237.5H182.521C180.698 237.547 179.061 238.015 177.706 238.671C176.35 239.326 175.274 240.168 174.48 240.87C172.89 242.415 172.376 243.585 172.282 243.538C172.282 243.538 172.313 243.476 172.376 243.351C172.469 243.211 172.563 242.977 172.703 242.743C173.03 242.228 173.545 241.526 174.339 240.73C175.134 239.934 176.209 239.092 177.565 238.437C178.921 237.735 180.651 237.22 182.521 237.126L182.381 237.22C183.129 236.003 184.298 234.879 185.747 234.177C187.196 233.475 188.926 233.148 190.656 233.428C192.853 233.803 194.817 235.067 195.986 236.705L195.752 236.658C197.108 235.675 198.884 235.581 200.287 235.956C201.69 236.377 202.812 237.266 203.42 238.343L203.232 238.296C204.214 237.734 205.243 237.5 206.131 237.547C207.019 237.547 207.768 237.735 208.329 238.015C208.89 238.249 209.31 238.53 209.544 238.764C209.793 238.983 209.918 239.092 209.918 239.092Z" fill="#263238"/>
<path d="M169.383 237.031C169.383 237.031 168.869 237.312 167.887 237.359C166.905 237.452 165.316 237.218 163.913 235.955C163.259 235.346 162.698 234.457 162.464 233.38C162.23 232.304 162.324 231.087 162.791 229.963C163.306 228.84 164.287 227.81 165.55 227.342C166.812 226.828 168.308 226.734 169.664 227.296L169.43 227.342C169.991 226.687 170.786 226.219 171.674 226.079C172.422 225.938 173.17 225.985 173.872 226.266C174.573 226.5 175.134 227.015 175.508 227.576C176.303 228.747 176.443 230.291 175.882 231.461L175.601 231.227C176.583 230.666 177.799 230.759 178.687 231.18C179.622 231.602 180.277 232.444 180.511 233.333C180.978 235.112 180.23 236.75 179.295 237.64C178.36 238.529 177.331 238.856 176.677 238.997C176.35 239.044 176.069 239.09 175.882 239.09C175.695 239.09 175.601 239.09 175.601 239.09C175.601 239.044 175.976 239.044 176.63 238.856C177.285 238.716 178.266 238.342 179.155 237.452C179.996 236.61 180.698 235.018 180.183 233.427C179.949 232.631 179.388 231.882 178.547 231.508C177.705 231.087 176.63 231.04 175.789 231.555L175.227 231.882L175.508 231.321C176.022 230.244 175.929 228.887 175.181 227.81C174.853 227.296 174.339 226.874 173.731 226.64C173.124 226.406 172.422 226.313 171.768 226.453C170.973 226.593 170.225 227.015 169.757 227.623L169.664 227.717L169.524 227.67C168.261 227.155 166.859 227.202 165.69 227.67C164.521 228.138 163.586 229.027 163.119 230.104C162.651 231.134 162.604 232.304 162.791 233.287C162.978 234.316 163.493 235.159 164.1 235.767C165.409 236.984 166.906 237.218 167.841 237.218C168.822 237.218 169.337 236.984 169.383 237.031Z" fill="#263238"/>
<path d="M140.911 252.569C140.911 252.569 140.88 252.491 140.818 252.335C140.755 252.179 140.678 251.945 140.584 251.633C140.444 251.025 140.304 250.089 140.491 248.919C140.724 247.748 141.332 246.344 142.594 245.268C143.857 244.238 145.68 243.489 147.644 243.723L147.457 243.864C148.205 242.272 149.654 240.821 151.477 240.026C152.833 239.464 154.329 239.324 155.685 239.558C157.041 239.792 158.257 240.353 159.238 241.102H159.005C160.454 240.306 161.95 240.026 163.259 240.072C164.615 240.072 165.737 240.4 166.625 240.728C167.514 241.102 168.121 241.523 168.542 241.851C168.916 242.179 169.103 242.366 169.103 242.366C169.056 242.459 168.262 241.617 166.532 240.962C165.643 240.634 164.568 240.353 163.259 240.353C161.997 240.353 160.547 240.681 159.192 241.383L159.098 241.477L159.005 241.383C158.07 240.681 156.901 240.166 155.592 239.932C154.329 239.745 152.927 239.885 151.618 240.4C149.888 241.149 148.532 242.506 147.784 244.004L147.737 244.144H147.597C145.774 243.91 143.997 244.566 142.828 245.549C141.613 246.532 141.005 247.842 140.771 248.965C140.491 250.089 140.584 251.025 140.724 251.633C140.818 252.242 140.958 252.569 140.911 252.569Z" fill="#263238"/>
<path d="M247.413 363.595L244.047 358.493L238.624 355.778L238.437 355.638C236.66 354.327 234.416 353.906 232.312 354.468C230.115 355.076 227.17 355.778 224.598 356.246L218.801 354.655V366.028L248.161 364.156L247.413 363.595Z" fill="#AE7461"/>
<path d="M247.228 363.261C247.228 363.214 246.76 362.793 245.965 362.137C245.17 361.482 244.048 360.593 242.833 359.61C242.428 359.298 242.038 358.986 241.664 358.674H241.617H241.57C240.402 358.44 239.326 358.252 238.578 358.112C237.83 358.018 237.409 357.972 237.409 358.018C237.363 358.065 237.83 358.159 238.532 358.346C239.28 358.533 240.308 358.767 241.524 359.001L241.43 358.954C241.804 359.266 242.194 359.579 242.599 359.891C243.861 360.873 244.983 361.716 245.825 362.324C246.666 362.933 247.181 363.307 247.228 363.261Z" fill="#6F4439"/>
<path d="M244.935 364.251C244.982 364.158 243.065 363.034 240.728 361.724C240.354 361.537 240.011 361.349 239.699 361.162L239.652 361.115H239.605C237.455 361.022 235.865 360.975 235.865 361.069C235.819 361.162 237.408 361.303 239.559 361.49L239.512 361.443C239.824 361.63 240.167 361.833 240.541 362.052C242.925 363.362 244.889 364.345 244.935 364.251Z" fill="#6F4439"/>
<path d="M281.591 331.434C280.609 330.873 279.347 331.107 278.693 332.043L255.036 364.104L217.634 364.572C216.137 364.666 214.361 367.708 215.67 369.159L257.934 368.598L282.292 334.664C283.087 333.587 282.76 332.09 281.591 331.434Z" fill="#E0E0E0"/>
<path d="M168.262 294.277C166.251 294.511 163.446 295.822 161.997 297.226C159.613 299.566 157.883 302.702 156.948 305.511C155.732 309.255 156.246 324.046 156.246 328.305C156.246 332.611 157.368 348.712 157.883 351.38C158.444 354.048 157.555 358.073 156.293 360.647C154.096 365.281 157.555 367.668 157.555 367.668L203.467 367.34L203.28 365.609C202.952 362.613 204.074 359.571 202.906 356.809C201.737 353.907 200.381 349.32 200.802 343.938C201.409 336.262 203.7 331.066 202.298 326.62C200.147 319.833 193.087 304.434 184.532 297.835C184.532 297.835 177.799 296.384 176.257 295.869C172.797 294.652 170.973 293.997 168.262 294.277Z" fill="#0948B4"/>
<path d="M222.262 353.299L183.036 345.108L182.008 311.034C182.008 311.034 180.652 297.18 173.686 295.869L156.948 316.744C157.883 327.229 157.042 347.121 161.857 354.797C166.673 362.473 171.395 368.604 183.27 368.09C195.145 367.528 221.327 367.294 221.327 367.294L222.262 353.299Z" fill="#0948B4"/>
<path d="M183.083 345.246C183.176 345.339 182.241 346.556 181.446 348.288C180.652 349.973 180.324 351.471 180.231 351.471C180.091 351.471 180.278 349.879 181.119 348.101C181.914 346.322 183.036 345.199 183.083 345.246Z" fill="#263238"/>
<g opacity="0.3">
<path d="M181.728 309.578C185.655 321.654 184.813 340.189 192.294 347.069L183.037 345.103C183.037 345.103 183.317 341.546 183.083 338.597C182.335 329.049 182.242 319.36 181.728 309.578Z" fill="black"/>
</g>
<path d="M180.886 305.275C180.886 305.275 181.213 306.211 181.54 308.037C181.727 308.926 181.914 310.05 182.054 311.407C182.148 312.717 182.195 314.262 182.241 315.994C182.475 322.968 182.802 332.937 183.176 345.107L183.036 344.966C194.304 347.306 207.722 350.115 222.262 353.11L222.449 353.157V353.344C222.168 357.791 221.841 362.518 221.514 367.292V367.48H221.327C219.831 367.48 218.194 367.526 216.558 367.526C209.732 367.62 203.093 367.714 196.688 367.854C193.478 367.916 190.33 367.994 187.244 368.088C184.158 368.182 181.073 368.462 178.127 367.994C176.678 367.807 175.229 367.386 173.873 366.918C172.517 366.356 171.255 365.701 170.086 364.858C167.795 363.22 166.018 361.067 164.429 358.961C163.681 357.9 162.964 356.824 162.278 355.731L161.764 354.936C161.624 354.655 161.483 354.374 161.343 354.093C161.187 353.844 161.031 353.578 160.875 353.298C160.782 352.986 160.673 352.689 160.548 352.408C159.66 350.115 159.146 347.821 158.818 345.621C158.07 341.175 157.837 337.15 157.65 333.593C157.463 330.035 157.369 326.993 157.322 324.466C157.229 321.985 157.135 320.066 157.089 318.708C157.026 318.084 156.995 317.601 156.995 317.258C156.964 316.914 156.948 316.743 156.948 316.743C156.948 316.743 156.964 316.899 156.995 317.211C157.026 317.585 157.073 318.084 157.135 318.708C157.229 320.019 157.369 321.985 157.463 324.466C157.556 326.993 157.65 330.035 157.883 333.593C158.07 337.103 158.304 341.175 159.052 345.575C159.426 347.775 159.94 350.068 160.829 352.315C160.953 352.595 161.062 352.876 161.156 353.157C161.312 353.438 161.452 353.703 161.577 353.953C161.764 354.234 161.904 354.514 162.044 354.795L162.559 355.591C163.244 356.652 163.961 357.713 164.709 358.774C166.252 360.88 168.029 362.939 170.32 364.578C171.442 365.373 172.704 366.029 174.013 366.59C175.322 367.058 176.725 367.48 178.174 367.667C181.073 368.088 184.112 367.807 187.197 367.714C190.283 367.62 193.446 367.542 196.688 367.48C203.093 367.339 209.732 367.199 216.558 367.105C218.194 367.105 219.831 367.105 221.327 367.058L221.14 367.245C221.467 362.471 221.747 357.791 222.028 353.298L222.215 353.532C207.628 350.442 194.21 347.634 182.989 345.294L182.849 345.247V345.107C182.522 332.984 182.241 322.968 182.054 316.041C182.008 314.309 182.008 312.717 181.914 311.407C181.774 310.05 181.634 308.926 181.493 308.037C181.306 307.148 181.166 306.446 181.026 305.977C180.995 305.759 180.964 305.587 180.932 305.463C180.901 305.338 180.886 305.275 180.886 305.275Z" fill="#263238"/>
<path d="M243.814 436.982L238.017 479.903L253.211 482.43L264.058 444.331L243.814 436.982Z" fill="#AE7461"/>
<path d="M197.623 370.989C197.623 370.989 253.305 367.338 264.853 369.163C271.866 370.287 277.851 381.192 274.064 387.792C272.24 390.881 269.435 400.57 269.435 400.57L239.513 393.736L197.623 370.989Z" fill="#5E9CBA"/>
<path d="M239.513 400.568L227.451 418.963L241.617 428.183L257.046 404.547L239.513 400.568Z" fill="#AE7461"/>
<path d="M158.631 367.617C158.631 367.617 152.786 393.594 162.277 403.797C169.01 411.052 185.607 410.303 199.633 410.303C213.799 410.303 246.572 409.507 246.572 409.507C246.572 409.507 245.076 418.634 244.001 429.025C242.926 439.463 242.692 445.969 242.692 445.969L263.59 447.747C263.59 447.747 275.185 412.269 277.008 405.248C278.785 398.274 278.177 388.82 272.006 385.309C266.769 382.36 225.393 370.893 205.617 369.161L203.466 367.336L158.631 367.617Z" fill="#5E9CBA"/>
<path d="M256.811 400.99C256.811 401.037 255.969 401.177 254.754 401.599C254.146 401.833 253.398 402.16 252.65 402.582C251.902 403.003 251.154 403.564 250.406 404.22C249.658 404.922 249.003 405.624 248.489 406.326C248.021 407.028 247.601 407.73 247.32 408.292C246.759 409.509 246.572 410.304 246.479 410.304C246.479 410.258 246.479 410.07 246.572 409.696C246.666 409.321 246.806 408.807 247.086 408.198C247.32 407.59 247.694 406.841 248.208 406.139C248.723 405.39 249.377 404.641 250.125 403.939C250.873 403.237 251.715 402.675 252.463 402.254C253.258 401.833 254.006 401.505 254.66 401.365C255.315 401.131 255.829 401.037 256.203 400.99C256.577 400.943 256.811 400.943 256.811 400.99Z" fill="#263238"/>
<path d="M254.334 379.557C254.241 379.51 254.661 378.527 255.409 377.404C256.158 376.28 256.952 375.531 257.046 375.578C257.093 375.672 256.485 376.561 255.737 377.638C254.989 378.714 254.428 379.65 254.334 379.557Z" fill="#263238"/>
<path d="M277.851 395.42C277.851 395.42 277.835 395.342 277.804 395.186C277.773 395.03 277.726 394.843 277.664 394.624C277.524 394.062 277.337 393.314 277.056 392.331C276.729 391.395 276.261 390.224 275.56 388.961C274.812 387.744 273.784 386.386 272.194 385.591C268.875 384.093 264.76 382.642 260.179 381.285C255.55 379.927 250.454 378.43 245.077 377.025C234.324 374.17 224.459 372.111 217.26 370.941C213.66 370.332 210.761 369.911 208.751 369.63C207.753 369.505 206.974 369.396 206.413 369.303C206.164 369.271 205.961 369.24 205.805 369.209C205.68 369.178 205.618 369.162 205.618 369.162C205.618 369.162 205.68 369.162 205.805 369.162C205.961 369.193 206.164 369.209 206.413 369.209C206.974 369.271 207.753 369.365 208.751 369.49C210.761 369.724 213.706 370.098 217.306 370.66C224.506 371.783 234.418 373.796 245.171 376.651C250.547 378.055 255.644 379.553 260.272 380.957C264.901 382.314 269.015 383.765 272.334 385.31C273.971 386.199 275.046 387.603 275.747 388.867C276.448 390.131 276.916 391.301 277.197 392.284C277.477 393.267 277.664 394.062 277.758 394.577C277.789 394.827 277.82 395.03 277.851 395.186C277.882 395.342 277.882 395.42 277.851 395.42Z" fill="#263238"/>
<path d="M254.427 481.297L254.895 479.425C248.443 478.769 242.692 476.336 238.111 472.17L232.968 483.356L267.378 498.662C268.64 495.385 254.427 481.297 254.427 481.297Z" fill="#263238"/>
<path d="M232.969 483.369L234.231 480.607L266.818 496.381C266.818 496.381 268.033 497.691 267.379 498.674L232.969 483.369Z" fill="#E0E0E0"/>
<path d="M253.963 481.073C253.87 481.261 252.981 480.933 251.906 481.12C250.831 481.214 250.083 481.776 249.943 481.635C249.802 481.495 250.55 480.652 251.813 480.465C253.122 480.278 254.057 480.933 253.963 481.073Z" fill="#E0E0E0"/>
<path d="M240.542 479.895C240.308 480.363 239.747 480.55 239.233 480.316C238.719 480.082 238.532 479.52 238.766 479.052C238.999 478.537 239.607 478.35 240.075 478.584C240.589 478.818 240.776 479.38 240.542 479.895Z" fill="#E0E0E0"/>
<path d="M253.727 480.837C253.727 480.884 253.446 480.838 252.978 480.697C252.464 480.557 251.716 480.369 251.015 479.667C250.859 479.511 250.719 479.324 250.594 479.106C250.454 478.872 250.314 478.591 250.314 478.31C250.267 477.982 250.501 477.561 250.828 477.421C251.155 477.28 251.576 477.327 251.856 477.468C253.072 478.076 253.96 479.34 254.007 480.837L253.493 480.791C253.586 480.51 253.695 480.245 253.82 479.995C254.615 478.591 256.204 477.842 257.56 477.889C257.747 477.889 257.934 477.889 258.168 477.982C258.355 478.123 258.495 478.31 258.542 478.497C258.589 478.918 258.449 479.246 258.308 479.527C257.934 480.042 257.42 480.369 256.952 480.557C256.017 480.978 255.129 480.931 254.615 480.931C254.054 480.884 253.727 480.884 253.727 480.837C253.727 480.791 254.054 480.791 254.615 480.744C255.129 480.65 255.971 480.65 256.812 480.229C257.233 480.042 257.654 479.714 257.934 479.293C258.075 479.059 258.121 478.825 258.075 478.591C258.028 478.404 257.888 478.357 257.56 478.357C256.345 478.357 254.989 479.012 254.288 480.229C254.163 480.479 254.069 480.713 254.007 480.931C253.96 481.072 253.82 481.118 253.68 481.072C253.54 481.072 253.493 480.978 253.493 480.837C253.493 479.574 252.651 478.404 251.669 477.889C251.202 477.655 250.688 477.889 250.734 478.263C250.734 478.684 251.015 479.153 251.295 479.433C251.856 480.089 252.558 480.323 253.025 480.51C253.493 480.697 253.773 480.837 253.727 480.837Z" fill="#E0E0E0"/>
<path d="M256.577 483.452C256.577 483.593 255.548 483.312 254.332 483.64C253.07 483.92 252.322 484.623 252.229 484.529C252.135 484.482 252.883 483.546 254.239 483.218C255.548 482.891 256.623 483.359 256.577 483.452Z" fill="#E0E0E0"/>
<path d="M258.494 485.657C258.494 485.75 257.559 485.75 256.484 486.078C255.408 486.359 254.66 486.92 254.567 486.827C254.52 486.733 255.221 486.031 256.39 485.703C257.559 485.329 258.541 485.563 258.494 485.657Z" fill="#E0E0E0"/>
<path d="M244.327 426.113L245.168 424.335C238.903 422.603 233.62 419.233 229.786 414.365L222.82 424.522L254.191 445.397C256.015 442.355 244.327 426.113 244.327 426.113Z" fill="#263238"/>
<path d="M222.818 424.518L224.548 422.037L254.002 443.053C254.002 443.053 254.984 444.55 254.189 445.393L222.818 424.518Z" fill="#E0E0E0"/>
<path d="M243.912 425.807C243.818 425.948 243.023 425.526 241.901 425.526C240.826 425.433 239.984 425.854 239.891 425.667C239.797 425.573 240.639 424.824 241.948 424.871C243.257 424.918 244.052 425.714 243.912 425.807Z" fill="white"/>
<path d="M230.91 422.376C230.583 422.797 229.975 422.891 229.555 422.61C229.087 422.283 228.993 421.674 229.274 421.253C229.601 420.832 230.209 420.691 230.677 421.019C231.144 421.347 231.238 421.955 230.91 422.376Z" fill="#E0E0E0"/>
<path d="M243.766 425.563C243.719 425.563 243.485 425.516 243.018 425.282C242.55 425.048 241.849 424.72 241.288 423.925C241.132 423.737 241.007 423.519 240.914 423.269C240.82 423.035 240.773 422.754 240.773 422.427C240.773 422.099 241.101 421.772 241.475 421.678C241.802 421.631 242.176 421.725 242.457 421.912C243.532 422.661 244.233 424.112 243.999 425.61L243.532 425.422C243.657 425.204 243.812 424.97 243.999 424.72C244.981 423.503 246.664 422.989 248.02 423.269C248.207 423.316 248.394 423.363 248.581 423.503C248.768 423.644 248.862 423.878 248.862 424.065C248.862 424.486 248.675 424.767 248.441 425.001C248.02 425.469 247.459 425.703 246.992 425.797C245.963 426.078 245.121 425.844 244.607 425.75C244.046 425.656 243.766 425.61 243.766 425.563C243.766 425.516 244.046 425.516 244.607 425.563C245.168 425.61 245.963 425.75 246.851 425.469C247.319 425.329 247.786 425.095 248.114 424.72C248.301 424.533 248.441 424.299 248.394 424.065C248.394 423.878 248.254 423.784 247.927 423.737C246.711 423.503 245.262 423.971 244.373 425.048C244.218 425.266 244.093 425.469 243.999 425.656C243.906 425.797 243.766 425.844 243.625 425.797C243.532 425.75 243.485 425.61 243.485 425.516C243.719 424.252 243.111 422.942 242.223 422.286C241.802 421.959 241.241 422.099 241.194 422.52C241.147 422.942 241.381 423.41 241.568 423.737C242.036 424.486 242.69 424.861 243.111 425.095C243.532 425.376 243.766 425.516 243.766 425.563Z" fill="white"/>
<path d="M246.105 428.6C246.059 428.74 245.124 428.272 243.861 428.366C242.599 428.46 241.711 429.068 241.617 428.928C241.57 428.881 242.412 428.085 243.814 427.992C245.217 427.898 246.199 428.553 246.105 428.6Z" fill="white"/>
<path d="M247.647 431.083C247.6 431.224 246.712 431.037 245.59 431.177C244.468 431.271 243.626 431.692 243.579 431.598C243.486 431.505 244.327 430.896 245.543 430.756C246.759 430.615 247.694 430.99 247.647 431.083Z" fill="white"/>
</svg>
