<svg width="16" height="18" viewBox="0 0 16 18" fill="none" xmlns="http://www.w3.org/2000/svg">
<path d="M1.75 17.3346C1.41667 17.3346 1.125 17.2096 0.875 16.9596C0.625 16.7096 0.5 16.418 0.5 16.0846V3.16797C0.5 2.83464 0.625 2.54297 0.875 2.29297C1.125 2.04297 1.41667 1.91797 1.75 1.91797H3.10417V0.667969H4.45833V1.91797H11.5417V0.667969H12.8958V1.91797H14.25C14.5833 1.91797 14.875 2.04297 15.125 2.29297C15.375 2.54297 15.5 2.83464 15.5 3.16797V16.0846C15.5 16.418 15.375 16.7096 15.125 16.9596C14.875 17.2096 14.5833 17.3346 14.25 17.3346H1.75ZM1.75 16.0846H14.25V7.1263H1.75V16.0846ZM1.75 5.8763H14.25V3.16797H1.75V5.8763ZM1.75 5.8763V3.16797V5.8763ZM8 10.668C7.76389 10.668 7.56597 10.5881 7.40625 10.4284C7.24653 10.2687 7.16667 10.0707 7.16667 9.83463C7.16667 9.59852 7.24653 9.40061 7.40625 9.24088C7.56597 9.08116 7.76389 9.0013 8 9.0013C8.23611 9.0013 8.43403 9.08116 8.59375 9.24088C8.75347 9.40061 8.83333 9.59852 8.83333 9.83463C8.83333 10.0707 8.75347 10.2687 8.59375 10.4284C8.43403 10.5881 8.23611 10.668 8 10.668ZM4.66667 10.668C4.43056 10.668 4.23264 10.5881 4.07292 10.4284C3.91319 10.2687 3.83333 10.0707 3.83333 9.83463C3.83333 9.59852 3.91319 9.40061 4.07292 9.24088C4.23264 9.08116 4.43056 9.0013 4.66667 9.0013C4.90278 9.0013 5.10069 9.08116 5.26042 9.24088C5.42014 9.40061 5.5 9.59852 5.5 9.83463C5.5 10.0707 5.42014 10.2687 5.26042 10.4284C5.10069 10.5881 4.90278 10.668 4.66667 10.668ZM11.3333 10.668C11.0972 10.668 10.8993 10.5881 10.7396 10.4284C10.5799 10.2687 10.5 10.0707 10.5 9.83463C10.5 9.59852 10.5799 9.40061 10.7396 9.24088C10.8993 9.08116 11.0972 9.0013 11.3333 9.0013C11.5694 9.0013 11.7674 9.08116 11.9271 9.24088C12.0868 9.40061 12.1667 9.59852 12.1667 9.83463C12.1667 10.0707 12.0868 10.2687 11.9271 10.4284C11.7674 10.5881 11.5694 10.668 11.3333 10.668ZM8 14.0013C7.76389 14.0013 7.56597 13.9214 7.40625 13.7617C7.24653 13.602 7.16667 13.4041 7.16667 13.168C7.16667 12.9319 7.24653 12.7339 7.40625 12.5742C7.56597 12.4145 7.76389 12.3346 8 12.3346C8.23611 12.3346 8.43403 12.4145 8.59375 12.5742C8.75347 12.7339 8.83333 12.9319 8.83333 13.168C8.83333 13.4041 8.75347 13.602 8.59375 13.7617C8.43403 13.9214 8.23611 14.0013 8 14.0013ZM4.66667 14.0013C4.43056 14.0013 4.23264 13.9214 4.07292 13.7617C3.91319 13.602 3.83333 13.4041 3.83333 13.168C3.83333 12.9319 3.91319 12.7339 4.07292 12.5742C4.23264 12.4145 4.43056 12.3346 4.66667 12.3346C4.90278 12.3346 5.10069 12.4145 5.26042 12.5742C5.42014 12.7339 5.5 12.9319 5.5 13.168C5.5 13.4041 5.42014 13.602 5.26042 13.7617C5.10069 13.9214 4.90278 14.0013 4.66667 14.0013ZM11.3333 14.0013C11.0972 14.0013 10.8993 13.9214 10.7396 13.7617C10.5799 13.602 10.5 13.4041 10.5 13.168C10.5 12.9319 10.5799 12.7339 10.7396 12.5742C10.8993 12.4145 11.0972 12.3346 11.3333 12.3346C11.5694 12.3346 11.7674 12.4145 11.9271 12.5742C12.0868 12.7339 12.1667 12.9319 12.1667 13.168C12.1667 13.4041 12.0868 13.602 11.9271 13.7617C11.7674 13.9214 11.5694 14.0013 11.3333 14.0013Z" fill="#2E2E2E"/>
</svg>
