<svg width="10" height="10" viewBox="0 0 10 10" fill="none" xmlns="http://www.w3.org/2000/svg">
<path d="M9.99998 4.98047C10.001 5.11167 9.95671 5.23992 9.87313 5.3474C9.78956 5.45489 9.67089 5.53629 9.53359 5.5803L6.69526 6.50803L5.66476 9.0633C5.61427 9.18575 5.52337 9.29135 5.40427 9.36592C5.28517 9.4405 5.14356 9.48047 4.99849 9.48047C4.85341 9.48047 4.71181 9.4405 4.5927 9.36592C4.4736 9.29135 4.3827 9.18575 4.33221 9.0633L3.30171 6.50803L0.463382 5.5803C0.327372 5.53485 0.21007 5.45301 0.127235 5.34578C0.0443999 5.23856 0 5.11108 0 4.98047C0 4.84986 0.0443999 4.72238 0.127235 4.61515C0.21007 4.50793 0.327372 4.42609 0.463382 4.38064L3.30171 3.45291L4.33221 0.897639C4.3827 0.775192 4.4736 0.669589 4.5927 0.595015C4.71181 0.520441 4.85341 0.480469 4.99849 0.480469C5.14356 0.480469 5.28517 0.520441 5.40427 0.595015C5.52337 0.669589 5.61427 0.775192 5.66476 0.897639L6.69526 3.45291L9.53359 4.38064C9.67089 4.42465 9.78956 4.50605 9.87313 4.61353C9.95671 4.72102 10.001 4.84927 9.99998 4.98047Z" fill="#2E2E2E"/>
</svg>
