<svg width="21" height="21" viewBox="0 0 21 21" fill="none" xmlns="http://www.w3.org/2000/svg">
<path d="M13.2276 7.36453L12.9379 8.49701H7.41699L7.70667 7.36453H13.2276ZM10.6375 14.999L7.51923 10.6253L7.50219 9.80521H9.05281C9.45608 9.80521 9.79972 9.74013 10.0837 9.60996C10.3677 9.47654 10.585 9.27803 10.7355 9.01443C10.886 8.74759 10.9613 8.4124 10.9613 8.00887C10.9613 7.41335 10.8051 6.94636 10.4927 6.60792C10.1803 6.26623 9.70032 6.09538 9.05281 6.09538H7.41699L7.70667 5.00195H9.05281C9.74576 5.00195 10.3138 5.13375 10.7568 5.39734C11.2027 5.65768 11.5321 6.01565 11.7451 6.47124C11.9609 6.92358 12.0688 7.43613 12.0688 8.00887C12.0688 8.5263 11.9694 9.00304 11.7707 9.43911C11.5747 9.87193 11.2595 10.2201 10.8249 10.4837C10.3933 10.7473 9.82244 10.8791 9.11245 10.8791H9.08689L11.9666 14.9209V14.999H10.6375ZM13.2276 5.00195L12.9379 6.13443L8.59274 6.09538L8.88241 5.00195H13.2276Z" fill="#2E2E2E"/>
<path d="M15.8949 19.7216C13.5662 19.7216 11.6981 17.8959 11.6981 15.6674C11.6981 13.4388 13.5662 11.6131 15.8949 11.6131C18.2236 11.6131 20.0917 13.4388 20.0917 15.6674C20.0917 17.8959 18.2236 19.7216 15.8949 19.7216Z" fill="#2E2E2E" stroke="#2E2E2E" stroke-width="0.714524"/>
<mask id="path-4-inside-1_4630_32436" fill="white">
<path d="M17.7052 14.6717L15.2462 17.0541L13.7705 15.6245L14.2623 15.1481L15.2462 16.1013L17.2134 14.1953L17.7052 14.6717Z"/>
</mask>
<path d="M17.7052 14.6717L15.2462 17.0541L13.7705 15.6245L14.2623 15.1481L15.2462 16.1013L17.2134 14.1953L17.7052 14.6717Z" fill="white"/>
<path d="M15.2462 17.0541L14.7491 17.5673L15.2463 18.0489L15.7434 17.5672L15.2462 17.0541ZM17.7052 14.6717L18.2024 15.1849L18.7321 14.6717L18.2024 14.1585L17.7052 14.6717ZM17.2134 14.1953L17.7106 13.6821L17.2134 13.2005L16.7162 13.6821L17.2134 14.1953ZM15.2462 16.1013L14.7491 16.6145L15.2463 17.0961L15.7434 16.6144L15.2462 16.1013ZM14.2623 15.1481L14.7595 14.6349L14.2623 14.1533L13.7652 14.6349L14.2623 15.1481ZM13.7705 15.6245L13.2734 15.1113L12.7436 15.6245L13.2734 16.1377L13.7705 15.6245ZM15.7434 17.5672L18.2024 15.1849L17.208 14.1585L14.7491 16.5409L15.7434 17.5672ZM18.2024 14.1585L17.7106 13.6821L16.7163 14.7085L17.2081 15.1849L18.2024 14.1585ZM16.7162 13.6821L14.7491 15.5881L15.7434 16.6144L17.7106 14.7085L16.7162 13.6821ZM15.7434 15.588L14.7595 14.6349L13.7652 15.6613L14.7491 16.6145L15.7434 15.588ZM13.7652 14.6349L13.2734 15.1113L14.2677 16.1377L14.7595 15.6613L13.7652 14.6349ZM13.2734 16.1377L14.7491 17.5673L15.7434 16.5409L14.2677 15.1113L13.2734 16.1377Z" fill="#F6F6F6" mask="url(#path-4-inside-1_4630_32436)"/>
<rect x="0.714524" y="0.714524" width="19.2161" height="18.571" rx="9.28548" stroke="#2E2E2E" stroke-width="1.42905"/>
</svg>
