<svg width="69" height="69" viewBox="0 0 69 69" fill="none" xmlns="http://www.w3.org/2000/svg">
<g clip-path="url(#clip0_4630_32546)">
<path opacity="0.2" d="M12.2365 47.7072C9.02605 42.2907 7.90308 35.8887 9.07839 29.7029C10.2537 23.5171 13.6465 17.9731 18.6197 14.1115C23.593 10.25 29.8048 8.3365 36.0889 8.73033C42.373 9.12415 48.2972 11.7982 52.7495 16.2504C57.2017 20.7027 59.8757 26.6269 60.2696 32.911C60.6634 39.1951 58.7499 45.4069 54.8884 50.3802C51.0268 55.3534 45.4828 58.7462 39.297 59.9215C33.1112 61.0968 26.7092 59.9739 21.2927 56.7634L12.3443 59.297C11.9777 59.4042 11.5889 59.4109 11.2189 59.3162C10.8488 59.2215 10.511 59.0291 10.2409 58.759C9.97081 58.4889 9.77834 58.1511 9.68368 57.781C9.58902 57.411 9.59565 57.0222 9.70288 56.6556L12.2365 47.7072Z" fill="#0948B4"/>
<path d="M12.2365 47.7072C9.02605 42.2907 7.90308 35.8887 9.07839 29.7029C10.2537 23.5171 13.6465 17.9731 18.6197 14.1115C23.593 10.25 29.8048 8.3365 36.0889 8.73033C42.373 9.12415 48.2972 11.7982 52.7495 16.2504C57.2017 20.7027 59.8757 26.6269 60.2696 32.911C60.6634 39.1951 58.7499 45.4069 54.8884 50.3802C51.0268 55.3534 45.4828 58.7462 39.297 59.9215C33.1112 61.0968 26.7092 59.9739 21.2927 56.7634L12.3443 59.297C11.9777 59.4042 11.5889 59.4109 11.2189 59.3162C10.8488 59.2216 10.511 59.0291 10.2409 58.759C9.97081 58.4889 9.77834 58.1511 9.68368 57.781C9.58902 57.411 9.59565 57.0222 9.70288 56.6556L12.2365 47.7072Z" stroke="#0948B4" stroke-width="2" stroke-linecap="round" stroke-linejoin="round"/>
<path d="M34.5 37.7344C36.2863 37.7344 37.7344 36.2863 37.7344 34.5C37.7344 32.7137 36.2863 31.2656 34.5 31.2656C32.7137 31.2656 31.2656 32.7137 31.2656 34.5C31.2656 36.2863 32.7137 37.7344 34.5 37.7344Z" fill="#0948B4"/>
<path d="M21.5625 37.7344C23.3488 37.7344 24.7969 36.2863 24.7969 34.5C24.7969 32.7137 23.3488 31.2656 21.5625 31.2656C19.7762 31.2656 18.3281 32.7137 18.3281 34.5C18.3281 36.2863 19.7762 37.7344 21.5625 37.7344Z" fill="#0948B4"/>
<path d="M47.4375 37.7344C49.2238 37.7344 50.6719 36.2863 50.6719 34.5C50.6719 32.7137 49.2238 31.2656 47.4375 31.2656C45.6512 31.2656 44.2031 32.7137 44.2031 34.5C44.2031 36.2863 45.6512 37.7344 47.4375 37.7344Z" fill="#0948B4"/>
</g>
<defs>
<clipPath id="clip0_4630_32546">
<rect width="69" height="69" fill="white"/>
</clipPath>
</defs>
</svg>
