<svg width="48" height="47" viewBox="0 0 48 47" fill="none" xmlns="http://www.w3.org/2000/svg">
<path d="M30.1219 17.1219L29.4484 19.7549H16.6123L17.2858 17.1219H30.1219ZM24.1 34.872L16.85 24.7031L16.8104 22.7965H20.4156C21.3532 22.7965 22.1521 22.6452 22.8124 22.3425C23.4727 22.0323 23.9779 21.5708 24.3278 20.9579C24.6778 20.3375 24.8527 19.5582 24.8527 18.62C24.8527 17.2354 24.4896 16.1497 23.7633 15.3628C23.0369 14.5683 21.921 14.1711 20.4156 14.1711H16.6123L17.2858 11.6289H20.4156C22.0267 11.6289 23.3473 11.9353 24.3773 12.5482C25.414 13.1535 26.1799 13.9858 26.6751 15.045C27.177 16.0967 27.4279 17.2884 27.4279 18.62C27.4279 19.823 27.1968 20.9314 26.7346 21.9453C26.279 22.9516 25.546 23.7612 24.5358 24.374C23.5322 24.9869 22.205 25.2933 20.5542 25.2933H20.4948L27.1902 34.6904V34.872H24.1ZM30.1219 11.6289L29.4484 14.2619L19.3459 14.1711L20.0194 11.6289H30.1219Z" fill="#0948B4"/>
<path d="M36.9554 45.8587C31.5412 45.8587 27.1978 41.614 27.1978 36.4326C27.1978 31.2512 31.5412 27.0064 36.9554 27.0064C42.3696 27.0064 46.713 31.2512 46.713 36.4326C46.713 41.614 42.3696 45.8587 36.9554 45.8587Z" fill="#FCF2CC" stroke="#0948B4" stroke-width="1.66127"/>
<mask id="path-4-inside-1_4630_32538" fill="white">
<path d="M41.1639 34.1154L35.4467 39.6544L32.0156 36.3307L33.1591 35.2231L35.4467 37.4391L40.0204 33.0078L41.1639 34.1154Z"/>
</mask>
<path d="M41.1639 34.1154L35.4467 39.6544L32.0156 36.3307L33.1591 35.2231L35.4467 37.4391L40.0204 33.0078L41.1639 34.1154Z" fill="#0948B4"/>
<path d="M35.4467 39.6544L34.2908 40.8476L35.4468 41.9674L36.6027 40.8476L35.4467 39.6544ZM41.1639 34.1154L42.3198 35.3086L43.5514 34.1154L42.3197 32.9222L41.1639 34.1154ZM40.0204 33.0078L41.1763 31.8146L40.0203 30.6948L38.8645 31.8147L40.0204 33.0078ZM35.4467 37.4391L34.2908 38.6324L35.4468 39.7521L36.6027 38.6323L35.4467 37.4391ZM33.1591 35.2231L34.3149 34.0299L33.1591 32.9102L32.0032 34.0299L33.1591 35.2231ZM32.0156 36.3307L30.8598 35.1375L29.628 36.3307L30.8598 37.5239L32.0156 36.3307ZM36.6027 40.8476L42.3198 35.3086L40.0079 32.9223L34.2908 38.4613L36.6027 40.8476ZM42.3197 32.9222L41.1763 31.8146L38.8646 34.201L40.008 35.3087L42.3197 32.9222ZM38.8645 31.8147L34.2907 36.246L36.6027 38.6323L41.1764 34.2009L38.8645 31.8147ZM36.6026 36.2459L34.3149 34.0299L32.0032 36.4163L34.2908 38.6324L36.6026 36.2459ZM32.0032 34.0299L30.8598 35.1375L33.1715 37.5239L34.3149 36.4163L32.0032 34.0299ZM30.8598 37.5239L34.2908 40.8476L36.6026 38.4612L33.1715 35.1375L30.8598 37.5239Z" fill="#0948B4" mask="url(#path-4-inside-1_4630_32538)"/>
<rect x="0.673913" y="0.673913" width="45.3871" height="45.1522" rx="22.5761" stroke="#0948B4" stroke-width="1.34783"/>
</svg>
