<svg width="58" height="48" viewBox="0 0 58 48" fill="none" xmlns="http://www.w3.org/2000/svg">
<path opacity="0.2" d="M33.0361 46.8326V3.47098C33.0361 2.94825 32.8285 2.44692 32.4588 2.07729C32.0892 1.70766 31.5879 1.5 31.0652 1.5H7.41337C6.89063 1.5 6.3893 1.70766 6.01967 2.07729C5.65004 2.44692 5.44238 2.94825 5.44238 3.47098V46.8326" fill="#0948B4"/>
<path d="M1.5 46.832H56.6875" stroke="#0948B4" stroke-width="2" stroke-linecap="round" stroke-linejoin="round"/>
<path d="M33.0361 46.8326V3.47098C33.0361 2.94825 32.8285 2.44692 32.4588 2.07729C32.0892 1.70766 31.5879 1.5 31.0652 1.5H7.41337C6.89063 1.5 6.3893 1.70766 6.01967 2.07729C5.65004 2.44692 5.44238 2.94825 5.44238 3.47098V46.8326" stroke="#0948B4" stroke-width="2" stroke-linecap="round" stroke-linejoin="round"/>
<path d="M52.746 46.8304V19.2366C52.746 18.7139 52.5383 18.2125 52.1687 17.8429C51.799 17.4733 51.2977 17.2656 50.775 17.2656H33.0361" stroke="#0948B4" stroke-width="2" stroke-linecap="round" stroke-linejoin="round"/>
<path d="M13.3262 11.3555H21.2101" stroke="#0948B4" stroke-width="2" stroke-linecap="round" stroke-linejoin="round"/>
<path d="M17.2676 27.125H25.1515" stroke="#0948B4" stroke-width="2" stroke-linecap="round" stroke-linejoin="round"/>
<path d="M13.3262 36.9766H21.2101" stroke="#0948B4" stroke-width="2" stroke-linecap="round" stroke-linejoin="round"/>
<path d="M40.9199 36.9766H44.8619" stroke="#0948B4" stroke-width="2" stroke-linecap="round" stroke-linejoin="round"/>
<path d="M40.9199 27.125H44.8619" stroke="#0948B4" stroke-width="2" stroke-linecap="round" stroke-linejoin="round"/>
</svg>
