<svg width="69" height="69" viewBox="0 0 69 69" fill="none" xmlns="http://www.w3.org/2000/svg">
<g clip-path="url(#clip0_4630_32514)">
<path opacity="0.2" d="M58.2188 12.9375H10.7812C9.59039 12.9375 8.625 13.9029 8.625 15.0938V53.9062C8.625 55.0971 9.59039 56.0625 10.7812 56.0625H58.2188C59.4096 56.0625 60.375 55.0971 60.375 53.9062V15.0938C60.375 13.9029 59.4096 12.9375 58.2188 12.9375Z" fill="#0948B4"/>
<path d="M58.2188 12.9375H10.7812C9.59039 12.9375 8.625 13.9029 8.625 15.0938V53.9062C8.625 55.0971 9.59039 56.0625 10.7812 56.0625H58.2188C59.4096 56.0625 60.375 55.0971 60.375 53.9062V15.0938C60.375 13.9029 59.4096 12.9375 58.2188 12.9375Z" stroke="#0948B4" stroke-width="2" stroke-linecap="round" stroke-linejoin="round"/>
<path d="M18.3281 25.875C20.1144 25.875 21.5625 24.4269 21.5625 22.6406C21.5625 20.8543 20.1144 19.4062 18.3281 19.4062C16.5418 19.4062 15.0938 20.8543 15.0938 22.6406C15.0938 24.4269 16.5418 25.875 18.3281 25.875Z" fill="#0948B4"/>
<path d="M29.1094 25.875C30.8957 25.875 32.3438 24.4269 32.3438 22.6406C32.3438 20.8543 30.8957 19.4062 29.1094 19.4062C27.3231 19.4062 25.875 20.8543 25.875 22.6406C25.875 24.4269 27.3231 25.875 29.1094 25.875Z" fill="#0948B4"/>
</g>
<defs>
<clipPath id="clip0_4630_32514">
<rect width="69" height="69" fill="white"/>
</clipPath>
</defs>
</svg>
