<svg width="55" height="55" viewBox="0 0 55 55" fill="none" xmlns="http://www.w3.org/2000/svg">
<path opacity="0.2" d="M9.45312 43.8281C12.7755 43.8281 15.4688 41.1348 15.4688 37.8125C15.4688 34.4902 12.7755 31.7969 9.45312 31.7969C6.13079 31.7969 3.4375 34.4902 3.4375 37.8125C3.4375 41.1348 6.13079 43.8281 9.45312 43.8281Z" fill="#0948B4"/>
<path d="M9.45312 43.8281C12.7755 43.8281 15.4688 41.1348 15.4688 37.8125C15.4688 34.4902 12.7755 31.7969 9.45312 31.7969C6.13079 31.7969 3.4375 34.4902 3.4375 37.8125C3.4375 41.1348 6.13079 43.8281 9.45312 43.8281Z" stroke="#0948B4" stroke-width="2" stroke-linecap="round" stroke-linejoin="round"/>
<path d="M42.9688 8.59375L51.5625 17.1875L42.9688 25.7812" stroke="#0948B4" stroke-width="2" stroke-linecap="round" stroke-linejoin="round"/>
<path d="M15.4688 37.8125H17.1875C19.9225 37.8125 22.5456 36.726 24.4795 34.792C26.4135 32.8581 27.5 30.235 27.5 27.5C27.5 24.765 28.5865 22.1419 30.5205 20.208C32.4544 18.274 35.0775 17.1875 37.8125 17.1875H51.5625" stroke="#0948B4" stroke-width="2" stroke-linecap="round" stroke-linejoin="round"/>
</svg>
