<svg width="57" height="57" viewBox="0 0 57 57" fill="none" xmlns="http://www.w3.org/2000/svg">
<path opacity="0.2" d="M19.75 35.5C26.0322 35.5 31.125 30.4072 31.125 24.125C31.125 17.8428 26.0322 12.75 19.75 12.75C13.4678 12.75 8.375 17.8428 8.375 24.125C8.375 30.4072 13.4678 35.5 19.75 35.5Z" fill="#0948B4"/>
<path d="M19.75 35.5C26.0322 35.5 31.125 30.4072 31.125 24.125C31.125 17.8428 26.0322 12.75 19.75 12.75C13.4678 12.75 8.375 17.8428 8.375 24.125C8.375 30.4072 13.4678 35.5 19.75 35.5Z" stroke="#0948B4" stroke-width="2" stroke-miterlimit="10"/>
<path d="M34.4941 13.1656C35.4997 12.8929 36.5366 12.7532 37.5785 12.75C40.5954 12.75 43.4886 13.9484 45.6219 16.0817C47.7551 18.2149 48.9535 21.1082 48.9535 24.125C48.9535 27.1418 47.7551 30.0351 45.6219 32.1683C43.4886 34.3016 40.5954 35.5 37.5785 35.5" stroke="#0948B4" stroke-width="2" stroke-linecap="round" stroke-linejoin="round"/>
<path d="M4 43.682C5.77613 41.1545 8.13446 39.0916 10.8758 37.6675C13.6171 36.2434 16.6609 35.5 19.75 35.5C22.8391 35.5 25.8829 36.2434 28.6242 37.6675C31.3655 39.0916 33.7239 41.1545 35.5 43.682" stroke="#0948B4" stroke-width="2" stroke-linecap="round" stroke-linejoin="round"/>
<path d="M37.5781 35.5C40.6675 35.4981 43.7119 36.2406 46.4535 37.6647C49.1951 39.0888 51.5532 41.1526 53.3281 43.6813" stroke="#0948B4" stroke-width="2" stroke-linecap="round" stroke-linejoin="round"/>
</svg>
