<svg width="50" height="50" viewBox="0 0 50 50" fill="none" xmlns="http://www.w3.org/2000/svg">
<path opacity="0.2" d="M24.6875 48.375C37.7697 48.375 48.375 37.7697 48.375 24.6875C48.375 11.6053 37.7697 1 24.6875 1C11.6053 1 1 11.6053 1 24.6875C1 37.7697 11.6053 48.375 24.6875 48.375Z" fill="#0948B4"/>
<path d="M35.5446 18.7656L21.0607 32.5833L13.8311 25.6745" stroke="#0948B4" stroke-width="2" stroke-linecap="round" stroke-linejoin="round"/>
<path d="M24.6875 48.375C37.7697 48.375 48.375 37.7697 48.375 24.6875C48.375 11.6053 37.7697 1 24.6875 1C11.6053 1 1 11.6053 1 24.6875C1 37.7697 11.6053 48.375 24.6875 48.375Z" stroke="#0948B4" stroke-width="2" stroke-linecap="round" stroke-linejoin="round"/>
</svg>
