<svg width="20" height="18" viewBox="0 0 20 18" fill="none" xmlns="http://www.w3.org/2000/svg">
<path d="M7.20801 17.75L5.62468 15.0417L2.47884 14.3958L2.83301 11.3333L0.833008 9L2.83301 6.6875L2.47884 3.625L5.62468 2.97917L7.20801 0.25L9.99968 1.54167L12.7913 0.25L14.3955 2.97917L17.5205 3.625L17.1663 6.6875L19.1663 9L17.1663 11.3333L17.5205 14.3958L14.3955 15.0417L12.7913 17.75L9.99968 16.4583L7.20801 17.75ZM7.77051 16.1042L9.99968 15.1667L12.2913 16.1042L13.6872 14.0208L16.1247 13.3958L15.8747 10.9167L17.5622 9L15.8747 7.04167L16.1247 4.5625L13.6872 3.97917L12.2497 1.89583L9.99968 2.83333L7.70801 1.89583L6.31217 3.97917L3.87468 4.5625L4.12467 7.04167L2.43717 9L4.12467 10.9167L3.87468 13.4375L6.31217 14.0208L7.77051 16.1042ZM9.10384 11.7708L13.833 7.08333L12.8955 6.22917L9.10384 9.97917L7.12468 7.91667L6.16634 8.85417L9.10384 11.7708Z" fill="#2E2E2E"/>
</svg>
