<svg width="31" height="30" viewBox="0 0 31 30" fill="none" xmlns="http://www.w3.org/2000/svg">
<path d="M7.03711 29.9993V9.75763H0.391702V29.9993H7.03781H7.03711ZM3.7158 6.99445C6.0327 6.99445 7.47513 5.44013 7.47513 3.49766C7.43176 1.51094 6.0327 0 3.75986 0C1.48545 0 0 1.51094 0 3.49749C0 5.43995 1.44191 6.99427 3.67225 6.99427H3.71527L3.7158 6.99445ZM10.7154 29.9993H17.3603V18.6967C17.3603 18.0925 17.4037 17.4867 17.5793 17.0552C18.0594 15.846 19.1528 14.5943 20.989 14.5943C23.393 14.5943 24.3553 16.4503 24.3553 19.1717V29.9993H31V18.3933C31 12.1762 27.722 9.28308 23.35 9.28308C19.7655 9.28308 18.1913 11.3114 17.3166 12.6929H17.3608V9.75833H10.7158C10.8025 11.6572 10.7153 30 10.7153 30L10.7154 29.9993Z" fill="#0948B4"/>
</svg>
