<svg width="31" height="24" viewBox="0 0 31 24" fill="none" xmlns="http://www.w3.org/2000/svg">
<path d="M9.74919 24C21.4478 24 27.8454 14.7674 27.8454 6.76128C27.8454 6.49908 27.8398 6.23808 27.8274 5.97816C29.0722 5.12011 30.1466 4.05771 31 2.84076C29.8604 3.3234 28.634 3.64824 27.3475 3.7947C28.6607 3.04464 29.6688 1.85802 30.1444 0.44358C28.8959 1.14912 27.53 1.64648 26.1057 1.91424C24.9451 0.73656 23.2928 0 21.4632 0C17.9508 0 15.1026 2.71332 15.1026 6.0579C15.1026 6.5334 15.1585 6.99576 15.2676 7.4394C9.98156 7.18602 5.29426 4.7751 2.15727 1.10916C1.59227 2.03378 1.29509 3.08463 1.29608 4.1544C1.29608 6.25644 2.41888 8.11206 4.1264 9.1977C3.11638 9.16831 2.12854 8.90843 1.24592 8.4399C1.24498 8.46534 1.24498 8.49012 1.24498 8.5173C1.24498 11.4515 3.43728 13.9013 6.3475 14.4565C5.80092 14.5983 5.23691 14.67 4.67041 14.6696C4.2613 14.6696 3.86259 14.6313 3.47509 14.5604C4.2848 16.9678 6.63274 18.7196 9.4165 18.7685C7.23963 20.3939 4.49746 21.362 1.51711 21.362C1.01011 21.3624 0.503534 21.3344 0 21.278C2.81483 22.9967 6.15715 23.9996 9.7495 23.9996" fill="#0948B4"/>
</svg>
