<svg width="251" height="36" viewBox="0 0 251 36" fill="none" xmlns="http://www.w3.org/2000/svg">
<path d="M45.0997 18.3954L37.6575 14.3398C37.6575 14.3398 35.1768 16.4157 35.1768 18.3954C35.1768 20.3751 37.6575 22.451 37.6575 22.451L45.0997 18.3954Z" fill="#EEBC00"/>
<path fill-rule="evenodd" clip-rule="evenodd" d="M6.01908 0.60938V35.6094L0 35.6094V0.609375L6.01908 0.60938ZM12.9548 0.60938V14.5425H33.6291C34.0751 13.8782 34.598 13.2687 35.099 12.7499L12.9548 0.60938ZM33.8704 21.6763C34.3038 22.3532 34.7727 22.9549 35.1736 23.4279L12.9548 35.6094V21.6763H33.8704Z" fill="#EEBC00"/>
<path d="M60.834 9.04688H53.6465V6.03125H71.3652V9.04688H64.1934V28.1094H60.834V9.04688ZM77.0221 28.4062C75.3659 28.4062 73.9596 28.0469 72.8034 27.3281C71.6471 26.599 70.7773 25.625 70.194 24.4062C69.6107 23.1875 69.319 21.8438 69.319 20.375C69.319 18.9271 69.595 17.5833 70.1471 16.3438C70.7096 15.0938 71.5482 14.0938 72.6627 13.3438C73.7877 12.5833 75.1523 12.2031 76.7565 12.2031C78.4336 12.2031 79.7982 12.5885 80.8502 13.3594C81.9127 14.1198 82.6732 15.0833 83.1315 16.25C83.6002 17.4167 83.8346 18.6198 83.8346 19.8594C83.8346 20.151 83.819 20.4375 83.7877 20.7188C83.7669 21 83.7409 21.1979 83.7096 21.3125H72.7252C72.8711 22.625 73.2982 23.6458 74.0065 24.375C74.7252 25.1042 75.7357 25.4688 77.0377 25.4688C77.8398 25.4688 78.5638 25.3333 79.2096 25.0625C79.8659 24.7917 80.4857 24.3385 81.069 23.7031L83.2877 25.6562C82.4232 26.5938 81.4804 27.2865 80.4596 27.7344C79.4492 28.1823 78.3034 28.4062 77.0221 28.4062ZM80.6471 18.9688C80.6679 18.625 80.6367 18.2969 80.5534 17.9844C80.3867 17.0677 79.97 16.3281 79.3034 15.7656C78.6367 15.2031 77.7773 14.9219 76.7252 14.9219C75.5586 14.9219 74.6419 15.2865 73.9752 16.0156C73.319 16.7448 72.9023 17.7292 72.7252 18.9688H80.6471ZM92.804 28.4062C91.2415 28.4062 89.9029 28.0365 88.7884 27.2969C87.6738 26.5573 86.8352 25.5729 86.2727 24.3438C85.7102 23.1146 85.429 21.776 85.429 20.3281C85.429 18.9115 85.705 17.5833 86.2571 16.3438C86.8092 15.1042 87.6373 14.1042 88.7415 13.3438C89.8561 12.5833 91.1998 12.2031 92.7727 12.2031C94.304 12.2031 95.6425 12.5833 96.7884 13.3438C97.9342 14.1042 98.7936 15.224 99.3665 16.7031L96.304 17.8906C96.0332 17.0573 95.5852 16.3906 94.9602 15.8906C94.3352 15.3906 93.6061 15.1406 92.7727 15.1406C91.8561 15.1406 91.0904 15.3854 90.4759 15.875C89.8717 16.3542 89.4238 16.9896 89.1321 17.7812C88.8509 18.5625 88.7102 19.4115 88.7102 20.3281C88.7102 21.2552 88.8509 22.1094 89.1321 22.8906C89.4238 23.6719 89.8717 24.2969 90.4759 24.7656C91.0904 25.2344 91.8561 25.4688 92.7727 25.4688C93.6165 25.4688 94.3457 25.224 94.9602 24.7344C95.5852 24.2448 96.0227 23.5885 96.2727 22.7656L99.2102 23.875C98.6998 25.3021 97.8821 26.4167 96.7571 27.2188C95.6321 28.0104 94.3144 28.4062 92.804 28.4062ZM101.914 6.03125H105.195V14.5938C105.747 13.8021 106.43 13.2083 107.242 12.8125C108.055 12.4062 108.914 12.2031 109.82 12.2031C111.07 12.2031 112.117 12.4948 112.961 13.0781C113.815 13.6615 114.445 14.4323 114.851 15.3906C115.258 16.349 115.466 17.4062 115.476 18.5625V28.1094H112.195V19.0469C112.195 17.8281 111.956 16.875 111.476 16.1875C110.997 15.4896 110.185 15.1406 109.039 15.1406C108.216 15.1406 107.513 15.3438 106.93 15.75C106.357 16.1562 105.924 16.7188 105.633 17.4375C105.341 18.1458 105.195 18.9583 105.195 19.875V28.1094H101.914V6.03125ZM119.915 6.03125H126.555C128.055 6.03125 129.383 6.28646 130.54 6.79688C131.696 7.30729 132.597 8.04688 133.243 9.01562C133.899 9.98438 134.227 11.1354 134.227 12.4688C134.227 13.7917 133.904 14.9271 133.258 15.875C132.613 16.8229 131.711 17.5469 130.555 18.0469C129.399 18.5365 128.066 18.7812 126.555 18.7812H123.258V28.1094H119.915V6.03125ZM126.555 15.6406C129.451 15.6406 130.899 14.5833 130.899 12.4688C130.899 11.4062 130.534 10.5938 129.805 10.0312C129.086 9.45833 128.003 9.17188 126.555 9.17188H123.258V15.6406H126.555ZM141.915 12.2031C143.28 12.2031 144.457 12.4688 145.446 13C146.436 13.5312 147.191 14.2812 147.712 15.25C148.233 16.2083 148.493 17.3281 148.493 18.6094V28.1094H145.821L145.603 25.6719C145.103 26.5469 144.379 27.224 143.431 27.7031C142.493 28.1719 141.509 28.4062 140.478 28.4062C139.405 28.4062 138.446 28.2083 137.603 27.8125C136.759 27.4167 136.098 26.8438 135.618 26.0938C135.139 25.3333 134.9 24.4375 134.9 23.4062C134.9 21.8229 135.462 20.6771 136.587 19.9688C137.712 19.2604 139.254 18.9062 141.212 18.9062H145.556C145.535 17.9792 145.41 17.2396 145.181 16.6875C144.952 16.125 144.577 15.7083 144.056 15.4375C143.545 15.1667 142.837 15.0312 141.931 15.0312C141.045 15.0312 140.269 15.2396 139.603 15.6562C138.946 16.0729 138.405 16.6354 137.978 17.3438L135.509 15.5625C136.301 14.4688 137.207 13.6354 138.228 13.0625C139.259 12.4896 140.488 12.2031 141.915 12.2031ZM141.118 25.6562C141.931 25.6562 142.65 25.4792 143.275 25.125C143.91 24.7708 144.42 24.2969 144.806 23.7031C145.191 23.1094 145.441 22.4531 145.556 21.7344V21.25H141.4C140.358 21.25 139.566 21.4583 139.025 21.875C138.483 22.2812 138.212 22.8229 138.212 23.5C138.212 24.1562 138.462 24.6823 138.962 25.0781C139.462 25.4635 140.181 25.6562 141.118 25.6562ZM157.463 28.4062C155.994 28.4062 154.848 27.9948 154.025 27.1719C153.213 26.349 152.806 25.2135 152.806 23.7656V15.2188H150.244V12.5H152.853V8.40625L156.025 6.09375V12.5H160.088V15.2188H156.025V23.2188C156.025 24.0521 156.197 24.651 156.541 25.0156C156.885 25.3698 157.379 25.5469 158.025 25.5469C158.65 25.5469 159.333 25.3802 160.072 25.0469L160.088 27.9688C159.775 28.0833 159.379 28.1823 158.9 28.2656C158.421 28.3594 157.942 28.4062 157.463 28.4062ZM162.541 6.03125H165.823V14.5938C166.375 13.8021 167.057 13.2083 167.87 12.8125C168.682 12.4062 169.541 12.2031 170.448 12.2031C171.698 12.2031 172.745 12.4948 173.588 13.0781C174.443 13.6615 175.073 14.4323 175.479 15.3906C175.885 16.349 176.094 17.4062 176.104 18.5625V28.1094H172.823V19.0469C172.823 17.8281 172.583 16.875 172.104 16.1875C171.625 15.4896 170.812 15.1406 169.666 15.1406C168.844 15.1406 168.14 15.3438 167.557 15.75C166.984 16.1562 166.552 16.7188 166.26 17.4375C165.969 18.1458 165.823 18.9583 165.823 19.875V28.1094H162.541V6.03125ZM184.605 28.4062C183.563 28.4062 182.594 28.2188 181.698 27.8438C180.813 27.4583 180.058 26.9427 179.433 26.2969C178.818 25.6406 178.381 24.9115 178.12 24.1094L180.714 22.9688C180.995 23.7396 181.438 24.3906 182.042 24.9219C182.646 25.4427 183.448 25.7031 184.448 25.7031C185.073 25.7031 185.599 25.599 186.026 25.3906C186.464 25.1823 186.792 24.9115 187.011 24.5781C187.23 24.2448 187.339 23.8906 187.339 23.5156C187.339 23.0885 187.198 22.7448 186.917 22.4844C186.636 22.2135 186.282 22 185.855 21.8438C185.428 21.6875 184.834 21.5104 184.073 21.3125C183.021 21.0417 182.162 20.7708 181.495 20.5C180.839 20.2188 180.271 19.7917 179.792 19.2188C179.323 18.6354 179.089 17.8542 179.089 16.875C179.089 15.875 179.344 15.026 179.855 14.3281C180.365 13.6198 181.047 13.0885 181.901 12.7344C182.756 12.3802 183.698 12.2031 184.73 12.2031C186.021 12.2031 187.162 12.4948 188.151 13.0781C189.141 13.6615 189.928 14.4844 190.511 15.5469L188.011 16.9062C187.23 15.4792 186.099 14.7656 184.62 14.7656C183.881 14.7656 183.287 14.9271 182.839 15.25C182.401 15.5625 182.183 15.9635 182.183 16.4531C182.183 16.8177 182.313 17.125 182.573 17.375C182.844 17.6146 183.183 17.8125 183.589 17.9688C183.995 18.1146 184.553 18.2865 185.261 18.4844C186.355 18.7865 187.25 19.0938 187.948 19.4062C188.646 19.7083 189.245 20.1771 189.745 20.8125C190.256 21.4479 190.511 22.2969 190.511 23.3594C190.511 24.4635 190.235 25.3958 189.683 26.1562C189.131 26.9062 188.407 27.4688 187.511 27.8438C186.615 28.2188 185.646 28.4062 184.605 28.4062ZM193.636 6.03125H196.918V14.5938C197.47 13.8021 198.152 13.2083 198.965 12.8125C199.777 12.4062 200.636 12.2031 201.543 12.2031C202.793 12.2031 203.84 12.4948 204.683 13.0781C205.538 13.6615 206.168 14.4323 206.574 15.3906C206.98 16.349 207.189 17.4062 207.199 18.5625V28.1094H203.918V19.0469C203.918 17.8281 203.678 16.875 203.199 16.1875C202.72 15.4896 201.907 15.1406 200.761 15.1406C199.939 15.1406 199.235 15.3438 198.652 15.75C198.079 16.1562 197.647 16.7188 197.355 17.4375C197.064 18.1458 196.918 18.9583 196.918 19.875V28.1094H193.636V6.03125ZM216.621 12.2031C217.986 12.2031 219.163 12.4688 220.153 13C221.142 13.5312 221.898 14.2812 222.418 15.25C222.939 16.2083 223.2 17.3281 223.2 18.6094V28.1094H220.528L220.309 25.6719C219.809 26.5469 219.085 27.224 218.137 27.7031C217.2 28.1719 216.215 28.4062 215.184 28.4062C214.111 28.4062 213.153 28.2083 212.309 27.8125C211.465 27.4167 210.804 26.8438 210.325 26.0938C209.845 25.3333 209.606 24.4375 209.606 23.4062C209.606 21.8229 210.168 20.6771 211.293 19.9688C212.418 19.2604 213.96 18.9062 215.918 18.9062H220.262C220.241 17.9792 220.116 17.2396 219.887 16.6875C219.658 16.125 219.283 15.7083 218.762 15.4375C218.252 15.1667 217.543 15.0312 216.637 15.0312C215.752 15.0312 214.976 15.2396 214.309 15.6562C213.653 16.0729 213.111 16.6354 212.684 17.3438L210.215 15.5625C211.007 14.4688 211.913 13.6354 212.934 13.0625C213.965 12.4896 215.194 12.2031 216.621 12.2031ZM215.825 25.6562C216.637 25.6562 217.356 25.4792 217.981 25.125C218.616 24.7708 219.127 24.2969 219.512 23.7031C219.898 23.1094 220.148 22.4531 220.262 21.7344V21.25H216.106C215.064 21.25 214.273 21.4583 213.731 21.875C213.189 22.2812 212.918 22.8229 212.918 23.5C212.918 24.1562 213.168 24.6823 213.668 25.0781C214.168 25.4635 214.887 25.6562 215.825 25.6562ZM230.06 28.4062C229.039 28.4062 228.258 28.1406 227.716 27.6094C227.185 27.0677 226.919 26.1771 226.919 24.9375V6.03125H230.138V24.0625C230.138 24.5312 230.247 24.8906 230.466 25.1406C230.685 25.3802 231.044 25.5 231.544 25.5C231.804 25.5 232.179 25.4635 232.669 25.3906L232.685 28.1094C231.716 28.3073 230.841 28.4062 230.06 28.4062ZM240.716 12.2031C242.081 12.2031 243.258 12.4688 244.248 13C245.237 13.5312 245.993 14.2812 246.513 15.25C247.034 16.2083 247.295 17.3281 247.295 18.6094V28.1094H244.623L244.404 25.6719C243.904 26.5469 243.18 27.224 242.232 27.7031C241.295 28.1719 240.31 28.4062 239.279 28.4062C238.206 28.4062 237.248 28.2083 236.404 27.8125C235.56 27.4167 234.899 26.8438 234.42 26.0938C233.94 25.3333 233.701 24.4375 233.701 23.4062C233.701 21.8229 234.263 20.6771 235.388 19.9688C236.513 19.2604 238.055 18.9062 240.013 18.9062H244.357C244.336 17.9792 244.211 17.2396 243.982 16.6875C243.753 16.125 243.378 15.7083 242.857 15.4375C242.347 15.1667 241.638 15.0312 240.732 15.0312C239.847 15.0312 239.071 15.2396 238.404 15.6562C237.748 16.0729 237.206 16.6354 236.779 17.3438L234.31 15.5625C235.102 14.4688 236.008 13.6354 237.029 13.0625C238.06 12.4896 239.289 12.2031 240.716 12.2031ZM239.92 25.6562C240.732 25.6562 241.451 25.4792 242.076 25.125C242.711 24.7708 243.222 24.2969 243.607 23.7031C243.993 23.1094 244.243 22.4531 244.357 21.7344V21.25H240.201C239.159 21.25 238.368 21.4583 237.826 21.875C237.284 22.2812 237.013 22.8229 237.013 23.5C237.013 24.1562 237.263 24.6823 237.763 25.0781C238.263 25.4635 238.982 25.6562 239.92 25.6562Z" fill="#2E2E2E"/>
</svg>
