<svg width="267" height="35" viewBox="0 0 267 35" fill="none" xmlns="http://www.w3.org/2000/svg">
<path d="M45.0997 17.786L37.6575 13.7305C37.6575 13.7305 35.1768 15.8063 35.1768 17.786C35.1768 19.7658 37.6575 21.8416 37.6575 21.8416L45.0997 17.786Z" fill="#EEBC00"/>
<path fill-rule="evenodd" clip-rule="evenodd" d="M6.01908 4.82363e-06V35L0 35V0L6.01908 4.82363e-06ZM12.9548 4.82363e-06V13.9331H33.6291C34.0751 13.2688 34.598 12.6593 35.099 12.1405L12.9548 4.82363e-06ZM33.8704 21.0669C34.3038 21.7438 34.7727 22.3456 35.1736 22.8186L12.9548 35V21.0669H33.8704Z" fill="#EEBC00"/>
<path d="M60.834 27.5H64.1934V8.4375H71.3652V5.42188H53.6465V8.4375H60.834V27.5ZM77.0221 27.7969C79.6002 27.7969 81.569 26.9219 83.2877 25.0469L81.069 23.0938C79.8659 24.3906 78.6002 24.8594 77.0377 24.8594C74.3502 24.8594 73.0065 23.2344 72.7252 20.7031H83.7096C83.7721 20.4844 83.8346 19.8438 83.8346 19.25C83.8346 15.8906 82.1159 11.5938 76.7565 11.5938C71.7252 11.5938 69.319 15.5781 69.319 19.7656C69.319 24.0469 71.8659 27.7969 77.0221 27.7969ZM72.7252 18.3594C73.0534 16.0156 74.2877 14.3125 76.7252 14.3125C78.8815 14.3125 80.2409 15.6094 80.5534 17.375C80.6315 17.6875 80.6627 18.0156 80.6471 18.3594H72.7252ZM92.804 27.7969C95.8352 27.7969 98.1946 26.1094 99.2102 23.2656L96.2727 22.1562C95.7884 23.7812 94.4759 24.8594 92.7727 24.8594C89.8821 24.8594 88.7102 22.375 88.7102 19.7188C88.7102 17.1094 89.8977 14.5312 92.7727 14.5312C94.4759 14.5312 95.7727 15.6406 96.304 17.2812L99.3665 16.0938C98.1946 13.0938 95.7884 11.5938 92.7727 11.5938C87.8196 11.5938 85.429 15.625 85.429 19.7188C85.429 23.9531 87.9134 27.7969 92.804 27.7969ZM101.914 27.5H105.195V19.2656C105.195 16.5469 106.492 14.5312 109.039 14.5312C111.492 14.5312 112.195 16.2188 112.195 18.4375V27.5H115.476V17.9531C115.445 14.6562 113.758 11.5938 109.82 11.5938C108.101 11.5938 106.351 12.3281 105.195 13.9844V5.42188H101.914V27.5ZM119.915 27.5H123.258V18.1719H126.555C131.055 18.1719 134.227 15.9219 134.227 11.8594C134.227 7.76562 131.04 5.42188 126.555 5.42188H119.915V27.5ZM123.258 15.0312V8.5625H126.555C129.493 8.5625 130.899 9.76562 130.899 11.8594C130.899 13.9219 129.54 15.0312 126.555 15.0312H123.258ZM141.915 11.5938C138.946 11.5938 137.009 12.875 135.509 14.9531L137.978 16.7344C138.775 15.4375 140.056 14.4219 141.931 14.4219C144.665 14.4219 145.493 15.6094 145.556 18.2969H141.212C137.556 18.2969 134.9 19.4688 134.9 22.7969C134.9 25.9688 137.275 27.7969 140.478 27.7969C142.431 27.7969 144.556 26.8906 145.603 25.0625L145.821 27.5H148.493V18C148.493 14.1562 146.087 11.5938 141.915 11.5938ZM141.118 25.0469C139.196 25.0469 138.212 24.1719 138.212 22.8906C138.212 21.6094 139.228 20.6406 141.4 20.6406H145.556V21.125C145.228 23.2344 143.65 25.0469 141.118 25.0469ZM157.806 11.5938C154.838 11.5938 152.9 12.875 151.4 14.9531L153.869 16.7344C154.666 15.4375 155.947 14.4219 157.822 14.4219C160.556 14.4219 161.385 15.6094 161.447 18.2969H157.103C153.447 18.2969 150.791 19.4688 150.791 22.7969C150.791 25.9688 153.166 27.7969 156.369 27.7969C158.322 27.7969 160.447 26.8906 161.494 25.0625L161.713 27.5H164.385V18C164.385 14.1562 161.978 11.5938 157.806 11.5938ZM157.01 25.0469C155.088 25.0469 154.103 24.1719 154.103 22.8906C154.103 21.6094 155.119 20.6406 157.291 20.6406H161.447V21.125C161.119 23.2344 159.541 25.0469 157.01 25.0469ZM173.354 27.7969C174.401 27.7969 175.432 27.5625 175.979 27.3594L175.963 24.4375C175.479 24.6562 174.682 24.9375 173.916 24.9375C172.698 24.9375 171.916 24.3438 171.916 22.6094V14.6094H175.979V11.8906H171.916V5.48438L168.745 7.79688V11.8906H166.135V14.6094H168.698V23.1562C168.698 26.0469 170.401 27.7969 173.354 27.7969ZM178.433 27.5H181.714V19.2656C181.714 16.5469 183.011 14.5312 185.558 14.5312C188.011 14.5312 188.714 16.2188 188.714 18.4375V27.5H191.995V17.9531C191.964 14.6562 190.276 11.5938 186.339 11.5938C184.62 11.5938 182.87 12.3281 181.714 13.9844V5.42188H178.433V27.5ZM200.496 27.7969C203.48 27.7969 206.402 26.2031 206.402 22.75C206.402 16.9375 198.074 18.7031 198.074 15.8438C198.074 14.875 199.011 14.1562 200.511 14.1562C202.277 14.1562 203.293 15.1875 203.902 16.2969L206.402 14.9375C205.246 12.8438 203.23 11.5938 200.621 11.5938C197.621 11.5938 194.98 13.1406 194.98 16.2656C194.98 21.8125 203.23 19.75 203.23 22.9062C203.23 24 202.293 25.0938 200.34 25.0938C198.152 25.0938 197.074 23.6562 196.605 22.3594L194.011 23.5C194.793 25.8906 197.277 27.7969 200.496 27.7969ZM209.528 27.5H212.809V19.2656C212.809 16.5469 214.106 14.5312 216.653 14.5312C219.106 14.5312 219.809 16.2188 219.809 18.4375V27.5H223.09V17.9531C223.059 14.6562 221.371 11.5938 217.434 11.5938C215.715 11.5938 213.965 12.3281 212.809 13.9844V5.42188H209.528V27.5ZM232.513 11.5938C229.544 11.5938 227.606 12.875 226.106 14.9531L228.575 16.7344C229.372 15.4375 230.653 14.4219 232.528 14.4219C235.263 14.4219 236.091 15.6094 236.153 18.2969H231.81C228.153 18.2969 225.497 19.4688 225.497 22.7969C225.497 25.9688 227.872 27.7969 231.075 27.7969C233.028 27.7969 235.153 26.8906 236.2 25.0625L236.419 27.5H239.091V18C239.091 14.1562 236.685 11.5938 232.513 11.5938ZM231.716 25.0469C229.794 25.0469 228.81 24.1719 228.81 22.8906C228.81 21.6094 229.825 20.6406 231.997 20.6406H236.153V21.125C235.825 23.2344 234.247 25.0469 231.716 25.0469ZM245.951 27.7969C246.763 27.7969 247.81 27.6562 248.576 27.5L248.56 24.7812C248.138 24.8438 247.701 24.8906 247.435 24.8906C246.404 24.8906 246.029 24.3438 246.029 23.4531V5.42188H242.81V24.3281C242.81 26.9062 244.013 27.7969 245.951 27.7969ZM256.608 11.5938C253.639 11.5938 251.701 12.875 250.201 14.9531L252.67 16.7344C253.467 15.4375 254.748 14.4219 256.623 14.4219C259.358 14.4219 260.186 15.6094 260.248 18.2969H255.905C252.248 18.2969 249.592 19.4688 249.592 22.7969C249.592 25.9688 251.967 27.7969 255.17 27.7969C257.123 27.7969 259.248 26.8906 260.295 25.0625L260.514 27.5H263.186V18C263.186 14.1562 260.78 11.5938 256.608 11.5938ZM255.811 25.0469C253.889 25.0469 252.905 24.1719 252.905 22.8906C252.905 21.6094 253.92 20.6406 256.092 20.6406H260.248V21.125C259.92 23.2344 258.342 25.0469 255.811 25.0469Z" fill="white"/>
</svg>
