<svg width="449" height="453" viewBox="0 0 449 453" fill="none" xmlns="http://www.w3.org/2000/svg">
<path d="M433.455 318.506L293.742 399.921L292.227 368.909L432.065 289.578L433.455 318.506Z" fill="#BF4D17"/>
<path d="M292.225 368.907L147.396 324.189L302.331 256.48L432.064 289.577L292.225 368.907Z" fill="#FF6822"/>
<path d="M148.912 354.884L293.678 399.602L292.225 368.906L147.396 324.188L148.912 354.884Z" fill="white"/>
<path d="M147.523 327.282L292.351 372.064L292.225 368.906L147.396 324.188L147.523 327.282Z" fill="#BF4D17"/>
<path d="M148.913 355.2L293.742 399.918L293.552 396.824L148.787 352.105L148.913 355.2Z" fill="#BF4D17"/>
<path d="M283.319 393.729L293.551 396.824L292.351 372.065L282.119 368.844L283.319 393.729Z" fill="#8F3B14"/>
<path d="M161.544 349.33L166.407 346.55L171.713 352.424L171.334 343.771L161.102 340.613L161.544 349.33Z" fill="#8F3B14"/>
<path d="M414.127 279.154L291.531 350.463L290.205 323.62L412.927 255.09L414.127 279.154Z" fill="white"/>
<path d="M413.053 257.364L290.331 326.399L290.205 323.62L412.927 255.09L413.053 257.364Z" fill="#4C7ED6"/>
<path d="M414.192 280.864L291.533 350.846L291.406 348.067L414.065 278.59L414.192 280.864Z" fill="#4C7ED6"/>
<g style="mix-blend-mode:multiply">
<path d="M414.38 285.031L292.416 355.329L291.531 350.908L409.453 283.578L414.38 285.031Z" fill="#E2D6D6"/>
</g>
<path d="M412.927 255.092L298.984 226.543L164.641 285.157L170.515 293.052L170.199 287.051L290.205 323.622L412.927 255.092Z" fill="#6CA0FA"/>
<path d="M169.44 313.073L290.836 350.528C291.151 350.654 291.53 350.402 291.53 350.086L290.267 324.253L171.461 287.556C168.429 286.672 165.334 288.82 165.524 291.788L166.345 309.221C166.471 310.989 167.671 312.505 169.44 313.073Z" fill="white"/>
<path d="M272.393 339.664L276.624 337.201L281.235 342.317L280.856 327.79L272.014 325.074L272.393 339.664Z" fill="#4C7ED6"/>
<path d="M176.01 314.968L165.967 311.873L164.641 285.156L174.746 288.251L176.01 314.968Z" fill="#4C7ED6"/>
<path d="M168.114 312.568L165.967 311.873L164.641 285.156L166.788 285.914L168.114 312.568Z" fill="#4C7ED6"/>
<path d="M164.767 287.872L290.331 326.337L290.205 323.621L164.641 285.156L164.767 287.872Z" fill="#4C7ED6"/>
<path d="M165.906 311.937L291.596 350.781L291.47 348.065L165.779 309.348L165.906 311.937Z" fill="#4C7ED6"/>
<g style="mix-blend-mode:multiply">
<path d="M166.41 315.982L292.417 355.331L291.469 350.783L171.463 313.645L166.41 315.982Z" fill="#E2D6D6"/>
</g>
<path d="M241.758 266.766C246.053 272.703 241.126 288.556 229.062 306.178C217.946 322.411 200.766 340.096 179.228 352.665C134.257 378.94 89.8551 377.803 81.4546 365.992L39.5156 304.473L202.408 209.289C202.408 209.289 241.442 266.324 241.758 266.766Z" fill="#3D3A3A"/>
<path d="M238.285 186.425L149.354 306.873L144.617 299.862L233.801 179.793L238.285 186.425Z" fill="#333030"/>
<path d="M233.8 179.793L185.102 245.291L144.616 299.862L11.1565 329.864L5.53516 330.811L100.214 211.879L233.8 179.793Z" fill="#3D3A3A"/>
<path d="M9.76695 337.065L149.353 306.874L144.616 299.863L5.53516 330.812L9.76695 337.065Z" fill="#333030"/>
<g style="mix-blend-mode:multiply">
<path d="M233.799 179.801L185.101 245.299L182.449 248.899C190.344 197.296 100.213 211.887 100.213 211.887L233.799 179.801Z" fill="#E2D6D6"/>
</g>
<g style="mix-blend-mode:multiply">
<path d="M241.757 266.773C246.052 272.71 241.125 288.563 229.061 306.185C229.061 306.185 232.788 282.058 222.682 267.152C209.166 247.319 191.291 250.288 191.291 250.288L211.503 222.812C211.503 222.812 241.441 266.331 241.757 266.773Z" fill="#EEE1E1"/>
</g>
<path d="M128.887 247.764C129.392 248.522 129.392 249.47 128.95 250.48C128.256 252.312 126.298 254.333 123.582 255.912C119.287 258.438 114.676 258.881 113.35 256.859C112.339 255.407 113.35 253.07 115.687 250.922C116.508 250.164 117.518 249.406 118.655 248.712C122.95 246.185 127.498 245.806 128.887 247.764Z" fill="#FF6822"/>
<path d="M121.121 252.312L77.6028 309.726C77.6028 309.726 68.8865 317.937 62.002 338.906" stroke="#FF6822" stroke-width="4.5"/>
<path d="M128.886 247.764C129.392 248.522 129.392 249.47 128.949 250.48C123.139 247.385 117.959 249.533 115.686 250.922C116.507 250.164 117.517 249.406 118.654 248.712C122.949 246.185 127.497 245.806 128.886 247.764Z" fill="#BF4D17"/>
<path d="M74.2516 363.282C77.7254 377.43 77.8517 389.431 74.5674 390.125C71.283 390.82 65.788 379.893 62.3141 365.745C58.8402 351.597 58.7139 339.596 61.9983 338.902C62.9457 338.712 64.0194 339.407 65.1563 340.86C68.1881 344.523 71.7251 353.05 74.2516 363.282Z" fill="#FF6822"/>
<path d="M74.2506 363.282C77.7245 377.43 77.8508 389.43 74.5665 390.125C74.7559 358.797 62.0605 343.512 62.0605 343.512L65.1554 340.859C68.1872 344.523 71.7242 353.049 74.2506 363.282Z" fill="#BF4D17"/>
<path d="M68.1885 338.588C68.6938 340.672 67.8727 342.819 66.2305 344.146C65.5357 344.714 64.5883 345.156 63.5777 345.346C60.2933 346.041 57.009 344.146 56.251 341.114C55.7457 339.03 56.5037 337.009 58.0827 335.619C58.8406 334.987 59.7881 334.545 60.8618 334.293C64.1462 333.598 67.4305 335.556 68.1885 338.588Z" fill="#FF6822"/>
<path d="M68.1878 338.588C68.6931 340.672 67.872 342.819 66.2298 344.146C66.1456 343.935 66.0614 343.683 65.9772 343.388C63.956 336.061 59.2821 335.619 58.082 335.619C58.84 334.987 59.7874 334.545 60.8611 334.293C64.1455 333.598 67.4299 335.556 68.1878 338.588Z" fill="#BF4D17"/>
<path d="M442.293 326.723L423.408 332.534L378.248 185.053L397.07 179.242L442.293 326.723Z" fill="#EBC827"/>
<path d="M431.304 330.132L429.156 330.764L383.807 182.714L385.891 182.02L431.304 330.132Z" fill="#3D3A3A"/>
<path d="M436.483 328.487L434.399 329.182L389.049 181.069L391.133 180.438L436.483 328.487Z" fill="#3D3A3A"/>
<path d="M443.242 329.942L423.977 335.816L422.777 332.089L442.105 326.152L443.242 329.942Z" fill="#3D3A3A"/>
<path d="M440.588 338.026L430.672 341.058C428.082 341.879 425.366 340.363 424.545 337.773L423.977 335.815L443.241 329.941L443.809 331.836C444.63 334.489 443.178 337.205 440.588 338.026Z" fill="#FF6822"/>
<path d="M397.07 179.24L378.248 185.051L381.596 171.851L383.048 165.977L387.406 170.082L397.07 179.24Z" fill="#FBE5C6"/>
<path d="M387.406 170.082L381.596 171.851L383.048 165.977L387.406 170.082Z" fill="#3D3A3A"/>
<path d="M101.603 93.4671C102.614 91.888 102.108 89.8037 100.529 88.8563L81.0757 76.7294C79.4966 75.7819 77.4755 76.2241 76.4649 77.8031L74.7595 80.6454L73.3068 82.9191L44.8843 128.648C43.8737 130.164 44.379 132.248 45.9581 133.195L113.477 175.261C115.056 176.271 117.141 175.766 118.088 174.187L146.195 129.027C147.205 127.511 146.7 125.427 145.121 124.479L102.677 98.0147C101.098 97.0673 100.656 94.9829 101.603 93.4671Z" fill="#D1B223"/>
<path d="M113.477 175.263L45.9581 133.197C44.379 132.25 43.8737 130.166 44.8843 128.65L77.9808 86.5844C78.9282 85.0053 81.0125 84.5632 82.5284 85.5106L150.111 127.576C151.69 128.523 152.195 130.608 151.185 132.187L118.088 174.189C117.141 175.768 115.056 176.273 113.477 175.263Z" fill="#EBC827"/>
<g style="mix-blend-mode:multiply">
<path d="M270.999 253.129C268.031 250.729 263.104 253.761 262.725 257.613C262.283 261.403 264.873 264.94 267.968 267.277C277.063 274.225 289.505 273.783 300.938 273.088C307.801 272.625 314.686 272.183 321.591 271.761C326.897 271.446 332.96 270.688 335.992 266.33C339.529 261.277 336.624 253.634 331.255 250.729C325.886 247.76 319.065 248.708 313.507 251.297C308.58 253.571 304.096 257.108 298.727 257.677C289.127 258.624 275.926 248.834 267.146 252.624" fill="#F2E5E5"/>
</g>
<path d="M349.637 116.451C347.742 116.893 340.921 116.957 334.605 117.462C333.342 113.925 331.447 106.219 328.668 96.4292C328.162 94.4712 325.383 90.871 322.288 89.5446C320.33 88.6604 317.488 90.2394 318.309 93.9659C318.751 96.0502 319.32 99.0188 321.72 105.84C325.067 115.314 327.531 119.925 329.047 122.136C329.215 122.557 329.468 122.915 329.805 123.21C329.973 123.378 330.162 123.525 330.373 123.652C330.941 124.031 331.636 124.22 332.457 124.157C338.268 123.967 337.889 123.778 345.342 121.567C350.585 119.988 349.7 121.125 350.774 119.799C351.595 118.662 351.153 116.072 349.637 116.451Z" fill="#BF4D17"/>
<path d="M301.001 106.279C302.327 111.143 302.896 116.196 303.401 121.185C303.717 124.849 303.338 128.638 302.58 132.238C302.138 134.449 301.569 136.597 300.875 138.681C300.622 139.502 298.601 146.008 298.475 146.702C298.475 146.702 327.023 148.66 328.666 148.787C328.792 142.85 323.36 123.775 328.729 112.027C332.455 103.942 328.287 103.374 325.887 96.2366C325.318 94.4681 321.086 90.9943 319.381 90.4258C318.497 90.1732 317.549 89.9837 316.602 89.8574C311.549 89.0994 300.875 86.194 299.233 93.3944C298.79 95.3524 299.548 101.605 300.243 103.69C300.538 104.574 300.791 105.437 301.001 106.279Z" fill="#FF6822"/>
<path d="M327.405 208.542C327.447 207.952 327.468 207.384 327.468 206.836C327.594 205.952 327.657 204.942 327.594 203.805C327.594 199.257 328.163 179.74 328.478 168.056C329.173 157.887 328.668 148.791 328.668 148.791L298.477 146.707C297.277 151.128 296.772 154.855 296.645 157.76C295.824 162.371 291.277 195.278 290.077 201.278C290.034 201.615 289.992 201.931 289.95 202.226C283.381 212.016 278.455 249.407 277.192 255.913C277.065 256.734 277.507 256.671 278.076 256.607C279.529 256.418 279.023 255.028 281.171 255.281C282.245 255.407 282.497 256.986 282.497 256.986C285.403 248.333 295.256 217.826 299.74 208.668C300.435 207.279 300.751 206.079 300.94 204.942C304.54 194.836 310.225 177.53 311.867 170.014C312.688 178.603 314.709 197.931 316.478 206.963C312.499 219.216 316.667 245.049 316.036 259.765C317.741 257.302 319.257 256.734 319.952 256.86C321.089 257.05 321.594 257.934 321.594 257.934C322.731 238.228 326.268 218.711 327.405 208.542Z" fill="#072C6E"/>
<path d="M321.973 257.931C322.289 258.626 323.868 260.268 326.079 261.468C328.289 262.605 333.09 263.426 330.311 264.184C327.595 264.878 324.5 264.121 322.921 263.742C321.342 263.363 319.826 263.236 317.931 263.11C315.468 262.92 315.468 262.794 315.973 260.015C316.668 256.225 321.026 255.657 321.973 257.931Z" fill="#21103F"/>
<path d="M282.434 256.415C282.75 257.11 282.876 260.394 285.087 261.594C287.361 262.731 292.161 263.552 289.382 264.247C286.666 265.005 283.508 264.247 281.992 263.868C280.413 263.489 280.287 261.721 278.392 261.594C275.929 261.405 275.929 261.278 276.434 258.499C277.129 254.71 281.487 254.204 282.434 256.415Z" fill="#21103F"/>
<path d="M308.521 76.4688C308.457 76.8477 307.447 83.7954 307.005 89.101C306.752 91.7537 308.521 94.3434 310.415 94.5328C310.415 94.5749 310.436 94.596 310.479 94.596C312.31 94.7223 314.647 92.5117 314.71 89.9221C314.71 85.2481 315.279 80.5111 315.279 80.3847L308.521 76.4688Z" fill="#D68952"/>
<path d="M305.235 71.1648C305.424 77.2283 305.488 78.5546 307.951 81.1442C310.351 83.797 314.014 85.1234 316.857 85.3129C319.888 85.5655 322.415 82.4706 323.236 80.0073C324.12 77.4177 325.383 71.3543 325.004 64.7855C324.752 61.438 320.962 57.143 316.73 56.8272C312.562 56.5746 304.793 56.5114 305.235 71.1648Z" fill="#EB975A"/>
<path fill-rule="evenodd" clip-rule="evenodd" d="M325.005 67.6277C324.752 66.5539 323.741 65.7328 322.604 64.9117C319.636 67.375 314.267 68.5751 309.972 69.5225L304.54 73.1858C301.003 72.9332 301.193 79.6914 298.477 81.9652C296.835 83.2916 295.698 85.8181 293.929 86.955C292.161 88.155 289.634 88.534 287.992 87.1444C292.603 84.8706 294.435 79.8178 292.666 74.9544C291.845 72.7437 290.329 70.8489 289.508 68.6382C288.687 66.4276 288.687 63.9643 289.382 61.6905H289.255C290.203 57.4587 292.161 54.6796 295.003 53.4164C300.182 51.1426 306.562 54.6165 306.625 54.6165L306.498 54.8059C307.635 55.1007 308.73 55.4586 309.783 55.8797C313.067 54.8059 317.236 54.7428 320.52 57.1429C322.289 57.9008 324.373 60.0483 325.005 61.3747C326.205 63.9643 325.51 69.3962 325.005 67.6277ZM305.74 54.5533C303.909 53.7322 299.172 51.9637 295.129 53.7322C292.792 54.8059 291.087 56.9534 290.013 60.1115C290.961 58.2166 292.413 56.5113 294.245 55.4376C297.719 53.4796 301.761 53.6059 305.74 54.5533Z" fill="#0F0F0F"/>
<path d="M307.002 71.4182C307.697 73.5025 307.381 75.5237 306.244 75.9027C305.171 76.2816 303.655 74.8289 302.96 72.7446C302.265 70.5971 302.581 68.576 303.718 68.197C304.855 67.8812 306.308 69.2707 307.002 71.4182Z" fill="#EB975A"/>
<path d="M348.121 127.885L330.373 131.674V108.052L348.121 104.199V127.885Z" fill="#E0D4D4"/>
<path d="M324.121 119.801C325.51 118.664 327.405 117.59 328.731 117.401C330.058 117.275 327.784 119.043 326.773 119.991C325.763 120.875 322.92 120.749 324.121 119.801Z" fill="#EB975A"/>
<path d="M326.08 119.805C329.743 119.173 331.638 118.289 333.344 118.92C335.049 119.552 332.586 121.889 331.322 122.331C330.059 122.71 325.701 124.415 324.375 123.594C323.048 122.71 323.364 120.184 326.08 119.805Z" fill="#EB975A"/>
<path d="M323.68 119.672C321.722 119.988 310.1 119.609 303.405 119.735C303.784 115.63 304.984 108.43 306.247 99.3343C306.5 97.3132 305.363 92.955 303.089 90.4918C301.637 88.9127 298.415 89.2286 297.657 92.9551C297.278 95.1025 296.647 98.008 296.142 105.208C295.257 117.019 295.952 122.072 296.584 124.283C296.71 124.788 297.026 125.167 297.468 125.483C298.1 126.115 298.984 126.62 300.121 126.62C306.184 126.683 308.458 126.557 316.353 124.599C321.848 123.272 323.553 124.536 324.69 123.209C325.575 122.072 325.259 119.356 323.68 119.672Z" fill="#BF4D17"/>
<path d="M347.869 117.968C347.869 116.957 347.995 115.315 348.501 113.862C348.753 113.041 349.701 112.473 350.396 113.231C350.964 113.862 351.975 116.452 351.532 117.715C351.154 118.789 350.206 119.736 349.322 120.178C348.374 120.557 347.869 119.673 347.869 117.968Z" fill="#EB975A"/>
<path d="M405.41 108.621L396.441 100.662L448.549 86.2617L430.422 130.222L415.769 117.148L409.705 122.769L405.41 108.621Z" fill="#6CA0FA"/>
<g style="mix-blend-mode:multiply">
<path d="M448.549 86.2617L415.769 117.148L409.705 122.769L405.41 108.621L448.549 86.2617Z" fill="#A9B3D1"/>
</g>
<path d="M134.32 12.9971L139.941 2.44922L86.0645 7.1863L118.466 42.0513L127.561 24.6819L135.204 27.7768L134.32 12.9971Z" fill="#FF6822"/>
<g style="mix-blend-mode:multiply">
<path d="M86.0645 7.1875L127.561 24.6831L135.204 27.778L134.32 12.9983L86.0645 7.1875Z" fill="#A9B3D1"/>
</g>
<path d="M403.075 127.949C402.359 128.37 401.644 128.812 400.928 129.276" stroke="#A5B9F6" stroke-width="1.5" stroke-linecap="round" stroke-linejoin="round"/>
<path d="M388.675 136.793C383.559 140.204 378.759 143.93 374.527 148.415C366.442 156.941 360.758 168.437 361.895 180.122C362.59 187.196 365.684 193.764 368.274 200.396C370.864 207.028 373.011 214.165 371.685 221.113C370.99 224.84 368.969 228.44 366.19 230.966" stroke="#A5B9F6" stroke-width="1.5" stroke-linecap="round" stroke-linejoin="round" stroke-dasharray="7.5 7.5"/>
<path d="M359.935 234.312C359.135 234.523 358.292 234.607 357.408 234.565" stroke="#A5B9F6" stroke-width="1.5" stroke-linecap="round" stroke-linejoin="round"/>
<path d="M143.984 34.5352C144.532 35.2089 145.058 35.8826 145.563 36.5563" stroke="#A5B9F6" stroke-width="1.5" stroke-linecap="round" stroke-linejoin="round"/>
<path d="M153.649 48.9375C155.038 51.7798 156.112 54.6852 156.681 57.7801C158.323 66.5595 155.102 76.8547 147.017 80.6444C136.216 85.7605 124.405 77.36 114.426 70.8544C101.099 62.075 86.1296 55.8221 70.5288 52.6008C59.3493 50.2639 47.3487 49.506 36.8008 53.8641C24.6107 58.7906 15.7681 70.0333 10.7152 82.1603C5.66234 94.3504 3.89383 107.614 2.18848 120.689C1.30422 127.384 0.419966 134.205 1.49371 140.837C2.50428 147.532 5.78867 154.164 11.4732 157.764C19.8736 163.07 30.7373 160.543 40.6536 161.049C53.2859 161.743 65.5391 168.123 73.3711 178.039C79.1819 185.366 82.5295 194.587 82.9716 203.872" stroke="#A5B9F6" stroke-width="1.5" stroke-linecap="round" stroke-linejoin="round" stroke-dasharray="7.5 7.5"/>
<path d="M82.7169 211.32C82.6326 212.162 82.5063 212.984 82.3379 213.784" stroke="#A5B9F6" stroke-width="1.5" stroke-linecap="round" stroke-linejoin="round"/>
<path d="M164.005 408.573C163.879 407.689 163.879 406.847 164.005 406.047" stroke="#A5B9F6" stroke-width="1.5" stroke-linecap="round" stroke-linejoin="round"/>
<path d="M174.996 397.203C180.302 397.077 185.355 400.172 189.018 404.151C192.934 408.32 195.587 413.372 198.808 418.109C210.745 435.731 230.325 448.048 251.421 451.206C272.517 454.301 294.813 448.237 311.424 434.784C325.067 423.731 334.541 408.383 346.858 395.877C356.837 385.834 370.101 377.371 383.744 376.676" stroke="#A5B9F6" stroke-width="1.5" stroke-linecap="round" stroke-linejoin="round" stroke-dasharray="7.5 7.5"/>
<path d="M391.387 377.055C392.187 377.223 393.008 377.413 393.85 377.623" stroke="#A5B9F6" stroke-width="1.5" stroke-linecap="round" stroke-linejoin="round"/>
<path d="M293.611 1.24797C300.243 -0.267901 306.496 5.4166 309.591 11.4801C312.749 17.5435 314.265 24.5544 318.749 29.6705C326.329 38.513 339.593 39.1447 351.277 38.892C362.899 38.5762 376.037 38.6394 384.311 46.8503" stroke="#A5B9F6" stroke-width="1.5" stroke-linecap="round" stroke-linejoin="round" stroke-dasharray="7.5 7.5"/>
<path d="M197.857 111.905L195.457 110.894L208.279 80.7031L210.679 81.7137L197.857 111.905Z" fill="#3D3A3A"/>
<path d="M184.278 141.085C180.931 139.632 179.352 135.78 180.805 132.432L192.679 104.452C194.068 101.104 197.921 99.525 201.269 100.915C204.616 102.367 206.195 106.22 204.806 109.568L192.932 137.611C191.479 140.959 187.626 142.475 184.278 141.085Z" fill="#6CA0FA"/>
<path d="M252.873 64.6595C245.735 81.5867 226.156 89.545 209.165 82.3446C192.175 75.1443 184.28 55.5643 191.48 38.6371C198.68 21.6468 218.26 13.7516 235.188 20.8888C252.178 28.0892 260.073 47.6692 252.873 64.6595Z" stroke="#4C7ED6" stroke-width="14"/>
<path d="M248.578 62.1969C242.452 76.6608 225.714 83.4191 211.25 77.2924C196.786 71.1658 190.028 54.4281 196.155 39.9642C202.281 25.5003 219.019 18.6789 233.483 24.8687C247.947 30.9953 254.705 47.6699 248.578 62.1969Z" fill="#D0EAFF"/>
<path opacity="0.3" d="M229.567 38.6987C229.567 43.8148 224.577 47.9203 218.387 47.9203C212.197 47.9203 207.145 43.8148 207.145 38.6987C207.145 33.5827 212.197 29.4141 218.387 29.4141C224.577 29.4141 229.567 33.5827 229.567 38.6987Z" fill="white"/>
</svg>
