<svg width="337" height="381" viewBox="0 0 337 381" fill="none" xmlns="http://www.w3.org/2000/svg">
<path d="M119.036 205.144C119.036 195.454 109.525 187.596 97.7969 187.596H44.4657C32.7958 187.596 23.2266 195.454 23.2266 205.144V223.656C23.2266 233.346 32.7958 241.204 44.4657 241.204H62.3789L75.0407 256.63C75.0407 256.63 78.2499 260.632 81.4591 260.198C85.1935 259.716 84.61 254.509 84.61 254.509L85.4268 241.204H97.7969C109.525 241.204 119.036 233.346 119.036 223.656V205.144Z" fill="#1B74DC"/>
<path d="M40.322 205.578H40.4971L40.6138 205.626H40.7305L40.8472 205.675L40.9639 205.723L41.0222 205.771L41.1389 205.819L41.2556 205.867L41.3723 205.916L41.4307 206.012L41.5473 206.06L41.6057 206.157L41.664 206.205L41.7224 206.301L41.8391 206.398V206.494L41.8974 206.591L41.9558 206.687V206.783L42.0141 206.88V206.976L42.1308 209.194L42.2475 211.411L42.3642 212.472L42.4226 213.581L42.4809 214.69L42.5393 215.798L42.5976 216.907L42.656 218.016L42.7143 219.125L42.7727 220.234L42.831 221.342V222.451L42.8894 222.981V223.56V224.09L42.9477 224.669V224.765L42.8894 224.862V224.958V225.054L42.831 225.151L42.7727 225.247V225.344L42.7143 225.44L42.5976 225.536L42.5393 225.585L42.4809 225.681L42.3642 225.729L42.3059 225.826L42.1892 225.874L42.1308 225.922L42.0141 225.97L41.8974 226.019L41.7807 226.067L41.664 226.115H41.5473L41.4307 226.163H41.3139H41.1972H41.0222H40.9055H40.7888L40.6721 226.115H40.5554L40.4387 226.067L40.322 226.019L40.2053 225.97L40.147 225.922L40.0303 225.874L39.9136 225.826L39.8552 225.729L39.7385 225.681L39.6802 225.585L39.6218 225.488L39.5635 225.392L39.5051 225.295L39.4468 225.247L39.3884 225.151V225.006L39.3301 224.91V224.813V224.717L39.2717 224.187V223.608V223.078L39.2134 222.548V221.439L39.155 220.33L39.0967 219.221L39.0383 218.161L38.98 217.052L38.9216 215.943L38.8633 214.834L38.8049 213.725L38.7466 212.665L38.6882 211.556L38.5132 209.338L38.3965 207.121V207.024V206.928V206.832L38.4548 206.735V206.639L38.5132 206.542L38.5715 206.446L38.6299 206.349L38.6882 206.253L38.7466 206.205L38.8049 206.108L38.9216 206.012L38.98 205.964L39.0967 205.867L39.155 205.819L39.2717 205.771L39.3884 205.723L39.5051 205.675L39.6218 205.626H39.7385L39.8552 205.578H39.9719H40.0886H40.2053H40.322Z" fill="white"/>
<path d="M53.802 204.662L53.9187 204.71H54.0354H54.1521L54.2688 204.759L54.3855 204.807L54.5022 204.855L54.6189 204.903L54.6772 204.951L54.7939 205.048L54.9106 205.096L54.969 205.192L55.0857 205.241L55.144 205.337L55.2024 205.433L55.2607 205.53L55.3191 205.626L55.3774 205.723V205.819L55.4358 205.916V206.012V206.108V206.253V206.494L55.3774 206.783V207.073V207.362V207.651V207.892V208.181V208.471L55.3191 208.76V209.049V209.29L55.3774 209.579V209.869V210.158V210.447V210.736V211.026V211.267L55.4358 211.845V212.424V213.002L55.4941 213.581V214.159L55.6108 215.268L55.6692 216.425V217.003L55.7275 217.582V218.161L55.7859 218.787V219.366V219.655V219.944L55.8442 220.233V220.523V220.812V221.101V221.39V221.68V221.969V222.258V222.547V222.885V223.174V223.463L55.7859 223.753V224.042V224.331V224.62V224.717L55.7275 224.813V224.958L55.6692 225.054L55.6108 225.151L55.5525 225.247L55.4941 225.295L55.4358 225.392L55.3774 225.488L55.3191 225.585L55.2024 225.633L55.0857 225.729L55.0273 225.777L54.9106 225.826L54.7939 225.874L54.6772 225.922L54.5605 225.97L54.4438 226.018H54.3271H54.2104L54.0937 226.067H53.977H53.802L53.6853 226.018H53.5686L53.4519 225.97H53.3352L53.2185 225.922L53.1018 225.874L52.9851 225.826L52.8684 225.777L52.8101 225.681L52.6933 225.633L52.635 225.536L52.5183 225.488L52.46 225.392L52.4016 225.295L52.3433 225.199L52.2849 225.103L52.2266 225.006V224.91L52.1682 224.813V224.717V224.62V224.476V224.235V223.946L52.2266 223.656V223.367V223.078V222.837V222.547V222.258V221.969V221.68V221.439V221.149V220.86V220.571V220.282V219.992L52.1682 219.703V219.414V218.884L52.1099 218.305V217.727L52.0515 217.148V216.57L51.9932 215.413L51.9348 214.256L51.8765 213.677V213.099L51.8181 212.52V211.942L51.7598 211.363V211.074V210.785V210.495V210.206V209.917V209.628V209.338V209.049V208.76V208.422V208.133V207.844V207.555V207.265V206.976L51.8181 206.687V206.398V206.108V205.964L51.8765 205.867V205.771L51.9348 205.674V205.578L51.9932 205.482L52.0515 205.385L52.1682 205.289L52.2266 205.241L52.2849 205.144L52.4016 205.096L52.46 205L52.5767 204.951L52.6933 204.903L52.8101 204.855L52.9268 204.807L53.0434 204.759L53.1601 204.71H53.2768L53.3935 204.662H53.5102H53.6269H53.802Z" fill="white"/>
<path d="M53.4513 214.109H53.568H53.6847L53.7431 214.158H53.8598H53.9181L54.0348 214.206L54.0932 214.254H54.2099L54.2682 214.302L54.3849 214.35L54.4433 214.399L54.5016 214.447L54.6183 214.495L54.6767 214.543L54.735 214.591L54.7934 214.64L54.8517 214.736L54.91 214.784L54.9684 214.881L55.0267 214.929V215.025L55.0851 215.074V215.17L55.1434 215.218V215.315L55.2018 215.363V215.459V215.556V215.604V215.7V215.797L55.1434 215.845V215.941V215.99L55.0851 216.086V216.182L55.0267 216.231L54.9684 216.327L54.91 216.375L54.8517 216.423L54.7934 216.52L54.735 216.568L54.6767 216.616L54.6183 216.664L54.56 216.713L54.5016 216.761L54.3849 216.809L54.3266 216.857L54.2099 216.905L54.1515 216.954L54.0348 217.002H53.9765L53.8598 217.05H53.8014H53.6847L53.568 217.098H53.5097H53.1012L52.6928 217.147H52.2843H51.8759L51.059 217.195L50.2421 217.243H49.4252L48.6083 217.291H48.1999L47.7914 217.339H47.383H46.9746L46.5661 217.388H46.1577L45.7492 217.436L45.3408 217.484H44.9907L44.5822 217.532H44.4072L44.1738 217.58H43.9987H43.8237L43.5903 217.629H43.4153L43.2402 217.677H43.0068L42.8318 217.725H42.6567L42.4817 217.773H42.3066L42.0732 217.821L41.8982 217.87H41.7231L41.5481 217.918L41.373 217.966H41.198L41.0229 218.014L40.7895 218.062H40.7312H40.6145H40.4978L40.4394 218.111H40.3227L40.2644 218.062H40.1477H40.031H39.9727L39.8559 218.014H39.7976L39.6809 217.966L39.5642 217.918H39.5059L39.4475 217.87L39.3308 217.821L39.2725 217.773L39.2141 217.725L39.0974 217.677L39.0391 217.58L38.9807 217.532L38.9224 217.484L38.864 217.436L38.8057 217.339V217.291L38.7473 217.195L38.689 217.147V217.05L38.6306 217.002V216.905V216.809L38.5723 216.761V216.664V216.568V216.52V216.423L38.6306 216.327V216.279V216.182L38.689 216.134V216.038L38.7473 215.99L38.8057 215.893L38.864 215.845L38.9224 215.748V215.7L38.9807 215.652L39.0974 215.556L39.1558 215.507L39.2141 215.459L39.2725 215.411L39.3892 215.363L39.4475 215.315L39.5059 215.266H39.6226L39.6809 215.218L39.7976 215.17H39.8559L39.9727 215.122H40.1477L40.3811 215.074L40.6145 215.025L40.7895 214.977H41.0229L41.198 214.929L41.4314 214.881L41.6648 214.833H41.8398L42.0732 214.784H42.3066L42.4817 214.736H42.7151L42.8901 214.688H43.1235L43.3569 214.64H43.5319L43.7654 214.591H43.9987L44.1738 214.543H44.6406L45.049 214.495L45.4575 214.447H45.8659L46.3327 214.399H46.7412L47.1496 214.35H47.5581L47.9665 214.302H48.4333L49.2502 214.254H50.0671L50.884 214.206L51.7008 214.158H52.1093H52.4594L52.8678 214.109H53.2763H53.393H53.4513Z" fill="white"/>
<path d="M71.4823 203.988H71.599L71.7157 204.036H71.7741H71.8908L72.0075 204.085L72.0658 204.133H72.1825L72.2409 204.181L72.3576 204.229L72.4159 204.278L72.4742 204.326L72.591 204.374L72.6493 204.422L72.7077 204.47L72.766 204.567L72.8243 204.615L72.8827 204.711L72.9411 204.76L72.9994 204.856V204.904L73.0577 205.001L73.1161 205.049V205.145V205.242L73.1744 205.29V205.386V205.483V205.531V205.627L73.1161 205.724V205.82V205.868L73.0577 205.965V206.013L72.9994 206.109L72.9411 206.158L72.8827 206.254L72.8243 206.302L72.766 206.399L72.7077 206.447L72.6493 206.495L72.591 206.592L72.5326 206.64L72.4159 206.688L72.3576 206.736L72.2992 206.784H72.1825L72.0658 206.833L72.0075 206.881H71.8908L71.8324 206.929H71.7157L71.599 206.977H71.3656L71.1322 207.025H70.8988L70.6654 207.074H70.432H70.1986L69.9652 207.122H69.7902H69.5568L69.3234 207.17H69.09H68.8566H68.6232L68.3898 207.218H68.1564H67.923H67.4562H67.0478H66.581L66.1142 207.266H65.2389H64.8305H64.3637H63.9553H63.4885H63.08L62.905 207.315H62.6716H62.4382H62.2631H62.0297H61.8547L61.6213 207.363H61.4462H61.2129L61.0378 207.411H60.8044H60.6294L60.396 207.459H60.2209L59.9875 207.508H59.8125H59.5791L59.404 207.556L59.229 207.604H58.9956L58.8205 207.652L58.6455 207.7H58.4121L58.237 207.749L58.062 207.797L57.8286 207.845H57.7703H57.6536L57.5369 207.893H57.4785H57.3618H57.2451H57.1868L57.0701 207.845H56.9534L56.895 207.797H56.7783L56.6616 207.749H56.6033L56.4866 207.7L56.4282 207.652L56.3115 207.604L56.2532 207.556L56.1948 207.508L56.1365 207.459L56.0198 207.363L55.9614 207.315L55.9031 207.266L55.8447 207.17L55.7864 207.122V207.025L55.728 206.977L55.6697 206.881V206.784L55.6113 206.736V206.64V206.543V206.495V206.399V206.302V206.254V206.158V206.061L55.6697 206.013V205.917L55.728 205.82L55.7864 205.772V205.676L55.8447 205.627L55.9031 205.531L55.9614 205.483L56.0198 205.435L56.0781 205.338L56.1365 205.29L56.2532 205.242L56.3115 205.193L56.3699 205.145L56.4866 205.097L56.5449 205.049H56.6616L56.7783 205.001L56.8367 204.952H56.9534L57.1868 204.904L57.4202 204.856L57.6536 204.808L57.887 204.76L58.1203 204.711L58.3537 204.663H58.5871L58.8205 204.615L59.0539 204.567H59.2873L59.5207 204.519H59.7541L59.9875 204.47H60.2209L60.4543 204.422H60.6877H60.9211L61.1545 204.374H61.3879H61.6213L61.8547 204.326H62.0881H62.2631H62.4965H62.7299H62.9633L63.4301 204.278H63.8969H64.3054H64.7722H65.1806H66.0558H66.5226L66.9311 204.229H67.3979H67.8063H68.0397H68.2148H68.4482L68.6232 204.181H68.8566H69.0316H69.265L69.4985 204.133H69.6735H69.9069H70.0819L70.3153 204.085H70.4904L70.6654 204.036H70.8988L71.0739 203.988H71.1906H71.3073H71.424H71.4823Z" fill="white"/>
<path d="M64.4236 205.045H64.5403L64.657 205.093H64.7737L64.8904 205.141H65.0071L65.1238 205.19L65.2404 205.238L65.3572 205.334L65.4155 205.382L65.5322 205.431L65.6489 205.527L65.7073 205.575L65.7656 205.672L65.8239 205.768L65.8823 205.864L65.9406 205.961L65.999 206.057L66.0573 206.154V206.25V206.347L66.1157 206.443V207.021L66.174 207.552V208.13L66.2324 208.661V209.239L66.2907 209.818V210.348L66.3491 210.926V211.457L66.4074 212.035V212.565V213.144L66.4658 214.253V215.362L66.5241 216.47V217.579L66.5825 218.688V219.797L66.6408 220.906V221.484V222.014L66.6992 222.593V223.123L66.7575 223.653V224.232V224.328V224.425V224.521L66.6992 224.618V224.714L66.6408 224.81L66.5825 224.907L66.5241 225.003L66.4658 225.1L66.4074 225.196L66.2907 225.244L66.2324 225.341L66.1157 225.389L66.0573 225.485L65.9406 225.534L65.8239 225.582L65.7073 225.63L65.6489 225.678L65.5322 225.726H65.4155L65.2404 225.775H65.1238H65.0071H64.8904H64.7737H64.657L64.5403 225.726H64.4236L64.3069 225.678L64.1902 225.63L64.0735 225.582L63.9568 225.534L63.8401 225.485L63.7817 225.389L63.665 225.341L63.6067 225.244L63.5483 225.196L63.4316 225.1L63.3733 225.003L63.3149 224.907L63.2566 224.859V224.762L63.1982 224.618V224.521L63.1399 224.425V224.328V223.798L63.0815 223.22V222.689V222.111L63.0232 221.532V221.002L62.9648 219.893V218.784L62.9065 217.676V216.567L62.8481 215.458V214.349L62.7898 213.24V212.662V212.132L62.7314 211.553V211.023V210.444L62.6731 209.914V209.384L62.6147 208.805V208.275L62.5564 207.696L62.498 207.166V206.636V206.491V206.395V206.298V206.202L62.5564 206.106L62.6147 206.009V205.913L62.6731 205.816L62.7314 205.72L62.8481 205.672L62.9065 205.575L62.9648 205.479L63.0815 205.431L63.1399 205.382L63.2566 205.286L63.3733 205.238L63.49 205.19L63.6067 205.141L63.7234 205.093H63.8401L63.9568 205.045H64.0735H64.1902H64.3069H64.4236Z" fill="white"/>
<path d="M89.278 202.539H89.453H89.5697L89.6864 202.587H89.8615L89.9198 202.635L90.0365 202.684L90.1532 202.732L90.2116 202.78L90.3283 202.828L90.3866 202.877L90.445 202.925H90.5033L90.5616 202.973L90.62 203.021V203.069L90.6784 203.118L90.7367 203.166L90.7951 203.214L90.8534 203.31L90.9117 203.407L90.9701 203.455L91.0285 203.551V203.6L91.0868 203.696L91.2035 203.841L91.2618 203.937V204.082L91.3202 204.178L91.4369 204.371L91.4952 204.516L91.5536 204.612L91.6119 204.757V204.901L91.6703 205.046L91.7286 205.191L91.787 205.335V205.48L91.8453 205.624L91.9037 205.769V205.914L91.962 206.058V206.203L92.0204 206.348V206.492V206.637L92.0787 206.781V206.926V207.071L92.1371 207.167V207.312V207.456V207.601V207.746L92.1954 207.89V208.035V208.276V208.565V208.806V209.095V209.626V210.156V211.168V212.229V213.241V214.302V215.314V215.845V216.327V216.857V217.387V217.869V218.4L92.2538 218.93V219.412V219.942V220.473L92.3121 220.955V221.485L92.3705 221.967V222.497L92.4288 222.738V222.98V223.269V223.51L92.4872 223.751V223.992L92.5455 224.281V224.522V224.763L92.6039 225.004V225.294L92.6622 225.535V225.631V225.776V225.872L92.6039 225.968V226.065L92.5455 226.209L92.4872 226.306L92.4288 226.402L92.3705 226.499L92.3121 226.595L92.1954 226.692L92.1371 226.74L92.0204 226.836L91.9037 226.884L91.787 226.933L91.6703 227.029H91.5536L91.4369 227.077L91.3202 227.125H91.1451L91.0285 227.174H90.9117H90.7367H90.62L90.5033 227.125H90.3866L90.2116 227.077L90.0949 227.029L89.9782 226.981L89.8615 226.933L89.7448 226.836L89.6864 226.788L89.5697 226.692L89.453 226.643L89.3947 226.547L89.3363 226.451L89.2196 226.354V226.258L89.1613 226.161L89.1029 226.017V225.92L89.0446 225.824V225.535L88.9862 225.294V225.004L88.9279 224.763V224.522V224.233L88.8695 223.992V223.703L88.8112 223.462V223.172V222.931L88.7528 222.642V222.112L88.6945 221.581V221.099V220.569L88.6361 220.039V219.508V218.978V218.448L88.5778 217.918V217.387V216.905V216.375V215.845V215.314V214.254V213.241V212.181V211.168V210.156V209.626V209.095V208.854V208.806L88.5194 208.903L88.3444 209.288L88.0526 210.06L87.8192 210.445L87.6442 210.879L87.4691 211.265L87.4108 211.458L87.2941 211.65L87.1774 211.843L87.119 212.036L87.0024 212.229L86.8857 212.422L86.8273 212.615L86.7106 212.807L86.5939 213.049L86.4772 213.193L86.3605 213.482L86.2438 213.627L86.1855 213.772L86.0688 213.916L86.0104 214.013L85.9521 214.109L85.8937 214.206L85.8354 214.302L85.777 214.398L85.7187 214.495L85.6603 214.591L85.5436 214.688L85.4853 214.784L85.4269 214.88L85.3102 214.977L85.2519 215.073L85.1352 215.17L85.0185 215.314L84.9018 215.363L84.8434 215.459L84.7851 215.507L84.7267 215.555L84.6684 215.604L84.61 215.652L84.4933 215.7L84.435 215.748L84.3766 215.796L84.2599 215.845H84.2016L84.0849 215.893L83.9682 215.941L83.9098 215.989L83.7932 216.037H83.6764L83.5597 216.086H83.4431L83.3263 216.134H83.1513H83.0346H82.9179L82.8012 216.086H82.6262L82.5095 216.037L82.3928 215.989L82.2761 215.941L82.1594 215.893L82.0427 215.845L81.926 215.748L81.8676 215.7L81.7509 215.604L81.6926 215.555L81.6342 215.459L81.5175 215.363L81.4592 215.218L81.3425 215.073L81.0507 214.688L80.759 214.302L80.1755 213.482L79.9421 213.193L79.8837 213.145V213.097L79.767 212.952L79.592 212.759L79.4753 212.615L79.3586 212.422L79.2419 212.277L79.1252 212.133L79.0085 211.94L78.8918 211.795L78.7168 211.458L78.4834 211.168L78.25 210.831L78.1916 210.686L78.0749 210.542L77.9582 210.397L77.8415 210.252L77.7832 210.108L77.6665 209.963L77.5498 209.867L77.4331 209.722L77.3747 209.674L77.3164 209.578V209.529L77.258 209.481L77.1997 209.433L77.1413 209.336L77.083 209.288L77.0246 209.24L76.9663 209.192L76.9079 209.144L76.8496 209.095L76.7912 208.999H76.7329L76.7912 209.192V209.385L76.8496 209.819V210.011V210.156V210.252V210.638L76.9079 210.976V211.361V211.747L76.9663 211.94V212.133V212.374V212.566V212.759V212.952V213.145V213.338V213.627V213.916V214.206L76.9079 214.495V214.784V215.025V215.604L76.8496 216.134V216.712L76.7912 217.243V217.532V217.773V217.966V218.207L76.7329 218.641V219.026V219.46V219.894V220.328V220.762V221.196L76.7912 221.63V222.064V222.931V223.799V224.233V224.667V224.763V224.86V225.004L76.7329 225.101L76.6745 225.197L76.6162 225.294L76.5578 225.39L76.4995 225.486L76.4411 225.583L76.3244 225.679L76.2661 225.727L76.1494 225.824L76.0327 225.872L75.916 225.968L75.7993 226.017L75.6826 226.065H75.5659L75.4492 226.113L75.2742 226.161H75.1575H75.0408H74.8657H74.749L74.6323 226.113H74.5156L74.3406 226.065L74.2239 226.017L74.1072 225.968L73.9905 225.92L73.8738 225.824L73.8154 225.776L73.6987 225.679L73.582 225.631L73.5237 225.535L73.4653 225.438L73.407 225.342L73.3486 225.245L73.2903 225.101L73.2319 225.004V224.908V224.811V224.667L73.1736 224.233V223.799V222.98V222.112V221.678V221.196L73.1152 220.762V220.328V219.894V219.46V219.026L73.1736 218.593V218.159V217.918V217.677V217.436V217.146L73.2319 216.568V216.037L73.2903 215.459V214.929V214.639L73.3486 214.398V214.109V213.868V213.579V213.338V213.145V212.952V212.807V212.615V212.422V212.229V212.084V211.892L73.2903 211.506V211.12V210.735L73.2319 210.349V210.301V210.204V210.011L73.1736 209.578V209.336V209.095L73.1152 208.951V208.854V208.71V208.565V208.421V208.276V208.131V207.987L73.1736 207.842V207.697V207.553V207.408L73.2319 207.36V207.264V207.167L73.2903 207.119V207.022V206.974L73.3486 206.878V206.781V206.733L73.407 206.637L73.4653 206.589V206.492L73.5237 206.396V206.348L73.582 206.251L73.6404 206.155L73.6987 206.058L73.7571 206.01L73.8154 205.914L73.8738 205.817L73.9905 205.769L74.0488 205.673L74.1655 205.624L74.2239 205.576L74.3406 205.528V205.48H74.4573L74.5156 205.432L74.6323 205.383L74.6907 205.335H74.749H74.8074L74.8657 205.287H74.9824L75.1575 205.239H75.3325H75.4492H75.5659H75.6826H75.7993H75.916H76.0327L76.1494 205.287H76.2078H76.3244L76.3828 205.335H76.4411L76.5578 205.383L76.6745 205.432L76.8496 205.48L76.9663 205.528L77.083 205.576L77.1997 205.624L77.3747 205.673L77.4914 205.721L77.6081 205.769L77.6665 205.817L77.7832 205.865L77.8999 205.914L78.0166 205.962L78.0749 206.01L78.25 206.107L78.425 206.203L78.5417 206.299L78.6584 206.348L78.7168 206.396L78.8335 206.492L78.9502 206.54L79.0085 206.637L79.1252 206.733L79.2419 206.781L79.3003 206.878L79.417 206.974L79.4753 207.022L79.592 207.119L79.6504 207.215L79.767 207.264L79.8254 207.36L79.8837 207.456L80.0005 207.553L80.0588 207.601L80.1171 207.697L80.2338 207.794L80.2922 207.89L80.3505 207.938L80.4089 208.035L80.5839 208.228L80.7006 208.372L80.8173 208.565L80.934 208.71L81.0507 208.854L81.1674 209.047L81.2841 209.192L81.4008 209.385L81.6342 209.722L81.8676 210.011L82.0427 210.349L82.1594 210.493L82.2761 210.638L82.3928 210.783L82.4511 210.927L82.5678 211.072L82.6845 211.217L82.8012 211.313L82.9179 211.506L82.9762 211.554L83.0346 211.65L83.2097 211.94L83.268 211.795L83.3847 211.65L83.5014 211.458L83.5597 211.265L83.6764 211.072L83.7348 210.927L83.8515 210.735L83.9682 210.542L84.0265 210.349L84.1432 210.156L84.3183 209.77L84.4933 209.433L84.6684 209.047L85.0185 208.276L85.1935 207.89L85.3686 207.456L85.5436 207.071L85.7187 206.685L85.8354 206.492L85.8937 206.299L86.0104 206.107L86.0688 205.914H86.1271V205.865L86.1855 205.769L86.3022 205.48L86.3605 205.239L86.4772 205.046L86.5939 204.853L86.6523 204.708L86.7106 204.612L86.7689 204.467L86.8273 204.371L86.8857 204.226L86.944 204.13L87.0024 204.034L87.0607 203.889L87.1774 203.792L87.2358 203.648L87.2941 203.551L87.3524 203.503L87.4108 203.407L87.4691 203.359L87.5275 203.31L87.5859 203.214L87.6442 203.166L87.7025 203.118L87.8192 203.021L87.8776 202.973L87.9943 202.877L88.111 202.828L88.286 202.732L88.4027 202.684H88.4611L88.5194 202.635H88.5778L88.6945 202.587L88.8112 202.539H88.9279H89.0446H89.1613H89.278Z" fill="white"/>
<path d="M97.2717 202.73L97.3884 202.779H97.5051L97.6802 202.827H97.7969L97.9136 202.875L98.0303 202.972L98.1469 203.02L98.2637 203.068L98.3804 203.164L98.4387 203.261L98.5554 203.357L98.6138 203.454L98.6721 203.55L98.7304 203.646L98.7888 203.743L98.8471 203.839V203.984L98.9055 204.08V204.177V204.321L98.8471 204.803V205.334L98.7888 205.816V206.346L98.7304 206.876V207.407V207.889L98.6721 208.419V208.949V209.48V210.01V210.54L98.6138 211.022V211.553V212.083V212.613L98.6721 213.144V213.674V214.156V214.686V214.975L98.7304 215.216V215.458V215.747V215.988V216.277L98.7888 216.518V216.759V217.048L98.8471 217.289V217.53V217.82L98.9055 218.061V218.302L98.9639 218.543V218.832V219.073L99.0222 219.314V219.555L99.0805 219.845V220.086L99.1389 220.327L99.1972 220.568V220.857V220.905V221.002L99.2556 221.05V221.146V221.291V221.435V221.58V221.773V222.062L99.1972 222.4V222.785V222.93V223.123V223.267V223.46V223.605V223.798L99.2556 223.942V224.039V224.087V224.183V224.231V224.28V224.376L99.3139 224.424V224.473V224.521V224.569V224.617V224.665H99.3723H99.4306L99.489 224.714H99.5473H99.6057H99.664H99.7224L99.8391 224.762H99.8974H99.9558H100.014H100.131H100.189H100.306H100.364H100.423H100.539H100.598H100.714H100.773L101.006 224.714H101.181L101.59 224.665L102.056 224.617H102.465L102.932 224.569L103.398 224.521L103.865 224.473H104.04L104.274 224.424H104.507L104.74 224.376H104.915L105.149 224.328H105.382L105.616 224.28L105.791 224.231H106.024L106.258 224.183L106.433 224.135H106.666L106.841 224.087L107.074 224.039L107.249 223.99L107.424 223.942H107.658L107.833 223.894L108.008 223.846L108.183 223.798H108.3H108.416L108.591 223.749L108.708 223.798H108.825H109L109.117 223.846L109.233 223.894L109.35 223.942L109.467 223.99L109.583 224.039L109.7 224.135L109.817 224.231L109.933 224.28L109.992 224.376L110.05 224.473L110.109 224.569L110.167 224.665L110.225 224.81L110.284 224.906V225.003L110.342 225.147V225.244V225.34V225.485L110.284 225.581V225.678L110.225 225.774L110.167 225.919L110.109 226.015L110.05 226.112L109.933 226.208L109.875 226.256L109.758 226.353L109.642 226.449L109.525 226.497L109.408 226.545L109.292 226.594L109.175 226.642L109.058 226.69L108.825 226.738L108.591 226.787L108.358 226.835L108.125 226.883L107.833 226.931L107.6 226.979L107.366 227.028L107.133 227.076L106.899 227.124L106.666 227.172H106.433L106.199 227.22L105.907 227.269H105.674L105.441 227.317H105.207L104.974 227.365L104.74 227.413H104.507L104.274 227.461H103.807L103.34 227.51L102.873 227.558L102.406 227.606L101.998 227.654L101.531 227.702H101.298H101.064H100.948L100.831 227.751H100.714H100.539H100.423H100.306H100.131H100.014H99.8974H99.7224L99.6057 227.702H99.4306H99.3139L99.1389 227.654H98.9639H98.8471L98.6721 227.606L98.497 227.558L98.322 227.51H98.2053L98.0886 227.461L98.0303 227.413H97.9136L97.8552 227.365H97.7969L97.6802 227.317L97.6218 227.269H97.5051L97.4468 227.22L97.3884 227.172L97.2717 227.124L97.2134 227.076L97.155 227.028L97.0383 226.979L96.98 226.931L96.9216 226.883L96.8049 226.835L96.7466 226.787L96.6882 226.738L96.6299 226.69L96.5715 226.642L96.5132 226.545L96.4548 226.497L96.3965 226.449L96.2798 226.353L96.2214 226.208L96.1631 226.112L96.1047 226.015L96.0464 225.871L95.988 225.774L95.9297 225.678L95.8713 225.581V225.437L95.813 225.34V225.244L95.7546 225.147V225.051V224.955L95.6963 224.81V224.714V224.617L95.6379 224.521V224.424V224.328V224.231V224.087V223.894L95.5796 223.701V223.508V223.316V223.123V222.93V222.737L95.6379 222.351V222.014V221.725V221.58V221.484V221.339V221.243V221.194V221.146L95.5796 220.905L95.5212 220.664V220.375L95.4629 220.134V219.845L95.4045 219.603V219.314L95.3462 219.073V218.784L95.2878 218.543V218.254V218.013L95.2295 217.723V217.482V217.193L95.1712 216.952V216.663V216.422L95.1128 216.132V215.843V215.602V215.313V215.072L95.0544 214.783V214.252V213.722V213.192V212.613L94.9961 212.083V211.553L95.0544 211.022V210.492V209.962V209.431V208.901V208.371L95.1128 207.841V207.31L95.1712 206.78V206.25V205.719L95.2295 205.189V204.659L95.2878 204.129V204.032L95.3462 203.936V203.791L95.4045 203.695L95.4629 203.598L95.5212 203.502L95.5796 203.405L95.6963 203.309L95.7546 203.213L95.8713 203.116L95.988 203.068L96.0464 203.02L96.1631 202.923L96.3381 202.875L96.4548 202.827L96.5715 202.779H96.6882L96.8633 202.73H96.98H97.0967H97.2717Z" fill="white"/>
<path d="M277.372 10.4266C277.372 1.51197 259.016 0 236.38 0H133.451C110.928 0 92.459 1.51197 92.459 10.4266V40.8376C92.459 49.7522 110.928 49.3188 133.451 49.3188H168.023L192.461 63.5113C192.461 63.5113 198.654 67.1925 204.848 66.7933C212.055 66.3498 210.929 61.5598 210.929 61.5598L212.506 49.3188H236.38C259.016 49.3188 277.372 49.7522 277.372 40.8376V10.4266Z" fill="#1B74DC"/>
<path d="M147.915 100.773C147.915 91.1314 142.839 83.2734 131.111 83.2734H77.7797C66.0515 83.2734 61.0918 91.1314 61.0918 100.773V119.333C61.0918 128.975 66.0515 136.881 77.7797 136.881H95.6929L108.296 152.308C108.296 152.308 111.564 156.261 114.773 155.876C118.449 155.393 117.866 150.187 117.866 150.187L118.682 136.881H131.111C142.839 136.881 147.915 128.975 147.915 119.333V100.773Z" fill="#1B74DC"/>
<path d="M93.3576 101.061H93.4743H93.5326L93.6493 101.109H93.766L93.8244 101.157H93.9411L93.9994 101.205L94.1161 101.253H94.1745L94.2912 101.302L94.3495 101.35L94.4079 101.398L94.5246 101.494L94.5829 101.543L94.6413 101.591L94.6996 101.639L94.758 101.735L94.8163 101.784L94.8747 101.88V101.928L94.933 102.025L94.9913 102.073V102.169V102.218L95.0497 102.314V102.41V102.459V102.555V102.651V102.7V102.796L94.9913 102.892V102.941V103.037L94.933 103.085L94.8747 103.182V103.278L94.8163 103.326L94.758 103.375L94.6996 103.471L94.6413 103.519L94.5829 103.567L94.4662 103.616L94.4079 103.712L94.3495 103.76L94.1161 103.905L93.8827 104.049L93.591 104.194L93.3576 104.339L93.1242 104.483L92.8908 104.628L92.599 104.773L92.3656 104.917L92.1322 105.062L91.8405 105.206L91.6071 105.351L91.3737 105.448L90.8486 105.737L90.3818 105.978L89.8566 106.267L89.3898 106.508L88.8647 106.797L88.3979 107.038L87.9311 107.279L87.406 107.569L87.1726 107.713L86.9392 107.81L86.7058 107.954L86.4724 108.099L86.3557 108.147L86.239 108.195L86.1806 108.244L86.0639 108.292L85.9472 108.34L85.8305 108.388L85.6555 108.485L85.4221 108.581L85.247 108.678L84.8386 108.822L84.6052 108.919L84.4301 109.015L84.2551 109.063L84.1384 109.111L84.0801 109.16L84.1384 109.208H84.1967L84.3135 109.256L84.4885 109.304L84.6052 109.352L84.7219 109.401L84.8386 109.449L84.9553 109.497L85.072 109.545L85.247 109.593H85.3637L85.5971 109.69L85.8889 109.786L86.1806 109.835L86.7058 110.027L86.9392 110.076L87.1726 110.124L87.406 110.172L87.581 110.22L87.8144 110.317L88.0478 110.365L88.2812 110.413L88.4562 110.461L88.6896 110.509L88.923 110.558L89.3898 110.654L90.3234 110.847L90.4985 110.895L90.6735 110.943L91.0236 111.04L91.3737 111.136L91.7238 111.184L92.0739 111.281L92.424 111.377L93.1242 111.57L93.4743 111.666L93.766 111.715L94.1161 111.811L94.2912 111.859H94.4662L94.5829 111.907L94.758 111.956L94.933 112.004H95.1081L95.2247 112.052H95.3998L95.5748 112.1L95.7499 112.149H95.8082L95.9249 112.197H95.9833L96.1 112.245H96.1583L96.275 112.293L96.3334 112.341L96.4501 112.39L96.5084 112.438L96.5668 112.486L96.6835 112.534L96.7418 112.631L96.8002 112.679L96.8585 112.727L96.9169 112.823V112.872L96.9752 112.968L97.0336 113.016V113.113L97.0919 113.161V113.257L97.1503 113.354V113.402V113.498V113.595V113.643V113.739V113.836V113.884L97.0919 113.98V114.077L97.0336 114.125V114.221L96.9752 114.27L96.9169 114.366L96.8585 114.414L96.8002 114.463L96.7418 114.559L96.6835 114.607L96.6251 114.655L96.5668 114.704L96.4501 114.752L96.3917 114.8L96.3334 114.848L96.2167 114.896L96.1583 114.945L96.0416 114.993H95.9249L95.8666 115.041H95.7499H95.6915L95.5748 115.089H95.4582H95.3998H95.2831H95.1664H95.1081L94.9913 115.041H94.8163L94.6413 114.993L94.4079 114.945L94.2328 114.896H94.0578L93.8827 114.848L93.6493 114.8L93.4743 114.752L93.2992 114.704L93.1242 114.655L92.7741 114.607L92.424 114.511L92.0739 114.414L91.3737 114.221L91.0236 114.125L90.6735 114.077L90.3818 113.98L90.0317 113.884L89.6816 113.836L89.5649 113.788L89.3898 113.739L88.4562 113.547L87.9894 113.45L87.7561 113.402L87.4643 113.306L87.2309 113.257L86.9975 113.209L86.7641 113.161L86.5307 113.113L86.2973 113.016L86.0639 112.968L85.7722 112.92L85.5388 112.823L85.0136 112.679L84.7219 112.582L84.4301 112.486L84.1384 112.39L83.9634 112.341L83.7883 112.293L83.6716 112.245L83.4966 112.197L83.3215 112.149L83.2048 112.1L83.0298 112.052L82.7964 111.956L82.6213 111.907L82.5046 111.859L82.4463 111.811L82.3296 111.763H82.2712L82.1545 111.715L82.0378 111.666L81.9795 111.618L81.8628 111.57L81.7461 111.522L81.6877 111.474L81.571 111.377L81.5127 111.329L81.396 111.281L81.3376 111.233L81.2209 111.184L81.1626 111.136L81.1042 111.088L80.9875 111.04L80.9292 110.992L80.8709 110.895L80.7541 110.847L80.6958 110.799L80.6374 110.75L80.5791 110.654L80.5208 110.606L80.4624 110.509L80.404 110.461L80.3457 110.365L80.2874 110.317L80.229 110.22L80.1707 110.124L80.1123 110.027L80.0539 109.979V109.883L79.9956 109.786V109.69L79.9373 109.593V109.497L79.8789 109.401V109.304V109.208V109.111V109.015L79.9373 108.919V108.822V108.726L79.9956 108.629V108.533L80.0539 108.436V108.388L80.1123 108.292L80.1707 108.195L80.229 108.147V108.051L80.2874 108.003L80.3457 107.906L80.404 107.858L80.4624 107.81L80.5208 107.762L80.5791 107.665L80.6374 107.617L80.6958 107.569L80.7541 107.472L80.8709 107.376L80.9875 107.279L81.1042 107.231L81.2209 107.135L81.3376 107.087L81.4543 106.99L81.571 106.942L81.6877 106.846L81.8044 106.797L81.9211 106.749L82.0378 106.701L82.1545 106.605L82.2712 106.556L82.3879 106.508L82.5046 106.46L82.738 106.363L82.9714 106.267L83.1465 106.171L83.5549 105.978L83.7883 105.93L83.9634 105.833L84.0801 105.785L84.1967 105.737L84.2551 105.689H84.3135L84.3718 105.64H84.4301V105.592L84.7219 105.448L84.9553 105.351L85.1887 105.206L85.4221 105.062L85.9472 104.773L86.4724 104.532L86.9392 104.291L87.4643 104.001L87.9311 103.76L88.3979 103.471L88.923 103.23L89.3898 102.989L89.6232 102.844L89.8566 102.7L90.09 102.603L90.3234 102.459L90.5568 102.314L90.7902 102.169L91.0236 102.073L91.257 101.928L91.4904 101.784L91.7238 101.639L91.9572 101.494L92.1906 101.35L92.2489 101.302L92.3073 101.253H92.424L92.4823 101.205L92.599 101.157H92.6574L92.7741 101.109H92.8908L92.9491 101.061H93.0658H93.1825H93.2409H93.3576Z" fill="white"/>
<path d="M114.25 97.4453H114.425L114.541 97.4935H114.716L114.833 97.5417L114.95 97.5899L115.067 97.6864L115.183 97.7346L115.3 97.831L115.417 97.8792L115.475 97.9756L115.592 98.072L115.65 98.1684L115.708 98.2649L115.767 98.3613L115.825 98.5059V98.6023L115.883 98.7469V98.8434V98.9398V99.0844V99.1808L115.825 99.3254L115.767 99.4219L115.708 99.5183L115.475 100L115.242 100.434L114.95 100.916L114.716 101.35L114.483 101.784L114.191 102.266L113.9 102.7L113.666 103.134L113.374 103.616L113.141 104.05L112.849 104.484L112.558 104.918L112.324 105.4L112.032 105.834L111.507 106.701L110.924 107.569L110.399 108.485L109.815 109.353L109.29 110.221L108.998 110.654L108.765 111.088L108.473 111.522L108.24 111.956L107.948 112.39L107.715 112.824L107.423 113.306L107.189 113.74L107.014 114.029L106.839 114.318L106.664 114.608L106.489 114.897L106.372 115.186L106.197 115.524L106.022 115.813L105.906 116.102L105.731 116.439L105.556 116.729L105.264 117.355L104.972 117.982L104.622 118.609L104.447 118.898L104.33 119.236L104.155 119.525L103.98 119.862L103.805 120.152L103.63 120.489L103.455 120.778L103.28 121.116L103.105 121.453L102.988 121.598L102.93 121.742L102.813 121.887L102.755 122.08L102.638 122.225L102.521 122.369L102.405 122.514L102.346 122.707L102.23 122.851L102.113 122.996L101.996 123.14L101.938 123.333L101.821 123.478L101.705 123.623L101.646 123.719L101.53 123.815L101.471 123.912L101.354 123.96L101.238 124.056L101.121 124.105L101.004 124.201L100.888 124.249L100.713 124.297H100.596L100.479 124.346H100.304H100.187H100.012H99.8957H99.779L99.604 124.297L99.4873 124.249L99.3706 124.201L99.2539 124.153L99.1372 124.105L99.0205 124.008L98.9038 123.96L98.7871 123.864L98.7287 123.767L98.6121 123.671L98.5537 123.574L98.4954 123.478L98.437 123.333L98.3787 123.237V123.14L98.3203 122.996V122.899V122.803L98.3787 122.658V122.562L98.437 122.417V122.321L98.4954 122.225L98.6121 122.128L98.6704 121.983L98.7871 121.839L98.8455 121.694L98.9622 121.55L99.0788 121.405L99.1372 121.26L99.2539 121.116L99.3122 121.019L99.4289 120.875L99.4873 120.73L99.604 120.585L99.6623 120.441L99.779 120.296L99.8374 120.152L100.012 119.862L100.187 119.573L100.363 119.236L100.538 118.946L100.654 118.657L100.829 118.368L101.004 118.079L101.121 117.741L101.296 117.452L101.588 116.825L101.938 116.198L102.23 115.572L102.405 115.282L102.58 114.945L102.697 114.656L102.872 114.318L103.047 114.029L103.222 113.692L103.397 113.354L103.572 113.065L103.747 112.727L103.922 112.438L104.214 111.956L104.447 111.522L104.739 111.088L104.972 110.654L105.264 110.172L105.556 109.738L105.789 109.305L106.081 108.871L106.606 107.955L107.189 107.087L107.715 106.219L108.298 105.352L108.823 104.484L109.115 104.05L109.348 103.568L109.64 103.134L109.873 102.7L110.165 102.266L110.399 101.832L110.69 101.398L110.924 100.965L111.215 100.531L111.449 100.097L111.682 99.6147L111.974 99.1808L112.207 98.7469L112.441 98.3131L112.499 98.2166L112.558 98.1202L112.674 98.0238L112.733 97.9274L112.849 97.831L112.966 97.7346L113.083 97.6864L113.199 97.6381L113.316 97.5899L113.433 97.5417L113.549 97.4935L113.725 97.4453H113.841H114.016H114.133H114.25Z" fill="white"/>
<path d="M120.435 102.316L120.552 102.365H120.61H120.727L120.844 102.413H120.96L121.077 102.461L121.135 102.509L121.252 102.557L121.369 102.606L121.427 102.654L121.544 102.702L121.602 102.798L121.661 102.847L121.777 102.943L121.894 103.04L122.011 103.136L122.069 103.232L122.186 103.281L122.302 103.377L122.419 103.473L122.536 103.57L122.653 103.666L122.769 103.763L122.886 103.811L123.003 103.907L123.119 104.004L123.236 104.1L123.353 104.197L123.469 104.245L123.586 104.341L123.703 104.438L123.878 104.534L123.995 104.63L124.111 104.679L124.286 104.775L124.403 104.871L124.52 104.968L124.811 105.113L125.103 105.305L125.395 105.45L125.628 105.595L125.92 105.787L126.212 105.932L126.854 106.27L127.437 106.607L127.729 106.8L128.021 106.944L128.312 107.137L128.604 107.33L128.954 107.475L129.246 107.668L129.538 107.86L129.654 107.957L129.829 108.005L129.946 108.101L130.121 108.198L130.238 108.294L130.355 108.391H130.413V108.439H130.471L130.646 108.535L130.996 108.68L131.23 108.776L131.463 108.873L131.58 108.921L131.697 108.969L131.813 109.066L131.93 109.114L132.047 109.162L132.163 109.258L132.28 109.307L132.397 109.403L132.514 109.451L132.63 109.548L132.689 109.596L132.747 109.644L132.805 109.692L132.864 109.741L132.98 109.837L133.039 109.885L133.097 109.982L133.155 110.03L133.214 110.126L133.272 110.271L133.389 110.367V110.512L133.447 110.608V110.656L133.505 110.753V110.801V110.898V110.994V111.042V111.139V111.187V111.283V111.331V111.428V111.476V111.572L133.447 111.621V111.717L133.389 111.814V111.958L133.33 112.055L133.272 112.199L133.214 112.296L133.155 112.392L133.039 112.488L132.98 112.585L132.922 112.681L132.864 112.778L132.747 112.874L132.689 112.971L132.63 113.019L132.514 113.115L132.455 113.163L132.339 113.26L132.28 113.308L132.163 113.404L132.105 113.453L131.988 113.549L131.93 113.597L131.813 113.645L131.755 113.742L131.638 113.79L131.58 113.838L131.463 113.886L131.405 113.935L131.288 114.031L131.113 114.128L130.938 114.224L130.763 114.32L130.646 114.417L130.471 114.513L130.296 114.561L130.121 114.658L130.005 114.754L129.829 114.802L129.713 114.851L129.479 114.995L129.304 115.092L129.071 115.14L128.896 115.236L128.663 115.333L128.487 115.429L128.312 115.477L128.079 115.574L127.904 115.67L127.729 115.718L127.496 115.815L127.32 115.911L127.087 115.959L126.912 116.056L126.679 116.104L126.504 116.2L126.329 116.249L126.095 116.345L125.687 116.49L125.337 116.586L124.928 116.731L124.52 116.875L124.111 117.02L123.703 117.116L122.944 117.357L122.186 117.647L121.777 117.743L121.369 117.888L121.019 117.984L120.61 118.129L120.26 118.273L119.852 118.37L119.502 118.514L119.327 118.611L119.152 118.659L118.977 118.707L118.801 118.804L118.568 118.852L118.393 118.948L118.218 118.997L118.043 119.093L117.868 119.141L117.693 119.238L117.518 119.286L117.343 119.382L117.168 119.43L116.993 119.527L116.876 119.575L116.818 119.623H116.701L116.584 119.671H116.468H116.351L116.234 119.72H116.176H116.059H115.942L115.826 119.671H115.709L115.592 119.623H115.476L115.417 119.575L115.301 119.527L115.184 119.479L115.125 119.43L115.009 119.382L114.95 119.334L114.834 119.238L114.775 119.189L114.717 119.141L114.659 119.045L114.6 118.948L114.542 118.9L114.484 118.804L114.425 118.707V118.611L114.367 118.563V118.466V118.37V118.273L114.309 118.177L114.367 118.081V117.984V117.888L114.425 117.791V117.743L114.484 117.647L114.542 117.55L114.6 117.454L114.659 117.406L114.717 117.309L114.775 117.261L114.834 117.165L114.892 117.116L115.009 117.068L115.067 117.02L115.184 116.972L115.301 116.924L115.476 116.827L115.651 116.731L115.884 116.634L116.059 116.538L116.292 116.49L116.468 116.393L116.643 116.297L116.876 116.249L117.051 116.152L117.284 116.104L117.459 116.008L117.635 115.911L117.868 115.863L118.043 115.767L118.451 115.622L118.86 115.526L119.268 115.381L119.677 115.236L120.085 115.092L120.435 114.995L120.844 114.851L121.661 114.61L122.419 114.369L122.828 114.224L123.178 114.079L123.586 113.983L123.936 113.838L124.345 113.694L124.695 113.597L124.87 113.501L125.045 113.453L125.22 113.404L125.453 113.308L125.628 113.26L125.803 113.163L125.978 113.115L126.153 113.067L126.329 112.971L126.504 112.922L126.679 112.826L126.854 112.778L127.029 112.681L127.204 112.633L127.379 112.537L127.554 112.44L127.729 112.392L127.904 112.296L128.021 112.247L128.137 112.199L128.254 112.103L128.371 112.055L128.487 112.006L128.663 111.91L128.779 111.862L128.896 111.765L129.013 111.717L129.129 111.621L129.188 111.572H129.246L129.304 111.524L129.363 111.476L129.421 111.428L129.479 111.38L129.304 111.283L128.896 111.139L128.721 111.042L128.663 110.994L128.546 110.946L128.429 110.898L128.371 110.849L128.254 110.801L128.137 110.753L128.021 110.656L127.904 110.56L127.729 110.464L127.612 110.415L127.496 110.319L127.379 110.223L127.087 110.078L126.795 109.933L126.562 109.741L126.27 109.596L125.978 109.403L125.687 109.258L125.395 109.066L124.811 108.728L124.17 108.391L123.878 108.246L123.586 108.053L123.294 107.86L123.003 107.716L122.653 107.523L122.361 107.33L122.244 107.234L122.069 107.137L121.894 107.041L121.777 106.944L121.602 106.848L121.486 106.752L121.311 106.655L121.194 106.559L121.019 106.462L120.902 106.366L120.727 106.27L120.61 106.173L120.435 106.028L120.319 105.932L120.144 105.836L120.027 105.739L119.91 105.595L119.735 105.498L119.618 105.402L119.502 105.257L119.327 105.161L119.21 105.064L119.093 104.92L118.977 104.823L118.918 104.727L118.86 104.679L118.801 104.582L118.743 104.486L118.685 104.438L118.626 104.341L118.568 104.245V104.148V104.052L118.51 103.956V103.907V103.811V103.714L118.568 103.618V103.522V103.425L118.626 103.329L118.685 103.281V103.184L118.743 103.088L118.801 102.991L118.86 102.943L118.918 102.847L119.035 102.798L119.093 102.75L119.152 102.654L119.268 102.606L119.385 102.557L119.443 102.509L119.56 102.461H119.677L119.735 102.413L119.852 102.365H119.968H120.085L120.202 102.316H120.319H120.435Z" fill="white"/>
<path d="M249.328 119.435C249.328 109.745 254.404 101.887 266.133 101.887H319.406C331.134 101.887 336.093 109.745 336.093 119.435V137.947C336.093 147.637 331.134 155.495 319.406 155.495H301.551L288.889 170.97C288.889 170.97 285.68 174.923 282.47 174.537C278.736 174.055 279.32 168.848 279.32 168.848L278.503 155.495H266.133C254.404 155.495 249.328 147.637 249.328 137.947V119.435Z" fill="#1B74DC"/>
<path d="M276.517 116.641H276.634H276.751H276.868H276.984H277.101L277.218 116.689H277.334L277.451 116.737H277.568L277.626 116.785H277.743L277.86 116.833L277.976 116.882L278.093 116.93L278.21 116.978H278.326L278.443 117.026L278.56 117.123L278.676 117.171L278.735 117.219L278.851 117.267L278.968 117.316L279.027 117.412L279.143 117.46L279.26 117.557L279.318 117.605L279.435 117.701L279.493 117.749L279.61 117.846L279.668 117.942L279.727 118.039L279.843 118.087L279.902 118.183L279.96 118.28L280.077 118.376L280.135 118.521L280.193 118.617L280.31 118.762L280.369 118.858L280.427 119.003L280.485 119.099L280.544 119.244L280.602 119.34L280.66 119.485L280.719 119.581L280.777 119.726L280.835 119.871V119.967L280.894 120.112L280.952 120.208V120.353L281.01 120.449V120.594V120.69L281.069 120.835V120.931V121.076L281.127 121.172V121.317V121.413V121.558V121.654L281.185 121.799V121.895V122.04V122.136V122.281V122.377L281.127 122.522V122.618V122.715V122.86V122.956V123.101V123.197L281.069 123.293V123.534L281.01 123.727V123.968L280.952 124.161V124.402L280.894 124.595L280.835 124.788V125.029L280.777 125.222L280.719 125.607L280.66 125.704L280.602 125.8V125.897L280.544 125.993L280.427 126.09L280.369 126.186L280.31 126.282L280.193 126.379L280.135 126.427L280.018 126.523L279.902 126.572L279.785 126.62L279.668 126.668L279.552 126.716L279.377 126.764L279.26 126.813H279.143H279.027H278.851H278.735H278.618L278.443 126.764H278.326L278.21 126.716L278.093 126.668L277.976 126.62L277.86 126.523L277.743 126.475L277.626 126.379L277.568 126.331L277.451 126.234L277.393 126.138L277.334 126.041L277.276 125.945L277.218 125.848L277.159 125.752V125.607L277.101 125.511V125.415V125.318V125.174L277.159 125.077L277.218 124.691L277.276 124.499V124.306L277.334 124.161V123.968L277.393 123.775L277.451 123.583V123.39V123.197L277.509 123.004V122.956V122.86V122.763V122.667V122.57L277.568 122.474V122.377V122.329V122.233V122.136V122.04V121.992V121.895V121.799V121.703L277.509 121.654V121.558V121.461V121.413V121.317V121.269L277.451 121.172V121.076V121.028V120.931L277.393 120.883V120.787L277.334 120.738V120.69V120.594L277.276 120.546V120.449L277.218 120.401V120.353L277.159 120.304V120.208L277.101 120.16L277.043 120.112V120.063L276.984 119.967V119.919L276.926 119.871H276.868V119.822L276.809 119.774V119.726H276.751V119.678H276.693V119.63H276.634H276.576H276.517H276.459H276.401H276.342H276.284H276.226H276.167H276.109H276.051L275.992 119.678H275.934H275.876L275.817 119.726H275.759H275.701L275.642 119.774H275.584H275.526L275.467 119.822H275.409L275.351 119.871L275.234 119.919L275.117 119.967L275 120.015L274.884 120.063L274.767 120.112L274.65 120.16L274.592 120.256L274.475 120.304L274.359 120.353L274.242 120.449L274.125 120.497L274.008 120.546L273.95 120.642L273.833 120.69L273.717 120.787L273.6 120.835L273.542 120.931L273.425 120.979L273.308 121.076L273.25 121.124L273.133 121.22L273.075 121.269L273.017 121.365L272.9 121.413L272.842 121.461L272.783 121.558L272.725 121.606L272.666 121.654L272.608 121.703L272.55 121.799L272.491 121.847L272.433 121.895L272.375 121.992L272.316 122.088L272.2 122.136L272.141 122.233L272.083 122.329L272.025 122.426L271.966 122.474L271.908 122.57L271.85 122.667L271.791 122.763L271.733 122.86L271.675 122.908L271.616 123.004L271.558 123.101V123.197L271.499 123.293L271.441 123.39L271.383 123.438L271.324 123.534L271.266 123.631L271.208 123.727V123.824L271.149 123.92L271.091 124.017L271.033 124.113V124.209L270.974 124.306L270.916 124.402L270.858 124.499V124.595L270.799 124.691L270.741 124.788V124.884L270.683 124.981L270.624 125.077V125.174L270.566 125.27V125.366L270.508 125.463V125.559L270.449 125.656V125.752L270.391 125.848V125.945L270.332 126.09V126.186L270.274 126.282V126.379L270.216 126.475V126.572L270.157 126.813V127.005L270.099 127.198L270.041 127.439V127.632L269.982 127.825V128.066L269.924 128.259V128.5V128.693V128.886L269.866 129.127V129.319V129.561V129.753V129.994V130.187L269.924 130.428V130.621V130.862V131.055L269.982 131.248V131.489V131.682L270.041 131.923V132.116L270.099 132.357V132.549L270.157 132.742L270.216 132.983V133.176L270.274 133.369L270.332 133.562L270.391 133.803L270.449 133.996L270.508 134.189L270.566 134.381L270.624 134.574L270.683 134.815V134.863V134.912L270.741 135.008V135.056L270.799 135.104V135.201V135.249L270.858 135.297V135.394L270.916 135.442V135.49L270.974 135.538V135.635L271.033 135.683V135.731L271.091 135.779V135.828L271.149 135.876V135.972L271.208 136.02V136.069L271.266 136.117L271.324 136.165V136.213L271.383 136.261V136.31L271.441 136.358L271.499 136.406V136.454L271.558 136.503L271.616 136.551L271.675 136.599V136.647L271.733 136.695L271.791 136.744L271.85 136.792L271.908 136.84V136.888H271.966L272.025 136.936V136.985H272.083L272.141 137.033V137.081H272.2L272.258 137.129V137.177H272.316L272.375 137.226L272.433 137.274H272.491L272.55 137.322L272.608 137.37H272.666V137.419H272.725H272.783V137.467H272.842H272.9L272.958 137.515H273.017L273.075 137.563H273.133L273.192 137.611H273.25H273.308H273.367L273.425 137.66H273.483H273.542H273.6H273.658H273.717V137.708H273.775H273.833H273.892H273.95H274.008H274.067H274.125H274.184H274.242H274.3H274.359H274.417V137.66H274.475H274.534H274.592H274.65H274.709L274.767 137.611H274.825H274.884H274.942L275 137.563H275.059H275.117L275.234 137.515H275.292L275.351 137.467H275.409L275.467 137.419H275.526H275.584L275.642 137.37L275.701 137.322H275.817L275.876 137.274H275.934L275.992 137.226L276.051 137.177H276.167L276.226 137.129L276.284 137.081L276.342 137.033L276.459 136.985L276.576 136.936L276.693 136.888L276.809 136.84H276.926L277.043 136.792H277.218L277.334 136.744H277.451L277.626 136.792H277.743H277.86L277.976 136.84L278.151 136.888L278.268 136.936L278.385 136.985L278.501 137.033L278.56 137.129L278.676 137.177L278.793 137.274L278.851 137.37L278.968 137.419L279.027 137.515L279.085 137.66L279.143 137.756V137.852L279.202 137.949V138.045L279.26 138.19V138.286L279.202 138.383V138.527V138.624L279.143 138.72L279.085 138.817L279.027 138.913L278.968 139.009L278.91 139.106L278.793 139.202L278.735 139.299L278.618 139.347L278.501 139.443L278.385 139.491L278.326 139.54L278.21 139.636L278.093 139.684L277.976 139.733L277.86 139.781L277.743 139.829L277.626 139.877L277.509 139.925L277.451 139.974L277.334 140.022L277.218 140.07L277.101 140.118L276.984 140.166L276.868 140.215H276.751L276.634 140.263L276.517 140.311L276.401 140.359H276.284L276.167 140.407H276.051L275.934 140.456L275.817 140.504H275.701L275.584 140.552H275.467H275.409L275.292 140.6H275.175H275.059L274.942 140.648H274.825H274.709H274.592L274.475 140.697H274.359H274.242H274.125H274.008H273.892H273.775H273.658L273.542 140.648H273.425H273.367H273.25H273.133L273.017 140.6H272.9H272.783L272.666 140.552H272.55L272.491 140.504H272.375L272.258 140.456H272.141L272.025 140.407H271.966L271.85 140.359L271.733 140.311H271.616L271.558 140.263L271.441 140.215L271.324 140.166L271.208 140.118H271.149L271.033 140.07L270.974 140.022L270.858 139.974L270.741 139.925L270.683 139.877L270.566 139.829L270.508 139.781L270.391 139.733L270.332 139.684L270.216 139.636L270.157 139.54L270.041 139.491L269.982 139.443L269.866 139.395L269.807 139.347L269.691 139.25L269.632 139.202L269.574 139.154L269.457 139.058L269.399 139.009L269.341 138.961L269.224 138.865L269.166 138.817L269.107 138.768L269.049 138.672L268.99 138.624L268.874 138.527L268.815 138.479L268.757 138.383L268.699 138.334L268.64 138.238L268.582 138.142L268.524 138.093L268.465 137.997L268.407 137.949L268.349 137.852L268.29 137.756L268.232 137.708L268.174 137.611L268.115 137.515L268.057 137.467L267.999 137.37L267.94 137.274L267.882 137.177L267.823 137.081L267.765 137.033V136.936L267.707 136.84L267.648 136.744L267.59 136.647V136.551L267.532 136.503L267.473 136.406L267.415 136.31V136.213L267.357 136.117V136.02L267.298 135.924L267.24 135.828V135.731L267.182 135.635V135.538L267.123 135.297L267.007 135.056L266.948 134.863L266.89 134.622L266.832 134.381L266.773 134.14L266.715 133.899L266.656 133.658V133.417L266.598 133.176L266.54 132.935L266.481 132.694V132.453L266.423 132.212V131.971L266.365 131.73V131.489L266.306 131.248V131.007V130.766V130.525V130.284L266.248 129.994V129.753V129.512V129.271L266.306 129.03V128.789V128.5V128.259L266.365 128.018V127.777L266.423 127.536V127.295L266.481 127.054L266.54 126.764V126.523L266.598 126.282L266.656 126.041L266.715 125.945V125.8L266.773 125.656V125.559L266.832 125.415V125.318L266.89 125.174V125.077L266.948 124.932L267.007 124.836V124.691L267.065 124.595L267.123 124.45V124.354L267.182 124.209L267.24 124.113L267.298 123.968V123.872L267.357 123.727L267.415 123.631L267.473 123.486L267.532 123.39L267.59 123.245L267.648 123.149L267.707 123.052V122.908L267.765 122.811L267.823 122.667L267.882 122.57L267.94 122.474L268.057 122.329L268.115 122.233L268.174 122.088L268.232 121.992L268.29 121.895L268.349 121.751L268.407 121.654L268.465 121.558L268.582 121.413L268.64 121.317L268.699 121.22L268.757 121.124L268.874 120.979L268.932 120.883L268.99 120.787L269.107 120.69L269.166 120.546L269.282 120.449L269.341 120.353L269.457 120.256L269.516 120.16L269.574 120.063L269.691 119.967L269.749 119.871L269.866 119.774L269.982 119.678L270.041 119.581L270.157 119.485L270.274 119.389L270.391 119.292L270.508 119.196L270.624 119.099L270.741 119.003L270.858 118.906L270.974 118.81L271.091 118.714L271.208 118.617L271.383 118.521L271.499 118.424L271.675 118.328L271.791 118.232L271.966 118.135L272.083 118.039L272.258 117.942L272.375 117.846L272.55 117.749L272.725 117.701L272.9 117.605L273.017 117.508L273.192 117.412L273.367 117.364L273.542 117.267L273.717 117.219L273.892 117.123L274.008 117.074H274.067L274.184 117.026L274.3 116.978H274.359L274.475 116.93H274.534L274.65 116.882L274.767 116.833H274.825L274.942 116.785H275.059H275.117L275.234 116.737H275.351L275.467 116.689H275.526H275.642L275.759 116.641H275.876H275.992H276.051H276.167H276.284H276.401H276.517Z" fill="white"/>
<path d="M292.448 118.617H292.623H292.74H292.857H293.032L293.148 118.665H293.265H293.44L293.557 118.714H293.674L293.79 118.762H293.965L294.082 118.81H294.199L294.374 118.858L294.49 118.906H294.607L294.724 118.955L294.841 119.003L294.957 119.051L295.016 119.147L295.132 119.196L295.249 119.292L295.307 119.34L295.366 119.437L295.482 119.533L295.541 119.63L295.599 119.726L295.657 119.822V119.919L295.716 120.015V120.112V120.208V120.353V120.449V120.546L295.657 120.642V120.738L295.599 120.835L295.541 120.979L295.482 121.028L295.424 121.124L295.366 121.22L295.249 121.317L295.191 121.365L295.074 121.461L294.957 121.51L294.899 121.558L294.782 121.654L294.665 121.703H294.549L294.432 121.751H294.257L294.14 121.799H294.024H293.907H293.79H293.615L293.498 121.751H293.382L293.323 121.703H293.265H293.207L293.148 121.654H293.09H292.973H292.915H292.857L292.798 121.606H292.74H292.682H292.623H292.507H292.448H292.39H292.331H292.273H292.156H292.098H292.04H291.981H291.865H291.806H291.748L291.69 121.654H291.573H291.515H291.456L291.34 121.703H291.281H291.223L291.106 121.751H291.048H290.989L290.873 121.799H290.814L290.756 121.847H290.639L290.581 121.895H290.523L290.406 121.944H290.348L290.289 121.992H290.173L290.114 122.04H290.056L289.997 122.088L289.881 122.136H289.822L289.764 122.185L289.647 122.233L289.589 122.281H289.531L289.472 122.329L289.356 122.377L289.297 122.426L289.239 122.474H289.181L289.122 122.522L289.006 122.57L288.947 122.618L288.889 122.667L288.831 122.715L288.772 122.763L288.714 122.811L288.655 122.86L288.539 122.908L288.48 122.956L288.422 123.004L288.364 123.052L288.305 123.101L288.247 123.149L288.189 123.197L288.13 123.245L288.072 123.293V123.342L288.014 123.39L287.955 123.438L287.897 123.486L287.839 123.534L287.78 123.583L287.722 123.631V123.679L287.664 123.727L287.605 123.775L287.547 123.872V123.92L287.488 123.968L287.43 124.017V124.065L287.372 124.113V124.161L287.313 124.258V124.306L287.255 124.354V124.402L287.197 124.45V124.499L287.138 124.547V124.595V124.691L287.08 124.74V124.788V124.836L287.022 124.884V124.932V124.981V125.029V125.125L286.963 125.174V125.222V125.27V125.318V125.366V125.415V125.463V125.559V125.607V125.656V125.704V125.752L287.022 125.8V125.848V125.945V125.993V126.041L287.08 126.09V126.138V126.186L287.138 126.234V126.331L287.197 126.379V126.427L287.255 126.475V126.523L287.313 126.572V126.668L287.372 126.716L287.43 126.764V126.813L287.488 126.909L287.547 126.957L287.605 127.005L287.664 127.102L287.722 127.15L287.78 127.198V127.295L287.839 127.343L287.955 127.391L288.014 127.488L288.072 127.536L288.13 127.584L288.247 127.729L288.364 127.873L288.539 127.97L288.655 128.114L288.772 128.211L288.831 128.307L288.947 128.404L289.064 128.452L289.122 128.548L289.239 128.645L289.356 128.741L289.472 128.789L289.647 128.982L289.881 129.175L290.114 129.319L290.348 129.512L290.581 129.705L290.814 129.898L291.106 130.091L291.398 130.332L291.515 130.476L291.69 130.573L291.865 130.718L291.981 130.862L292.156 131.007L292.331 131.151L292.507 131.296L292.682 131.441L292.798 131.585L292.973 131.73L293.148 131.875L293.323 132.019L293.498 132.212L293.674 132.357L293.79 132.501L293.965 132.694L294.14 132.839L294.257 133.032L294.374 133.128L294.432 133.224L294.49 133.273L294.549 133.369L294.665 133.465L294.724 133.562L294.782 133.658L294.841 133.755L294.899 133.851L294.957 133.948L295.074 134.044L295.132 134.092L295.191 134.189L295.249 134.285L295.307 134.381L295.366 134.478L295.424 134.574L295.482 134.671L295.541 134.767V134.912L295.599 135.008L295.657 135.105L295.716 135.201L295.774 135.297V135.394L295.832 135.49L295.891 135.635V135.731L295.949 135.828V135.924L296.007 136.069V136.165V136.262V136.406L296.066 136.503V136.647V136.744V136.84V136.985L296.007 137.081V137.226V137.322L295.949 137.467V137.611L295.891 137.708L295.832 137.852L295.774 137.949L295.716 138.045L295.657 138.19L295.599 138.286L295.541 138.431L295.482 138.527L295.366 138.624L295.307 138.768L295.191 138.865L295.074 138.961L295.016 139.058L294.899 139.154L294.782 139.25L294.665 139.347L294.549 139.443L294.432 139.491L294.315 139.588L294.14 139.684L294.024 139.733L293.907 139.829L293.732 139.925L293.615 139.974L293.44 140.022L293.323 140.118L293.148 140.166L292.973 140.215L292.857 140.263L292.682 140.359L292.507 140.407L292.331 140.456L292.156 140.504L291.923 140.552L291.748 140.6L291.573 140.648L291.34 140.697L291.164 140.745H290.989L290.756 140.793H290.581L290.406 140.841H290.231L289.997 140.89H289.822H289.647L289.414 140.938H289.239H289.122H289.006H288.889L288.772 140.89H288.655L288.48 140.841L288.364 140.793L288.247 140.745L288.189 140.697L288.072 140.648L287.955 140.552L287.839 140.504L287.78 140.407L287.722 140.311L287.605 140.215L287.547 140.118L287.488 140.022V139.925L287.43 139.829L287.372 139.733V139.636V139.54V139.443V139.299V139.202V139.106L287.43 139.009L287.488 138.913L287.547 138.817L287.605 138.72L287.664 138.624L287.722 138.527L287.839 138.431L287.897 138.383L288.014 138.286L288.072 138.238L288.189 138.19L288.305 138.142L288.422 138.093L288.539 138.045L288.655 137.997H288.772L288.947 137.949H289.064H289.181H289.356H289.472L289.589 137.901H289.764H289.881L289.997 137.852H290.114H290.231L290.406 137.804H290.523L290.639 137.756H290.756L290.873 137.708L290.989 137.66H291.106L291.223 137.611L291.34 137.563H291.398L291.515 137.515L291.573 137.467H291.69L291.748 137.419L291.806 137.37H291.865L291.923 137.322L291.981 137.274H292.04L292.098 137.226H292.156V137.177H292.215V137.129H292.273V137.081L292.331 137.033V136.985H292.39V136.936V136.888H292.448V136.84V136.792V136.744V136.695V136.647V136.599L292.39 136.551V136.503V136.454V136.406V136.358L292.331 136.31V136.262V136.213V136.165L292.273 136.117V136.069L292.215 136.02V135.972L292.156 135.924V135.876L292.098 135.779V135.731L292.04 135.683L291.981 135.635V135.538L291.923 135.49L291.865 135.442L291.806 135.394L291.748 135.297V135.249L291.69 135.153L291.631 135.105L291.573 135.056L291.515 134.96L291.456 134.912L291.398 134.863L291.34 134.767L291.223 134.622L291.106 134.526L290.989 134.381L290.873 134.237L290.698 134.092L290.581 133.948L290.406 133.851L290.289 133.706L290.173 133.562L289.997 133.465L289.881 133.321L289.706 133.176L289.589 133.08L289.414 132.935L289.297 132.839L289.122 132.694L289.006 132.598L288.889 132.453L288.597 132.26L288.305 132.067L288.072 131.875L287.839 131.682L287.605 131.489L287.372 131.296L287.138 131.103L286.905 130.91L286.788 130.814L286.672 130.718L286.555 130.621L286.438 130.525L286.321 130.428L286.205 130.332L286.088 130.187L285.971 130.091L285.796 129.946L285.621 129.802L285.446 129.657L285.33 129.464L285.213 129.368L285.155 129.319L285.038 129.223L284.979 129.127L284.921 129.03L284.804 128.934L284.746 128.837L284.688 128.741L284.571 128.645L284.513 128.548L284.454 128.452L284.338 128.355L284.279 128.259L284.221 128.162L284.163 128.018L284.046 127.921L283.988 127.825L283.929 127.68L283.871 127.584L283.812 127.439L283.754 127.343L283.696 127.198L283.637 127.102L283.579 126.957V126.861L283.521 126.716V126.62L283.462 126.475V126.379L283.404 126.234V126.138V125.993L283.346 125.897V125.752V125.656V125.511V125.415V125.27V125.174V125.029L283.404 124.932V124.836V124.691L283.462 124.595V124.45V124.354L283.521 124.258V124.113L283.579 124.017L283.637 123.92V123.775L283.696 123.679L283.754 123.583L283.812 123.486V123.39L283.871 123.245L283.929 123.149L283.988 123.052L284.046 122.956L284.104 122.86L284.163 122.763L284.221 122.667L284.279 122.57L284.396 122.474L284.454 122.377L284.513 122.281L284.571 122.185L284.629 122.088L284.746 121.992L284.804 121.895L284.863 121.799L284.979 121.703L285.038 121.654L285.155 121.558L285.213 121.461L285.33 121.365L285.388 121.317L285.505 121.22L285.563 121.124L285.68 121.028L285.738 120.979L285.855 120.883L285.971 120.835L286.03 120.738L286.146 120.69L286.263 120.594L286.38 120.546L286.438 120.449L286.555 120.401L286.672 120.304L286.788 120.256L286.905 120.16L286.963 120.112L287.08 120.063L287.197 119.967L287.313 119.919L287.43 119.871L287.547 119.822L287.664 119.774L287.78 119.678L287.897 119.63L288.014 119.581L288.13 119.533L288.247 119.485L288.364 119.437L288.48 119.389L288.597 119.34L288.714 119.292L288.831 119.244L288.947 119.196L289.064 119.147L289.181 119.099H289.297L289.472 119.051L289.589 119.003L289.706 118.955H289.822L289.939 118.906L290.056 118.858H290.231L290.348 118.81H290.464L290.581 118.762H290.756L290.873 118.714H290.989L291.106 118.665H291.281H291.398H291.515L291.631 118.617H291.806H291.923H292.04H292.215H292.331H292.448Z" fill="white"/>
<path d="M306.333 119.963H306.509H306.625H306.742L306.859 120.011H306.975H307.15H307.267L307.384 120.059H307.5H307.617L307.792 120.108H307.909L308.026 120.156H308.142L308.259 120.204L308.376 120.252H308.551L308.667 120.3L308.784 120.349H308.901L309.018 120.397L309.134 120.445L309.251 120.493L309.368 120.541L309.543 120.59L309.659 120.638L309.776 120.686L309.893 120.734L309.951 120.782L310.068 120.831L310.185 120.927L310.301 120.975L310.36 121.072L310.476 121.12L310.535 121.216L310.593 121.313L310.651 121.409L310.71 121.506L310.768 121.602L310.826 121.698V121.795L310.885 121.891V121.988V122.084V122.18L310.826 122.277V122.422V122.518L310.768 122.614L310.71 122.711L310.651 122.807L310.593 122.904L310.535 122.952L310.476 123.048L310.36 123.145L310.301 123.193L310.185 123.241L310.068 123.337L309.951 123.386L309.834 123.434L309.718 123.482L309.601 123.53H309.484L309.368 123.579H309.251H309.134H309.018H308.901L308.726 123.53H308.609L308.492 123.482H308.376L308.259 123.434L308.142 123.386L308.084 123.337H308.026L307.967 123.289H307.909L307.851 123.241H307.792L307.734 123.193H307.676L307.617 123.145H307.559H307.5L307.442 123.096H307.384H307.325L307.267 123.048H307.15H307.092L307.034 123H306.975H306.917H306.859H306.8H306.684L306.625 122.952H306.567H306.509H306.45H306.392H306.275H306.217H306.158H306.1H306.042H305.925H305.867H305.808L305.75 123H305.633H305.575H305.517H305.458H305.4L305.283 123.048H305.225H305.166H305.108L305.05 123.096H304.991H304.875L304.816 123.145H304.758H304.7L304.641 123.193H304.583L304.525 123.241H304.408L304.35 123.289H304.291L304.233 123.337H304.175L304.116 123.386H304.058L303.999 123.434H303.941L303.883 123.482L303.824 123.53H303.766L303.708 123.579H303.649L303.591 123.627L303.533 123.675L303.474 123.723L303.416 123.771H303.358L303.299 123.82L303.241 123.868V123.916H303.183L303.124 123.964L303.066 124.012V124.061H303.008L302.949 124.109V124.157L302.891 124.205L302.832 124.253L302.774 124.302V124.35L302.716 124.398L302.657 124.446V124.494L302.599 124.543V124.591V124.639H302.541V124.687V124.736L302.482 124.784V124.832V124.88L302.424 124.928V124.977V125.025V125.073L302.366 125.121V125.169V125.218V125.266V125.314V125.362V125.41V125.459V125.555V125.603V125.651V125.7V125.748V125.796V125.844L302.424 125.941V125.989V126.037V126.085L302.482 126.182V126.23V126.278H302.541V126.326V126.375L302.599 126.423V126.471V126.519H302.657V126.616L302.716 126.664L302.774 126.76L302.832 126.809V126.857L302.891 126.953L302.949 127.001L303.008 127.05L303.066 127.146L303.124 127.194L303.241 127.291L303.299 127.339L303.358 127.435L303.416 127.483L303.533 127.58L303.591 127.628L303.649 127.724L303.766 127.773L303.824 127.821L303.941 127.917L303.999 127.966L304.116 128.062L304.291 128.207L304.466 128.351L304.525 128.399L304.583 128.448L304.7 128.496L304.758 128.544L304.816 128.64L304.933 128.689L304.991 128.737L305.05 128.785L305.225 128.881L305.4 129.026L305.633 129.123L305.808 129.267L305.983 129.364L306.217 129.508L306.625 129.749L306.8 129.846L307.034 129.99L307.209 130.135L307.442 130.231L307.676 130.376L307.909 130.521L307.967 130.617L308.084 130.665L308.201 130.762L308.317 130.81L308.434 130.906L308.551 130.954L308.609 131.051L308.726 131.147L308.842 131.244L308.959 131.292L309.076 131.388L309.134 131.485L309.251 131.581L309.368 131.629L309.484 131.726L309.543 131.822L309.659 131.919L309.776 132.015L309.834 132.111L309.951 132.256L310.068 132.352L310.126 132.449L310.243 132.545L310.301 132.642L310.36 132.786L310.476 132.883L310.535 132.979L310.593 133.124L310.71 133.22L310.768 133.317L310.826 133.461L310.885 133.558V133.654L310.943 133.751L311.001 133.847L311.06 133.992L311.118 134.088V134.184L311.176 134.281V134.425L311.235 134.522V134.618L311.293 134.715V134.859V134.956L311.352 135.052V135.149V135.293V135.39V135.486V135.582V135.727V135.824V135.92V136.016V136.113V136.257L311.293 136.354V136.45V136.547L311.235 136.643V136.739L311.176 136.836V136.932L311.118 137.077V137.173L311.06 137.27L311.001 137.366V137.463L310.943 137.559L310.885 137.655L310.826 137.704L310.768 137.8L310.71 137.896L310.651 137.993L310.593 138.089L310.535 138.186L310.476 138.282L310.418 138.33L310.36 138.427L310.301 138.523L310.243 138.62L310.185 138.668L310.126 138.764L310.009 138.861L309.951 138.909L309.893 139.005L309.834 139.102L309.718 139.15L309.659 139.246L309.601 139.295L309.484 139.391L309.426 139.439L309.309 139.536L309.251 139.584L309.134 139.68L309.076 139.728L308.959 139.777L308.901 139.873L308.784 139.921L308.667 139.969L308.609 140.066L308.492 140.114L308.434 140.162L308.317 140.21L308.201 140.259L308.084 140.307L308.026 140.403L307.909 140.452L307.792 140.5L307.676 140.548L307.617 140.596L307.5 140.644L307.384 140.693L307.267 140.741H307.15L307.034 140.789L306.917 140.837L306.8 140.885L306.684 140.934H306.567L306.45 140.982L306.333 141.03H306.217L306.1 141.078L305.983 141.126H305.867L305.75 141.175H305.633L305.517 141.223H305.4H305.283L305.166 141.271H305.05H304.933L304.816 141.319H304.641H304.525H304.408H304.291H304.175H304.058H303.883H303.766H303.649H303.533H303.416H303.241H303.124L303.008 141.271H302.891H302.774L302.599 141.223H302.482L302.366 141.175H302.249L302.132 141.126H302.016L301.899 141.078L301.782 141.03L301.666 140.982L301.549 140.885L301.49 140.837L301.374 140.741L301.315 140.693L301.199 140.596L301.14 140.5L301.082 140.452L301.024 140.355L300.965 140.259L300.907 140.162V140.018L300.849 139.921V139.825V139.728V139.632V139.536L300.907 139.439V139.343L300.965 139.198L301.024 139.102L301.082 139.053L301.14 138.957L301.199 138.861L301.257 138.764L301.374 138.668L301.432 138.62L301.549 138.571L301.666 138.475L301.724 138.427L301.841 138.379L301.957 138.33L302.074 138.282H302.191L302.307 138.234H302.482H302.599H302.716H302.832H302.949L303.066 138.282H303.183H303.241H303.299L303.358 138.33H303.416H303.474H303.533H303.591H303.708H303.766H303.824L303.883 138.379H303.941H303.999H304.058L304.116 138.33H304.233H304.291H304.35H304.408H304.466H304.525H304.583H304.641L304.7 138.282H304.758H304.875H304.933L304.991 138.234H305.05H305.108L305.166 138.186H305.225H305.283L305.342 138.138H305.4H305.458L305.517 138.089H305.575L305.633 138.041H305.692L305.75 137.993H305.808L305.867 137.945H305.925L305.983 137.896H306.042L306.1 137.848L306.158 137.8H306.217L306.275 137.752H306.333V137.704L306.392 137.655H306.45L306.509 137.607L306.567 137.559H306.625V137.511L306.684 137.463L306.742 137.414H306.8L306.859 137.366V137.318L306.917 137.27H306.975V137.222L307.034 137.173L307.092 137.125V137.077H307.15L307.209 137.029V136.981L307.267 136.932V136.884H307.325V136.836L307.384 136.788V136.739L307.442 136.691V136.643L307.5 136.595V136.547L307.559 136.498V136.45V136.402L307.617 136.354V136.306V136.257L307.676 136.209V136.161V136.113L307.734 136.065V136.016V135.968V135.92V135.872V135.824V135.775V135.727V135.679V135.631V135.582V135.534V135.486V135.438V135.39V135.341V135.293V135.245V135.197L307.676 135.149V135.1V135.052V135.004L307.617 134.956V134.908V134.859L307.559 134.811V134.763L307.5 134.715V134.618L307.442 134.57V134.522L307.384 134.474V134.425L307.325 134.377L307.267 134.281V134.233L307.209 134.184L307.15 134.136L307.092 134.088L307.034 134.04L306.975 133.943V133.895L306.917 133.847L306.859 133.799L306.742 133.751L306.684 133.654L306.625 133.606L306.567 133.558L306.509 133.509L306.45 133.461L306.333 133.365L306.275 133.317L306.217 133.268L306.158 133.22L306.042 133.172L305.983 133.076L305.867 133.027L305.808 132.979L305.692 132.931L305.633 132.883L305.458 132.738L305.283 132.642L305.05 132.497L304.875 132.401L304.7 132.256L304.466 132.16L304.058 131.919L303.883 131.774L303.649 131.629L303.416 131.533L303.241 131.388L303.008 131.244L302.832 131.099L302.716 131.051L302.599 130.954L302.482 130.906L302.366 130.81L302.307 130.762L302.191 130.665L302.074 130.617L301.957 130.521L301.782 130.376L301.549 130.183L301.432 130.087L301.374 130.038L301.257 129.942L301.14 129.846L301.024 129.749L300.907 129.653L300.849 129.556L300.732 129.46L300.615 129.364L300.499 129.267L300.382 129.171L300.323 129.026L300.207 128.93L300.09 128.833L299.973 128.689L299.915 128.592L299.798 128.448L299.74 128.351L299.623 128.207L299.507 128.062L299.448 127.966L299.39 127.821L299.332 127.724L299.273 127.676V127.58L299.215 127.532V127.435L299.156 127.387L299.098 127.291V127.242L299.04 127.146V127.098L298.981 127.001V126.905L298.923 126.809V126.664L298.865 126.567V126.423L298.806 126.326V126.182V126.085L298.748 125.941V125.844V125.7V125.603V125.459V125.362V125.266V125.121V125.025L298.806 124.88V124.784V124.687L298.865 124.543V124.446L298.923 124.35V124.205L298.981 124.109V124.012L299.04 123.916L299.098 123.771L299.156 123.675L299.215 123.579V123.482L299.273 123.386L299.332 123.289L299.39 123.193L299.448 123.096L299.565 123L299.623 122.904L299.682 122.807L299.74 122.711L299.798 122.614L299.857 122.518L299.973 122.47L300.032 122.373L300.148 122.277L300.207 122.18L300.265 122.132L300.382 122.036L300.44 121.939L300.557 121.891L300.615 121.795L300.732 121.747L300.79 121.65L300.907 121.602L301.024 121.506L301.082 121.457L301.199 121.409L301.315 121.313L301.432 121.265L301.49 121.216L301.607 121.12L301.724 121.072L301.841 121.023L301.899 120.975L302.016 120.927L302.132 120.879L302.249 120.831L302.366 120.782L302.482 120.734L302.599 120.686L302.716 120.638L302.832 120.59L302.949 120.541L303.066 120.493L303.183 120.445H303.299L303.416 120.397L303.533 120.349L303.649 120.3H303.766L303.883 120.252L303.999 120.204H304.116L304.233 120.156H304.35L304.466 120.108H304.583H304.7L304.875 120.059H304.991L305.108 120.011H305.225H305.342H305.458H305.575L305.75 119.963H305.867H305.983H306.1H306.217H306.333Z" fill="white"/>
<path d="M206.788 256.242C206.788 256.242 192.434 259.906 190.45 275.622C184.732 321.324 186.774 343.066 180.589 352.177C179.247 354.057 120.081 347.115 119.439 348.465C117.689 352.225 106.194 367.941 108.353 368.423C115.121 370.063 194.068 387.996 210.931 374.835C226.452 362.687 224.293 338.486 220.792 325.759C216.299 309.609 229.253 257.206 206.788 256.242Z" fill="#E3D667" fill-opacity="0.94"/>
<path d="M317.124 377.346C302.128 336.127 257.666 246.701 257.666 246.701L233.451 244.049C230.359 242.073 199.842 261.838 199.842 261.838C199.842 261.838 197.275 273.842 194.824 285.798C192.549 296.741 179.653 308.07 180.879 313.903C183.68 327.402 203.81 330.632 203.81 330.632C207.369 354.398 210.112 368.572 214.021 380.72" fill="#F2E895"/>
<path d="M254.925 246.895C254.925 246.895 247.398 260.586 251.133 280.497C252.708 288.981 264.728 323.402 267.587 331.694C273.772 349.628 263.561 350.013 241.972 350.11C238.938 350.158 216.59 348.23 216.181 349.772C214.898 354.159 210.347 374.889 218.69 376.432C228.785 378.264 281.649 383.663 296.937 367.368C311.057 352.327 305.572 325.764 300.263 312.025C293.494 294.525 277.74 245.738 254.925 246.895Z" fill="#E3D667" fill-opacity="0.94"/>
<path d="M216.591 349.055C219.625 349.055 222.601 355.129 223.184 362.65C223.768 370.218 221.784 376.341 218.691 376.389C215.657 376.389 212.681 370.315 212.098 362.794C211.514 355.225 213.498 349.103 216.591 349.055Z" fill="#2D2280"/>
<path d="M222.195 360.62C222.195 360.62 210 358.258 200.256 353.485C197.28 352.039 197.688 355.028 197.98 355.317C199.439 357.052 205.974 360.813 205.332 361.054C204.048 361.536 189.578 358.402 184.793 356.811C184.268 356.667 179.133 354.786 178.783 355.413C178.083 356.811 180.65 358.065 181.876 358.595C186.018 360.475 199.614 364.476 198.913 364.332C197.63 364.139 186.485 362.548 182.284 361.825C181.992 361.777 176.041 360.716 175.866 361.343C175.399 362.644 179.833 363.898 180.884 364.139C185.026 365.055 196.171 367.755 197.571 368.092C198.155 368.237 193.254 368.044 191.912 367.947C187.652 367.706 183.451 366.887 179.191 366.79C178.375 366.742 175.574 366.501 175.34 367.61C175.165 368.333 177.266 369.056 177.849 369.201C181.409 370.261 206.907 373.395 214.318 372.334C217.177 371.949 221.786 373.202 221.786 373.202C221.786 373.202 227.33 364.38 222.195 360.62Z" fill="#DAB6E4"/>
<path d="M188.817 157.71C188.817 157.71 170.379 154.817 161.626 164.314C152.816 173.811 154.8 186.635 141.321 191.166C127.784 195.698 123.233 217.392 136.303 223.9C149.315 230.408 133.502 242.412 133.502 242.412C133.502 242.412 121.774 251.909 136.303 263.913C136.303 263.913 146.864 269.361 161.626 272.832C161.626 272.832 151.007 264.299 154.158 253.548C154.158 253.548 155.325 271.434 175.339 272.832C195.352 274.23 208.364 262.66 208.364 262.66L266.888 250.897C266.888 250.897 300.964 243.569 300.964 224.045C301.023 204.52 278.092 206.882 273.715 192.805C269.339 178.777 268.289 164.989 249.325 160.506C230.362 156.071 207.314 139.535 188.817 157.71Z" fill="#2C217D"/>
<path d="M233.221 244.969L231.529 207.655C226.978 199.701 200.429 199.267 191.56 203.172C183.391 206.788 179.131 215.369 181.582 223.419L203.521 269.796C206.73 279.197 220.676 276.642 226.044 270.664C239.756 255.285 233.921 245.933 233.221 244.969Z" fill="#CB98D8"/>
<path d="M169.036 226.067L164.893 211.171C164.893 211.171 156.899 208.085 154.565 215.268C152.173 222.5 161.45 228.188 169.036 226.067Z" fill="#DAB6E4"/>
<path d="M159.466 206.982C164.367 235.377 168.451 254.13 193.075 253.551C217.756 252.925 249.148 229.495 248.798 204.813C248.448 180.082 228.201 160.557 203.519 161.136C178.837 161.762 159.115 182.251 159.466 206.982Z" fill="#DAB6E4"/>
<path d="M214.779 317.951C214.779 317.951 233.159 330.534 257.258 324.363C257.258 324.363 232.167 341.814 214.779 317.951Z" fill="#4133B3"/>
<path d="M223.592 219.225C226.043 223.323 223.125 228.674 217.057 231.132C210.989 233.543 204.103 232.193 201.653 228.047C199.202 223.949 202.119 218.598 208.188 216.188C214.256 213.729 221.141 215.079 223.592 219.225Z" fill="#CB98D8"/>
<path d="M176.096 231.228C173.295 235.182 166.352 236.146 160.517 233.398C154.682 230.602 152.173 225.106 154.974 221.153C157.774 217.152 164.718 216.187 170.553 218.983C176.388 221.78 178.897 227.227 176.096 231.228Z" fill="#CB98D8"/>
<path d="M165.711 183.498C165.711 183.498 171.488 174.965 180.882 183.498C190.334 191.983 185.958 205.577 208.364 207.891C230.829 210.157 216.767 227.898 232.404 227.175L234.096 257.498C234.096 257.498 275.116 210.061 253.818 182.485C232.521 154.91 180.59 146.474 165.711 183.498Z" fill="#2C217D"/>
<path d="M226.277 228.191L233.921 212.909C233.921 212.909 244.307 209.679 245.999 216.959C247.633 224.238 235.263 230.216 226.277 228.191Z" fill="#DAB6E4"/>
<path d="M104.035 368.475H219.217V377.779H104.035V368.475Z" fill="#3C7CEA"/>
<path d="M158.07 375.948L144.708 272.83L7.41211 280.736L28.7679 375.948H158.07Z" fill="#3C7CEA"/>
<path d="M149.432 377.534L136.712 272.922L0 281.021L20.6556 377.583L149.432 377.534Z" fill="#0948B4"/>
<path d="M71.128 314.628C77.7798 312.218 85.5402 316.026 88.4577 323.113C91.4335 330.151 88.3993 337.816 81.8059 340.179C75.1541 342.541 67.3353 338.732 64.4178 331.694C61.442 324.607 64.4762 316.99 71.128 314.628Z" fill="#3C7CEA"/>
<path d="M131.967 28.1764C131.165 28.1764 130.424 28.0312 129.743 27.7406C129.072 27.4501 128.481 27.0444 127.97 26.5235C127.469 26.0026 127.078 25.3916 126.798 24.6903C126.517 23.9891 126.377 23.2228 126.377 22.3913C126.377 21.5599 126.512 20.7936 126.783 20.0923C127.063 19.3811 127.454 18.77 127.955 18.2592C128.466 17.7382 129.062 17.3375 129.743 17.0571C130.424 16.7666 131.165 16.6213 131.967 16.6213C132.768 16.6213 133.484 16.7565 134.116 17.027C134.757 17.2975 135.298 17.6581 135.738 18.1089C136.179 18.5497 136.495 19.0355 136.685 19.5664L134.852 20.4229C134.642 19.8619 134.286 19.4011 133.785 19.0405C133.284 18.6699 132.678 18.4845 131.967 18.4845C131.266 18.4845 130.645 18.6498 130.104 18.9804C129.573 19.311 129.157 19.7668 128.856 20.3478C128.566 20.9288 128.421 21.61 128.421 22.3913C128.421 23.1727 128.566 23.8589 128.856 24.4499C129.157 25.0309 129.573 25.4867 130.104 25.8173C130.645 26.1479 131.266 26.3132 131.967 26.3132C132.678 26.3132 133.284 26.1329 133.785 25.7722C134.286 25.4016 134.642 24.9358 134.852 24.3748L136.685 25.2313C136.495 25.7622 136.179 26.2531 135.738 26.7038C135.298 27.1446 134.757 27.5002 134.116 27.7707C133.484 28.0412 132.768 28.1764 131.967 28.1764ZM140.511 28.1764C139.94 28.1764 139.445 28.0812 139.024 27.8909C138.603 27.7006 138.278 27.4301 138.047 27.0795C137.817 26.7189 137.702 26.3031 137.702 25.8323C137.702 25.3815 137.802 24.9808 138.002 24.6302C138.202 24.2696 138.513 23.9691 138.934 23.7287C139.354 23.4883 139.885 23.318 140.526 23.2178L143.201 22.782V24.2846L140.902 24.6753C140.511 24.7454 140.221 24.8707 140.031 25.051C139.84 25.2313 139.745 25.4667 139.745 25.7572C139.745 26.0377 139.85 26.2631 140.061 26.4334C140.281 26.5937 140.552 26.6738 140.872 26.6738C141.283 26.6738 141.643 26.5886 141.954 26.4183C142.275 26.238 142.52 25.9926 142.69 25.6821C142.871 25.3715 142.961 25.0309 142.961 24.6603V22.5566C142.961 22.206 142.82 21.9155 142.54 21.6851C142.27 21.4447 141.909 21.3245 141.458 21.3245C141.037 21.3245 140.662 21.4397 140.331 21.6701C140.011 21.8905 139.775 22.186 139.625 22.5566L138.017 21.7753C138.177 21.3445 138.428 20.9739 138.768 20.6633C139.119 20.3428 139.53 20.0923 140.001 19.912C140.471 19.7317 140.982 19.6416 141.533 19.6416C142.204 19.6416 142.795 19.7668 143.306 20.0172C143.817 20.2576 144.213 20.5982 144.493 21.039C144.784 21.4697 144.929 21.9756 144.929 22.5566V27.9961H143.066V26.5987L143.487 26.5686C143.276 26.9192 143.026 27.2147 142.735 27.4552C142.445 27.6856 142.114 27.8659 141.744 27.9961C141.373 28.1163 140.962 28.1764 140.511 28.1764ZM146.748 27.9961V19.8219H148.597V21.64L148.446 21.3696C148.637 20.7585 148.932 20.3328 149.333 20.0923C149.744 19.8519 150.235 19.7317 150.806 19.7317H151.286V21.4747H150.58C150.019 21.4747 149.568 21.6501 149.228 22.0007C148.887 22.3413 148.717 22.8221 148.717 23.4432V27.9961H146.748ZM156.245 28.1764C155.404 28.1764 154.668 27.9861 154.037 27.6054C153.405 27.2248 152.915 26.7089 152.564 26.0577C152.213 25.4066 152.038 24.6853 152.038 23.894C152.038 23.0725 152.213 22.3463 152.564 21.7152C152.925 21.074 153.41 20.5682 154.021 20.1975C154.643 19.8269 155.334 19.6416 156.095 19.6416C156.736 19.6416 157.297 19.7467 157.778 19.9571C158.269 20.1675 158.685 20.458 159.025 20.8286C159.366 21.1993 159.626 21.625 159.807 22.1058C159.987 22.5767 160.077 23.0876 160.077 23.6385C160.077 23.7788 160.067 23.924 160.047 24.0743C160.037 24.2245 160.012 24.3548 159.972 24.4649H153.661V22.9623H158.86L157.928 23.6686C158.018 23.2078 157.993 22.797 157.853 22.4364C157.723 22.0758 157.503 21.7903 157.192 21.5799C156.891 21.3696 156.526 21.2644 156.095 21.2644C155.684 21.2644 155.319 21.3696 154.998 21.5799C154.678 21.7803 154.432 22.0808 154.262 22.4815C154.102 22.8722 154.042 23.348 154.082 23.909C154.042 24.4099 154.107 24.8556 154.277 25.2463C154.457 25.627 154.718 25.9225 155.058 26.1329C155.409 26.3432 155.81 26.4484 156.26 26.4484C156.711 26.4484 157.092 26.3532 157.402 26.1629C157.723 25.9726 157.973 25.7171 158.154 25.3966L159.746 26.1779C159.586 26.5686 159.336 26.9142 158.995 27.2147C158.655 27.5153 158.249 27.7507 157.778 27.921C157.317 28.0913 156.806 28.1764 156.245 28.1764ZM165.446 28.1764C164.604 28.1764 163.868 27.9861 163.237 27.6054C162.606 27.2248 162.115 26.7089 161.765 26.0577C161.414 25.4066 161.239 24.6853 161.239 23.894C161.239 23.0725 161.414 22.3463 161.765 21.7152C162.125 21.074 162.611 20.5682 163.222 20.1975C163.843 19.8269 164.534 19.6416 165.296 19.6416C165.937 19.6416 166.498 19.7467 166.979 19.9571C167.469 20.1675 167.885 20.458 168.226 20.8286C168.566 21.1993 168.827 21.625 169.007 22.1058C169.187 22.5767 169.278 23.0876 169.278 23.6385C169.278 23.7788 169.268 23.924 169.248 24.0743C169.238 24.2245 169.212 24.3548 169.172 24.4649H162.861V22.9623H168.06L167.129 23.6686C167.219 23.2078 167.194 22.797 167.054 22.4364C166.923 22.0758 166.703 21.7903 166.393 21.5799C166.092 21.3696 165.726 21.2644 165.296 21.2644C164.885 21.2644 164.519 21.3696 164.199 21.5799C163.878 21.7803 163.633 22.0808 163.462 22.4815C163.302 22.8722 163.242 23.348 163.282 23.909C163.242 24.4099 163.307 24.8556 163.477 25.2463C163.658 25.627 163.918 25.9225 164.259 26.1329C164.609 26.3432 165.01 26.4484 165.461 26.4484C165.912 26.4484 166.292 26.3532 166.603 26.1629C166.923 25.9726 167.174 25.7171 167.354 25.3966L168.947 26.1779C168.787 26.5686 168.536 26.9142 168.196 27.2147C167.855 27.5153 167.449 27.7507 166.979 27.921C166.518 28.0913 166.007 28.1764 165.446 28.1764ZM170.77 27.9961V19.8219H172.618V21.64L172.468 21.3696C172.658 20.7585 172.954 20.3328 173.354 20.0923C173.765 19.8519 174.256 19.7317 174.827 19.7317H175.308V21.4747H174.601C174.04 21.4747 173.59 21.6501 173.249 22.0007C172.908 22.3413 172.738 22.8221 172.738 23.4432V27.9961H170.77ZM183.027 31.3018C182.416 31.3018 181.85 31.2017 181.329 31.0013C180.809 30.801 180.358 30.5205 179.977 30.1599C179.606 29.8092 179.336 29.3935 179.166 28.9127L180.999 28.2215C181.119 28.6021 181.355 28.9077 181.705 29.1381C182.066 29.3785 182.507 29.4987 183.027 29.4987C183.428 29.4987 183.779 29.4236 184.079 29.2733C184.39 29.1231 184.63 28.9027 184.801 28.6122C184.971 28.3317 185.056 27.9911 185.056 27.5904V25.7271L185.432 26.1779C185.151 26.6688 184.775 27.0394 184.305 27.2899C183.834 27.5403 183.298 27.6655 182.697 27.6655C181.936 27.6655 181.254 27.4902 180.653 27.1396C180.052 26.789 179.581 26.3082 179.241 25.6971C178.9 25.086 178.73 24.3998 178.73 23.6385C178.73 22.8672 178.9 22.181 179.241 21.5799C179.581 20.9789 180.047 20.5081 180.638 20.1675C181.229 19.8169 181.9 19.6416 182.652 19.6416C183.263 19.6416 183.799 19.7718 184.26 20.0322C184.73 20.2827 185.121 20.6483 185.432 21.1291L185.161 21.625V19.8219H187.024V27.5904C187.024 28.3016 186.849 28.9377 186.498 29.4987C186.158 30.0597 185.687 30.5005 185.086 30.821C184.495 31.1416 183.809 31.3018 183.027 31.3018ZM182.937 25.8474C183.358 25.8474 183.724 25.7572 184.034 25.5769C184.355 25.3866 184.605 25.1261 184.786 24.7955C184.966 24.4649 185.056 24.0843 185.056 23.6535C185.056 23.2328 184.961 22.8572 184.77 22.5266C184.59 22.186 184.34 21.9205 184.019 21.7302C183.709 21.5399 183.348 21.4447 182.937 21.4447C182.527 21.4447 182.156 21.5399 181.825 21.7302C181.495 21.9205 181.234 22.186 181.044 22.5266C180.864 22.8572 180.774 23.2328 180.774 23.6535C180.774 24.0743 180.864 24.4499 181.044 24.7805C181.234 25.1111 181.49 25.3715 181.81 25.5619C182.141 25.7522 182.517 25.8474 182.937 25.8474ZM191.778 28.1764C191.147 28.1764 190.596 28.0362 190.125 27.7557C189.664 27.4752 189.309 27.0845 189.058 26.5836C188.818 26.0828 188.697 25.4967 188.697 24.8256V19.8219H190.666V24.6603C190.666 25.0009 190.731 25.3014 190.861 25.5619C191.001 25.8123 191.197 26.0126 191.447 26.1629C191.708 26.3031 191.998 26.3733 192.319 26.3733C192.639 26.3733 192.925 26.3031 193.175 26.1629C193.426 26.0126 193.621 25.8073 193.761 25.5468C193.902 25.2864 193.972 24.9758 193.972 24.6152V19.8219H195.94V27.9961H194.077V26.3883L194.242 26.6738C194.052 27.1747 193.736 27.5503 193.295 27.8008C192.865 28.0512 192.359 28.1764 191.778 28.1764ZM197.77 27.9961V19.8219H199.738V27.9961H197.77ZM197.77 18.9053V16.8016H199.738V18.9053H197.77ZM205.357 28.1764C204.566 28.1764 203.86 27.9911 203.239 27.6204C202.618 27.2398 202.127 26.7239 201.766 26.0727C201.405 25.4216 201.225 24.7004 201.225 23.909C201.225 23.1076 201.405 22.3863 201.766 21.7452C202.127 21.1041 202.618 20.5932 203.239 20.2126C203.87 19.8319 204.571 19.6416 205.342 19.6416C205.963 19.6416 206.514 19.7668 206.995 20.0172C207.486 20.2576 207.872 20.5982 208.152 21.039L207.852 21.4447V16.6213H209.82V27.9961H207.957V26.4183L208.167 26.809C207.887 27.2498 207.496 27.5904 206.995 27.8308C206.494 28.0612 205.948 28.1764 205.357 28.1764ZM205.568 26.3733C206.019 26.3733 206.414 26.2681 206.755 26.0577C207.095 25.8474 207.361 25.5568 207.551 25.1862C207.752 24.8156 207.852 24.3898 207.852 23.909C207.852 23.4382 207.752 23.0174 207.551 22.6468C207.361 22.2661 207.095 21.9706 206.755 21.7602C206.414 21.5499 206.019 21.4447 205.568 21.4447C205.127 21.4447 204.731 21.5549 204.381 21.7753C204.03 21.9856 203.755 22.2761 203.554 22.6468C203.364 23.0074 203.269 23.4281 203.269 23.909C203.269 24.3898 203.364 24.8156 203.554 25.1862C203.755 25.5568 204.03 25.8474 204.381 26.0577C204.731 26.2681 205.127 26.3733 205.568 26.3733ZM214.131 28.1764C213.56 28.1764 213.064 28.0812 212.643 27.8909C212.222 27.7006 211.897 27.4301 211.666 27.0795C211.436 26.7189 211.321 26.3031 211.321 25.8323C211.321 25.3815 211.421 24.9808 211.621 24.6302C211.822 24.2696 212.132 23.9691 212.553 23.7287C212.974 23.4883 213.505 23.318 214.146 23.2178L216.82 22.782V24.2846L214.521 24.6753C214.131 24.7454 213.84 24.8707 213.65 25.051C213.46 25.2313 213.364 25.4667 213.364 25.7572C213.364 26.0377 213.47 26.2631 213.68 26.4334C213.9 26.5937 214.171 26.6738 214.491 26.6738C214.902 26.6738 215.263 26.5886 215.573 26.4183C215.894 26.238 216.139 25.9926 216.31 25.6821C216.49 25.3715 216.58 25.0309 216.58 24.6603V22.5566C216.58 22.206 216.44 21.9155 216.159 21.6851C215.889 21.4447 215.528 21.3245 215.077 21.3245C214.657 21.3245 214.281 21.4397 213.95 21.6701C213.63 21.8905 213.394 22.186 213.244 22.5566L211.636 21.7753C211.797 21.3445 212.047 20.9739 212.388 20.6633C212.738 20.3428 213.149 20.0923 213.62 19.912C214.091 19.7317 214.602 19.6416 215.153 19.6416C215.824 19.6416 216.415 19.7668 216.926 20.0172C217.436 20.2576 217.832 20.5982 218.113 21.039C218.403 21.4697 218.548 21.9756 218.548 22.5566V27.9961H216.685V26.5987L217.106 26.5686C216.896 26.9192 216.645 27.2147 216.355 27.4552C216.064 27.6856 215.734 27.8659 215.363 27.9961C214.992 28.1163 214.582 28.1764 214.131 28.1764ZM220.368 27.9961V19.8219H222.216V21.4297L222.066 21.1442C222.256 20.6533 222.567 20.2827 222.997 20.0322C223.438 19.7718 223.949 19.6416 224.53 19.6416C225.131 19.6416 225.662 19.7718 226.123 20.0322C226.594 20.2927 226.959 20.6583 227.22 21.1291C227.48 21.5899 227.61 22.1259 227.61 22.7369V27.9961H225.642V23.2028C225.642 22.8421 225.572 22.5316 225.432 22.2711C225.291 22.0107 225.096 21.8103 224.846 21.6701C224.605 21.5198 224.32 21.4447 223.989 21.4447C223.669 21.4447 223.383 21.5198 223.133 21.6701C222.882 21.8103 222.687 22.0107 222.547 22.2711C222.406 22.5316 222.336 22.8421 222.336 23.2028V27.9961H220.368ZM233.212 28.1764C232.4 28.1764 231.669 27.9911 231.018 27.6204C230.377 27.2398 229.871 26.7289 229.5 26.0878C229.13 25.4366 228.944 24.7054 228.944 23.894C228.944 23.0825 229.13 22.3563 229.5 21.7152C229.871 21.074 230.377 20.5682 231.018 20.1975C231.669 19.8269 232.4 19.6416 233.212 19.6416C233.793 19.6416 234.334 19.7467 234.835 19.9571C235.335 20.1575 235.766 20.4379 236.127 20.7986C236.497 21.1492 236.763 21.5699 236.923 22.0608L235.195 22.8121C235.045 22.4014 234.789 22.0708 234.429 21.8203C234.078 21.5699 233.673 21.4447 233.212 21.4447C232.781 21.4447 232.395 21.5499 232.055 21.7602C231.724 21.9706 231.464 22.2611 231.273 22.6318C231.083 23.0024 230.988 23.4281 230.988 23.909C230.988 24.3898 231.083 24.8156 231.273 25.1862C231.464 25.5568 231.724 25.8474 232.055 26.0577C232.395 26.2681 232.781 26.3733 233.212 26.3733C233.683 26.3733 234.093 26.2481 234.444 25.9976C234.794 25.7472 235.045 25.4116 235.195 24.9909L236.923 25.7722C236.763 26.233 236.502 26.6487 236.142 27.0194C235.781 27.38 235.35 27.6655 234.85 27.8759C234.349 28.0762 233.803 28.1764 233.212 28.1764ZM242.293 28.1764C241.452 28.1764 240.716 27.9861 240.085 27.6054C239.454 27.2248 238.963 26.7089 238.612 26.0577C238.261 25.4066 238.086 24.6853 238.086 23.894C238.086 23.0725 238.261 22.3463 238.612 21.7152C238.973 21.074 239.459 20.5682 240.07 20.1975C240.691 19.8269 241.382 19.6416 242.143 19.6416C242.784 19.6416 243.345 19.7467 243.826 19.9571C244.317 20.1675 244.733 20.458 245.073 20.8286C245.414 21.1993 245.674 21.625 245.855 22.1058C246.035 22.5767 246.125 23.0876 246.125 23.6385C246.125 23.7788 246.115 23.924 246.095 24.0743C246.085 24.2245 246.06 24.3548 246.02 24.4649H239.709V22.9623H244.908L243.976 23.6686C244.067 23.2078 244.042 22.797 243.901 22.4364C243.771 22.0758 243.551 21.7903 243.24 21.5799C242.94 21.3696 242.574 21.2644 242.143 21.2644C241.733 21.2644 241.367 21.3696 241.046 21.5799C240.726 21.7803 240.48 22.0808 240.31 22.4815C240.15 22.8722 240.09 23.348 240.13 23.909C240.09 24.4099 240.155 24.8556 240.325 25.2463C240.505 25.627 240.766 25.9225 241.106 26.1329C241.457 26.3432 241.858 26.4484 242.309 26.4484C242.759 26.4484 243.14 26.3532 243.451 26.1629C243.771 25.9726 244.021 25.7171 244.202 25.3966L245.795 26.1779C245.634 26.5686 245.384 26.9142 245.043 27.2147C244.703 27.5153 244.297 27.7507 243.826 27.921C243.365 28.0913 242.854 28.1764 242.293 28.1764Z" fill="white"/>
</svg>
