<svg width="24" height="16" viewBox="0 0 24 16" fill="none" xmlns="http://www.w3.org/2000/svg">
<path d="M4.48785 14.8984V10.8784H0.467852V8.87844H4.48785V4.89844H6.48785V8.87844H10.4679V10.8784H6.48785V14.8984H4.48785ZM17.7399 15.1384C16.9399 15.1384 16.1865 14.9918 15.4799 14.6984C14.7865 14.4051 14.1865 13.9918 13.6799 13.4584C13.1865 12.9251 12.8332 12.2984 12.6199 11.5784L14.6199 10.8184C14.8865 11.5251 15.2932 12.0718 15.8399 12.4584C16.3865 12.8451 17.0199 13.0384 17.7399 13.0384C18.3265 13.0384 18.8332 12.9251 19.2599 12.6984C19.6999 12.4718 20.0399 12.1518 20.2799 11.7384C20.5332 11.3251 20.6599 10.8251 20.6599 10.2384C20.6599 9.6651 20.5332 9.17177 20.2799 8.75844C20.0399 8.3451 19.6999 8.03177 19.2599 7.81844C18.8332 7.6051 18.3265 7.49844 17.7399 7.49844C17.4999 7.49844 17.2532 7.51844 16.9999 7.55844C16.7599 7.59844 16.5465 7.65177 16.3599 7.71844L15.8399 6.61844L19.7599 1.99844H13.4199V-0.00156379H22.3999V1.89844L18.5599 6.49844L18.4999 5.73844C19.3932 5.75177 20.1799 5.95177 20.8599 6.33844C21.5399 6.71177 22.0665 7.23177 22.4399 7.89844C22.8266 8.55177 23.0199 9.31177 23.0199 10.1784C23.0199 11.1118 22.7932 11.9584 22.3399 12.7184C21.8865 13.4651 21.2599 14.0584 20.4599 14.4984C19.6732 14.9251 18.7665 15.1384 17.7399 15.1384Z" fill="#2B7DDD"/>
</svg>
