<svg width="328" height="572" viewBox="0 0 328 572" fill="none" xmlns="http://www.w3.org/2000/svg">
<path d="M171.523 247.986L171.47 247.974L171.503 247.953L171.523 247.986Z" fill="white" fill-opacity="0.25"/>
<path d="M181.487 241.809L181.341 242.076L181.182 241.819L181.487 241.809Z" fill="white" fill-opacity="0.25"/>
<path d="M172.086 259.36L171.851 259.771L171.613 259.384L172.086 259.36Z" fill="white" fill-opacity="0.25"/>
<path d="M192.092 247.715L190.925 247.767L191.497 246.749L192.092 247.715Z" fill="white" fill-opacity="0.25"/>
<path d="M190.908 224.291L190.851 224.415L190.771 224.286L190.908 224.291Z" fill="white" fill-opacity="0.25"/>
<path d="M182.686 265.402L181.311 265.405L181.952 264.211L182.686 265.402Z" fill="white" fill-opacity="0.25"/>
<path d="M192.712 258.389L191.835 259.994L190.884 258.449L192.712 258.389Z" fill="white" fill-opacity="0.25"/>
<path d="M202.1 240.891L201.369 242.229L200.576 240.941L202.1 240.891Z" fill="white" fill-opacity="0.25"/>
<path d="M201.537 230.094L200.519 230.099L201.002 229.224L201.537 230.094Z" fill="white" fill-opacity="0.25"/>
<path d="M162.078 265.607L161.942 265.602L161.999 265.479L162.078 265.607Z" fill="white" fill-opacity="0.25"/>
<path d="M173.201 282.959L171.782 283.033L172.468 281.768L173.201 282.959Z" fill="white" fill-opacity="0.25"/>
<path d="M183.311 275.939L182.364 277.72L181.294 275.981L183.311 275.939Z" fill="white" fill-opacity="0.25"/>
<path d="M203.572 265.291L200.441 265.398L201.927 262.618L203.572 265.291Z" fill="white" fill-opacity="0.25"/>
<path d="M213.644 257.272L211.878 260.534L209.936 257.378L213.644 257.272Z" fill="white" fill-opacity="0.25"/>
<path d="M212.914 247.643L210.1 247.687L211.428 245.227L212.914 247.643Z" fill="white" fill-opacity="0.25"/>
<path d="M211.661 223.242L210.861 224.755L209.97 223.306L211.661 223.242Z" fill="white" fill-opacity="0.25"/>
<path d="M211.146 212.59L209.908 212.597L210.493 211.527L211.146 212.59Z" fill="white" fill-opacity="0.25"/>
<path d="M200.456 206.693L200.367 206.837L200.268 206.676L200.456 206.693Z" fill="white" fill-opacity="0.25"/>
<path d="M162.537 276.957L162.334 277.349L162.116 276.994L162.537 276.957Z" fill="white" fill-opacity="0.25"/>
<path d="M173.698 293.577L172.821 295.182L171.87 293.636L173.698 293.577Z" fill="white" fill-opacity="0.25"/>
<path d="M194.199 282.955L190.796 283.052L192.416 280.057L194.199 282.955Z" fill="white" fill-opacity="0.25"/>
<path d="M204.32 274.731L202.383 278.365L200.223 274.855L204.32 274.731Z" fill="white" fill-opacity="0.25"/>
<path d="M224.695 265.344L219.327 265.495L221.901 260.803L224.695 265.344Z" fill="white" fill-opacity="0.25"/>
<path d="M223.014 239.741L221.382 242.788L219.578 239.858L223.014 239.741Z" fill="white" fill-opacity="0.25"/>
<path d="M222.412 230.033L219.618 230.11L220.946 227.65L222.412 230.033Z" fill="white" fill-opacity="0.25"/>
<path d="M221.369 205.544L220.378 207.397L219.268 205.593L221.369 205.544Z" fill="white" fill-opacity="0.25"/>
<path d="M184.486 300.434L181.492 300.545L182.921 297.89L184.486 300.434Z" fill="white" fill-opacity="0.25"/>
<path d="M194.759 292.378L192.859 295.856L190.778 292.475L194.759 292.378Z" fill="white" fill-opacity="0.25"/>
<path d="M215.27 283L209.733 283.166L212.356 278.266L215.27 283Z" fill="white" fill-opacity="0.25"/>
<path d="M225.321 273.573L222.385 278.976L219.155 273.727L225.321 273.573Z" fill="white" fill-opacity="0.25"/>
<path d="M234.753 256.002L231.894 261.313L228.743 256.193L234.753 256.002Z" fill="white" fill-opacity="0.25"/>
<path d="M234.068 247.678L228.973 247.839L231.413 243.363L234.068 247.678Z" fill="white" fill-opacity="0.25"/>
<path d="M232.691 222.064L230.912 225.378L228.931 222.158L232.691 222.064Z" fill="white" fill-opacity="0.25"/>
<path d="M232.301 212.627L228.761 212.719L230.458 209.632L232.301 212.627Z" fill="white" fill-opacity="0.25"/>
<path d="M220.963 195.141L219.103 195.22L219.992 193.563L220.963 195.141Z" fill="white" fill-opacity="0.25"/>
<path d="M210.179 188.945L209.887 189.481L209.57 188.965L210.179 188.945Z" fill="white" fill-opacity="0.25"/>
<path d="M152.944 294.626L152.811 294.842L152.672 294.616L152.944 294.626Z" fill="white" fill-opacity="0.25"/>
<path d="M163.529 300.5L162.427 300.512L162.955 299.566L163.529 300.5Z" fill="white" fill-opacity="0.25"/>
<path d="M174.65 317.852L172.297 317.923L173.422 315.855L174.65 317.852Z" fill="white" fill-opacity="0.25"/>
<path d="M184.857 310.193L183.358 313.025L181.674 310.288L184.857 310.193Z" fill="white" fill-opacity="0.25"/>
<path d="M205.629 300.52L200.345 300.663L202.855 296.011L205.629 300.52Z" fill="white" fill-opacity="0.25"/>
<path d="M215.801 291.151L212.866 296.554L209.655 291.337L215.801 291.151Z" fill="white" fill-opacity="0.25"/>
<path d="M236.197 282.953L228.813 283.146L232.333 276.674L236.197 282.953Z" fill="white" fill-opacity="0.25"/>
<path d="M246.169 272.463L242.402 279.399L238.28 272.701L246.169 272.463Z" fill="white" fill-opacity="0.25"/>
<path d="M245.693 265.342L238.361 265.547L241.849 259.095L245.693 265.342Z" fill="white" fill-opacity="0.25"/>
<path d="M244.237 238.445L241.404 243.652L238.292 238.596L244.237 238.445Z" fill="white" fill-opacity="0.25"/>
<path d="M243.711 230.156L238.343 230.307L240.917 225.616L243.711 230.156Z" fill="white" fill-opacity="0.25"/>
<path d="M242.768 204.097L240.405 208.482L237.809 204.263L242.768 204.097Z" fill="white" fill-opacity="0.25"/>
<path d="M242.477 195.398L237.634 195.537L239.94 191.277L242.477 195.398Z" fill="white" fill-opacity="0.25"/>
<path d="M231.435 187.63L229.917 190.429L228.232 187.692L231.435 187.63Z" fill="white" fill-opacity="0.25"/>
<path d="M209.768 177.744L209.327 177.749L209.53 177.358L209.768 177.744Z" fill="white" fill-opacity="0.25"/>
<path d="M163.973 311.325L163.332 312.519L162.599 311.327L163.973 311.325Z" fill="white" fill-opacity="0.25"/>
<path d="M175.037 328.004L173.824 330.216L172.496 328.058L175.037 328.004Z" fill="white" fill-opacity="0.25"/>
<path d="M195.721 317.893L191.235 318.034L193.362 314.06L195.721 317.893Z" fill="white" fill-opacity="0.25"/>
<path d="M206.016 308.938L203.373 313.806L200.46 309.072L206.016 308.938Z" fill="white" fill-opacity="0.25"/>
<path d="M226.609 300.484L219.413 300.695L222.824 294.334L226.609 300.484Z" fill="white" fill-opacity="0.25"/>
<path d="M236.64 290.093L232.885 296.977L228.783 290.311L236.64 290.093Z" fill="white" fill-opacity="0.25"/>
<path d="M256.814 282.695L248.199 282.98L252.316 275.385L256.814 282.695Z" fill="white" fill-opacity="0.25"/>
<path d="M255.718 254.867L251.906 261.875L247.724 255.08L255.718 254.867Z" fill="white" fill-opacity="0.25"/>
<path d="M255.283 247.809L247.763 247.997L251.34 241.4L255.283 247.809Z" fill="white" fill-opacity="0.25"/>
<path d="M254.088 220.616L250.925 226.514L247.417 220.815L254.088 220.616Z" fill="white" fill-opacity="0.25"/>
<path d="M253.781 212.904L247.311 213.068L250.373 207.365L253.781 212.904Z" fill="white" fill-opacity="0.25"/>
<path d="M253.09 186.025L249.952 191.819L246.504 186.215L253.09 186.025Z" fill="white" fill-opacity="0.25"/>
<path d="M231.066 177.867L228.052 177.946L229.481 175.291L231.066 177.867Z" fill="white" fill-opacity="0.25"/>
<path d="M220.147 171.09L219.416 172.428L218.623 171.14L220.147 171.09Z" fill="white" fill-opacity="0.25"/>
<path d="M153.814 317.977L153.121 318.004L153.458 317.397L153.814 317.977Z" fill="white" fill-opacity="0.25"/>
<path d="M185.721 335.191L182.201 335.315L183.898 332.229L185.721 335.191Z" fill="white" fill-opacity="0.25"/>
<path d="M195.952 326.854L193.836 330.775L191.498 326.975L195.952 326.854Z" fill="white" fill-opacity="0.25"/>
<path d="M216.771 317.904L210.217 318.075L213.323 312.301L216.771 317.904Z" fill="white" fill-opacity="0.25"/>
<path d="M226.898 307.809L223.398 314.314L219.513 308.002L226.898 307.809Z" fill="white" fill-opacity="0.25"/>
<path d="M247.246 300.258L238.747 300.515L242.807 293.044L247.246 300.258Z" fill="white" fill-opacity="0.25"/>
<path d="M257.07 289.241L252.896 296.96L248.299 289.489L257.07 289.241Z" fill="white" fill-opacity="0.25"/>
<path d="M266.749 271.562L262.409 279.516L257.673 271.82L266.749 271.562Z" fill="white" fill-opacity="0.25"/>
<path d="M266.477 265.207L257.569 265.45L261.8 257.607L266.477 265.207Z" fill="white" fill-opacity="0.25"/>
<path d="M265.474 237.097L261.433 244.601L256.975 237.355L265.474 237.097Z" fill="white" fill-opacity="0.25"/>
<path d="M265.172 230.4L256.893 230.656L260.832 223.348L265.172 230.4Z" fill="white" fill-opacity="0.25"/>
<path d="M264.346 202.583L260.464 209.766L256.184 202.811L264.346 202.583Z" fill="white" fill-opacity="0.25"/>
<path d="M264.258 195.801L255.875 196.031L259.878 188.684L264.258 195.801Z" fill="white" fill-opacity="0.25"/>
<path d="M252.92 178.316L246.249 178.515L249.432 172.649L252.92 178.316Z" fill="white" fill-opacity="0.25"/>
<path d="M241.64 169.584L239.456 173.681L237.018 169.72L241.64 169.584Z" fill="white" fill-opacity="0.25"/>
<path d="M219.729 160.381L218.374 160.416L219.035 159.254L219.729 160.381Z" fill="white" fill-opacity="0.25"/>
<path d="M209.019 154.452L208.885 154.668L208.746 154.442L209.019 154.452Z" fill="white" fill-opacity="0.25"/>
<path d="M154.198 329.062L153.804 329.793L153.368 329.084L154.198 329.062Z" fill="white" fill-opacity="0.25"/>
<path d="M164.814 335.27L163.09 335.354L163.923 333.82L164.814 335.27Z" fill="white" fill-opacity="0.25"/>
<path d="M175.779 352.586L173.102 352.635L174.372 350.3L175.779 352.586Z" fill="white" fill-opacity="0.25"/>
<path d="M185.983 344.709L184.306 347.828L182.443 344.801L185.983 344.709Z" fill="white" fill-opacity="0.25"/>
<path d="M206.719 335.189L201.215 335.336L203.845 330.52L206.719 335.189Z" fill="white" fill-opacity="0.25"/>
<path d="M216.961 325.646L213.855 331.42L210.427 325.849L216.961 325.646Z" fill="white" fill-opacity="0.25"/>
<path d="M237.482 317.723L229.489 317.936L233.301 310.928L237.482 317.723Z" fill="white" fill-opacity="0.25"/>
<path d="M247.425 306.898L243.385 314.401L238.926 307.156L247.425 306.898Z" fill="white" fill-opacity="0.25"/>
<path d="M267.516 299.863L258.472 300.101L262.779 292.167L267.516 299.863Z" fill="white" fill-opacity="0.25"/>
<path d="M277.276 288.526L272.899 296.636L268.083 288.811L277.276 288.526Z" fill="white" fill-opacity="0.25"/>
<path d="M277.176 282.375L267.827 282.623L272.261 274.389L277.176 282.375Z" fill="white" fill-opacity="0.25"/>
<path d="M276.408 253.856L271.929 262.161L266.975 254.111L276.408 253.856Z" fill="white" fill-opacity="0.25"/>
<path d="M276.262 247.773L266.829 248.029L271.307 239.723L276.262 247.773Z" fill="white" fill-opacity="0.25"/>
<path d="M275.602 219.144L270.958 227.685L265.865 219.409L275.602 219.144Z" fill="white" fill-opacity="0.25"/>
<path d="M275.49 213.264L265.616 213.524L270.318 204.859L275.49 213.264Z" fill="white" fill-opacity="0.25"/>
<path d="M274.809 184.38L269.994 193.293L264.703 184.695L274.809 184.38Z" fill="white" fill-opacity="0.25"/>
<path d="M274.721 178.752L264.458 179.029L269.33 169.993L274.721 178.752Z" fill="white" fill-opacity="0.25"/>
<path d="M263.509 167.892L259.494 175.291L255.075 168.11L263.509 167.892Z" fill="white" fill-opacity="0.25"/>
<path d="M241.295 160.65L236.861 160.804L238.976 156.883L241.295 160.65Z" fill="white" fill-opacity="0.25"/>
<path d="M230.191 153.144L228.92 155.48L227.533 153.226L230.191 153.144Z" fill="white" fill-opacity="0.25"/>
<path d="M208.658 143.041L208.47 143.024L208.559 142.88L208.658 143.041Z" fill="white" fill-opacity="0.25"/>
<path d="M144.104 335.451L143.799 335.461L143.945 335.194L144.104 335.451Z" fill="white" fill-opacity="0.25"/>
<path d="M165.134 345.819L164.289 347.404L163.338 345.859L165.134 345.819Z" fill="white" fill-opacity="0.25"/>
<path d="M176.068 362.577L174.817 364.945L173.39 362.627L176.068 362.577Z" fill="white" fill-opacity="0.25"/>
<path d="M196.688 352.506L192.201 352.647L194.349 348.706L196.688 352.506Z" fill="white" fill-opacity="0.25"/>
<path d="M206.886 343.612L204.332 348.336L201.518 343.763L206.886 343.612Z" fill="white" fill-opacity="0.25"/>
<path d="M227.574 335.098L220.378 335.308L223.789 328.947L227.574 335.098Z" fill="white" fill-opacity="0.25"/>
<path d="M237.671 324.666L233.891 331.654L229.73 324.891L237.671 324.666Z" fill="white" fill-opacity="0.25"/>
<path d="M257.873 317.383L249.102 317.631L253.275 309.912L257.873 317.383Z" fill="white" fill-opacity="0.25"/>
<path d="M267.619 306.237L263.388 314.08L258.711 306.48L267.619 306.237Z" fill="white" fill-opacity="0.25"/>
<path d="M287.516 299.32L278.439 299.578L282.76 291.592L287.516 299.32Z" fill="white" fill-opacity="0.25"/>
<path d="M286.956 270.851L282.401 279.248L277.407 271.133L286.956 270.851Z" fill="white" fill-opacity="0.25"/>
<path d="M286.92 264.879L277.118 265.184L281.787 256.538L286.92 264.879Z" fill="white" fill-opacity="0.25"/>
<path d="M286.375 235.999L281.438 245.076L276.028 236.284L286.375 235.999Z" fill="white" fill-opacity="0.25"/>
<path d="M286.418 230.514L275.682 230.816L280.79 221.368L286.418 230.514Z" fill="white" fill-opacity="0.25"/>
<path d="M285.871 201.058L280.503 211.021L274.558 201.361L285.871 201.058Z" fill="white" fill-opacity="0.25"/>
<path d="M285.844 196.104L274.33 196.44L279.8 186.282L285.844 196.104Z" fill="white" fill-opacity="0.25"/>
<path d="M285.195 166.266L279.515 176.732L273.293 166.621L285.195 166.266Z" fill="white" fill-opacity="0.25"/>
<path d="M263.166 161.131L255.004 161.359L258.886 154.175L263.166 161.131Z" fill="white" fill-opacity="0.25"/>
<path d="M251.866 151.57L248.975 156.901L245.784 151.716L251.866 151.57Z" fill="white" fill-opacity="0.25"/>
<path d="M229.76 143.062L227.406 143.134L228.531 141.066L229.76 143.062Z" fill="white" fill-opacity="0.25"/>
<path d="M218.902 136.604L218.407 137.53L217.872 136.661L218.902 136.604Z" fill="white" fill-opacity="0.25"/>
<path d="M144.541 346.771L144.293 347.234L143.996 346.751L144.541 346.771Z" fill="white" fill-opacity="0.25"/>
<path d="M155.049 352.734L153.862 352.754L154.415 351.704L155.049 352.734Z" fill="white" fill-opacity="0.25"/>
<path d="M186.727 369.869L183.135 369.948L184.844 366.81L186.727 369.869Z" fill="white" fill-opacity="0.25"/>
<path d="M196.95 361.447L194.822 365.42L192.464 361.588L196.95 361.447Z" fill="white" fill-opacity="0.25"/>
<path d="M217.541 352.414L211.343 352.587L214.291 347.133L217.541 352.414Z" fill="white" fill-opacity="0.25"/>
<path d="M227.702 342.522L224.348 348.759L220.642 342.737L227.702 342.522Z" fill="white" fill-opacity="0.25"/>
<path d="M248.018 334.77L239.908 335.01L243.777 327.878L248.018 334.77Z" fill="white" fill-opacity="0.25"/>
<path d="M257.876 323.952L253.881 331.383L249.461 324.202L257.876 323.952Z" fill="white" fill-opacity="0.25"/>
<path d="M277.711 316.719L269.212 316.976L273.272 309.505L277.711 316.719Z" fill="white" fill-opacity="0.25"/>
<path d="M287.374 305.8L283.379 313.231L278.959 306.05L287.374 305.8Z" fill="white" fill-opacity="0.25"/>
<path d="M297.148 288.063L292.885 295.926L288.188 288.294L297.148 288.063Z" fill="white" fill-opacity="0.25"/>
<path d="M297.189 281.777L287.809 282.045L292.275 273.791L297.189 281.777Z" fill="white" fill-opacity="0.25"/>
<path d="M296.794 253.074L291.946 262.006L286.615 253.344L296.794 253.074Z" fill="white" fill-opacity="0.25"/>
<path d="M296.848 247.537L286.228 247.812L291.259 238.456L296.848 247.537Z" fill="white" fill-opacity="0.25"/>
<path d="M296.647 217.915L290.967 228.381L284.744 218.269L296.647 217.915Z" fill="white" fill-opacity="0.25"/>
<path d="M296.736 213.373L284.393 213.732L290.256 202.843L296.736 213.373Z" fill="white" fill-opacity="0.25"/>
<path d="M296.162 183.005L290.051 194.358L283.274 183.345L296.162 183.005Z" fill="white" fill-opacity="0.25"/>
<path d="M296.234 179.008L282.957 179.365L289.279 167.705L296.234 179.008Z" fill="white" fill-opacity="0.25"/>
<path d="M285.021 161.58L273.203 161.927L278.819 151.501L285.021 161.58Z" fill="white" fill-opacity="0.25"/>
<path d="M273.682 149.866L269.012 158.512L263.86 150.139L273.682 149.866Z" fill="white" fill-opacity="0.25"/>
<path d="M251.365 143.398L245.809 143.532L248.452 138.665L251.365 143.398Z" fill="white" fill-opacity="0.25"/>
<path d="M240.158 135.287L238.449 138.426L236.567 135.367L240.158 135.287Z" fill="white" fill-opacity="0.25"/>
<path d="M218.566 125.668L217.633 125.665L218.071 124.863L218.566 125.668Z" fill="white" fill-opacity="0.25"/>
<path d="M134.533 353.018L134.365 353.032L134.434 352.857L134.533 353.018Z" fill="white" fill-opacity="0.25"/>
<path d="M155.391 363.536L154.782 364.71L154.088 363.583L155.391 363.536Z" fill="white" fill-opacity="0.25"/>
<path d="M165.943 370.004L163.927 370.046L164.873 368.265L165.943 370.004Z" fill="white" fill-opacity="0.25"/>
<path d="M176.818 387.242L174.024 387.319L175.332 384.827L176.818 387.242Z" fill="white" fill-opacity="0.25"/>
<path d="M186.969 379.353L185.272 382.439L183.429 379.444L186.969 379.353Z" fill="white" fill-opacity="0.25"/>
<path d="M207.51 369.732L202.362 369.881L204.815 365.353L207.51 369.732Z" fill="white" fill-opacity="0.25"/>
<path d="M217.626 360.487L214.805 365.642L211.733 360.651L217.626 360.487Z" fill="white" fill-opacity="0.25"/>
<path d="M238.057 352.133L230.861 352.343L234.291 346.014L238.057 352.133Z" fill="white" fill-opacity="0.25"/>
<path d="M247.96 341.821L244.338 348.489L240.375 342.049L247.96 341.821Z" fill="white" fill-opacity="0.25"/>
<path d="M267.875 334.139L260.037 334.389L263.773 327.473L267.875 334.139Z" fill="white" fill-opacity="0.25"/>
<path d="M277.522 323.627L273.843 330.42L269.781 323.818L277.522 323.627Z" fill="white" fill-opacity="0.25"/>
<path d="M297.176 315.883L289.727 316.116L293.272 309.539L297.176 315.883Z" fill="white" fill-opacity="0.25"/>
<path d="M306.762 305.634L303.331 311.963L299.546 305.813L306.762 305.634Z" fill="white" fill-opacity="0.25"/>
<path d="M307.012 298.465L298.902 298.705L302.771 291.574L307.012 298.465Z" fill="white" fill-opacity="0.25"/>
<path d="M306.903 270.296L302.412 278.654L297.438 270.571L306.903 270.296Z" fill="white" fill-opacity="0.25"/>
<path d="M306.992 264.381L297.002 264.668L301.76 255.879L306.992 264.381Z" fill="white" fill-opacity="0.25"/>
<path d="M306.807 235.149L301.452 245.06L295.546 235.464L306.807 235.149Z" fill="white" fill-opacity="0.25"/>
<path d="M307.076 230.32L295.037 230.67L300.755 220.048L307.076 230.32Z" fill="white" fill-opacity="0.25"/>
<path d="M306.935 199.862L300.545 211.697L293.49 200.233L306.935 199.862Z" fill="white" fill-opacity="0.25"/>
<path d="M307.09 196.215L293.087 196.619L299.758 184.3L307.09 196.215Z" fill="white" fill-opacity="0.25"/>
<path d="M306.4 164.939L299.559 177.629L292.008 165.36L306.4 164.939Z" fill="white" fill-opacity="0.25"/>
<path d="M306.391 161.748L291.862 162.164L298.781 149.382L306.391 161.748Z" fill="white" fill-opacity="0.25"/>
<path d="M295.422 148.254L289.088 159.966L282.093 148.599L295.422 148.254Z" fill="white" fill-opacity="0.25"/>
<path d="M273.322 143.871L263.941 144.139L268.408 135.885L273.322 143.871Z" fill="white" fill-opacity="0.25"/>
<path d="M261.846 133.662L258.492 139.9L254.786 133.878L261.846 133.662Z" fill="white" fill-opacity="0.25"/>
<path d="M239.688 125.721L236.485 125.783L238.003 122.983L239.688 125.721Z" fill="white" fill-opacity="0.25"/>
<path d="M228.806 118.788L227.929 120.393L226.978 118.847L228.806 118.788Z" fill="white" fill-opacity="0.25"/>
<path d="M134.96 364.386L134.769 364.725L134.571 364.403L134.96 364.386Z" fill="white" fill-opacity="0.25"/>
<path d="M145.336 370.211L144.506 370.233L144.9 369.502L145.336 370.211Z" fill="white" fill-opacity="0.25"/>
<path d="M166.326 380.293L165.258 382.237L164.109 380.369L166.326 380.293Z" fill="white" fill-opacity="0.25"/>
<path d="M177.066 397.17L175.77 399.61L174.323 397.259L177.066 397.17Z" fill="white" fill-opacity="0.25"/>
<path d="M197.457 387.018L193.392 387.122L195.317 383.54L197.457 387.018Z" fill="white" fill-opacity="0.25"/>
<path d="M207.562 378.403L205.3 382.592L202.804 378.534L207.562 378.403Z" fill="white" fill-opacity="0.25"/>
<path d="M227.9 369.393L221.955 369.544L224.789 364.337L227.9 369.393Z" fill="white" fill-opacity="0.25"/>
<path d="M237.864 359.755L234.815 365.405L231.446 359.931L237.864 359.755Z" fill="white" fill-opacity="0.25"/>
<path d="M257.842 351.457L251.035 351.65L254.275 345.661L257.842 351.457Z" fill="white" fill-opacity="0.25"/>
<path d="M267.62 341.444L264.323 347.557L260.697 341.664L267.62 341.444Z" fill="white" fill-opacity="0.25"/>
<path d="M287.217 333.246L280.662 333.417L283.769 327.643L287.217 333.246Z" fill="white" fill-opacity="0.25"/>
<path d="M296.891 323.43L293.83 329.132L290.441 323.626L296.891 323.43Z" fill="white" fill-opacity="0.25"/>
<path d="M316.393 314.936L310.448 315.087L313.281 309.88L316.393 314.936Z" fill="white" fill-opacity="0.25"/>
<path d="M316.615 287.806L312.867 294.774L308.725 288.044L316.615 287.806Z" fill="white" fill-opacity="0.25"/>
<path d="M316.92 281.09L308.032 281.365L312.263 273.522L316.92 281.09Z" fill="white" fill-opacity="0.25"/>
<path d="M316.774 252.5L311.914 261.485L306.563 252.79L316.774 252.5Z" fill="white" fill-opacity="0.25"/>
<path d="M316.973 247.051L306.068 247.368L311.246 237.744L316.973 247.051Z" fill="white" fill-opacity="0.25"/>
<path d="M317.032 217.135L310.99 228.312L304.312 217.459L317.032 217.135Z" fill="white" fill-opacity="0.25"/>
<path d="M317.377 213.148L303.763 213.535L310.243 201.556L317.377 213.148Z" fill="white" fill-opacity="0.25"/>
<path d="M317.108 181.836L310.063 194.917L302.275 182.262L317.108 181.836Z" fill="white" fill-opacity="0.25"/>
<path d="M317.141 178.93L302.087 179.358L309.253 166.113L317.141 178.93Z" fill="white" fill-opacity="0.25"/>
<path d="M316.304 147.125L309.081 160.494L301.114 147.549L316.304 147.125Z" fill="white" fill-opacity="0.25"/>
<path d="M295 144.25L282.248 144.594L288.302 133.366L295 144.25Z" fill="white" fill-opacity="0.25"/>
<path d="M283.715 131.971L278.53 141.511L272.843 132.269L283.715 131.971Z" fill="white" fill-opacity="0.25"/>
<path d="M261.307 126.004L254.908 126.212L257.958 120.562L261.307 126.004Z" fill="white" fill-opacity="0.25"/>
<path d="M250.075 117.42L247.959 121.342L245.641 117.574L250.075 117.42Z" fill="white" fill-opacity="0.25"/>
<path d="M228.332 108.203L226.893 108.245L227.579 106.979L228.332 108.203Z" fill="white" fill-opacity="0.25"/>
<path d="M217.614 102.189L217.423 102.528L217.225 102.206L217.614 102.189Z" fill="white" fill-opacity="0.25"/>
<path d="M125.016 370.594L124.847 370.609L124.936 370.465L125.016 370.594Z" fill="white" fill-opacity="0.25"/>
<path d="M145.733 381.243L145.282 382.098L144.767 381.261L145.733 381.243Z" fill="white" fill-opacity="0.25"/>
<path d="M156.211 387.449L154.603 387.506L155.379 386.097L156.211 387.449Z" fill="white" fill-opacity="0.25"/>
<path d="M187.479 404.346L184.347 404.452L185.834 401.673L187.479 404.346Z" fill="white" fill-opacity="0.25"/>
<path d="M197.516 396.349L195.762 399.559L193.84 396.436L197.516 396.349Z" fill="white" fill-opacity="0.25"/>
<path d="M217.777 386.633L213.039 386.796L215.3 382.608L217.777 386.633Z" fill="white" fill-opacity="0.25"/>
<path d="M227.756 377.74L225.304 382.268L222.589 377.856L227.756 377.74Z" fill="white" fill-opacity="0.25"/>
<path d="M247.811 368.773L242.022 368.962L244.779 363.846L247.811 368.773Z" fill="white" fill-opacity="0.25"/>
<path d="M257.607 359.371L254.805 364.558L251.694 359.502L257.607 359.371Z" fill="white" fill-opacity="0.25"/>
<path d="M277.307 350.621L271.518 350.809L274.275 345.694L277.307 350.621Z" fill="white" fill-opacity="0.25"/>
<path d="M286.975 341.297L284.287 346.236L281.335 341.438L286.975 341.297Z" fill="white" fill-opacity="0.25"/>
<path d="M306.537 332.322L301.305 332.478L303.783 327.846L306.537 332.322Z" fill="white" fill-opacity="0.25"/>
<path d="M316.151 323.344L313.801 327.677L311.205 323.458L316.151 323.344Z" fill="white" fill-opacity="0.25"/>
<path d="M326.066 305.475L323.309 310.591L320.257 305.632L326.066 305.475Z" fill="white" fill-opacity="0.25"/>
<path d="M326.354 297.574L319.514 297.787L322.767 291.746L326.354 297.574Z" fill="white" fill-opacity="0.25"/>
<path d="M326.582 269.951L322.395 277.722L317.758 270.186L326.582 269.951Z" fill="white" fill-opacity="0.25"/>
<path d="M326.828 263.717L317.175 263.974L321.775 255.505L326.828 263.717Z" fill="white" fill-opacity="0.25"/>
<path d="M326.805 234.605L321.43 244.484L315.544 234.92L326.805 234.605Z" fill="white" fill-opacity="0.25"/>
<path d="M327.129 229.789L314.954 230.133L320.748 219.42L327.129 229.789Z" fill="white" fill-opacity="0.25"/>
<path d="M327.205 199.108L320.521 211.479L313.15 199.499L327.205 199.108Z" fill="white" fill-opacity="0.25"/>
<path d="M327.5 195.908L312.667 196.334L319.712 183.253L327.5 195.908Z" fill="white" fill-opacity="0.25"/>
<path d="M326.947 164.061L319.578 177.697L311.453 164.494L326.947 164.061Z" fill="white" fill-opacity="0.25"/>
<path d="M326.926 161.5L311.327 161.909L318.741 148.2L326.926 161.5Z" fill="white" fill-opacity="0.25"/>
<path d="M315.98 144.215L301.284 144.646L308.272 131.688L315.98 144.215Z" fill="white" fill-opacity="0.25"/>
<path d="M305.015 130.583L298.58 142.491L291.505 130.995L305.015 130.583Z" fill="white" fill-opacity="0.25"/>
<path d="M283.035 126.396L273.213 126.669L277.883 118.024L283.035 126.396Z" fill="white" fill-opacity="0.25"/>
<path d="M271.686 115.887L268.007 122.679L263.965 116.11L271.686 115.887Z" fill="white" fill-opacity="0.25"/>
<path d="M249.65 108.359L245.585 108.463L247.51 104.882L249.65 108.359Z" fill="white" fill-opacity="0.25"/>
<path d="M238.614 101.033L237.457 103.121L236.209 101.092L238.614 101.033Z" fill="white" fill-opacity="0.25"/>
<path d="M125.411 381.984L125.284 382.283L125.106 381.993L125.411 381.984Z" fill="white" fill-opacity="0.25"/>
<path d="M135.748 387.742L135.106 387.782L135.411 387.195L135.748 387.742Z" fill="white" fill-opacity="0.25"/>
<path d="M156.539 398.08L155.764 399.489L154.911 398.104L156.539 398.08Z" fill="white" fill-opacity="0.25"/>
<path d="M166.982 404.662L164.83 404.699L165.853 402.827L166.982 404.662Z" fill="white" fill-opacity="0.25"/>
<path d="M177.537 421.74L175.216 421.792L176.308 419.744L177.537 421.74Z" fill="white" fill-opacity="0.25"/>
<path d="M187.548 414.204L186.233 416.612L184.786 414.261L187.548 414.204Z" fill="white" fill-opacity="0.25"/>
<path d="M207.725 403.92L204.068 404.039L205.822 400.828L207.725 403.92Z" fill="white" fill-opacity="0.25"/>
<path d="M217.69 395.656L215.765 399.238L213.625 395.76L217.69 395.656Z" fill="white" fill-opacity="0.25"/>
<path d="M237.758 386.059L233.051 386.202L235.301 382.065L237.758 386.059Z" fill="white" fill-opacity="0.25"/>
<path d="M247.574 377.265L245.267 381.526L242.731 377.404L247.574 377.265Z" fill="white" fill-opacity="0.25"/>
<path d="M267.326 367.951L262.451 368.11L264.77 363.797L267.326 367.951Z" fill="white" fill-opacity="0.25"/>
<path d="M277.039 359.133L274.777 363.322L272.28 359.265L277.039 359.133Z" fill="white" fill-opacity="0.25"/>
<path d="M296.629 349.695L292.175 349.817L294.29 345.895L296.629 349.695Z" fill="white" fill-opacity="0.25"/>
<path d="M306.279 341.138L304.265 344.864L302.046 341.257L306.279 341.138Z" fill="white" fill-opacity="0.25"/>
<path d="M325.838 331.365L321.961 331.487L323.817 328.081L325.838 331.365Z" fill="white" fill-opacity="0.25"/>
<path d="M336.334 280.244L328.593 280.435L332.271 273.643L336.334 280.244Z" fill="white" fill-opacity="0.25"/>
<path d="M336.53 252.063L331.905 260.636L326.812 252.36L336.53 252.063Z" fill="white" fill-opacity="0.25"/>
<path d="M336.758 246.373L326.275 246.653L331.249 237.421L336.758 246.373Z" fill="white" fill-opacity="0.25"/>
<path d="M336.852 216.659L330.969 227.516L324.508 217.018L336.852 216.659Z" fill="white" fill-opacity="0.25"/>
<path d="M337.232 212.516L323.923 212.892L330.257 201.18L337.232 212.516Z" fill="white" fill-opacity="0.25"/>
<path d="M337.205 181.233L330.051 194.426L322.184 181.642L337.205 181.233Z" fill="white" fill-opacity="0.25"/>
<path d="M337.336 178.488L321.842 178.922L329.211 165.285L337.336 178.488Z" fill="white" fill-opacity="0.25"/>
<path d="M336.478 146.43L329.084 160.17L320.899 146.871L336.478 146.43Z" fill="white" fill-opacity="0.25"/>
<path d="M336.279 143.799L321.005 144.23L328.273 130.789L336.279 143.799Z" fill="white" fill-opacity="0.25"/>
<path d="M325.659 129.645L318.594 142.695L310.806 130.039L325.659 129.645Z" fill="white" fill-opacity="0.25"/>
<path d="M304.301 126.539L291.957 126.898L297.821 116.009L304.301 126.539Z" fill="white" fill-opacity="0.25"/>
<path d="M293.052 114.46L288.065 123.745L282.536 114.76L293.052 114.46Z" fill="white" fill-opacity="0.25"/>
<path d="M270.969 108.516L264.246 108.701L267.461 102.816L270.969 108.516Z" fill="white" fill-opacity="0.25"/>
<path d="M259.914 99.6442L257.494 104.153L254.819 99.8052L259.914 99.6442Z" fill="white" fill-opacity="0.25"/>
<path d="M237.973 90.6816L236.229 90.7337L237.061 89.2003L237.973 90.6816Z" fill="white" fill-opacity="0.25"/>
<path d="M227.228 84.5519L226.949 85.035L226.651 84.5519L227.228 84.5519Z" fill="white" fill-opacity="0.25"/>
<path d="M115.52 388.203L115.331 388.186L115.42 388.042L115.52 388.203Z" fill="white" fill-opacity="0.25"/>
<path d="M136.12 398.88L135.758 399.591L135.342 398.915L136.12 398.88Z" fill="white" fill-opacity="0.25"/>
<path d="M146.498 404.926L145.331 404.978L145.884 403.928L146.498 404.926Z" fill="white" fill-opacity="0.25"/>
<path d="M167.213 414.997L166.247 416.746L165.197 415.039L167.213 414.997Z" fill="white" fill-opacity="0.25"/>
<path d="M177.678 432L176.699 433.801L175.629 432.062L177.678 432Z" fill="white" fill-opacity="0.25"/>
<path d="M197.764 421.281L195.002 421.338L196.317 418.93L197.764 421.281Z" fill="white" fill-opacity="0.25"/>
<path d="M207.689 413.531L206.248 416.239L204.643 413.63L207.689 413.531Z" fill="white" fill-opacity="0.25"/>
<path d="M227.727 403.375L224.051 403.462L225.804 400.251L227.727 403.375Z" fill="white" fill-opacity="0.25"/>
<path d="M237.575 395.14L235.772 398.558L233.73 395.242L237.575 395.14Z" fill="white" fill-opacity="0.25"/>
<path d="M257.438 385.357L253.321 385.449L255.277 381.847L257.438 385.357Z" fill="white" fill-opacity="0.25"/>
<path d="M267.168 376.927L265.243 380.509L263.123 377.063L267.168 376.927Z" fill="white" fill-opacity="0.25"/>
<path d="M286.812 367.148L282.948 367.218L284.771 363.832L286.812 367.148Z" fill="white" fill-opacity="0.25"/>
<path d="M296.506 358.875L294.739 362.138L292.797 358.982L296.506 358.875Z" fill="white" fill-opacity="0.25"/>
<path d="M316.074 348.83L312.703 348.907L314.311 345.964L316.074 348.83Z" fill="white" fill-opacity="0.25"/>
<path d="M325.713 340.901L324.226 343.681L322.582 341.008L325.713 340.901Z" fill="white" fill-opacity="0.25"/>
<path d="M346.834 160.879L331.392 161.325L338.749 147.74L346.834 160.879Z" fill="white" fill-opacity="0.25"/>
<path d="M324.961 126.344L311.295 126.718L317.807 114.719L324.961 126.344Z" fill="white" fill-opacity="0.25"/>
<path d="M313.984 113.344L308.089 124.253L301.589 113.691L313.984 113.344Z" fill="white" fill-opacity="0.25"/>
<path d="M292.07 108.537L283.215 108.792L287.433 101.002L292.07 108.537Z" fill="white" fill-opacity="0.25"/>
<path d="M280.957 98.4164L277.514 104.797L273.709 98.6146L280.957 98.4164Z" fill="white" fill-opacity="0.25"/>
<path d="M259.166 90.7812L255.069 90.9051L257.006 87.2712L259.166 90.7812Z" fill="white" fill-opacity="0.25"/>
<path d="M248.143 83.4022L246.961 85.5944L245.673 83.5013L248.143 83.4022Z" fill="white" fill-opacity="0.25"/>
<path d="M226.686 73.209L226.549 73.204L226.626 73.1124L226.686 73.209Z" fill="white" fill-opacity="0.25"/>
<path d="M115.913 399.594L115.767 399.861L115.588 399.572L115.913 399.594Z" fill="white" fill-opacity="0.25"/>
<path d="M126.199 405.342L125.622 405.342L125.902 404.859L126.199 405.342Z" fill="white" fill-opacity="0.25"/>
<path d="M146.827 415.778L146.243 416.848L145.609 415.817L146.827 415.778Z" fill="white" fill-opacity="0.25"/>
<path d="M157.178 422.061L155.622 422.13L156.365 420.74L157.178 422.061Z" fill="white" fill-opacity="0.25"/>
<path d="M187.928 438.701L185.827 438.751L186.818 436.898L187.928 438.701Z" fill="white" fill-opacity="0.25"/>
<path d="M197.839 431.359L196.714 433.428L195.486 431.431L197.839 431.359Z" fill="white" fill-opacity="0.25"/>
<path d="M217.744 420.707L215.002 420.796L216.297 418.356L217.744 420.707Z" fill="white" fill-opacity="0.25"/>
<path d="M227.626 413.027L226.241 415.611L224.695 413.099L227.626 413.027Z" fill="white" fill-opacity="0.25"/>
<path d="M247.459 402.688L244.276 402.782L245.775 399.95L247.459 402.688Z" fill="white" fill-opacity="0.25"/>
<path d="M257.285 394.775L255.722 397.646L254.017 394.877L257.285 394.775Z" fill="white" fill-opacity="0.25"/>
<path d="M276.955 384.535L273.772 384.629L275.29 381.83L276.955 384.535Z" fill="white" fill-opacity="0.25"/>
<path d="M286.686 376.684L285.244 379.391L283.619 376.75L286.686 376.684Z" fill="white" fill-opacity="0.25"/>
<path d="M306.309 366.295L303.43 366.379L304.802 363.848L306.309 366.295Z" fill="white" fill-opacity="0.25"/>
<path d="M315.988 358.65L314.717 360.986L313.31 358.7L315.988 358.65Z" fill="white" fill-opacity="0.25"/>
<path d="M345.086 125.861L331.167 126.258L337.793 114.011L345.086 125.861Z" fill="white" fill-opacity="0.25"/>
<path d="M334.384 112.511L328.062 124.171L321.126 112.9L334.384 112.511Z" fill="white" fill-opacity="0.25"/>
<path d="M312.965 108.51L302.293 108.772L307.357 99.3965L312.965 108.51Z" fill="white" fill-opacity="0.25"/>
<path d="M301.794 97.3583L297.531 105.221L292.835 97.5887L301.794 97.3583Z" fill="white" fill-opacity="0.25"/>
<path d="M280.094 90.7344L274.149 90.8855L276.963 85.6464L280.094 90.7344Z" fill="white" fill-opacity="0.25"/>
<path d="M269.077 82.2856L266.987 86.1028L264.708 82.3995L269.077 82.2856Z" fill="white" fill-opacity="0.25"/>
<path d="M247.396 73.0293L245.841 73.0987L246.584 71.709L247.396 73.0293Z" fill="white" fill-opacity="0.25"/>
<path d="M236.726 66.9416L236.466 67.4568L236.169 66.9738L236.726 66.9416Z" fill="white" fill-opacity="0.25"/>
<path d="M126.558 416.531L126.234 417.086L125.897 416.539L126.558 416.531Z" fill="white" fill-opacity="0.25"/>
<path d="M136.857 422.445L135.943 422.475L136.382 421.672L136.857 422.445Z" fill="white" fill-opacity="0.25"/>
<path d="M157.407 432.753L156.721 434.019L155.967 432.795L157.407 432.753Z" fill="white" fill-opacity="0.25"/>
<path d="M167.68 439.129L166.052 439.154L166.828 437.744L167.68 439.129Z" fill="white" fill-opacity="0.25"/>
<path d="M178.072 456.088L176.633 456.13L177.319 454.864L178.072 456.088Z" fill="white" fill-opacity="0.25"/>
<path d="M188.032 449.113L187.2 450.646L186.289 449.165L188.032 449.113Z" fill="white" fill-opacity="0.25"/>
<path d="M207.857 438.113L205.841 438.155L206.787 436.374L207.857 438.113Z" fill="white" fill-opacity="0.25"/>
<path d="M217.722 430.843L216.719 432.748L215.589 430.913L217.722 430.843Z" fill="white" fill-opacity="0.25"/>
<path d="M237.529 420.031L235.176 420.103L236.301 418.035L237.529 420.031Z" fill="white" fill-opacity="0.25"/>
<path d="M247.348 412.61L246.211 414.731L244.943 412.67L247.348 412.61Z" fill="white" fill-opacity="0.25"/>
<path d="M267.047 401.91L264.642 401.97L265.779 399.849L267.047 401.91Z" fill="white" fill-opacity="0.25"/>
<path d="M276.846 394.46L275.709 396.58L274.441 394.519L276.846 394.46Z" fill="white" fill-opacity="0.25"/>
<path d="M296.492 383.746L294.203 383.778L295.283 381.782L296.492 383.746Z" fill="white" fill-opacity="0.25"/>
<path d="M306.28 376.346L305.2 378.343L304.011 376.411L306.28 376.346Z" fill="white" fill-opacity="0.25"/>
<path d="M325.846 365.504L323.829 365.546L324.795 363.797L325.846 365.504Z" fill="white" fill-opacity="0.25"/>
<path d="M333.389 108.15L321.875 108.487L327.364 98.3608L333.389 108.15Z" fill="white" fill-opacity="0.25"/>
<path d="M322.418 96.3881L317.546 105.425L312.175 96.6977L322.418 96.3881Z" fill="white" fill-opacity="0.25"/>
<path d="M300.783 90.5215L293.483 90.7073L296.959 84.3064L300.783 90.5215Z" fill="white" fill-opacity="0.25"/>
<path d="M289.798 81.2558L286.996 86.4429L283.905 81.4193L289.798 81.2558Z" fill="white" fill-opacity="0.25"/>
<path d="M268.076 72.8672L265.178 72.9192L266.55 70.3876L268.076 72.8672Z" fill="white" fill-opacity="0.25"/>
<path d="M257.306 66.0426L256.474 67.5759L255.562 66.0946L257.306 66.0426Z" fill="white" fill-opacity="0.25"/>
<path d="M137.171 433.486L136.712 434.256L136.257 433.515L137.171 433.486Z" fill="white" fill-opacity="0.25"/>
<path d="M147.432 439.559L146.329 439.571L146.837 438.593L147.432 439.559Z" fill="white" fill-opacity="0.25"/>
<path d="M167.891 449.789L167.205 451.054L166.452 449.831L167.891 449.789Z" fill="white" fill-opacity="0.25"/>
<path d="M178.246 466.902L177.673 467.92L177.079 466.954L178.246 466.902Z" fill="white" fill-opacity="0.25"/>
<path d="M198.07 455.545L196.631 455.587L197.317 454.321L198.07 455.545Z" fill="white" fill-opacity="0.25"/>
<path d="M207.936 448.631L207.173 449.989L206.36 448.669L207.936 448.631Z" fill="white" fill-opacity="0.25"/>
<path d="M227.621 437.404L226.065 437.474L226.809 436.084L227.621 437.404Z" fill="white" fill-opacity="0.25"/>
<path d="M237.433 430.48L236.69 431.87L235.858 430.517L237.433 430.48Z" fill="white" fill-opacity="0.25"/>
<path d="M257.139 419.285L255.531 419.342L256.287 417.9L257.139 419.285Z" fill="white" fill-opacity="0.25"/>
<path d="M266.963 412.306L266.187 413.716L265.335 412.331L266.963 412.306Z" fill="white" fill-opacity="0.25"/>
<path d="M286.637 401.131L285.029 401.188L285.785 399.746L286.637 401.131Z" fill="white" fill-opacity="0.25"/>
<path d="M296.395 394.194L295.696 395.512L294.903 394.224L296.395 394.194Z" fill="white" fill-opacity="0.25"/>
<path d="M316.08 382.969L314.589 382.998L315.287 381.681L316.08 382.969Z" fill="white" fill-opacity="0.25"/>
<path d="M325.86 376.061L325.154 377.295L324.421 376.103L325.86 376.061Z" fill="white" fill-opacity="0.25"/>
<path d="M321.176 90.1816L313.066 90.4219L316.935 83.2903L321.176 90.1816Z" fill="white" fill-opacity="0.25"/>
<path d="M310.325 80.3431L307.016 86.5086L303.349 80.5512L310.325 80.3431Z" fill="white" fill-opacity="0.25"/>
<path d="M288.787 72.6855L284.437 72.8317L286.508 68.9823L288.787 72.6855Z" fill="white" fill-opacity="0.25"/>
<path d="M277.833 65.1318L276.461 67.6634L274.954 65.216L277.833 65.1318Z" fill="white" fill-opacity="0.25"/>
<path d="M256.504 55.2148L255.758 55.2297L256.108 54.5708L256.504 55.2148Z" fill="white" fill-opacity="0.25"/>
<path d="M147.664 450.469L147.201 451.376L146.666 450.506L147.664 450.469Z" fill="white" fill-opacity="0.25"/>
<path d="M157.916 456.592L156.781 456.624L157.322 455.626L157.916 456.592Z" fill="white" fill-opacity="0.25"/>
<path d="M188.307 473.01L187.341 473.027L187.811 472.205L188.307 473.01Z" fill="white" fill-opacity="0.25"/>
<path d="M198.162 466.366L197.667 467.292L197.112 466.39L198.162 466.366Z" fill="white" fill-opacity="0.25"/>
<path d="M217.855 454.867L216.805 454.892L217.301 453.966L217.855 454.867Z" fill="white" fill-opacity="0.25"/>
<path d="M227.658 448.215L227.163 449.142L226.608 448.24L227.658 448.215Z" fill="white" fill-opacity="0.25"/>
<path d="M247.281 436.672L246.367 436.702L246.806 435.899L247.281 436.672Z" fill="white" fill-opacity="0.25"/>
<path d="M257.092 430.102L256.654 430.904L256.178 430.132L257.092 430.102Z" fill="white" fill-opacity="0.25"/>
<path d="M276.781 418.52L275.867 418.549L276.306 417.747L276.781 418.52Z" fill="white" fill-opacity="0.25"/>
<path d="M286.588 411.95L286.15 412.752L285.674 411.979L286.588 411.95Z" fill="white" fill-opacity="0.25"/>
<path d="M306.33 400.379L305.3 400.436L305.815 399.542L306.33 400.379Z" fill="white" fill-opacity="0.25"/>
<path d="M316.152 393.756L315.657 394.683L315.122 393.813L316.152 393.756Z" fill="white" fill-opacity="0.25"/>
<path d="M330.422 79.7416L326.991 86.0706L323.206 79.9199L330.422 79.7416Z" fill="white" fill-opacity="0.25"/>
<path d="M309.178 72.3457L304.03 72.4944L306.483 67.9662L309.178 72.3457Z" fill="white" fill-opacity="0.25"/>
<path d="M298.382 64.2513L296.482 67.7291L294.401 64.3479L298.382 64.2513Z" fill="white" fill-opacity="0.25"/>
<path d="M276.914 54.9082L275.306 54.9652L276.062 53.5235L276.914 54.9082Z" fill="white" fill-opacity="0.25"/>
<path d="M266.288 48.7512L265.952 49.3581L265.595 48.7784L266.288 48.7512Z" fill="white" fill-opacity="0.25"/>
<path d="M158.149 467.503L157.698 468.358L157.202 467.553L158.149 467.503Z" fill="white" fill-opacity="0.25"/>
<path d="M168.307 473.551L167.393 473.581L167.831 472.778L168.307 473.551Z" fill="white" fill-opacity="0.25"/>
<path d="M178.543 490.471L178.102 490.476L178.285 490.052L178.543 490.471Z" fill="white" fill-opacity="0.25"/>
<path d="M188.439 484.116L188.159 484.599L187.862 484.116L188.439 484.116Z" fill="white" fill-opacity="0.25"/>
<path d="M208.164 472.377L207.47 472.404L207.788 471.765L208.164 472.377Z" fill="white" fill-opacity="0.25"/>
<path d="M217.968 465.944L217.644 466.498L217.307 465.951L217.968 465.944Z" fill="white" fill-opacity="0.25"/>
<path d="M237.537 454.166L237.096 454.171L237.279 453.747L237.537 454.166Z" fill="white" fill-opacity="0.25"/>
<path d="M247.37 447.851L247.147 448.21L246.929 447.856L247.37 447.851Z" fill="white" fill-opacity="0.25"/>
<path d="M267.014 435.982L266.593 436.02L266.796 435.628L267.014 435.982Z" fill="white" fill-opacity="0.25"/>
<path d="M276.866 429.698L276.643 430.058L276.425 429.703L276.866 429.698Z" fill="white" fill-opacity="0.25"/>
<path d="M296.584 417.875L296.059 417.887L296.307 417.424L296.584 417.875Z" fill="white" fill-opacity="0.25"/>
<path d="M306.461 411.487L306.136 412.041L305.799 411.494L306.461 411.487Z" fill="white" fill-opacity="0.25"/>
<path d="M326.186 399.748L325.428 399.815L325.809 399.136L326.186 399.748Z" fill="white" fill-opacity="0.25"/>
<path d="M329.283 71.8301L323.915 71.9812L326.489 67.2895L329.283 71.8301Z" fill="white" fill-opacity="0.25"/>
<path d="M318.587 63.5385L316.484 67.4078L314.185 63.6723L318.587 63.5385Z" fill="white" fill-opacity="0.25"/>
<path d="M297.234 54.5234L294.965 54.5878L296.045 52.5913L297.234 54.5234Z" fill="white" fill-opacity="0.25"/>
<path d="M286.643 47.9897L285.957 49.2555L285.204 48.0318L286.643 47.9897Z" fill="white" fill-opacity="0.25"/>
<path d="M168.437 484.658L168.145 485.193L167.828 484.678L168.437 484.658Z" fill="white" fill-opacity="0.25"/>
<path d="M178.664 501.85L178.619 501.923L178.579 501.858L178.664 501.85Z" fill="white" fill-opacity="0.25"/>
<path d="M198.471 489.885L198.114 489.882L198.273 489.563L198.471 489.885Z" fill="white" fill-opacity="0.25"/>
<path d="M208.323 483.601L208.132 483.94L207.934 483.618L208.323 483.601Z" fill="white" fill-opacity="0.25"/>
<path d="M227.928 471.668L227.675 471.69L227.809 471.475L227.928 471.668Z" fill="white" fill-opacity="0.25"/>
<path d="M237.724 465.508L237.635 465.652L237.556 465.523L237.724 465.508Z" fill="white" fill-opacity="0.25"/>
<path d="M257.322 453.49L257.27 453.478L257.282 453.425L257.322 453.49Z" fill="white" fill-opacity="0.25"/>
<path d="M267.156 447.395L267.143 447.448L267.103 447.383L267.156 447.395Z" fill="white" fill-opacity="0.25"/>
<path d="M286.891 435.383L286.702 435.365L286.772 435.19L286.891 435.383Z" fill="white" fill-opacity="0.25"/>
<path d="M296.751 429.184L296.637 429.431L296.478 429.174L296.751 429.184Z" fill="white" fill-opacity="0.25"/>
<path d="M316.514 417.287L316.073 417.292L316.276 416.901L316.514 417.287Z" fill="white" fill-opacity="0.25"/>
<path d="M326.441 410.912L326.117 411.467L325.799 410.952L326.441 410.912Z" fill="white" fill-opacity="0.25"/>
<path d="M317.463 54.0625L314.773 54.1641L316.056 51.7761L317.463 54.0625Z" fill="white" fill-opacity="0.25"/>
<path d="M306.784 47.317L305.972 48.8825L305.04 47.369L306.784 47.317Z" fill="white" fill-opacity="0.25"/>
<path d="M285.824 36.9941L285.383 36.9991L285.586 36.6077L285.824 36.9941Z" fill="white" fill-opacity="0.25"/>
<path d="M218.307 489.221L218.254 489.208L218.267 489.156L218.307 489.221Z" fill="white" fill-opacity="0.25"/>
<path d="M306.871 434.809L306.683 434.791L306.772 434.648L306.871 434.809Z" fill="white" fill-opacity="0.25"/>
<path d="M316.764 428.587L316.638 428.887L316.46 428.597L316.764 428.587Z" fill="white" fill-opacity="0.25"/>
<path d="M326.881 46.7135L325.947 48.4425L324.897 46.7358L326.881 46.7135Z" fill="white" fill-opacity="0.25"/>
<path d="M305.93 36.4766L305.288 36.5162L305.593 35.9291L305.93 36.4766Z" fill="white" fill-opacity="0.25"/>
<path d="M295.528 30.7569L295.459 30.9328L295.36 30.7718L295.528 30.7569Z" fill="white" fill-opacity="0.25"/>
<path d="M307.136 446.276L307.124 446.329L307.084 446.264L307.136 446.276Z" fill="white" fill-opacity="0.25"/>
<path d="M326.924 434.279L326.619 434.289L326.745 433.989L326.924 434.279Z" fill="white" fill-opacity="0.25"/>
<path d="M325.93 35.9316L325.268 35.9391L325.573 35.352L325.93 35.9316Z" fill="white" fill-opacity="0.25"/>
<path d="M315.56 30.1944L315.426 30.4099L315.287 30.1845L315.56 30.1944Z" fill="white" fill-opacity="0.25"/>
<path d="M317.336 451.812L317.2 451.808L317.276 451.716L317.336 451.812Z" fill="white" fill-opacity="0.25"/>
<path d="M327.181 445.663L327.111 445.839L327.012 445.678L327.181 445.663Z" fill="white" fill-opacity="0.25"/>
<path d="M327.799 468.812L327.682 468.84L327.759 468.748L327.799 468.812Z" fill="white" fill-opacity="0.25"/>
<path d="M328.134 480.327L328.058 480.419L327.998 480.322L328.134 480.327Z" fill="white" fill-opacity="0.25"/>
</svg>
