<svg width="370" height="722" viewBox="0 0 370 722" fill="none" xmlns="http://www.w3.org/2000/svg">
<path d="M160.758 340.916L160.823 340.911L160.793 340.946L160.758 340.916Z" fill="white" fill-opacity="0.25"/>
<path d="M151.616 351.593L151.686 351.234L151.961 351.471L151.616 351.593Z" fill="white" fill-opacity="0.25"/>
<path d="M155.981 328.121L156.101 327.566L156.513 327.921L155.981 328.121Z" fill="white" fill-opacity="0.25"/>
<path d="M137.348 348.699L138.662 348.216L138.378 349.587L137.348 348.699Z" fill="white" fill-opacity="0.25"/>
<path d="M147.211 375.04L147.231 374.877L147.369 374.996L147.211 375.04Z" fill="white" fill-opacity="0.25"/>
<path d="M141.672 325.066L143.242 324.564L142.943 326.162L141.672 325.066Z" fill="white" fill-opacity="0.25"/>
<path d="M132.763 336.724L133.182 334.571L134.831 335.992L132.763 336.724Z" fill="white" fill-opacity="0.25"/>
<path d="M128.389 360.133L128.738 358.339L130.112 359.523L128.389 360.133Z" fill="white" fill-opacity="0.25"/>
<path d="M132.956 372.27L134.118 371.894L133.883 373.069L132.956 372.27Z" fill="white" fill-opacity="0.25"/>
<path d="M165.149 317.346L165.307 317.302L165.287 317.464L165.149 317.346Z" fill="white" fill-opacity="0.25"/>
<path d="M146.134 301.553L147.729 300.952L147.405 302.648L146.134 301.553Z" fill="white" fill-opacity="0.25"/>
<path d="M137.131 313.251L137.565 310.871L139.42 312.47L137.131 313.251Z" fill="white" fill-opacity="0.25"/>
<path d="M117.841 332.781L121.381 331.522L120.692 335.239L117.841 332.781Z" fill="white" fill-opacity="0.25"/>
<path d="M109.244 345.605L110.077 341.235L113.443 344.136L109.244 345.605Z" fill="white" fill-opacity="0.25"/>
<path d="M113.575 356.344L116.775 355.27L116.151 358.564L113.575 356.344Z" fill="white" fill-opacity="0.25"/>
<path d="M123.874 383.779L124.239 381.758L125.784 383.09L123.874 383.779Z" fill="white" fill-opacity="0.25"/>
<path d="M128.332 395.764L129.745 395.305L129.466 396.741L128.332 395.764Z" fill="white" fill-opacity="0.25"/>
<path d="M142.69 398.622L142.74 398.425L142.911 398.573L142.69 398.622Z" fill="white" fill-opacity="0.25"/>
<path d="M160.504 304.537L160.594 304.016L160.972 304.342L160.504 304.537Z" fill="white" fill-opacity="0.25"/>
<path d="M141.71 289.597L142.129 287.444L143.778 288.865L141.71 289.597Z" fill="white" fill-opacity="0.25"/>
<path d="M122.136 309.186L125.991 307.839L125.227 311.85L122.136 309.186Z" fill="white" fill-opacity="0.25"/>
<path d="M113.556 322.265L114.45 317.408L118.194 320.635L113.556 322.265Z" fill="white" fill-opacity="0.25"/>
<path d="M93.6787 340.395L99.7589 338.272L98.5219 344.569L93.6787 340.395Z" fill="white" fill-opacity="0.25"/>
<path d="M104.904 369.045L105.663 364.97L108.789 367.664L104.904 369.045Z" fill="white" fill-opacity="0.25"/>
<path d="M109.119 379.922L112.285 378.819L111.661 382.113L109.119 379.922Z" fill="white" fill-opacity="0.25"/>
<path d="M119.206 407.532L119.665 405.054L121.589 406.712L119.206 407.532Z" fill="white" fill-opacity="0.25"/>
<path d="M126.888 285.682L130.27 284.466L129.601 288.02L126.888 285.682Z" fill="white" fill-opacity="0.25"/>
<path d="M118.072 298.62L118.98 293.954L122.587 297.063L118.072 298.62Z" fill="white" fill-opacity="0.25"/>
<path d="M98.0381 316.793L104.305 314.592L103.087 321.145L98.0381 316.793Z" fill="white" fill-opacity="0.25"/>
<path d="M89.9766 331.214L91.3687 323.973L96.9675 328.799L89.9766 331.214Z" fill="white" fill-opacity="0.25"/>
<path d="M85.579 354.724L86.9166 347.615L92.3781 352.323L85.579 354.724Z" fill="white" fill-opacity="0.25"/>
<path d="M89.3848 363.992L95.15 361.957L93.9875 367.959L89.3848 363.992Z" fill="white" fill-opacity="0.25"/>
<path d="M100.264 392.765L101.093 388.331L104.528 391.292L100.264 392.765Z" fill="white" fill-opacity="0.25"/>
<path d="M104.141 403.408L108.153 402.017L107.335 406.162L104.141 403.408Z" fill="white" fill-opacity="0.25"/>
<path d="M123.451 419.275L125.549 418.509L125.134 420.726L123.451 419.275Z" fill="white" fill-opacity="0.25"/>
<path d="M138.028 422.438L138.167 421.72L138.717 422.194L138.028 422.438Z" fill="white" fill-opacity="0.25"/>
<path d="M165.047 280.858L165.122 280.563L165.362 280.771L165.047 280.858Z" fill="white" fill-opacity="0.25"/>
<path d="M150.816 277.992L152.072 277.578L151.813 278.851L150.816 277.992Z" fill="white" fill-opacity="0.25"/>
<path d="M131.802 262.199L134.465 261.262L133.931 264.035L131.802 262.199Z" fill="white" fill-opacity="0.25"/>
<path d="M122.918 274.66L123.603 270.879L126.522 273.396L122.918 274.66Z" fill="white" fill-opacity="0.25"/>
<path d="M102.69 293.264L108.677 291.18L107.499 297.408L102.69 293.264Z" fill="white" fill-opacity="0.25"/>
<path d="M94.4688 307.668L95.8609 300.426L101.425 305.222L94.4688 307.668Z" fill="white" fill-opacity="0.25"/>
<path d="M74.1367 324.447L82.5062 321.544L80.8347 330.22L74.1367 324.447Z" fill="white" fill-opacity="0.25"/>
<path d="M66.5479 340.057L68.3342 330.761L75.4787 336.919L66.5479 340.057Z" fill="white" fill-opacity="0.25"/>
<path d="M69.6807 348.025L77.9862 345.127L76.3443 353.769L69.6807 348.025Z" fill="white" fill-opacity="0.25"/>
<path d="M81.1167 378.235L82.4638 371.254L87.8566 375.902L81.1167 378.235Z" fill="white" fill-opacity="0.25"/>
<path d="M84.7314 387.52L90.8117 385.397L89.5746 391.694L84.7314 387.52Z" fill="white" fill-opacity="0.25"/>
<path d="M95.2748 416.96L96.3828 411.09L100.883 414.968L95.2748 416.96Z" fill="white" fill-opacity="0.25"/>
<path d="M98.7695 426.797L104.254 424.879L103.166 430.586L98.7695 426.797Z" fill="white" fill-opacity="0.25"/>
<path d="M114.21 431.663L114.929 427.912L117.848 430.429L114.21 431.663Z" fill="white" fill-opacity="0.25"/>
<path d="M142.566 435.09L143.069 434.924L142.979 435.445L142.566 435.09Z" fill="white" fill-opacity="0.25"/>
<path d="M146.376 265.779L146.676 264.181L147.946 265.277L146.376 265.779Z" fill="white" fill-opacity="0.25"/>
<path d="M127.672 250.739L128.255 247.769L130.557 249.753L127.672 250.739Z" fill="white" fill-opacity="0.25"/>
<path d="M107.704 269.807L112.78 268.015L111.792 273.33L107.704 269.807Z" fill="white" fill-opacity="0.25"/>
<path d="M99.1901 283.782L100.443 277.259L105.492 281.611L99.1901 283.782Z" fill="white" fill-opacity="0.25"/>
<path d="M78.7266 300.926L86.8746 298.071L85.2872 306.58L78.7266 300.926Z" fill="white" fill-opacity="0.25"/>
<path d="M71.0369 316.446L72.828 307.214L79.9382 313.342L71.0369 316.446Z" fill="white" fill-opacity="0.25"/>
<path d="M50.666 332.234L60.4093 328.779L58.4632 338.955L50.666 332.234Z" fill="white" fill-opacity="0.25"/>
<path d="M62.0285 363.64L63.8397 354.245L71.0872 360.492L62.0285 363.64Z" fill="white" fill-opacity="0.25"/>
<path d="M65.0898 371.549L73.6168 368.601L71.9252 377.44L65.0898 371.549Z" fill="white" fill-opacity="0.25"/>
<path d="M76.3354 402.192L77.8079 394.301L83.8877 399.541L76.3354 402.192Z" fill="white" fill-opacity="0.25"/>
<path d="M79.4883 410.896L86.8239 408.359L85.3963 415.989L79.4883 410.896Z" fill="white" fill-opacity="0.25"/>
<path d="M90.043 441.367L91.5251 433.604L97.5018 438.756L90.043 441.367Z" fill="white" fill-opacity="0.25"/>
<path d="M118.179 442.688L121.595 441.502L120.927 445.056L118.179 442.688Z" fill="white" fill-opacity="0.25"/>
<path d="M133.122 446.465L133.471 444.671L134.845 445.855L133.122 446.465Z" fill="white" fill-opacity="0.25"/>
<path d="M155.568 254.488L156.351 254.205L156.187 255.021L155.568 254.488Z" fill="white" fill-opacity="0.25"/>
<path d="M112.849 246.402L116.827 244.982L116.009 249.126L112.849 246.402Z" fill="white" fill-opacity="0.25"/>
<path d="M104.186 259.649L105.179 254.399L109.232 257.892L104.186 259.649Z" fill="white" fill-opacity="0.25"/>
<path d="M83.6416 277.443L91.0707 274.867L89.6183 282.595L83.6416 277.443Z" fill="white" fill-opacity="0.25"/>
<path d="M75.7334 292.659L77.3705 283.953L84.1029 289.756L75.7334 292.659Z" fill="white" fill-opacity="0.25"/>
<path d="M55.2197 308.68L64.8398 305.297L62.9138 315.311L55.2197 308.68Z" fill="white" fill-opacity="0.25"/>
<path d="M47.9942 324.842L49.9604 314.504L57.9293 321.373L47.9942 324.842Z" fill="white" fill-opacity="0.25"/>
<path d="M43.3551 348.564L45.4255 337.896L53.6349 344.972L43.3551 348.564Z" fill="white" fill-opacity="0.25"/>
<path d="M45.9775 355.73L56.0702 352.217L54.0838 362.717L45.9775 355.73Z" fill="white" fill-opacity="0.25"/>
<path d="M57.3345 387.492L59.2262 377.448L66.9546 384.11L57.3345 387.492Z" fill="white" fill-opacity="0.25"/>
<path d="M60.1113 395.035L69.4804 391.736L67.6337 401.519L60.1113 395.035Z" fill="white" fill-opacity="0.25"/>
<path d="M71.1638 426.527L72.9903 416.907L80.4096 423.302L71.1638 426.527Z" fill="white" fill-opacity="0.25"/>
<path d="M73.7285 434.25L83.2255 430.941L81.3196 440.793L73.7285 434.25Z" fill="white" fill-opacity="0.25"/>
<path d="M93.0391 450.113L100.591 447.463L99.0844 455.324L93.0391 450.113Z" fill="white" fill-opacity="0.25"/>
<path d="M109.101 455.998L110.11 450.521L114.335 454.163L109.101 455.998Z" fill="white" fill-opacity="0.25"/>
<path d="M137.49 458.553L139.026 458.021L138.692 459.589L137.49 458.553Z" fill="white" fill-opacity="0.25"/>
<path d="M151.883 461.44L151.958 461.145L152.198 461.353L151.883 461.44Z" fill="white" fill-opacity="0.25"/>
<path d="M151.103 241.958L151.288 240.98L152.044 241.631L151.103 241.958Z" fill="white" fill-opacity="0.25"/>
<path d="M136.714 238.717L138.654 237.994L138.26 240.049L136.714 238.717Z" fill="white" fill-opacity="0.25"/>
<path d="M117.89 222.912L120.932 221.883L120.328 225.014L117.89 222.912Z" fill="white" fill-opacity="0.25"/>
<path d="M109.091 235.622L109.875 231.448L113.103 234.231L109.091 235.622Z" fill="white" fill-opacity="0.25"/>
<path d="M88.8506 254.037L95.0883 251.87L93.8312 258.33L88.8506 254.037Z" fill="white" fill-opacity="0.25"/>
<path d="M80.6104 268.666L82.0629 260.938L88.0052 266.059L80.6104 268.666Z" fill="white" fill-opacity="0.25"/>
<path d="M60.0352 285.174L69.0939 282.026L67.2827 291.421L60.0352 285.174Z" fill="white" fill-opacity="0.25"/>
<path d="M52.6041 301.158L54.4957 291.114L62.2242 297.776L52.6041 301.158Z" fill="white" fill-opacity="0.25"/>
<path d="M32.1992 316.498L42.4494 312.941L40.4086 323.574L32.1992 316.498Z" fill="white" fill-opacity="0.25"/>
<path d="M25.1603 332.999L27.2165 322.139L35.5632 329.333L25.1603 332.999Z" fill="white" fill-opacity="0.25"/>
<path d="M27.5117 339.996L38.1065 336.317L36.0302 347.338L27.5117 339.996Z" fill="white" fill-opacity="0.25"/>
<path d="M38.7506 372.314L40.8518 361.194L49.439 368.595L38.7506 372.314Z" fill="white" fill-opacity="0.25"/>
<path d="M41.126 379.209L51.8143 375.49L49.7132 386.61L41.126 379.209Z" fill="white" fill-opacity="0.25"/>
<path d="M52.2804 411.69L54.4858 400.241L63.3134 407.849L52.2804 411.69Z" fill="white" fill-opacity="0.25"/>
<path d="M54.5449 418.373L65.7354 414.489L63.5099 426.1L54.5449 418.373Z" fill="white" fill-opacity="0.25"/>
<path d="M65.8185 451.137L68.0843 439.201L77.2554 447.106L65.8185 451.137Z" fill="white" fill-opacity="0.25"/>
<path d="M67.9639 457.537L79.5926 453.491L77.3067 465.59L67.9639 457.537Z" fill="white" fill-opacity="0.25"/>
<path d="M84.7229 465.876L86.624 455.961L94.2838 462.563L84.7229 465.876Z" fill="white" fill-opacity="0.25"/>
<path d="M112.744 466.08L117.756 464.294L116.763 469.544L112.744 466.08Z" fill="white" fill-opacity="0.25"/>
<path d="M128.162 470.626L128.766 467.495L131.17 469.567L128.162 470.626Z" fill="white" fill-opacity="0.25"/>
<path d="M156.442 474.35L156.664 474.301L156.614 474.498L156.442 474.35Z" fill="white" fill-opacity="0.25"/>
<path d="M160.32 230.984L160.665 230.862L160.595 231.221L160.32 230.984Z" fill="white" fill-opacity="0.25"/>
<path d="M132.518 226.779L132.907 224.66L134.556 226.081L132.518 226.779Z" fill="white" fill-opacity="0.25"/>
<path d="M113.933 211.597L114.502 208.436L116.975 210.568L113.933 211.597Z" fill="white" fill-opacity="0.25"/>
<path d="M94.0244 230.598L99.1004 228.806L98.0776 234.091L94.0244 230.598Z" fill="white" fill-opacity="0.25"/>
<path d="M85.6009 244.467L86.8036 238.14L91.6811 242.344L85.6009 244.467Z" fill="white" fill-opacity="0.25"/>
<path d="M65.0488 261.715L73.1968 258.86L71.6094 267.369L65.0488 261.715Z" fill="white" fill-opacity="0.25"/>
<path d="M57.297 277.308L59.0786 267.948L66.2918 274.165L57.297 277.308Z" fill="white" fill-opacity="0.25"/>
<path d="M36.8516 292.969L46.7867 289.499L44.8205 299.837L36.8516 292.969Z" fill="white" fill-opacity="0.25"/>
<path d="M29.7641 309.249L31.7504 298.749L39.8567 305.736L29.7641 309.249Z" fill="white" fill-opacity="0.25"/>
<path d="M9.53711 324.385L19.8169 320.793L17.7808 331.49L9.53711 324.385Z" fill="white" fill-opacity="0.25"/>
<path d="M20.5193 356.719L22.675 345.466L31.3309 352.926L20.5193 356.719Z" fill="white" fill-opacity="0.25"/>
<path d="M22.7295 363.533L33.8217 359.624L31.6258 371.201L22.7295 363.533Z" fill="white" fill-opacity="0.25"/>
<path d="M33.8453 396.341L36.1903 384.174L45.5675 392.256L33.8453 396.341Z" fill="white" fill-opacity="0.25"/>
<path d="M35.79 402.627L47.9505 398.381L45.5451 411.035L35.79 402.627Z" fill="white" fill-opacity="0.25"/>
<path d="M47.1162 436.093L49.6317 422.756L59.9363 431.638L47.1162 436.093Z" fill="white" fill-opacity="0.25"/>
<path d="M48.9482 441.746L61.9851 437.178L59.4246 450.776L48.9482 441.746Z" fill="white" fill-opacity="0.25"/>
<path d="M60.5275 475.611L63.217 461.586L74.0025 470.882L60.5275 475.611Z" fill="white" fill-opacity="0.25"/>
<path d="M87.5703 473.477L96.8162 470.251L94.9896 479.871L87.5703 473.477Z" fill="white" fill-opacity="0.25"/>
<path d="M103.961 480.3L105.328 473.157L110.858 477.924L103.961 480.3Z" fill="white" fill-opacity="0.25"/>
<path d="M132.315 481.99L134.979 481.053L134.445 483.826L132.315 481.99Z" fill="white" fill-opacity="0.25"/>
<path d="M147.072 485.43L147.301 484.191L148.229 484.991L147.072 485.43Z" fill="white" fill-opacity="0.25"/>
<path d="M155.708 218.209L155.823 217.59L156.338 218.034L155.708 218.209Z" fill="white" fill-opacity="0.25"/>
<path d="M141.53 215.209L142.879 214.755L142.629 216.156L141.53 215.209Z" fill="white" fill-opacity="0.25"/>
<path d="M99.1006 207.135L103.177 205.739L102.364 209.947L99.1006 207.135Z" fill="white" fill-opacity="0.25"/>
<path d="M90.4769 220.474L91.4654 215.159L95.5529 218.682L90.4769 220.474Z" fill="white" fill-opacity="0.25"/>
<path d="M70.2227 238.279L77.2432 235.829L75.8558 243.135L70.2227 238.279Z" fill="white" fill-opacity="0.25"/>
<path d="M62.2044 253.277L63.7716 244.93L70.1949 250.466L62.2044 253.277Z" fill="white" fill-opacity="0.25"/>
<path d="M41.8018 269.52L50.9837 266.298L49.1524 275.855L41.8018 269.52Z" fill="white" fill-opacity="0.25"/>
<path d="M34.4633 285.462L36.33 275.517L43.9898 282.119L34.4633 285.462Z" fill="white" fill-opacity="0.25"/>
<path d="M14.4229 300.938L24.043 297.555L22.117 307.569L14.4229 300.938Z" fill="white" fill-opacity="0.25"/>
<path d="M7.34413 316.927L9.21093 306.982L16.8707 313.584L7.34413 316.927Z" fill="white" fill-opacity="0.25"/>
<path d="M2.61663 340.751L4.63258 330.216L12.7732 337.233L2.61663 340.751Z" fill="white" fill-opacity="0.25"/>
<path d="M4.85449 347.947L15.4789 344.233L13.373 355.289L4.85449 347.947Z" fill="white" fill-opacity="0.25"/>
<path d="M15.7326 380.61L18.0279 368.639L27.2677 376.603L15.7326 380.61Z" fill="white" fill-opacity="0.25"/>
<path d="M17.6846 386.961L29.7219 382.789L27.3709 395.31L17.6846 386.961Z" fill="white" fill-opacity="0.25"/>
<path d="M28.6769 420.74L31.3665 406.715L42.152 416.011L28.6769 420.74Z" fill="white" fill-opacity="0.25"/>
<path d="M30.2227 425.963L44.1998 421.068L41.4547 435.644L30.2227 425.963Z" fill="white" fill-opacity="0.25"/>
<path d="M41.9127 460.465L44.7727 445.269L56.5199 455.395L41.9127 460.465Z" fill="white" fill-opacity="0.25"/>
<path d="M43.2822 465.057L58.3276 459.825L55.3386 475.448L43.2822 465.057Z" fill="white" fill-opacity="0.25"/>
<path d="M62.4307 480.906L75.8121 476.216L73.1818 490.173L62.4307 480.906Z" fill="white" fill-opacity="0.25"/>
<path d="M79.646 490.173L81.8419 478.596L90.7725 486.293L79.646 490.173Z" fill="white" fill-opacity="0.25"/>
<path d="M107.501 489.457L113.803 487.286L112.55 493.809L107.501 489.457Z" fill="white" fill-opacity="0.25"/>
<path d="M123.256 494.655L124.069 490.447L127.332 493.26L123.256 494.655Z" fill="white" fill-opacity="0.25"/>
<path d="M151.43 497.807L152.498 497.47L152.288 498.547L151.43 497.807Z" fill="white" fill-opacity="0.25"/>
<path d="M164.877 207.432L165.064 207.353L165.049 207.58L164.877 207.432Z" fill="white" fill-opacity="0.25"/>
<path d="M137.217 202.99L137.487 201.427L138.689 202.463L137.217 202.99Z" fill="white" fill-opacity="0.25"/>
<path d="M122.804 199.43L125.093 198.649L124.659 201.028L122.804 199.43Z" fill="white" fill-opacity="0.25"/>
<path d="M104.113 183.676L107.279 182.573L106.689 185.896L104.113 183.676Z" fill="white" fill-opacity="0.25"/>
<path d="M95.3779 196.383L96.1959 192.239L99.3903 194.993L95.3779 196.383Z" fill="white" fill-opacity="0.25"/>
<path d="M75.3975 214.842L81.2266 212.802L80.0689 218.868L75.3975 214.842Z" fill="white" fill-opacity="0.25"/>
<path d="M67.1937 229.082L68.5456 222.166L73.8696 226.754L67.1937 229.082Z" fill="white" fill-opacity="0.25"/>
<path d="M46.8779 246.055L55.0259 243.2L53.4042 251.68L46.8779 246.055Z" fill="white" fill-opacity="0.25"/>
<path d="M39.305 261.439L41.0215 252.502L47.8912 258.423L39.305 261.439Z" fill="white" fill-opacity="0.25"/>
<path d="M19.3359 277.453L28.2028 274.32L26.4461 283.581L19.3359 277.453Z" fill="white" fill-opacity="0.25"/>
<path d="M12.1276 292.971L13.8642 283.871L20.9057 289.941L12.1276 292.971Z" fill="white" fill-opacity="0.25"/>
<path d="M-7.52246 308.961L0.90623 305.989L-0.75576 314.793L-7.52246 308.961Z" fill="white" fill-opacity="0.25"/>
<path d="M-12.4365 332.443L-3.25461 329.222L-5.08589 338.779L-12.4365 332.443Z" fill="white" fill-opacity="0.25"/>
<path d="M-2.07635 364.599L0.0200598 353.415L8.64159 360.846L-2.07635 364.599Z" fill="white" fill-opacity="0.25"/>
<path d="M-0.0292969 371.395L11.2844 367.437L9.03877 379.21L-0.0292969 371.395Z" fill="white" fill-opacity="0.25"/>
<path d="M10.8025 404.737L13.3228 391.464L23.5587 400.287L10.8025 404.737Z" fill="white" fill-opacity="0.25"/>
<path d="M12.249 410.354L25.8816 405.581L23.2063 419.798L12.249 410.354Z" fill="white" fill-opacity="0.25"/>
<path d="M23.4764 445.112L26.4808 429.262L38.7089 439.802L23.4764 445.112Z" fill="white" fill-opacity="0.25"/>
<path d="M24.624 449.336L40.4819 443.787L37.3331 460.29L24.624 449.336Z" fill="white" fill-opacity="0.25"/>
<path d="M36.7745 484.834L39.9836 467.845L53.0705 479.124L36.7745 484.834Z" fill="white" fill-opacity="0.25"/>
<path d="M37.9453 488.475L54.3989 482.721L51.1352 499.843L37.9453 488.475Z" fill="white" fill-opacity="0.25"/>
<path d="M55.3842 499.916L58.3685 484.229L70.4936 494.679L55.3842 499.916Z" fill="white" fill-opacity="0.25"/>
<path d="M82.2344 496.895L92.8588 493.181L90.7529 504.237L82.2344 496.895Z" fill="white" fill-opacity="0.25"/>
<path d="M99.0579 504.392L100.625 496.045L107.048 501.581L99.0579 504.392Z" fill="white" fill-opacity="0.25"/>
<path d="M127.27 505.418L130.908 504.184L130.189 507.934L127.27 505.418Z" fill="white" fill-opacity="0.25"/>
<path d="M142.226 509.39L142.645 507.237L144.294 508.658L142.226 509.39Z" fill="white" fill-opacity="0.25"/>
<path d="M160.261 194.591L160.355 194.134L160.699 194.43L160.261 194.591Z" fill="white" fill-opacity="0.25"/>
<path d="M146.283 191.707L147.224 191.38L147.039 192.358L146.283 191.707Z" fill="white" fill-opacity="0.25"/>
<path d="M118.63 187.81L119.144 185.199L121.136 186.917L118.63 187.81Z" fill="white" fill-opacity="0.25"/>
<path d="M100.225 172.422L100.819 169.162L103.327 171.323L100.225 172.422Z" fill="white" fill-opacity="0.25"/>
<path d="M80.6055 191.434L85.2136 189.838L84.3151 194.631L80.6055 191.434Z" fill="white" fill-opacity="0.25"/>
<path d="M72.1874 204.953L73.2504 199.344L77.5784 203.074L72.1874 204.953Z" fill="white" fill-opacity="0.25"/>
<path d="M52.2139 222.639L58.9537 220.306L57.6066 227.287L52.2139 222.639Z" fill="white" fill-opacity="0.25"/>
<path d="M44.3298 237.274L45.7621 229.709L51.6014 234.741L44.3298 237.274Z" fill="white" fill-opacity="0.25"/>
<path d="M24.5107 254.016L32.2206 251.322L30.6935 259.345L24.5107 254.016Z" fill="white" fill-opacity="0.25"/>
<path d="M16.9736 269.011L18.5207 260.826L24.8066 266.243L16.9736 269.011Z" fill="white" fill-opacity="0.25"/>
<path d="M-2.44629 285.5L4.98286 282.923L3.53039 290.651L-2.44629 285.5Z" fill="white" fill-opacity="0.25"/>
<path d="M-6.89319 388.526L-4.6026 376.492L4.67155 384.485L-6.89319 388.526Z" fill="white" fill-opacity="0.25"/>
<path d="M-5.13965 394.826L7.20792 390.502L4.78714 403.382L-5.13965 394.826Z" fill="white" fill-opacity="0.25"/>
<path d="M5.66121 429.04L8.5058 414.071L20.0813 424.048L5.66121 429.04Z" fill="white" fill-opacity="0.25"/>
<path d="M6.71484 433.719L22.1345 428.331L19.0804 444.377L6.71484 433.719Z" fill="white" fill-opacity="0.25"/>
<path d="M18.3976 469.412L21.6967 451.902L35.1957 463.536L18.3976 469.412Z" fill="white" fill-opacity="0.25"/>
<path d="M19.416 472.746L36.4653 466.787L33.0868 484.529L19.416 472.746Z" fill="white" fill-opacity="0.25"/>
<path d="M31.9285 508.792L35.3271 490.888L49.1353 502.79L31.9285 508.792Z" fill="white" fill-opacity="0.25"/>
<path d="M57.3203 504.34L71.77 499.313L68.9302 514.346L57.3203 504.34Z" fill="white" fill-opacity="0.25"/>
<path d="M74.6804 514.273L77.1403 501.486L86.9984 509.983L74.6804 514.273Z" fill="white" fill-opacity="0.25"/>
<path d="M102.457 512.951L109.694 510.389L108.262 517.954L102.457 512.951Z" fill="white" fill-opacity="0.25"/>
<path d="M118.414 518.68L119.407 513.43L123.426 516.894L118.414 518.68Z" fill="white" fill-opacity="0.25"/>
<path d="M146.613 521.314L148.243 520.743L147.919 522.439L146.613 521.314Z" fill="white" fill-opacity="0.25"/>
<path d="M161.048 524.296L161.142 523.839L161.486 524.135L161.048 524.296Z" fill="white" fill-opacity="0.25"/>
<path d="M169.368 183.885L169.555 183.807L169.506 184.003L169.368 183.885Z" fill="white" fill-opacity="0.25"/>
<path d="M141.823 179.24L142.027 178.1L142.92 178.87L141.823 179.24Z" fill="white" fill-opacity="0.25"/>
<path d="M127.592 175.955L129.409 175.306L129.034 177.199L127.592 175.955Z" fill="white" fill-opacity="0.25"/>
<path d="M85.7158 168.002L89.2557 166.743L88.5668 170.459L85.7158 168.002Z" fill="white" fill-opacity="0.25"/>
<path d="M77.1478 180.79L77.9859 176.484L81.3177 179.356L77.1478 180.79Z" fill="white" fill-opacity="0.25"/>
<path d="M57.5215 199.254L62.8781 197.345L61.8151 202.955L57.5215 199.254Z" fill="white" fill-opacity="0.25"/>
<path d="M49.3484 213.044L50.5061 206.978L55.2119 211.034L49.3484 213.044Z" fill="white" fill-opacity="0.25"/>
<path d="M29.6846 230.58L36.2326 228.262L34.9399 235.11L29.6846 230.58Z" fill="white" fill-opacity="0.25"/>
<path d="M21.9038 244.885L23.2213 237.939L28.6141 242.587L21.9038 244.885Z" fill="white" fill-opacity="0.25"/>
<path d="M2.56738 262.043L9.1154 259.725L7.82274 266.573L2.56738 262.043Z" fill="white" fill-opacity="0.25"/>
<path d="M-5.09687 276.21L-3.81959 269.589L1.29838 274L-5.09687 276.21Z" fill="white" fill-opacity="0.25"/>
<path d="M-11.8588 412.624L-9.30419 399.38L0.897378 408.173L-11.8588 412.624Z" fill="white" fill-opacity="0.25"/>
<path d="M-10.4775 418.244L3.31251 413.427L0.582756 427.777L-10.4775 418.244Z" fill="white" fill-opacity="0.25"/>
<path d="M0.582226 453.339L3.7263 436.772L16.504 447.785L0.582226 453.339Z" fill="white" fill-opacity="0.25"/>
<path d="M1.4082 457.105L18.2064 451.23L14.9073 468.74L1.4082 457.105Z" fill="white" fill-opacity="0.25"/>
<path d="M13.6098 493.303L17.0783 475.041L31.1613 487.179L13.6098 493.303Z" fill="white" fill-opacity="0.25"/>
<path d="M14.5664 496.221L32.2457 490.087L28.7524 508.448L14.5664 496.221Z" fill="white" fill-opacity="0.25"/>
<path d="M33.3555 512L49.9961 506.168L46.7171 523.516L33.3555 512Z" fill="white" fill-opacity="0.25"/>
<path d="M50.8398 523.596L53.8691 507.649L66.1316 518.218L50.8398 523.596Z" fill="white" fill-opacity="0.25"/>
<path d="M77.4814 520.396L88.608 516.517L86.4121 528.094L77.4814 520.396Z" fill="white" fill-opacity="0.25"/>
<path d="M94.2712 528.283L96.0077 519.184L103.015 525.223L94.2712 528.283Z" fill="white" fill-opacity="0.25"/>
<path d="M122.191 528.881L126.8 527.285L125.901 532.078L122.191 528.881Z" fill="white" fill-opacity="0.25"/>
<path d="M137.467 533.246L138.031 530.439L140.195 532.304L137.467 533.246Z" fill="white" fill-opacity="0.25"/>
<path d="M164.78 171.013L164.816 170.625L165.125 170.891L164.78 171.013Z" fill="white" fill-opacity="0.25"/>
<path d="M150.873 168.186L151.592 167.907L151.457 168.689L150.873 168.186Z" fill="white" fill-opacity="0.25"/>
<path d="M123.354 163.924L123.728 162.032L125.205 163.305L123.354 163.924Z" fill="white" fill-opacity="0.25"/>
<path d="M109.027 160.195L111.474 159.371L110.985 161.883L109.027 160.195Z" fill="white" fill-opacity="0.25"/>
<path d="M90.7588 144.51L93.3927 143.607L92.8884 146.345L90.7588 144.51Z" fill="white" fill-opacity="0.25"/>
<path d="M82.053 156.761L82.6816 153.531L85.189 155.693L82.053 156.761Z" fill="white" fill-opacity="0.25"/>
<path d="M62.7305 175.846L66.8661 174.381L66.0279 178.688L62.7305 175.846Z" fill="white" fill-opacity="0.25"/>
<path d="M54.3431 188.913L55.2416 184.12L58.9513 187.317L54.3431 188.913Z" fill="white" fill-opacity="0.25"/>
<path d="M34.8936 207.172L40.2206 205.298L39.1528 210.843L34.8936 207.172Z" fill="white" fill-opacity="0.25"/>
<path d="M26.8692 220.787L27.9571 215.08L32.3537 218.869L26.8692 220.787Z" fill="white" fill-opacity="0.25"/>
<path d="M7.67676 238.609L13.1909 236.657L12.1077 242.428L7.67676 238.609Z" fill="white" fill-opacity="0.25"/>
<path d="M-0.219819 252.217L0.843206 246.608L5.17115 250.338L-0.219819 252.217Z" fill="white" fill-opacity="0.25"/>
<path d="M-15.75 441.656L-0.674976 436.39L-3.65924 452.077L-15.75 441.656Z" fill="white" fill-opacity="0.25"/>
<path d="M-4.35325 477.403L-0.970043 459.725L12.6664 471.478L-4.35325 477.403Z" fill="white" fill-opacity="0.25"/>
<path d="M-3.50684 480.588L14.0446 474.463L10.5761 492.726L-3.50684 480.588Z" fill="white" fill-opacity="0.25"/>
<path d="M9.1219 516.915L12.5808 498.525L26.7669 510.752L9.1219 516.915Z" fill="white" fill-opacity="0.25"/>
<path d="M10.3047 519.85L27.605 513.808L24.1816 531.81L10.3047 519.85Z" fill="white" fill-opacity="0.25"/>
<path d="M27.5849 532.17L30.9184 514.689L44.4174 526.324L27.5849 532.17Z" fill="white" fill-opacity="0.25"/>
<path d="M53.124 527.959L67.1012 523.064L64.3561 537.64L53.124 527.959Z" fill="white" fill-opacity="0.25"/>
<path d="M70.3703 537.678L72.6964 525.255L82.2797 533.515L70.3703 537.678Z" fill="white" fill-opacity="0.25"/>
<path d="M97.7705 536.449L105.387 533.794L103.85 541.689L97.7705 536.449Z" fill="white" fill-opacity="0.25"/>
<path d="M113.626 542.572L114.754 536.54L119.391 540.537L113.626 542.572Z" fill="white" fill-opacity="0.25"/>
<path d="M141.961 544.844L143.935 544.151L143.541 546.206L141.961 544.844Z" fill="white" fill-opacity="0.25"/>
<path d="M156.466 547.946L156.61 547.292L157.126 547.736L156.466 547.946Z" fill="white" fill-opacity="0.25"/>
<path d="M173.824 160.309L174.046 160.26L173.996 160.457L173.824 160.309Z" fill="white" fill-opacity="0.25"/>
<path d="M146.402 155.591L146.557 154.647L147.279 155.269L146.402 155.591Z" fill="white" fill-opacity="0.25"/>
<path d="M132.343 152.453L133.657 151.97L133.408 153.371L132.343 152.453Z" fill="white" fill-opacity="0.25"/>
<path d="M105.007 148.469L105.476 146.119L107.297 147.688L105.007 148.469Z" fill="white" fill-opacity="0.25"/>
<path d="M86.8708 132.836L87.3348 130.423L89.1897 132.021L86.8708 132.836Z" fill="white" fill-opacity="0.25"/>
<path d="M67.8057 152.385L70.9417 151.316L70.3131 154.546L67.8057 152.385Z" fill="white" fill-opacity="0.25"/>
<path d="M59.2794 164.849L59.9435 161.23L62.7257 163.628L59.2794 164.849Z" fill="white" fill-opacity="0.25"/>
<path d="M40.0674 183.736L44.2373 182.302L43.3992 186.608L40.0674 183.736Z" fill="white" fill-opacity="0.25"/>
<path d="M31.8037 196.725L32.6229 192.163L36.1608 195.212L31.8037 196.725Z" fill="white" fill-opacity="0.25"/>
<path d="M12.6553 215.121L17.3274 213.521L16.3993 218.348L12.6553 215.121Z" fill="white" fill-opacity="0.25"/>
<path d="M4.59702 228.292L5.49549 223.499L9.1708 226.667L4.59702 228.292Z" fill="white" fill-opacity="0.25"/>
<path d="M-20.7637 465.115L-4.74831 459.522L-7.91724 476.188L-20.7637 465.115Z" fill="white" fill-opacity="0.25"/>
<path d="M-8.9577 501.151L-5.54374 483.021L8.4362 495.07L-8.9577 501.151Z" fill="white" fill-opacity="0.25"/>
<path d="M-7.96289 504.164L9.52456 498.044L6.0514 516.243L-7.96289 504.164Z" fill="white" fill-opacity="0.25"/>
<path d="M4.95811 540.084L8.25724 522.573L21.7906 534.238L4.95811 540.084Z" fill="white" fill-opacity="0.25"/>
<path d="M29.582 535.686L45.0656 530.293L41.9819 546.373L29.582 535.686Z" fill="white" fill-opacity="0.25"/>
<path d="M46.8519 546.558L49.6267 531.948L60.8931 541.659L46.8519 546.558Z" fill="white" fill-opacity="0.25"/>
<path d="M73.6436 544.088L83.6723 540.579L81.6811 551.016L73.6436 544.088Z" fill="white" fill-opacity="0.25"/>
<path d="M90.0221 551.621L91.6391 543.077L98.2341 548.762L90.0221 551.621Z" fill="white" fill-opacity="0.25"/>
<path d="M117.701 552.43L122.339 550.8L121.445 555.657L117.701 552.43Z" fill="white" fill-opacity="0.25"/>
<path d="M132.981 556.86L133.535 553.925L135.768 555.849L132.981 556.86Z" fill="white" fill-opacity="0.25"/>
<path d="M161.208 560.711L161.366 560.667L161.311 560.8L161.208 560.711Z" fill="white" fill-opacity="0.25"/>
<path d="M169.236 147.433L169.306 147.074L169.615 147.34L169.236 147.433Z" fill="white" fill-opacity="0.25"/>
<path d="M155.393 144.604L156.052 144.394L155.908 145.048L155.393 144.604Z" fill="white" fill-opacity="0.25"/>
<path d="M128.023 140.169L128.303 138.734L129.402 139.681L128.023 140.169Z" fill="white" fill-opacity="0.25"/>
<path d="M113.911 136.748L115.664 136.104L115.319 137.962L113.911 136.748Z" fill="white" fill-opacity="0.25"/>
<path d="M72.7207 128.902L75.1035 128.083L74.6442 130.56L72.7207 128.902Z" fill="white" fill-opacity="0.25"/>
<path d="M64.0609 140.894L64.5948 138.122L66.7244 139.957L64.0609 140.894Z" fill="white" fill-opacity="0.25"/>
<path d="M45.1787 160.299L48.2804 159.201L47.6862 162.46L45.1787 160.299Z" fill="white" fill-opacity="0.25"/>
<path d="M36.6775 172.666L37.3215 169.21L40.0007 171.52L36.6775 172.666Z" fill="white" fill-opacity="0.25"/>
<path d="M17.7656 191.689L21.3695 190.425L20.6853 194.206L17.7656 191.689Z" fill="white" fill-opacity="0.25"/>
<path d="M9.40961 204.302L10.153 200.453L13.107 202.999L9.40961 204.302Z" fill="white" fill-opacity="0.25"/>
<path d="M-13.2722 524.493L-9.91859 506.849L3.68351 518.573L-13.2722 524.493Z" fill="white" fill-opacity="0.25"/>
<path d="M-12.0605 527.811L4.80159 521.93L1.4385 539.445L-12.0605 527.811Z" fill="white" fill-opacity="0.25"/>
<path d="M6.75781 543.551L22.5221 538.041L19.3981 554.446L6.75781 543.551Z" fill="white" fill-opacity="0.25"/>
<path d="M23.8392 554.919L26.8282 539.296L38.8502 549.658L23.8392 554.919Z" fill="white" fill-opacity="0.25"/>
<path d="M49.7725 551.711L61.8737 547.534L59.4931 560.089L49.7725 551.711Z" fill="white" fill-opacity="0.25"/>
<path d="M66.5903 560.4L68.6062 549.865L76.7469 556.881L66.5903 560.4Z" fill="white" fill-opacity="0.25"/>
<path d="M93.8008 560.086L100.541 557.753L99.2279 564.764L93.8008 560.086Z" fill="white" fill-opacity="0.25"/>
<path d="M109.462 565.74L110.464 560.618L114.415 564.022L109.462 565.74Z" fill="white" fill-opacity="0.25"/>
<path d="M137.603 568.443L139.355 567.799L139.011 569.657L137.603 568.443Z" fill="white" fill-opacity="0.25"/>
<path d="M152.009 571.524L152.119 570.841L152.634 571.285L152.009 571.524Z" fill="white" fill-opacity="0.25"/>
<path d="M150.916 131.946L151.086 131.194L151.67 131.697L150.916 131.946Z" fill="white" fill-opacity="0.25"/>
<path d="M136.997 128.926L138.031 128.56L137.821 129.636L136.997 128.926Z" fill="white" fill-opacity="0.25"/>
<path d="M109.765 124.611L110.089 122.915L111.395 124.04L109.765 124.611Z" fill="white" fill-opacity="0.25"/>
<path d="M95.709 121.057L97.56 120.437L97.186 122.33L95.709 121.057Z" fill="white" fill-opacity="0.25"/>
<path d="M77.668 105.449L79.2976 104.878L78.9732 106.574L77.668 105.449Z" fill="white" fill-opacity="0.25"/>
<path d="M68.8174 117.038L69.2116 114.983L70.7916 116.345L68.8174 117.038Z" fill="white" fill-opacity="0.25"/>
<path d="M50.1553 136.814L52.4445 136.034L52.0101 138.413L50.1553 136.814Z" fill="white" fill-opacity="0.25"/>
<path d="M41.5225 148.708L41.977 146.167L43.9349 147.854L41.5225 148.708Z" fill="white" fill-opacity="0.25"/>
<path d="M22.8125 168.262L25.476 167.325L24.9421 170.097L22.8125 168.262Z" fill="white" fill-opacity="0.25"/>
<path d="M14.2857 180.307L14.8148 177.47L17.0131 179.365L14.2857 180.307Z" fill="white" fill-opacity="0.25"/>
<path d="M-15.7061 551.486L-0.222447 546.094L-3.27182 562.203L-15.7061 551.486Z" fill="white" fill-opacity="0.25"/>
<path d="M1.20715 562.774L4.2009 547.215L16.1886 557.548L1.20715 562.774Z" fill="white" fill-opacity="0.25"/>
<path d="M26.5605 559.543L39.5974 554.975L37.0026 568.543L26.5605 559.543Z" fill="white" fill-opacity="0.25"/>
<path d="M43.3716 569.003L45.6575 556.905L54.966 564.928L43.3716 569.003Z" fill="white" fill-opacity="0.25"/>
<path d="M70.2305 567.848L78.5064 564.983L76.8598 573.561L70.2305 567.848Z" fill="white" fill-opacity="0.25"/>
<path d="M86.1519 574.448L87.4694 567.502L92.8278 572.12L86.1519 574.448Z" fill="white" fill-opacity="0.25"/>
<path d="M114.027 576.143L117.321 575.03L116.672 578.422L114.027 576.143Z" fill="white" fill-opacity="0.25"/>
<path d="M128.815 580.029L129.21 577.974L130.79 579.336L128.815 580.029Z" fill="white" fill-opacity="0.25"/>
<path d="M132.629 116.421L132.873 115.374L133.663 116.055L132.629 116.421Z" fill="white" fill-opacity="0.25"/>
<path d="M118.694 113.209L119.95 112.794L119.725 114.097L118.694 113.209Z" fill="white" fill-opacity="0.25"/>
<path d="M91.5931 108.949L91.9174 107.253L93.2226 108.378L91.5931 108.949Z" fill="white" fill-opacity="0.25"/>
<path d="M73.5406 93.1511L73.8248 91.7796L74.8552 92.6678L73.5406 93.1511Z" fill="white" fill-opacity="0.25"/>
<path d="M55.0088 113.336L56.6384 112.765L56.314 114.461L55.0088 113.336Z" fill="white" fill-opacity="0.25"/>
<path d="M46.2446 124.821L46.6234 122.992L48.0317 124.206L46.2446 124.821Z" fill="white" fill-opacity="0.25"/>
<path d="M27.8252 144.803L29.578 144.158L29.2335 146.017L27.8252 144.803Z" fill="white" fill-opacity="0.25"/>
<path d="M19.1276 156.284L19.472 154.426L20.9147 155.669L19.1276 156.284Z" fill="white" fill-opacity="0.25"/>
<path d="M0.672852 176.238L2.48958 175.589L2.14985 177.511L0.672852 176.238Z" fill="white" fill-opacity="0.25"/>
<path d="M3.89844 567.428L16.9992 562.855L14.4092 576.487L3.89844 567.428Z" fill="white" fill-opacity="0.25"/>
<path d="M20.5909 577.025L22.9513 564.632L32.5346 572.892L20.5909 577.025Z" fill="white" fill-opacity="0.25"/>
<path d="M47.0469 575.643L56.2288 572.421L54.3975 581.978L47.0469 575.643Z" fill="white" fill-opacity="0.25"/>
<path d="M63.0216 582.945L64.564 574.696L70.9185 580.173L63.0216 582.945Z" fill="white" fill-opacity="0.25"/>
<path d="M90.4209 583.873L95.3393 582.126L94.371 587.278L90.4209 583.873Z" fill="white" fill-opacity="0.25"/>
<path d="M105.685 588.529L106.334 585.137L108.944 587.387L105.685 588.529Z" fill="white" fill-opacity="0.25"/>
<path d="M133.666 592.113L134.513 591.825L134.353 592.705L133.666 592.113Z" fill="white" fill-opacity="0.25"/>
<path d="M114.463 100.823L114.663 99.6182L115.591 100.418L114.463 100.823Z" fill="white" fill-opacity="0.25"/>
<path d="M100.521 97.5488L101.806 97.0998L101.552 98.437L100.521 97.5488Z" fill="white" fill-opacity="0.25"/>
<path d="M59.8232 89.8281L60.9211 89.4573L60.682 90.5683L59.8232 89.8281Z" fill="white" fill-opacity="0.25"/>
<path d="M50.974 100.998L51.2037 99.7596L52.1655 100.589L50.974 100.998Z" fill="white" fill-opacity="0.25"/>
<path d="M32.6406 121.297L33.832 120.887L33.6024 122.126L32.6406 121.297Z" fill="white" fill-opacity="0.25"/>
<path d="M23.8549 132.463L24.0846 131.224L25.0463 132.053L23.8549 132.463Z" fill="white" fill-opacity="0.25"/>
<path d="M5.62109 152.783L6.655 152.417L6.44546 153.494L5.62109 152.783Z" fill="white" fill-opacity="0.25"/>
<path d="M-2.0652 584.975L0.320089 572.483L9.93773 580.773L-2.0652 584.975Z" fill="white" fill-opacity="0.25"/>
<path d="M24.1582 583.514L33.7783 580.131L31.8523 590.145L24.1582 583.514Z" fill="white" fill-opacity="0.25"/>
<path d="M40.2719 590.936L41.8937 582.456L48.4543 588.11L40.2719 590.936Z" fill="white" fill-opacity="0.25"/>
<path d="M67.2393 591.668L73.0684 589.628L71.9107 595.694L67.2393 591.668Z" fill="white" fill-opacity="0.25"/>
<path d="M82.5205 596.998L83.4285 592.333L87.0351 595.442L82.5205 596.998Z" fill="white" fill-opacity="0.25"/>
<path d="M110.449 599.877L112.266 599.228L111.926 601.15L110.449 599.877Z" fill="white" fill-opacity="0.25"/>
<path d="M124.833 603.057L124.997 602.241L125.615 602.774L124.833 603.057Z" fill="white" fill-opacity="0.25"/>
<path d="M96.2913 85.1622L96.496 84.0217L97.3547 84.7618L96.2913 85.1622Z" fill="white" fill-opacity="0.25"/>
<path d="M82.4844 81.9414L83.5183 81.5754L83.3087 82.6519L82.4844 81.9414Z" fill="white" fill-opacity="0.25"/>
<path d="M64.6387 66.3223L65.1408 66.1564L65.0852 66.7071L64.6387 66.3223Z" fill="white" fill-opacity="0.25"/>
<path d="M55.6359 77.1818L55.7804 76.5281L56.2956 76.9721L55.6359 77.1818Z" fill="white" fill-opacity="0.25"/>
<path d="M37.3574 97.7656L38.1402 97.4825L38.01 98.3281L37.3574 97.7656Z" fill="white" fill-opacity="0.25"/>
<path d="M28.4896 108.678L28.6589 107.926L29.2429 108.429L28.4896 108.678Z" fill="white" fill-opacity="0.25"/>
<path d="M10.4023 129.248L10.9045 129.082L10.8489 129.633L10.4023 129.248Z" fill="white" fill-opacity="0.25"/>
<path d="M1.45983 140.039L1.58414 139.547L1.96198 139.873L1.45983 140.039Z" fill="white" fill-opacity="0.25"/>
<path d="M1.46289 591.369L11.1173 588.017L9.2257 598.06L1.46289 591.369Z" fill="white" fill-opacity="0.25"/>
<path d="M17.5546 598.954L19.1918 590.248L25.9241 596.05L17.5546 598.954Z" fill="white" fill-opacity="0.25"/>
<path d="M44.4482 599.564L50.5285 597.442L49.2914 603.739L44.4482 599.564Z" fill="white" fill-opacity="0.25"/>
<path d="M59.6856 605.153L60.6835 599.966L64.668 603.401L59.6856 605.153Z" fill="white" fill-opacity="0.25"/>
<path d="M87.3643 607.699L89.9342 606.801L89.4252 609.476L87.3643 607.699Z" fill="white" fill-opacity="0.25"/>
<path d="M101.845 611.32L102.169 609.624L103.475 610.749L101.845 611.32Z" fill="white" fill-opacity="0.25"/>
<path d="M78.3002 69.2954L78.4399 68.5777L78.9895 69.0514L78.3002 69.2954Z" fill="white" fill-opacity="0.25"/>
<path d="M60.3667 53.358L60.3918 53.2588L60.4611 53.3185L60.3667 53.358Z" fill="white" fill-opacity="0.25"/>
<path d="M42.0752 74.2324L42.4838 74.1056L42.4187 74.5285L42.0752 74.2324Z" fill="white" fill-opacity="0.25"/>
<path d="M33.0995 84.9937L33.1942 84.5366L33.5377 84.8326L33.0995 84.9937Z" fill="white" fill-opacity="0.25"/>
<path d="M15.0244 105.754L15.3051 105.637L15.2305 105.932L15.0244 105.754Z" fill="white" fill-opacity="0.25"/>
<path d="M6.06967 116.354L6.11941 116.158L6.2568 116.276L6.06967 116.354Z" fill="white" fill-opacity="0.25"/>
<path d="M-5.28337 607.047L-3.55153 597.884L3.5243 603.983L-5.28337 607.047Z" fill="white" fill-opacity="0.25"/>
<path d="M21.8506 607.445L27.8373 605.361L26.6594 611.59L21.8506 607.445Z" fill="white" fill-opacity="0.25"/>
<path d="M37.0578 613.071L38.0214 607.855L42.0402 611.319L37.0578 613.071Z" fill="white" fill-opacity="0.25"/>
<path d="M64.4131 615.574L67.4508 614.481L66.8518 617.676L64.4131 615.574Z" fill="white" fill-opacity="0.25"/>
<path d="M79.0705 619.408L79.4303 617.323L81.0447 618.715L79.0705 619.408Z" fill="white" fill-opacity="0.25"/>
<path d="M106.773 623.59L107.276 623.424L107.186 623.945L106.773 623.59Z" fill="white" fill-opacity="0.25"/>
<path d="M19.6455 82.1992L19.71 82.1944L19.7148 82.259L19.6455 82.1992Z" fill="white" fill-opacity="0.25"/>
<path d="M-1.23438 615.266L5.50552 612.933L4.15838 619.914L-1.23438 615.266Z" fill="white" fill-opacity="0.25"/>
<path d="M14.3072 621.06L15.3501 615.613L19.5406 619.225L14.3072 621.06Z" fill="white" fill-opacity="0.25"/>
<path d="M41.7168 623.432L44.8824 622.329L44.2586 625.622L41.7168 623.432Z" fill="white" fill-opacity="0.25"/>
<path d="M56.3189 627.399L56.758 625.083L58.5785 626.652L56.3189 627.399Z" fill="white" fill-opacity="0.25"/>
<path d="M83.9834 631.486L84.7023 631.208L84.5673 631.99L83.9834 631.486Z" fill="white" fill-opacity="0.25"/>
<path d="M97.9507 634.245L97.9661 634.019L98.1378 634.167L97.9507 634.245Z" fill="white" fill-opacity="0.25"/>
<path d="M18.8301 631.301L22.4043 630.071L21.681 633.758L18.8301 631.301Z" fill="white" fill-opacity="0.25"/>
<path d="M33.5732 635.45L34.0574 632.874L36.0496 634.591L33.5732 635.45Z" fill="white" fill-opacity="0.25"/>
<path d="M61.3223 639.371L62.0755 639.122L61.9405 639.904L61.3223 639.371Z" fill="white" fill-opacity="0.25"/>
<path d="M75.2593 642.165L75.3339 641.87L75.5743 642.077L75.2593 642.165Z" fill="white" fill-opacity="0.25"/>
<path d="M-4.25488 639.123L0.0382241 637.615L-0.82001 642.084L-4.25488 639.123Z" fill="white" fill-opacity="0.25"/>
<path d="M10.7395 643.605L11.3089 640.444L13.7476 642.546L10.7395 643.605Z" fill="white" fill-opacity="0.25"/>
<path d="M38.4365 647.244L39.5936 646.805L39.3639 648.043L38.4365 647.244Z" fill="white" fill-opacity="0.25"/>
<path d="M52.5731 650.148L52.6382 649.725L52.9817 650.021L52.5731 650.148Z" fill="white" fill-opacity="0.25"/>
<path d="M15.4775 655.057L17.1711 654.481L16.8515 656.241L15.4775 655.057Z" fill="white" fill-opacity="0.25"/>
<path d="M29.733 658.241L29.9271 657.391L30.5798 657.953L29.733 658.241Z" fill="white" fill-opacity="0.25"/>
<path d="M6.83898 666.468L7.13847 664.871L8.37502 665.937L6.83898 666.468Z" fill="white" fill-opacity="0.25"/>
<path d="M11.6768 678.775L12.2381 678.541L12.1233 679.16L11.6768 678.775Z" fill="white" fill-opacity="0.25"/>
<path d="M2.70334 689.602L2.84776 688.948L3.36299 689.392L2.70334 689.602Z" fill="white" fill-opacity="0.25"/>
</svg>
