<svg width="75" height="76" viewBox="0 0 75 76" fill="none" xmlns="http://www.w3.org/2000/svg">
<g clip-path="url(#clip0_4380_26855)">
<path d="M37.5 47.8203C42.6777 47.8203 46.875 43.623 46.875 38.4453C46.875 33.2676 42.6777 29.0703 37.5 29.0703C32.3223 29.0703 28.125 33.2676 28.125 38.4453C28.125 43.623 32.3223 47.8203 37.5 47.8203Z" stroke="#044AB4" stroke-width="1.66667" stroke-linecap="round" stroke-linejoin="round"/>
<path opacity="0.2" d="M37.5 47.8203C42.6777 47.8203 46.875 43.623 46.875 38.4453C46.875 33.2676 42.6777 29.0703 37.5 29.0703C32.3223 29.0703 28.125 33.2676 28.125 38.4453C28.125 43.623 32.3223 47.8203 37.5 47.8203Z" fill="#044AB4"/>
<path opacity="0.2" d="M67.9688 19.6953H51.5625L70.3125 36.1016V22.0391C70.3125 21.4175 70.0656 20.8213 69.626 20.3818C69.1865 19.9422 68.5904 19.6953 67.9688 19.6953Z" fill="#044AB4"/>
<path opacity="0.2" d="M67.9688 57.1953C68.5904 57.1953 69.1865 56.9484 69.626 56.5088C70.0656 56.0693 70.3125 55.4732 70.3125 54.8516V40.7891L51.5625 57.1953H67.9688Z" fill="#044AB4"/>
<path opacity="0.2" d="M4.6875 22.0391V36.1016L23.4375 19.6953H7.03125C6.40965 19.6953 5.81351 19.9422 5.37397 20.3818C4.93443 20.8213 4.6875 21.4175 4.6875 22.0391Z" fill="#044AB4"/>
<path opacity="0.2" d="M4.6875 54.8516C4.6875 55.4732 4.93443 56.0693 5.37397 56.5088C5.81351 56.9484 6.40965 57.1953 7.03125 57.1953H23.4375L4.6875 40.7891V54.8516Z" fill="#044AB4"/>
<path d="M67.9688 19.6953H7.03125C5.73683 19.6953 4.6875 20.7446 4.6875 22.0391V54.8516C4.6875 56.146 5.73683 57.1953 7.03125 57.1953H67.9688C69.2632 57.1953 70.3125 56.146 70.3125 54.8516V22.0391C70.3125 20.7446 69.2632 19.6953 67.9688 19.6953Z" stroke="#044AB4" stroke-width="1.66667" stroke-linecap="round" stroke-linejoin="round"/>
<path d="M51.5625 19.6953L70.3125 36.1016" stroke="#044AB4" stroke-width="1.66667" stroke-linecap="round" stroke-linejoin="round"/>
<path d="M51.5625 57.1953L70.3125 40.7891" stroke="#044AB4" stroke-width="1.66667" stroke-linecap="round" stroke-linejoin="round"/>
<path d="M23.4375 19.6953L4.6875 36.1016" stroke="#044AB4" stroke-width="1.66667" stroke-linecap="round" stroke-linejoin="round"/>
<path d="M23.4375 57.1953L4.6875 40.7891" stroke="#044AB4" stroke-width="1.66667" stroke-linecap="round" stroke-linejoin="round"/>
</g>
<defs>
<clipPath id="clip0_4380_26855">
<rect width="75" height="75" fill="white" transform="translate(0 0.945312)"/>
</clipPath>
</defs>
</svg>
