<svg width="48" height="48" viewBox="0 0 48 48" fill="none" xmlns="http://www.w3.org/2000/svg">
<path d="M30.1219 18.0203L29.4484 20.6533H16.6123L17.2858 18.0203H30.1219ZM24.1 35.7704L16.85 25.6016L16.8104 23.6949H20.4156C21.3532 23.6949 22.1521 23.5436 22.8124 23.241C23.4727 22.9307 23.9779 22.4692 24.3278 21.8564C24.6778 21.2359 24.8527 20.4566 24.8527 19.5184C24.8527 18.1338 24.4896 17.0481 23.7633 16.2612C23.0369 15.4668 21.921 15.0696 20.4156 15.0696H16.6123L17.2858 12.5273H20.4156C22.0267 12.5273 23.3473 12.8338 24.3773 13.4466C25.414 14.0519 26.1799 14.8842 26.6751 15.9434C27.177 16.9951 27.4279 18.1868 27.4279 19.5184C27.4279 20.7214 27.1968 21.8299 26.7346 22.8437C26.279 23.85 25.546 24.6596 24.5358 25.2725C23.5322 25.8853 22.205 26.1917 20.5542 26.1917H20.4948L27.1902 35.5889V35.7704H24.1ZM30.1219 12.5273L29.4484 15.1604L19.3459 15.0696L20.0194 12.5273H30.1219Z" fill="url(#paint0_linear_4380_26692)"/>
<path d="M36.9554 46.7572C31.5412 46.7572 27.1978 42.5124 27.1978 37.331C27.1978 32.1496 31.5412 27.9049 36.9554 27.9049C42.3696 27.9049 46.713 32.1496 46.713 37.331C46.713 42.5124 42.3696 46.7572 36.9554 46.7572Z" fill="url(#paint1_linear_4380_26692)" stroke="url(#paint2_linear_4380_26692)" stroke-width="1.66127"/>
<mask id="path-4-inside-1_4380_26692" fill="white">
<path d="M41.1639 35.0139L35.4467 40.5528L32.0156 37.2292L33.1591 36.1215L35.4467 38.3376L40.0204 33.9062L41.1639 35.0139Z"/>
</mask>
<path d="M41.1639 35.0139L35.4467 40.5528L32.0156 37.2292L33.1591 36.1215L35.4467 38.3376L40.0204 33.9062L41.1639 35.0139Z" fill="white"/>
<path d="M35.4467 40.5528L34.2908 41.7461L35.4468 42.8658L36.6027 41.746L35.4467 40.5528ZM41.1639 35.0139L42.3198 36.207L43.5514 35.0138L42.3197 33.8207L41.1639 35.0139ZM40.0204 33.9062L41.1763 32.713L40.0203 31.5932L38.8645 32.7131L40.0204 33.9062ZM35.4467 38.3376L34.2908 39.5308L35.4468 40.6506L36.6027 39.5307L35.4467 38.3376ZM33.1591 36.1215L34.3149 34.9283L33.1591 33.8086L32.0032 34.9283L33.1591 36.1215ZM32.0156 37.2292L30.8598 36.0359L29.628 37.2292L30.8598 38.4224L32.0156 37.2292ZM36.6027 41.746L42.3198 36.207L40.0079 33.8207L34.2908 39.3597L36.6027 41.746ZM42.3197 33.8207L41.1763 32.713L38.8646 35.0995L40.008 36.2071L42.3197 33.8207ZM38.8645 32.7131L34.2907 37.1445L36.6027 39.5307L41.1764 35.0994L38.8645 32.7131ZM36.6026 37.1444L34.3149 34.9283L32.0032 37.3147L34.2908 39.5308L36.6026 37.1444ZM32.0032 34.9283L30.8598 36.0359L33.1715 38.4224L34.3149 37.3147L32.0032 34.9283ZM30.8598 38.4224L34.2908 41.7461L36.6026 39.3596L33.1715 36.0359L30.8598 38.4224Z" fill="white" mask="url(#path-4-inside-1_4380_26692)"/>
<rect x="0.673913" y="1.57235" width="45.3871" height="45.1522" rx="22.5761" stroke="url(#paint3_linear_4380_26692)" stroke-width="1.34783"/>
<defs>
<linearGradient id="paint0_linear_4380_26692" x1="29.3526" y1="149.806" x2="17.175" y2="149.755" gradientUnits="userSpaceOnUse">
<stop stop-color="#CF8E17"/>
<stop offset="0.489583" stop-color="#D7B919"/>
<stop offset="1" stop-color="#CF8E17"/>
</linearGradient>
<linearGradient id="paint1_linear_4380_26692" x1="46.3378" y1="148.232" x2="27.2499" y2="148.09" gradientUnits="userSpaceOnUse">
<stop stop-color="#CF8E17"/>
<stop offset="0.489583" stop-color="#D7B919"/>
<stop offset="1" stop-color="#CF8E17"/>
</linearGradient>
<linearGradient id="paint2_linear_4380_26692" x1="46.3378" y1="148.232" x2="27.2499" y2="148.09" gradientUnits="userSpaceOnUse">
<stop stop-color="#CF8E17"/>
<stop offset="0.489583" stop-color="#D7B919"/>
<stop offset="1" stop-color="#CF8E17"/>
</linearGradient>
<linearGradient id="paint3_linear_4380_26692" x1="44.0736" y1="275.538" x2="1.94804" y2="275.232" gradientUnits="userSpaceOnUse">
<stop stop-color="#CF8E17"/>
<stop offset="0.489583" stop-color="#D7B919"/>
<stop offset="1" stop-color="#CF8E17"/>
</linearGradient>
</defs>
</svg>
