<svg width="325" height="349" viewBox="0 0 325 349" fill="none" xmlns="http://www.w3.org/2000/svg">
<path d="M322.114 348.199L65.41 347.815H0.0947266L26.5709 290.037L53.8584 263.851L91.0873 251.21L108.312 225.646H186.619L217.289 253.546L263.183 269.785L290.004 297.252L290.643 298.288L319.449 344.707L322.114 348.199Z" fill="#7992D5"/>
<path opacity="0.1" d="M324.136 348.516L299.511 342.142L252.634 308.439L194.055 298.812L175.863 271.27L173.24 251.263L149.439 244.707L140.239 225.397H186.616L217.286 253.298L263.179 269.537L290.001 297.004L290.639 298.04L324.136 348.516Z" fill="#DEE5F8"/>
<path d="M109.417 268.124L70.8073 292.803L59.7784 347.228L0.0947266 347.567L26.5709 289.788L53.8584 263.603L91.0873 250.962L108.312 225.397L109.417 268.124Z" fill="#6D85C3"/>
<path d="M161.809 216.201L162.06 210.912L170.556 210.26L170.493 216.665C167.598 216.974 164.53 216.82 161.809 216.201Z" fill="#F9B384"/>
<path d="M161.401 225.339L161.81 216.203C164.532 216.821 167.6 216.976 170.495 216.667L170.479 219.329C174.24 219.861 177.386 221.235 179.699 225.339H161.401Z" fill="#102048"/>
<path d="M137.047 217.305L135.143 225.342H117.317C120.401 221.959 123.768 219.744 127.528 219.229L128.315 217.288C131.1 217.838 133.994 217.872 137.047 217.305Z" fill="#102048"/>
<path d="M128.316 217.286L131.038 210.469L138.559 210.915L137.048 217.303C133.996 217.87 131.101 217.836 128.316 217.286Z" fill="#F9B384"/>
<path d="M174.419 117.202C178.903 148.972 177.629 180.621 171.414 212.545H160.731C162.006 191.835 162.981 167.192 159.992 150.878L139.617 212.82H127.943L147.169 124.638L153.793 110.488L169.29 108.444L174.419 117.202Z" fill="#102048"/>
<path d="M188.651 49.3905L191.515 39.9971L199.287 41.9719C199.885 45.1317 196.392 49.9057 193.796 53.4776L188.651 49.3905Z" fill="#F9B384"/>
<path d="M162.429 82.963L153.477 83.0832L152.595 70.2724L152.485 68.7441L161.485 68.6582L161.799 73.5181L162.429 82.963Z" fill="#F9B384"/>
<path d="M161.752 72.6423C158.826 74.9262 154.987 73.5009 152.595 70.2724L152.485 68.7441L161.485 68.6582L161.752 72.6423Z" fill="#102048"/>
<path d="M159.659 71.5584C155.112 72.6918 150.046 69.5149 148.048 65.2904L147.765 57.7001L150.313 53.7676L161.138 54.7808C161.075 54.7979 161.091 54.9697 161.138 55.2444C161.264 55.9829 161.673 57.5456 162.05 59.4346C162.994 64.0368 163.749 70.5453 159.659 71.5584Z" fill="#F9B384"/>
<path d="M152.041 78.1203C152.041 78.1203 158.728 83.959 164.533 75.6475L175.562 115.591C168.813 120.794 160.269 122.597 150.043 121.138L152.041 78.1203Z" fill="white"/>
<g opacity="0.3">
<path d="M153.479 83.083C154.407 83.4438 155.351 83.6671 156.295 83.7702C157.239 83.8904 158.198 83.8561 159.111 83.6499C160.023 83.461 160.936 83.1518 161.754 82.6364C162.195 82.4303 162.572 82.121 162.997 81.8462C163.406 81.5713 163.768 81.2106 164.177 80.9014C163.862 81.3137 163.548 81.7431 163.202 82.121C162.824 82.4646 162.462 82.8597 162.022 83.1346C161.203 83.7702 160.228 84.1481 159.237 84.3714C157.239 84.7837 155.099 84.3027 153.479 83.083Z" fill="#1F3C88"/>
</g>
<path d="M194.847 52.4626L174.881 91.393C176.691 100.907 179.113 111.794 181.159 119.384C178.641 121.703 174.095 123.592 170.334 124.777C164.12 113.426 162.373 94.9134 161.886 74.9245C164.199 74.3406 166.26 74.0658 168.273 74.186C169.28 74.2375 170.287 73.9284 171.074 73.2415C176.407 68.5706 182.292 58.7822 188.349 47.6543L194.847 52.4626Z" fill="#1F3C88"/>
<path d="M162.045 59.4352C155.17 63.7112 149.459 55.932 149.459 55.932L161.133 55.2451C161.259 55.9835 161.668 57.5462 162.045 59.4352Z" fill="#E28B6D"/>
<path d="M146.099 62.8879C140.293 56.6199 147.106 52.7561 147.106 52.7561C149.245 47.9477 154.012 48.2225 158.858 49.768C160.998 46.8487 163.735 48.7377 164.475 52.3096C165.277 56.2593 161.737 57.7877 161.737 57.7877C156.278 60.4322 152.549 59.711 150.048 56.6199C150.803 60.6383 150.425 62.6475 149.576 63.8324L146.099 62.8879Z" fill="#102048"/>
<path d="M139.644 146.381L138.464 146.089L139.691 140.096L131.604 137.95L130.519 143.41L129.354 143.136L130.676 136.353L141.123 139.134L139.644 146.381Z" fill="#1F3C88"/>
<path d="M140.228 127.648L138.953 134.5C139.504 136.595 139.457 138.346 139.016 139.823C137.758 141.351 135.083 141.42 132.88 139.377C130.678 137.316 133.95 133.967 133.95 133.967C133.95 133.967 134.674 127.802 134.878 127.493L140.228 127.648Z" fill="#F9B384"/>
<path d="M145.642 145.968L142.401 160.891L141.158 166.661L120.186 158.057L122.955 145.47L124.26 139.477L145.642 145.968Z" fill="#ACBFEE"/>
<path d="M204.392 46.676L193.269 54.043L192.766 49.7671L201.167 44.2031L204.392 46.676Z" fill="#6F3428"/>
<path d="M198.39 46.0389L195.543 47.9279L188.762 37.4183L192.994 34.6191L198.39 46.0389Z" fill="#BB9132"/>
<path d="M193.557 34.2397L188.192 37.7944C186.996 38.5844 185.439 38.3096 184.542 37.1247L175.574 25.2756L189.231 16.2256L194.706 30.393C195.241 31.8183 194.753 33.4498 193.557 34.2397Z" fill="#FBC343"/>
<path d="M192.896 26.772L192.156 26.4286C194.217 21.0192 193.856 16.623 192.345 15.6441C191.559 15.1461 190.473 15.73 189.356 17.2755L188.727 16.7432C190.693 14.0127 192.204 14.5451 192.754 14.8885C194.595 16.0735 195.161 20.8475 192.896 26.772Z" fill="#FBC343"/>
<path d="M182.213 33.8499C176.344 33.3004 172.741 30.5528 172.631 28.2173C172.6 27.5132 172.867 25.8303 175.998 25.1777L176.14 26.0364C174.377 26.397 173.386 27.1869 173.433 28.1829C173.512 30.0891 176.926 32.4761 182.275 32.9913L182.213 33.8499Z" fill="#FBC343"/>
<path opacity="0.6" d="M187.19 23.9043C186.718 23.0111 186.749 22.0491 187.253 21.7227C187.74 21.4135 188.527 21.8773 188.999 22.7706C189.471 23.6638 189.455 24.6258 188.952 24.9522C188.448 25.2614 187.662 24.7976 187.19 23.9043Z" fill="white"/>
<path d="M199.292 41.747C199.481 43.2754 198.616 44.6149 196.759 44.6149C195.595 44.6149 193.975 42.8804 193.644 40.8369C193.361 39.1368 193.959 38.0206 195.044 37.5226C196.177 37.0246 198.931 38.8964 199.292 41.747Z" fill="#F9B384"/>
<path d="M173.23 18.8581L163.476 15.4911L163.853 14.1855L173.608 17.5353L173.23 18.8581Z" fill="#FBC343"/>
<path d="M184.199 11.4721L182.956 11.2317L184.734 0.241211L185.961 0.481627L184.199 11.4721Z" fill="#FBC343"/>
<path d="M176.912 13.2744L171.405 3.881L172.459 3.14258L177.966 12.536L176.912 13.2744Z" fill="#FBC343"/>
<path d="M140.749 132.007L132.253 130.926C134.408 101.955 138.499 82.4644 153.005 76.5742C158.716 92.4246 160.573 110.044 159.802 125.791C159.802 125.791 153.792 129.002 144.839 129.449L146.444 103.054L140.749 132.007Z" fill="#1F3C88"/>
<path d="M149.717 66.4594C146.98 67.5241 145.233 67.2836 145.092 64.433C145.013 62.8016 146.555 61.4965 147.908 62.1834C148.506 62.4925 149.056 63.0592 149.576 63.8319L149.717 66.4594Z" fill="#F9B384"/>
<path opacity="0.1" d="M142.401 160.892L141.158 166.662L120.186 158.058L122.955 145.471C125.535 151.292 130.994 158.522 142.401 160.892Z" fill="#102048"/>
<path d="M173.075 82.3799C173.437 83.6335 173.736 84.9043 174.051 86.175C174.366 87.4286 174.633 88.6994 174.9 89.9874C175.184 91.2581 175.435 92.5289 175.656 93.8169C175.892 95.1048 176.112 96.3928 176.269 97.6979L175.97 97.7666C175.593 96.513 175.294 95.2594 174.979 93.9886C174.68 92.7178 174.397 91.447 174.13 90.1763C173.862 88.9055 173.61 87.6175 173.39 86.3296C173.154 85.0416 172.934 83.7537 172.761 82.4657L173.075 82.3799Z" fill="#102048"/>
<path d="M146.863 94.1754C146.894 95.429 146.894 96.6998 146.863 97.9705C146.863 99.2413 146.815 100.495 146.768 101.766C146.705 103.019 146.642 104.29 146.548 105.544C146.453 106.814 146.343 108.068 146.186 109.339L145.871 109.322C145.824 108.051 145.84 106.78 145.856 105.509C145.871 104.256 145.903 102.985 145.966 101.714C146.029 100.461 146.092 99.1898 146.202 97.9362C146.28 96.6654 146.391 95.4118 146.548 94.1582L146.863 94.1754Z" fill="#102048"/>
<path d="M158.035 156.356C158.397 154.914 158.806 153.489 159.215 152.063C159.624 150.638 160.096 149.23 160.521 147.822C160.972 146.414 161.439 145.011 161.921 143.614C162.409 142.206 162.897 140.815 163.447 139.441L163.746 139.562C163.4 141.004 162.991 142.429 162.582 143.855C162.152 145.274 161.717 146.688 161.276 148.096C160.804 149.505 160.364 150.913 159.86 152.304C159.372 153.712 158.885 155.103 158.334 156.477L158.035 156.356Z" fill="#708CD5"/>
<path d="M148.08 64.878C147.938 64.6547 147.797 64.4314 147.671 64.2424C147.529 64.0362 147.388 63.8301 147.23 63.6927C147.073 63.5381 146.931 63.4694 146.79 63.5037C146.617 63.5381 146.459 63.727 146.271 63.8816L146.113 63.7786C146.223 63.5209 146.334 63.246 146.648 63.0914C146.979 62.9197 147.34 63.1086 147.545 63.3148C147.938 63.7442 148.159 64.2596 148.253 64.8093L148.08 64.878Z" fill="#102048"/>
<path d="M191.816 44.737C191.061 44.342 191.392 42.6076 191.69 41.4055C191.974 40.2034 192.713 39.6367 193.185 39.7741C193.673 39.9115 193.814 40.9933 193.531 42.2126C193.232 43.4147 193.138 45.4239 191.816 44.737Z" fill="#F9B384"/>
<path d="M298.241 197.665C298.241 198.332 298.129 198.963 297.92 199.559H279.24C279.224 199.559 279.224 199.541 279.208 199.524C279.208 199.535 279.202 199.547 279.191 199.559C279.191 199.559 278.694 199.559 277.778 199.576C268.542 199.629 216.854 199.944 216.854 199.454C216.854 193.703 220.886 189.04 225.849 189.04C227.022 189.04 228.13 189.303 229.142 189.759C230.09 188.882 231.294 188.356 232.595 188.356C234.491 188.356 236.161 189.46 237.173 191.126C237.173 191.108 237.189 191.073 237.205 191.038C238.169 188.794 240.048 186.918 242.474 185.674C244.417 184.692 246.714 184.113 249.188 184.113C249.894 184.113 250.59 184.16 251.276 184.254C253.894 178.678 259.001 174.892 264.864 174.892C272.381 174.892 278.645 181.098 280.043 189.32C280.894 188.707 281.89 188.356 282.95 188.356C285.086 188.356 286.949 189.759 287.865 191.81C288.797 191.442 289.809 191.249 290.885 191.249C293.792 191.249 296.298 192.721 297.502 194.843C297.968 195.702 298.241 196.648 298.241 197.665Z" fill="#FAFBFB"/>
<path opacity="0.4" d="M297.502 194.843C295.109 194.159 292.555 194.177 290.065 194.212C284.508 194.282 278.95 194.352 273.377 194.422C266.727 194.51 260.784 190.337 253.974 191.021C250.713 191.354 247.388 192.791 244.256 193.002C241.767 193.16 238.747 192.686 237.205 191.038C238.169 188.794 240.048 186.918 242.473 185.674C244.417 184.692 246.714 184.113 249.187 184.113C249.894 184.113 250.59 184.16 251.275 184.254C253.894 178.678 259.001 174.892 264.864 174.892C272.381 174.892 278.645 181.098 280.043 189.32C280.894 188.707 281.89 188.356 282.95 188.356C285.086 188.356 286.949 189.759 287.865 191.81C288.797 191.442 289.808 191.249 290.885 191.249C293.792 191.249 296.298 192.721 297.502 194.843Z" fill="white"/>
<path d="M56.3614 236.584C56.3614 237.023 56.2811 237.444 56.1366 237.829H43.8812C43.8705 237.829 43.8598 237.823 43.8491 237.812V237.829C43.8491 237.829 2.92285 238.127 2.92285 237.759C2.92285 233.99 5.55703 230.922 8.8337 230.922C9.58862 230.922 10.3114 231.097 10.986 231.395C11.6124 230.817 12.3995 230.483 13.2508 230.483C14.4876 230.483 15.5958 231.185 16.2544 232.289C17.1378 230.168 19.2741 228.52 21.9564 227.924C22.6471 227.766 23.386 227.678 24.1409 227.678C24.612 227.678 25.0725 227.713 25.5222 227.784C27.2409 224.119 30.5818 221.63 34.4367 221.63C39.3838 221.63 43.4957 225.715 44.4112 231.097C44.9574 230.694 45.6159 230.483 46.3226 230.483C47.72 230.483 48.9407 231.395 49.535 232.745C50.1454 232.5 50.82 232.359 51.5267 232.359C54.1931 232.359 56.3614 234.253 56.3614 236.584Z" fill="#FAFBFB"/>
<path opacity="0.4" d="M56.3591 236.584C56.3591 237.023 56.2788 237.444 56.1342 237.829H49.0348C48.6011 237.093 48.2799 236.251 47.7498 235.585C45.3244 232.552 40.2649 234.972 37.3416 232.535C36.8115 232.096 36.3779 231.518 35.8157 231.115C34.1131 229.87 31.8644 230.641 29.8888 231.237C27.8649 231.833 25.6002 232.166 23.7852 231.027C22.8214 230.413 22.0665 229.169 21.9541 227.924C22.6448 227.766 23.3836 227.678 24.1385 227.678C24.6097 227.678 25.0701 227.713 25.5199 227.784C27.2385 224.119 30.5794 221.63 34.4343 221.63C39.3815 221.63 43.4934 225.715 44.4089 231.097C44.955 230.694 45.6136 230.483 46.3203 230.483C47.7177 230.483 48.9384 231.395 49.5327 232.745C50.1431 232.5 50.8177 232.359 51.5244 232.359C54.1907 232.359 56.3591 234.253 56.3591 236.584Z" fill="white"/>
<path d="M94.8624 138.564C94.8624 139.09 34.4368 138.669 34.4368 138.669C34.4368 138.652 34.4368 138.652 34.4368 138.634C34.4207 138.652 34.4047 138.652 34.3886 138.669H16.2866C16.0939 138.091 15.9814 137.459 15.9814 136.828C15.9814 133.392 19.1617 130.605 23.097 130.605C24.141 130.605 25.1368 130.797 26.0363 131.148C26.9197 129.167 28.7187 127.817 30.8068 127.817C31.8347 127.817 32.7985 128.15 33.6016 128.729C34.9668 120.769 41.0383 114.756 48.3144 114.756C48.368 114.756 48.4215 114.762 48.4751 114.773C54.0968 114.826 58.9797 118.473 61.5014 123.82C62.16 123.732 62.8346 123.68 63.5252 123.68C68.9221 123.68 73.5159 126.52 75.1703 130.482C76.15 128.869 77.7723 127.817 79.6034 127.817C80.8562 127.817 82.0288 128.308 82.9443 129.167C83.9402 128.729 85.0163 128.483 86.1407 128.483C89.6261 128.483 92.6298 130.85 94.0272 134.269C94.5572 135.566 94.8624 137.021 94.8624 138.564Z" fill="#FAFBFB"/>
<path opacity="0.4" d="M94.0271 134.267C91.3126 135.266 88.2447 135.389 85.3375 135.459C78.5432 135.617 71.3314 135.669 65.549 131.777C63.5412 130.427 61.7744 128.639 59.6221 127.622C56.0081 125.922 51.3662 126.377 48.7159 123.222C46.9973 121.171 46.676 117.857 47.9931 115.49C48.1377 115.227 48.2983 114.982 48.475 114.771C54.0967 114.824 58.9796 118.471 61.5013 123.818C62.1599 123.73 62.8345 123.678 63.5252 123.678C68.922 123.678 73.5158 126.518 75.1702 130.48C76.15 128.867 77.7723 127.815 79.6033 127.815C80.8562 127.815 82.0287 128.306 82.9442 129.165C83.9401 128.727 85.0163 128.481 86.1406 128.481C89.6261 128.481 92.6297 130.848 94.0271 134.267Z" fill="white"/>
</svg>
