<svg width="75" height="76" viewBox="0 0 75 76" fill="none" xmlns="http://www.w3.org/2000/svg">
<g clip-path="url(#clip0_4380_26840)">
<path opacity="0.2" d="M37.5 53.6797C43.9721 53.6797 49.2188 48.433 49.2188 41.9609C49.2188 35.4889 43.9721 30.2422 37.5 30.2422C31.0279 30.2422 25.7812 35.4889 25.7812 41.9609C25.7812 48.433 31.0279 53.6797 37.5 53.6797Z" fill="#044AB4"/>
<path opacity="0.2" d="M17.5781 34.9297C22.7558 34.9297 26.9531 30.7324 26.9531 25.5547C26.9531 20.377 22.7558 16.1797 17.5781 16.1797C12.4005 16.1797 8.20312 20.377 8.20312 25.5547C8.20312 30.7324 12.4005 34.9297 17.5781 34.9297Z" fill="#044AB4"/>
<path opacity="0.2" d="M57.4219 34.9297C62.5995 34.9297 66.7969 30.7324 66.7969 25.5547C66.7969 20.377 62.5995 16.1797 57.4219 16.1797C52.2442 16.1797 48.0469 20.377 48.0469 25.5547C48.0469 30.7324 52.2442 34.9297 57.4219 34.9297Z" fill="#044AB4"/>
<path d="M37.5 53.6797C43.9721 53.6797 49.2188 48.433 49.2188 41.9609C49.2188 35.4889 43.9721 30.2422 37.5 30.2422C31.0279 30.2422 25.7812 35.4889 25.7812 41.9609C25.7812 48.433 31.0279 53.6797 37.5 53.6797Z" stroke="#044AB4" stroke-width="1.66667" stroke-linecap="round" stroke-linejoin="round"/>
<path d="M57.4219 34.9297C60.1516 34.9251 62.8446 35.5585 65.2862 36.7793C67.7277 38 69.8502 39.7744 71.4844 41.961" stroke="#044AB4" stroke-width="1.66667" stroke-linecap="round" stroke-linejoin="round"/>
<path d="M3.51562 41.961C5.1498 39.7744 7.2723 38 9.71384 36.7793C12.1554 35.5585 14.8484 34.9251 17.5781 34.9297" stroke="#044AB4" stroke-width="1.66667" stroke-linecap="round" stroke-linejoin="round"/>
<path d="M20.625 64.2269C22.1684 61.066 24.5686 58.4022 27.5521 56.5388C30.5356 54.6755 33.9824 53.6875 37.5 53.6875C41.0176 53.6875 44.4644 54.6755 47.4479 56.5388C50.4314 58.4022 52.8316 61.066 54.375 64.2269" stroke="#044AB4" stroke-width="1.66667" stroke-linecap="round" stroke-linejoin="round"/>
<path d="M17.5779 34.9297C15.7985 34.9315 14.0554 34.4269 12.5521 33.4748C11.0489 32.5227 9.84766 31.1625 9.08877 29.5531C8.32988 27.9437 8.04468 26.1515 8.26649 24.386C8.48831 22.6205 9.20798 20.9546 10.3414 19.5829C11.4748 18.2113 12.9752 17.1905 14.6673 16.6399C16.3593 16.0892 18.1731 16.0315 19.8967 16.4734C21.6203 16.9153 23.1826 17.8386 24.401 19.1355C25.6193 20.4323 26.4435 22.0491 26.7771 23.7969" stroke="#044AB4" stroke-width="1.66667" stroke-linecap="round" stroke-linejoin="round"/>
<path d="M48.2227 23.7969C48.5563 22.0491 49.3804 20.4323 50.5988 19.1355C51.8172 17.8386 53.3794 16.9153 55.103 16.4734C56.8267 16.0315 58.6405 16.0892 60.3325 16.6399C62.0245 17.1905 63.5249 18.2113 64.6583 19.5829C65.7918 20.9546 66.5114 22.6205 66.7333 24.386C66.9551 26.1515 66.6699 27.9437 65.911 29.5531C65.1521 31.1625 63.9508 32.5227 62.4476 33.4748C60.9444 34.4269 59.2012 34.9315 57.4219 34.9297" stroke="#044AB4" stroke-width="1.66667" stroke-linecap="round" stroke-linejoin="round"/>
</g>
<defs>
<clipPath id="clip0_4380_26840">
<rect width="75" height="75" fill="white" transform="translate(0 0.945312)"/>
</clipPath>
</defs>
</svg>
