<svg width="239" height="53" viewBox="0 0 239 53" fill="none" xmlns="http://www.w3.org/2000/svg">
<path d="M56.7969 47.2554L59.841 39.4019H61.0767L64.0984 47.2554H62.8066L61.0093 42.5209C60.9868 42.4685 60.9419 42.3414 60.8745 42.1394C60.8146 41.9375 60.7434 41.7131 60.661 41.4663C60.5787 41.2194 60.5038 40.995 60.4364 40.7931C60.369 40.5837 60.3241 40.449 60.3016 40.3892L60.56 40.378C60.515 40.5051 60.4589 40.6659 60.3915 40.8604C60.3315 41.0549 60.2641 41.2606 60.1893 41.4775C60.1219 41.6944 60.0545 41.9001 59.9871 42.0945C59.9197 42.2815 59.8635 42.4386 59.8186 42.5658L58.0325 47.2554H56.7969ZM58.1448 45.3033L58.5942 44.1365H62.1663L62.683 45.3033H58.1448Z" fill="#656575"/>
<path d="M68.3385 49.7237V41.3653H69.5067V42.7116L69.327 42.6106C69.3719 42.3862 69.4993 42.1731 69.7089 41.9711C69.9186 41.7617 70.1732 41.5934 70.4728 41.4663C70.7798 41.3316 71.0943 41.2643 71.4164 41.2643C71.9481 41.2643 72.4198 41.3952 72.8317 41.657C73.2436 41.9188 73.5694 42.2778 73.809 42.734C74.0486 43.1903 74.1685 43.7139 74.1685 44.3048C74.1685 44.8882 74.0486 45.4117 73.809 45.8755C73.5769 46.3317 73.2548 46.6945 72.843 46.9637C72.4311 47.2255 71.9668 47.3564 71.4501 47.3564C71.1056 47.3564 70.7723 47.2891 70.4503 47.1545C70.1283 47.0124 69.855 46.8328 69.6303 46.6159C69.4056 46.399 69.2671 46.1746 69.2147 45.9428L69.5067 45.7857V49.7237H68.3385ZM71.2591 46.2906C71.6036 46.2906 71.9106 46.2046 72.1802 46.0325C72.4498 45.8605 72.6632 45.6249 72.8205 45.3257C72.9778 45.0265 73.0564 44.6862 73.0564 44.3048C73.0564 43.9233 72.9778 43.5867 72.8205 43.295C72.6707 42.9958 72.461 42.7602 72.1914 42.5882C71.9218 42.4162 71.6111 42.3301 71.2591 42.3301C70.9071 42.3301 70.5963 42.4162 70.3268 42.5882C70.0572 42.7527 69.8437 42.9846 69.6865 43.2838C69.5292 43.583 69.4506 43.9233 69.4506 44.3048C69.4506 44.6862 69.5292 45.0265 69.6865 45.3257C69.8437 45.6249 70.0572 45.8605 70.3268 46.0325C70.5963 46.2046 70.9071 46.2906 71.2591 46.2906Z" fill="#656575"/>
<path d="M75.425 47.2554V41.3653H76.5932V43.2165L76.4809 42.7677C76.5633 42.4835 76.7018 42.2254 76.8965 41.9936C77.0987 41.7617 77.3271 41.5785 77.5817 41.4438C77.8438 41.3092 78.1134 41.2419 78.3905 41.2419C78.5178 41.2419 78.6376 41.2531 78.75 41.2755C78.8698 41.298 78.9634 41.3241 79.0308 41.3541L78.7275 42.6106C78.6376 42.5732 78.5365 42.5433 78.4242 42.5209C78.3194 42.491 78.2145 42.476 78.1097 42.476C77.9075 42.476 77.7128 42.5171 77.5256 42.5994C77.3458 42.6742 77.1848 42.7827 77.0425 42.9248C76.9077 43.0594 76.7992 43.2202 76.7168 43.4072C76.6344 43.5867 76.5932 43.7849 76.5932 44.0018V47.2554H75.425Z" fill="#656575"/>
<path d="M82.3542 47.3676C81.7776 47.3676 81.2609 47.2367 80.804 46.975C80.3547 46.7057 79.999 46.3429 79.7369 45.8867C79.4748 45.423 79.3437 44.8956 79.3437 44.3048C79.3437 43.7139 79.4748 43.1903 79.7369 42.734C79.999 42.2703 80.3547 41.9076 80.804 41.6458C81.2609 41.3765 81.7776 41.2419 82.3542 41.2419C82.9233 41.2419 83.4326 41.3765 83.8819 41.6458C84.3387 41.9076 84.6982 42.2703 84.9603 42.734C85.2224 43.1903 85.3534 43.7139 85.3534 44.3048C85.3534 44.8956 85.2224 45.423 84.9603 45.8867C84.6982 46.3429 84.3387 46.7057 83.8819 46.975C83.4326 47.2367 82.9233 47.3676 82.3542 47.3676ZM82.3542 46.313C82.7062 46.313 83.0207 46.227 83.2978 46.055C83.5749 45.8755 83.792 45.6361 83.9493 45.3369C84.1066 45.0303 84.1815 44.6862 84.174 44.3048C84.1815 43.9158 84.1066 43.5718 83.9493 43.2726C83.792 42.9659 83.5749 42.7266 83.2978 42.5545C83.0207 42.3825 82.7062 42.2965 82.3542 42.2965C82.0022 42.2965 81.684 42.3862 81.3994 42.5658C81.1223 42.7378 80.9051 42.9771 80.7479 43.2838C80.5906 43.583 80.5157 43.9233 80.5232 44.3048C80.5157 44.6862 80.5906 45.0303 80.7479 45.3369C80.9051 45.6361 81.1223 45.8755 81.3994 46.055C81.684 46.227 82.0022 46.313 82.3542 46.313Z" fill="#656575"/>
<path d="M89.0742 47.3676C88.535 47.3676 88.052 47.2367 87.6251 46.975C87.2058 46.7057 86.8725 46.3429 86.6254 45.8867C86.3783 45.423 86.2547 44.8956 86.2547 44.3048C86.2547 43.7139 86.3745 43.1903 86.6142 42.734C86.8613 42.2703 87.1945 41.9076 87.6139 41.6458C88.0333 41.3765 88.5088 41.2419 89.0405 41.2419C89.3326 41.2419 89.6134 41.2905 89.883 41.3877C90.1601 41.4775 90.4072 41.6046 90.6244 41.7692C90.8415 41.9263 91.01 42.102 91.1299 42.2965C91.2572 42.4835 91.3208 42.6742 91.3208 42.8687L90.9838 42.8911V38.9531H92.1408V47.2554H90.9838V45.853H91.2085C91.2085 46.0325 91.1486 46.212 91.0288 46.3916C90.9089 46.5636 90.7479 46.7244 90.5457 46.874C90.351 47.0236 90.1226 47.1433 89.8605 47.233C89.6059 47.3228 89.3438 47.3676 89.0742 47.3676ZM89.2315 46.3691C89.5834 46.3691 89.8942 46.2794 90.1638 46.0999C90.4334 45.9203 90.6431 45.6773 90.7929 45.3706C90.9501 45.0565 91.0288 44.7012 91.0288 44.3048C91.0288 43.9083 90.9501 43.5568 90.7929 43.2501C90.6431 42.936 90.4334 42.6892 90.1638 42.5097C89.8942 42.3301 89.5834 42.2404 89.2315 42.2404C88.8795 42.2404 88.5687 42.3301 88.2991 42.5097C88.0295 42.6892 87.8161 42.936 87.6588 43.2501C87.5091 43.5568 87.4342 43.9083 87.4342 44.3048C87.4342 44.7012 87.5091 45.0565 87.6588 45.3706C87.8161 45.6773 88.0295 45.9203 88.2991 46.0999C88.5687 46.2794 88.8795 46.3691 89.2315 46.3691Z" fill="#656575"/>
<path d="M95.976 47.3676C95.5566 47.3676 95.1897 47.2704 94.8751 47.0759C94.5681 46.8815 94.3284 46.6085 94.1562 46.2569C93.9915 45.9054 93.9091 45.4865 93.9091 45.0004V41.3653H95.0661V44.6862C95.0661 45.0303 95.1185 45.3295 95.2233 45.5838C95.3357 45.8306 95.4929 46.0213 95.6951 46.1559C95.9048 46.2906 96.1557 46.3579 96.4478 46.3579C96.6649 46.3579 96.8634 46.3242 97.0431 46.2569C97.2228 46.1821 97.3764 46.0812 97.5037 45.954C97.6385 45.8268 97.7433 45.6735 97.8182 45.494C97.8931 45.3145 97.9305 45.12 97.9305 44.9106V41.3653H99.0875V47.2554H97.9305V46.0213L98.1327 45.8867C98.0429 46.1634 97.8893 46.414 97.6722 46.6384C97.4625 46.8628 97.2116 47.0423 96.9195 47.1769C96.6275 47.3041 96.313 47.3676 95.976 47.3676Z" fill="#656575"/>
<path d="M103.215 47.3676C102.669 47.3676 102.178 47.233 101.744 46.9637C101.317 46.6945 100.976 46.328 100.722 45.8642C100.474 45.4005 100.351 44.8807 100.351 44.3048C100.351 43.7288 100.474 43.209 100.722 42.7453C100.976 42.2815 101.317 41.915 101.744 41.6458C102.178 41.3765 102.669 41.2419 103.215 41.2419C103.74 41.2419 104.215 41.3503 104.642 41.5672C105.076 41.7767 105.406 42.0646 105.63 42.4311L104.99 43.2165C104.87 43.0444 104.717 42.8874 104.53 42.7453C104.342 42.6032 104.144 42.491 103.934 42.4087C103.725 42.3264 103.522 42.2853 103.328 42.2853C102.968 42.2853 102.646 42.375 102.362 42.5545C102.085 42.7266 101.864 42.9659 101.699 43.2726C101.534 43.5792 101.452 43.9233 101.452 44.3048C101.452 44.6862 101.538 45.0303 101.71 45.3369C101.882 45.6361 102.111 45.8755 102.395 46.055C102.68 46.2345 102.994 46.3242 103.339 46.3242C103.541 46.3242 103.736 46.2906 103.923 46.2233C104.118 46.1559 104.305 46.055 104.485 45.9203C104.664 45.7857 104.833 45.6212 104.99 45.4267L105.63 46.212C105.391 46.5486 105.046 46.8254 104.597 47.0423C104.155 47.2592 103.695 47.3676 103.215 47.3676Z" fill="#656575"/>
<path d="M107.452 47.2554V39.8619H108.609V47.2554H107.452ZM106.228 42.4872V41.3653H109.979V42.4872H106.228Z" fill="#656575"/>
<path d="M116.641 47.3676C116.102 47.3676 115.619 47.2367 115.192 46.975C114.773 46.7057 114.44 46.3429 114.192 45.8867C113.945 45.423 113.822 44.8956 113.822 44.3048C113.822 43.7139 113.942 43.1903 114.181 42.734C114.428 42.2703 114.762 41.9076 115.181 41.6458C115.6 41.3765 116.076 41.2419 116.608 41.2419C116.9 41.2419 117.18 41.2905 117.45 41.3877C117.727 41.4775 117.974 41.6046 118.191 41.7692C118.409 41.9263 118.577 42.102 118.697 42.2965C118.824 42.4835 118.888 42.6742 118.888 42.8687L118.551 42.8911V38.9531H119.708V47.2554H118.551V45.853H118.776C118.776 46.0325 118.716 46.212 118.596 46.3916C118.476 46.5636 118.315 46.7244 118.113 46.874C117.918 47.0236 117.69 47.1433 117.428 47.233C117.173 47.3228 116.911 47.3676 116.641 47.3676ZM116.799 46.3691C117.151 46.3691 117.461 46.2794 117.731 46.0999C118 45.9203 118.21 45.6773 118.36 45.3706C118.517 45.0565 118.596 44.7012 118.596 44.3048C118.596 43.9083 118.517 43.5568 118.36 43.2501C118.21 42.936 118 42.6892 117.731 42.5097C117.461 42.3301 117.151 42.2404 116.799 42.2404C116.447 42.2404 116.136 42.3301 115.866 42.5097C115.597 42.6892 115.383 42.936 115.226 43.2501C115.076 43.5568 115.001 43.9083 115.001 44.3048C115.001 44.7012 115.076 45.0565 115.226 45.3706C115.383 45.6773 115.597 45.9203 115.866 46.0999C116.136 46.2794 116.447 46.3691 116.799 46.3691Z" fill="#656575"/>
<path d="M124.053 47.3676C123.446 47.3676 122.907 47.2405 122.435 46.9862C121.971 46.7244 121.604 46.3691 121.334 45.9203C121.072 45.4716 120.941 44.9555 120.941 44.3721C120.941 43.9083 121.016 43.4857 121.166 43.1043C121.316 42.7228 121.522 42.3937 121.784 42.117C122.053 41.8328 122.372 41.6159 122.738 41.4663C123.113 41.3092 123.517 41.2307 123.952 41.2307C124.334 41.2307 124.689 41.3054 125.019 41.455C125.348 41.5972 125.633 41.7954 125.873 42.0497C126.12 42.304 126.307 42.6069 126.434 42.9584C126.569 43.3025 126.633 43.6802 126.625 44.0916L126.614 44.5852H121.795L121.537 43.6653H125.614L125.446 43.856V43.5867C125.423 43.3399 125.341 43.1192 125.199 42.9248C125.056 42.7303 124.877 42.577 124.659 42.4648C124.442 42.3526 124.206 42.2965 123.952 42.2965C123.547 42.2965 123.207 42.375 122.929 42.5321C122.652 42.6817 122.443 42.9061 122.3 43.2053C122.158 43.497 122.087 43.8597 122.087 44.2935C122.087 44.7049 122.173 45.0639 122.345 45.3706C122.518 45.6698 122.761 45.9016 123.075 46.0662C123.39 46.2307 123.753 46.313 124.165 46.313C124.457 46.313 124.727 46.2644 124.974 46.1672C125.228 46.0699 125.502 45.8942 125.794 45.6399L126.378 46.4589C126.198 46.6384 125.977 46.7955 125.715 46.9301C125.461 47.0647 125.187 47.1732 124.895 47.2554C124.611 47.3302 124.33 47.3676 124.053 47.3676Z" fill="#656575"/>
<path d="M129.705 47.2554L127.211 41.3653H128.458L130.255 45.7745L130.042 45.8755L131.963 41.3653H133.153L130.536 47.2554H129.705Z" fill="#656575"/>
<path d="M136.8 47.3676C136.193 47.3676 135.654 47.2405 135.182 46.9862C134.718 46.7244 134.351 46.3691 134.081 45.9203C133.819 45.4716 133.688 44.9555 133.688 44.3721C133.688 43.9083 133.763 43.4857 133.913 43.1043C134.063 42.7228 134.268 42.3937 134.531 42.117C134.8 41.8328 135.118 41.6159 135.485 41.4663C135.86 41.3092 136.264 41.2307 136.699 41.2307C137.08 41.2307 137.436 41.3054 137.766 41.455C138.095 41.5972 138.38 41.7954 138.619 42.0497C138.867 42.304 139.054 42.6069 139.181 42.9584C139.316 43.3025 139.38 43.6802 139.372 44.0916L139.361 44.5852H134.542L134.283 43.6653H138.361L138.193 43.856V43.5867C138.17 43.3399 138.088 43.1192 137.945 42.9248C137.803 42.7303 137.623 42.577 137.406 42.4648C137.189 42.3526 136.953 42.2965 136.699 42.2965C136.294 42.2965 135.953 42.375 135.676 42.5321C135.399 42.6817 135.19 42.9061 135.047 43.2053C134.905 43.497 134.834 43.8597 134.834 44.2935C134.834 44.7049 134.92 45.0639 135.092 45.3706C135.264 45.6698 135.508 45.9016 135.822 46.0662C136.137 46.2307 136.5 46.313 136.912 46.313C137.204 46.313 137.474 46.2644 137.721 46.1672C137.975 46.0699 138.249 45.8942 138.541 45.6399L139.125 46.4589C138.945 46.6384 138.724 46.7955 138.462 46.9301C138.208 47.0647 137.934 47.1732 137.642 47.2554C137.358 47.3302 137.077 47.3676 136.8 47.3676Z" fill="#656575"/>
<path d="M140.652 47.2554V38.9531H141.809V47.2554H140.652Z" fill="#656575"/>
<path d="M145.99 47.3676C145.413 47.3676 144.897 47.2367 144.44 46.975C143.99 46.7057 143.635 46.3429 143.373 45.8867C143.111 45.423 142.979 44.8956 142.979 44.3048C142.979 43.7139 143.111 43.1903 143.373 42.734C143.635 42.2703 143.99 41.9076 144.44 41.6458C144.897 41.3765 145.413 41.2419 145.99 41.2419C146.559 41.2419 147.068 41.3765 147.518 41.6458C147.974 41.9076 148.334 42.2703 148.596 42.734C148.858 43.1903 148.989 43.7139 148.989 44.3048C148.989 44.8956 148.858 45.423 148.596 45.8867C148.334 46.3429 147.974 46.7057 147.518 46.975C147.068 47.2367 146.559 47.3676 145.99 47.3676ZM145.99 46.313C146.342 46.313 146.656 46.227 146.934 46.055C147.211 45.8755 147.428 45.6361 147.585 45.3369C147.742 45.0303 147.817 44.6862 147.81 44.3048C147.817 43.9158 147.742 43.5718 147.585 43.2726C147.428 42.9659 147.211 42.7266 146.934 42.5545C146.656 42.3825 146.342 42.2965 145.99 42.2965C145.638 42.2965 145.32 42.3862 145.035 42.5658C144.758 42.7378 144.541 42.9771 144.384 43.2838C144.226 43.583 144.151 43.9233 144.159 44.3048C144.151 44.6862 144.226 45.0303 144.384 45.3369C144.541 45.6361 144.758 45.8755 145.035 46.055C145.32 46.227 145.638 46.313 145.99 46.313Z" fill="#656575"/>
<path d="M150.25 49.7237V41.3653H151.418V42.7116L151.238 42.6106C151.283 42.3862 151.411 42.1731 151.62 41.9711C151.83 41.7617 152.085 41.5934 152.384 41.4663C152.691 41.3316 153.006 41.2643 153.328 41.2643C153.859 41.2643 154.331 41.3952 154.743 41.657C155.155 41.9188 155.481 42.2778 155.72 42.734C155.96 43.1903 156.08 43.7139 156.08 44.3048C156.08 44.8882 155.96 45.4117 155.72 45.8755C155.488 46.3317 155.166 46.6945 154.754 46.9637C154.343 47.2255 153.878 47.3564 153.361 47.3564C153.017 47.3564 152.684 47.2891 152.362 47.1545C152.04 47.0124 151.766 46.8328 151.542 46.6159C151.317 46.399 151.179 46.1746 151.126 45.9428L151.418 45.7857V49.7237H150.25ZM153.171 46.2906C153.515 46.2906 153.822 46.2046 154.092 46.0325C154.361 45.8605 154.575 45.6249 154.732 45.3257C154.889 45.0265 154.968 44.6862 154.968 44.3048C154.968 43.9233 154.889 43.5867 154.732 43.295C154.582 42.9958 154.372 42.7602 154.103 42.5882C153.833 42.4162 153.522 42.3301 153.171 42.3301C152.819 42.3301 152.508 42.4162 152.238 42.5882C151.969 42.7527 151.755 42.9846 151.598 43.2838C151.441 43.583 151.362 43.9233 151.362 44.3048C151.362 44.6862 151.441 45.0265 151.598 45.3257C151.755 45.6249 151.969 45.8605 152.238 46.0325C152.508 46.2046 152.819 46.2906 153.171 46.2906Z" fill="#656575"/>
<path d="M157.314 47.2554V41.3653H158.482V42.6219L158.269 42.7565C158.329 42.562 158.422 42.375 158.55 42.1955C158.684 42.016 158.845 41.8589 159.033 41.7243C159.227 41.5822 159.433 41.47 159.65 41.3877C159.875 41.3054 160.103 41.2643 160.336 41.2643C160.673 41.2643 160.968 41.3204 161.223 41.4326C161.478 41.5448 161.687 41.7131 161.852 41.9375C162.017 42.1619 162.137 42.4423 162.212 42.7789L162.032 42.734L162.11 42.5433C162.193 42.3713 162.305 42.2105 162.447 42.0609C162.597 41.9038 162.766 41.7654 162.953 41.6458C163.14 41.5261 163.339 41.4326 163.548 41.3653C163.758 41.298 163.964 41.2643 164.166 41.2643C164.608 41.2643 164.971 41.3541 165.256 41.5336C165.548 41.7131 165.765 41.9861 165.907 42.3526C166.057 42.7191 166.132 43.1753 166.132 43.7213V47.2554H164.964V43.7887C164.964 43.4521 164.919 43.1791 164.829 42.9697C164.746 42.7527 164.619 42.5919 164.447 42.4872C164.275 42.3825 164.054 42.3301 163.784 42.3301C163.575 42.3301 163.376 42.3675 163.189 42.4423C163.009 42.5097 162.852 42.6069 162.717 42.734C162.582 42.8612 162.477 43.0108 162.403 43.1828C162.328 43.3474 162.29 43.5306 162.29 43.7326V47.2554H161.122V43.7662C161.122 43.4596 161.077 43.2015 160.987 42.9921C160.897 42.7752 160.766 42.6106 160.594 42.4984C160.422 42.3862 160.212 42.3301 159.965 42.3301C159.755 42.3301 159.561 42.3675 159.381 42.4423C159.201 42.5097 159.044 42.6069 158.909 42.734C158.774 42.8537 158.669 42.9996 158.595 43.1716C158.52 43.3362 158.482 43.5157 158.482 43.7101V47.2554H157.314Z" fill="#656575"/>
<path d="M170.433 47.3676C169.826 47.3676 169.287 47.2405 168.815 46.9862C168.351 46.7244 167.984 46.3691 167.715 45.9203C167.453 45.4716 167.321 44.9555 167.321 44.3721C167.321 43.9083 167.396 43.4857 167.546 43.1043C167.696 42.7228 167.902 42.3937 168.164 42.117C168.434 41.8328 168.752 41.6159 169.119 41.4663C169.493 41.3092 169.898 41.2307 170.332 41.2307C170.714 41.2307 171.07 41.3054 171.399 41.455C171.729 41.5972 172.013 41.7954 172.253 42.0497C172.5 42.304 172.687 42.6069 172.814 42.9584C172.949 43.3025 173.013 43.6802 173.005 44.0916L172.994 44.5852H168.175L167.917 43.6653H171.994L171.826 43.856V43.5867C171.803 43.3399 171.721 43.1192 171.579 42.9248C171.437 42.7303 171.257 42.577 171.04 42.4648C170.822 42.3526 170.587 42.2965 170.332 42.2965C169.928 42.2965 169.587 42.375 169.31 42.5321C169.033 42.6817 168.823 42.9061 168.681 43.2053C168.538 43.497 168.467 43.8597 168.467 44.2935C168.467 44.7049 168.553 45.0639 168.726 45.3706C168.898 45.6698 169.141 45.9016 169.456 46.0662C169.77 46.2307 170.133 46.313 170.545 46.313C170.837 46.313 171.107 46.2644 171.354 46.1672C171.609 46.0699 171.882 45.8942 172.174 45.6399L172.758 46.4589C172.579 46.6384 172.358 46.7955 172.096 46.9301C171.841 47.0647 171.568 47.1732 171.276 47.2554C170.991 47.3302 170.71 47.3676 170.433 47.3676Z" fill="#656575"/>
<path d="M174.263 47.2554V41.3653H175.42V42.577L175.218 42.7116C175.292 42.4498 175.439 42.2105 175.656 41.9936C175.873 41.7692 176.131 41.5897 176.431 41.455C176.73 41.3129 177.037 41.2419 177.352 41.2419C177.801 41.2419 178.176 41.3316 178.475 41.5111C178.775 41.6832 178.999 41.9487 179.149 42.3077C179.299 42.6667 179.374 43.1192 179.374 43.6653V47.2554H178.217V43.7438C178.217 43.4072 178.172 43.1305 178.082 42.9136C177.992 42.6892 177.854 42.5284 177.666 42.4311C177.479 42.3264 177.247 42.2815 176.97 42.2965C176.745 42.2965 176.539 42.3339 176.352 42.4087C176.165 42.476 176 42.5732 175.858 42.7004C175.723 42.8275 175.615 42.9771 175.532 43.1492C175.457 43.3137 175.42 43.4932 175.42 43.6877V47.2554H174.847C174.75 47.2554 174.652 47.2554 174.555 47.2554C174.458 47.2554 174.36 47.2554 174.263 47.2554Z" fill="#656575"/>
<path d="M181.674 47.2554V39.8619H182.831V47.2554H181.674ZM180.449 42.4872V41.3653H184.201V42.4872H180.449Z" fill="#656575"/>
<path d="M190.908 47.3676C190.361 47.3676 189.871 47.233 189.436 46.9637C189.009 46.6945 188.669 46.328 188.414 45.8642C188.167 45.4005 188.043 44.8807 188.043 44.3048C188.043 43.7288 188.167 43.209 188.414 42.7453C188.669 42.2815 189.009 41.915 189.436 41.6458C189.871 41.3765 190.361 41.2419 190.908 41.2419C191.432 41.2419 191.908 41.3503 192.334 41.5672C192.769 41.7767 193.098 42.0646 193.323 42.4311L192.683 43.2165C192.563 43.0444 192.409 42.8874 192.222 42.7453C192.035 42.6032 191.836 42.491 191.627 42.4087C191.417 42.3264 191.215 42.2853 191.02 42.2853C190.661 42.2853 190.339 42.375 190.054 42.5545C189.777 42.7266 189.556 42.9659 189.391 43.2726C189.227 43.5792 189.144 43.9233 189.144 44.3048C189.144 44.6862 189.23 45.0303 189.403 45.3369C189.575 45.6361 189.803 45.8755 190.088 46.055C190.372 46.2345 190.687 46.3242 191.031 46.3242C191.234 46.3242 191.428 46.2906 191.616 46.2233C191.81 46.1559 191.997 46.055 192.177 45.9203C192.357 45.7857 192.525 45.6212 192.683 45.4267L193.323 46.212C193.083 46.5486 192.739 46.8254 192.29 47.0423C191.848 47.2592 191.387 47.3676 190.908 47.3676Z" fill="#656575"/>
<path d="M197.065 47.3676C196.489 47.3676 195.972 47.2367 195.515 46.975C195.066 46.7057 194.71 46.3429 194.448 45.8867C194.186 45.423 194.055 44.8956 194.055 44.3048C194.055 43.7139 194.186 43.1903 194.448 42.734C194.71 42.2703 195.066 41.9076 195.515 41.6458C195.972 41.3765 196.489 41.2419 197.065 41.2419C197.634 41.2419 198.144 41.3765 198.593 41.6458C199.05 41.9076 199.409 42.2703 199.671 42.734C199.933 43.1903 200.065 43.7139 200.065 44.3048C200.065 44.8956 199.933 45.423 199.671 45.8867C199.409 46.3429 199.05 46.7057 198.593 46.975C198.144 47.2367 197.634 47.3676 197.065 47.3676ZM197.065 46.313C197.417 46.313 197.732 46.227 198.009 46.055C198.286 45.8755 198.503 45.6361 198.66 45.3369C198.818 45.0303 198.893 44.6862 198.885 44.3048C198.893 43.9158 198.818 43.5718 198.66 43.2726C198.503 42.9659 198.286 42.7266 198.009 42.5545C197.732 42.3825 197.417 42.2965 197.065 42.2965C196.713 42.2965 196.395 42.3862 196.111 42.5658C195.833 42.7378 195.616 42.9771 195.459 43.2838C195.302 43.583 195.227 43.9233 195.234 44.3048C195.227 44.6862 195.302 45.0303 195.459 45.3369C195.616 45.6361 195.833 45.8755 196.111 46.055C196.395 46.227 196.713 46.313 197.065 46.313Z" fill="#656575"/>
<path d="M201.303 47.2554V41.3653H202.471V42.6219L202.258 42.7565C202.318 42.562 202.411 42.375 202.538 42.1955C202.673 42.016 202.834 41.8589 203.021 41.7243C203.216 41.5822 203.422 41.47 203.639 41.3877C203.864 41.3054 204.092 41.2643 204.324 41.2643C204.661 41.2643 204.957 41.3204 205.212 41.4326C205.467 41.5448 205.676 41.7131 205.841 41.9375C206.006 42.1619 206.126 42.4423 206.2 42.7789L206.021 42.734L206.099 42.5433C206.182 42.3713 206.294 42.2105 206.436 42.0609C206.586 41.9038 206.755 41.7654 206.942 41.6458C207.129 41.5261 207.327 41.4326 207.537 41.3653C207.747 41.298 207.953 41.2643 208.155 41.2643C208.597 41.2643 208.96 41.3541 209.245 41.5336C209.537 41.7131 209.754 41.9861 209.896 42.3526C210.046 42.7191 210.121 43.1753 210.121 43.7213V47.2554H208.953V43.7887C208.953 43.4521 208.908 43.1791 208.818 42.9697C208.735 42.7527 208.608 42.5919 208.436 42.4872C208.264 42.3825 208.043 42.3301 207.773 42.3301C207.563 42.3301 207.365 42.3675 207.178 42.4423C206.998 42.5097 206.841 42.6069 206.706 42.734C206.571 42.8612 206.466 43.0108 206.391 43.1828C206.316 43.3474 206.279 43.5306 206.279 43.7326V47.2554H205.111V43.7662C205.111 43.4596 205.066 43.2015 204.976 42.9921C204.886 42.7752 204.755 42.6106 204.583 42.4984C204.411 42.3862 204.201 42.3301 203.954 42.3301C203.744 42.3301 203.549 42.3675 203.37 42.4423C203.19 42.5097 203.033 42.6069 202.898 42.734C202.763 42.8537 202.658 42.9996 202.583 43.1716C202.508 43.3362 202.471 43.5157 202.471 43.7101V47.2554H201.303Z" fill="#656575"/>
<path d="M211.67 49.7237V41.3653H212.838V42.7116L212.658 42.6106C212.703 42.3862 212.831 42.1731 213.04 41.9711C213.25 41.7617 213.505 41.5934 213.804 41.4663C214.111 41.3316 214.426 41.2643 214.748 41.2643C215.279 41.2643 215.751 41.3952 216.163 41.657C216.575 41.9188 216.901 42.2778 217.14 42.734C217.38 43.1903 217.5 43.7139 217.5 44.3048C217.5 44.8882 217.38 45.4117 217.14 45.8755C216.908 46.3317 216.586 46.6945 216.174 46.9637C215.762 47.2255 215.298 47.3564 214.781 47.3564C214.437 47.3564 214.104 47.2891 213.782 47.1545C213.46 47.0124 213.186 46.8328 212.962 46.6159C212.737 46.399 212.598 46.1746 212.546 45.9428L212.838 45.7857V49.7237H211.67ZM214.59 46.2906C214.935 46.2906 215.242 46.2046 215.511 46.0325C215.781 45.8605 215.995 45.6249 216.152 45.3257C216.309 45.0265 216.388 44.6862 216.388 44.3048C216.388 43.9233 216.309 43.5867 216.152 43.295C216.002 42.9958 215.792 42.7602 215.523 42.5882C215.253 42.4162 214.942 42.3301 214.59 42.3301C214.238 42.3301 213.928 42.4162 213.658 42.5882C213.388 42.7527 213.175 42.9846 213.018 43.2838C212.861 43.583 212.782 43.9233 212.782 44.3048C212.782 44.6862 212.861 45.0265 213.018 45.3257C213.175 45.6249 213.388 45.8605 213.658 46.0325C213.928 46.2046 214.238 46.2906 214.59 46.2906Z" fill="#656575"/>
<path d="M221.025 47.3676C220.539 47.3676 220.093 47.233 219.689 46.9637C219.292 46.6945 218.973 46.328 218.734 45.8642C218.494 45.4005 218.374 44.8769 218.374 44.2935C218.374 43.7027 218.494 43.1791 218.734 42.7228C218.981 42.2591 219.31 41.8963 219.722 41.6345C220.142 41.3728 220.61 41.2419 221.126 41.2419C221.433 41.2419 221.714 41.2867 221.969 41.3765C222.224 41.4663 222.444 41.5934 222.632 41.758C222.826 41.915 222.984 42.0983 223.103 42.3077C223.231 42.5171 223.309 42.7415 223.339 42.9809L223.081 42.8911V41.3653H224.249V47.2554H223.081V45.853L223.351 45.7745C223.306 45.9764 223.212 46.1746 223.07 46.3691C222.935 46.5561 222.759 46.7244 222.542 46.874C222.332 47.0236 222.096 47.1433 221.834 47.233C221.58 47.3228 221.31 47.3676 221.025 47.3676ZM221.329 46.3018C221.681 46.3018 221.991 46.2158 222.261 46.0438C222.531 45.8717 222.74 45.6361 222.89 45.3369C223.047 45.0303 223.126 44.6825 223.126 44.2935C223.126 43.9121 223.047 43.5718 222.89 43.2726C222.74 42.9734 222.531 42.7378 222.261 42.5658C221.991 42.3937 221.681 42.3077 221.329 42.3077C220.984 42.3077 220.677 42.3937 220.408 42.5658C220.145 42.7378 219.936 42.9734 219.778 43.2726C219.629 43.5718 219.554 43.9121 219.554 44.2935C219.554 44.6825 219.629 45.0303 219.778 45.3369C219.936 45.6361 220.145 45.8717 220.408 46.0438C220.677 46.2158 220.984 46.3018 221.329 46.3018Z" fill="#656575"/>
<path d="M225.865 47.2554V41.3653H227.022V42.577L226.82 42.7116C226.894 42.4498 227.04 42.2105 227.258 41.9936C227.475 41.7692 227.733 41.5897 228.033 41.455C228.332 41.3129 228.639 41.2419 228.954 41.2419C229.403 41.2419 229.778 41.3316 230.077 41.5111C230.377 41.6832 230.601 41.9487 230.751 42.3077C230.901 42.6667 230.976 43.1192 230.976 43.6653V47.2554H229.819V43.7438C229.819 43.4072 229.774 43.1305 229.684 42.9136C229.594 42.6892 229.456 42.5284 229.268 42.4311C229.081 42.3264 228.849 42.2815 228.572 42.2965C228.347 42.2965 228.141 42.3339 227.954 42.4087C227.767 42.476 227.602 42.5732 227.46 42.7004C227.325 42.8275 227.216 42.9771 227.134 43.1492C227.059 43.3137 227.022 43.4932 227.022 43.6877V47.2554H226.449C226.351 47.2554 226.254 47.2554 226.157 47.2554C226.059 47.2554 225.962 47.2554 225.865 47.2554Z" fill="#656575"/>
<path d="M233.479 49.8359L234.67 47.0872L234.681 48.0071L231.738 41.3653H233.086L234.928 45.696C234.965 45.7708 235.01 45.8867 235.063 46.0438C235.115 46.1933 235.16 46.3429 235.198 46.4925L234.906 46.5598C234.965 46.4028 235.022 46.2457 235.074 46.0886C235.134 45.9316 235.19 45.7745 235.243 45.6174L236.781 41.3653H238.152L235.726 47.2554L234.726 49.8359H233.479Z" fill="#656575"/>
<path d="M34.7656 17.8927C39.9167 16.0238 48.1419 12.2173 49.3449 6.27837C44.3961 4.40947 34.9027 12.9537 34.7656 17.8927Z" fill="url(#paint0_linear_4380_27894)"/>
<path d="M33.8984 8.21405C30.0195 9.28199 22.5952 9.75092 19.0518 8.95032C20.3088 7.70008 21.3894 6.28465 22.2638 4.74306C15.8441 6.68103 7.2178 5.07859 7.08405 0.738281C0.664879 5.21217 -1.4085 10.4835 0.932192 16.5593C5.0105 25.1032 14.64 23.0322 21.5947 21.4303C23.8671 21.0982 33.6311 9.41575 33.8984 8.21405Z" fill="url(#paint1_linear_4380_27894)"/>
<path d="M33.8975 8.21405C30.0186 9.28199 22.5943 9.75093 19.0509 8.95032C20.3079 7.70008 21.3885 6.28465 22.2629 4.74306C15.8432 6.68103 7.21691 5.07859 7.08334 0.738281C-3.01308 16.2923 18.5849 18.5618 29.6857 13.8209C31.9577 11.1512 33.7643 8.74802 33.8975 8.21405Z" fill="url(#paint2_linear_4380_27894)"/>
<path d="M29.6862 28.801C31.0773 25.013 32.776 21.3449 34.7654 17.8333C38.3126 11.717 43.1929 6.13262 49.3447 6.26567C51.6166 -4.70545 20.6588 9.72263 15.0417 37.0453C10.0244 61.4456 31.6911 52.4689 31.9584 45.0229C25.337 42.5648 32.027 29.8652 35.9031 24.748C33.5959 25.7004 31.4874 27.0752 29.6862 28.8017V28.801Z" fill="url(#paint3_linear_4380_27894)"/>
<path d="M35.9033 24.6738C33.5632 25.5936 31.4444 26.9975 29.6863 28.7934C31.0774 25.0074 32.7761 21.3413 34.7654 17.8318C38.3126 11.719 43.1928 6.13751 49.3447 6.27039C40.3826 -1.90395 17.8489 25.8692 20.7243 44.0107C21.9957 52.1169 29.6863 49.0605 31.9585 44.9409C25.3374 42.4808 32.0272 29.7918 35.9033 24.6738Z" fill="url(#paint4_linear_4380_27894)"/>
<path d="M102.853 29.5107C102.127 29.5107 101.319 29.4704 100.431 29.3897C99.5431 29.3091 98.8098 29.2016 98.2311 29.0672V27.1117C99.4422 27.2192 100.943 27.2729 102.732 27.2729C103.634 27.2729 104.313 27.1453 104.771 26.8899C105.242 26.6345 105.477 26.1709 105.477 25.4989V24.7933C105.477 24.2691 105.329 23.8659 105.033 23.5837C104.737 23.3015 104.3 23.1603 103.721 23.1603H102.329C100.916 23.1603 99.8526 22.8512 99.1394 22.233C98.4397 21.6148 98.0898 20.6135 98.0898 19.2292V18.4631C98.0898 17.0654 98.4801 16.0372 99.2605 15.3787C100.041 14.7201 101.198 14.3908 102.732 14.3908C103.432 14.3908 104.192 14.4379 105.013 14.532C105.847 14.626 106.561 14.7336 107.153 14.8545V16.81C105.336 16.6891 103.957 16.6286 103.015 16.6286C102.167 16.6286 101.528 16.7697 101.097 17.0519C100.68 17.3207 100.472 17.8247 100.472 18.5639V19.0679C100.472 19.6727 100.633 20.1095 100.956 20.3783C101.292 20.6471 101.797 20.7815 102.47 20.7815H104.024C105.275 20.7815 106.224 21.1242 106.87 21.8096C107.529 22.4816 107.859 23.3754 107.859 24.4909V25.4384C107.859 26.984 107.429 28.0525 106.567 28.6438C105.706 29.2217 104.468 29.5107 102.853 29.5107Z" fill="#11CDE1"/>
<path d="M114.075 29.3897C112.878 29.3897 112.016 29.1075 111.492 28.543C110.98 27.9785 110.738 27.0243 110.765 25.6803L110.846 20.6001H109.15V18.9873L110.926 18.5841L111.29 15.5601H113.248V18.5841H115.993V20.6001H113.248V25.6602C113.248 26.2918 113.362 26.7353 113.591 26.9907C113.833 27.2326 114.142 27.3737 114.519 27.4141L115.872 27.5552V29.3897H114.075Z" fill="#11CDE1"/>
<path d="M120.067 29.5107C119.246 29.5107 118.58 29.2688 118.069 28.7849C117.571 28.2877 117.322 27.6224 117.322 26.7891V25.8819C117.322 25.0218 117.611 24.3363 118.19 23.8256C118.782 23.3149 119.657 23.0596 120.814 23.0596H123.902V22.112C123.902 21.7088 123.835 21.3863 123.7 21.1444C123.566 20.9025 123.317 20.721 122.953 20.6001C122.59 20.4657 122.065 20.3985 121.379 20.3985H118.109V18.947C119.334 18.611 120.747 18.443 122.348 18.443C123.72 18.443 124.736 18.7118 125.396 19.2494C126.069 19.7869 126.405 20.6874 126.405 21.9508V29.3897H124.447L124.023 28.2205C123.889 28.3414 123.613 28.5094 123.196 28.7244C122.778 28.926 122.287 29.1075 121.722 29.2688C121.17 29.43 120.619 29.5107 120.067 29.5107ZM121.278 27.7568C121.655 27.7568 122.153 27.6627 122.772 27.4745C123.404 27.2729 123.781 27.1385 123.902 27.0713V24.249L121.561 24.3699C120.39 24.464 119.805 24.9814 119.805 25.9222V26.3658C119.805 26.8496 119.939 27.199 120.208 27.4141C120.491 27.6291 120.848 27.7433 121.278 27.7568Z" fill="#11CDE1"/>
<path d="M132.094 29.43C131.004 29.43 130.197 29.1545 129.672 28.6035C129.147 28.039 128.885 27.1385 128.885 25.9021V14.0078H131.388V25.5594C131.388 26.2448 131.488 26.7286 131.69 27.0109C131.892 27.2797 132.215 27.4409 132.659 27.4947L133.567 27.6157V29.43H132.094Z" fill="#11CDE1"/>
<path d="M134.085 18.5841H136.649L138.687 27.0713L141.029 18.5841H143.128L145.469 27.0713L147.387 18.5841H149.95L146.983 29.3897H144.218L142.038 22.0717L139.798 29.3897H137.093L134.085 18.5841Z" fill="#11CDE1"/>
<path d="M153.379 29.5107C152.558 29.5107 151.892 29.2688 151.381 28.7849C150.883 28.2877 150.634 27.6224 150.634 26.7891V25.8819C150.634 25.0218 150.923 24.3363 151.502 23.8256C152.094 23.3149 152.969 23.0596 154.126 23.0596H157.214V22.112C157.214 21.7088 157.147 21.3863 157.012 21.1444C156.878 20.9025 156.629 20.721 156.266 20.6001C155.902 20.4657 155.377 20.3985 154.691 20.3985H151.421V18.947C152.646 18.611 154.059 18.443 155.66 18.443C157.033 18.443 158.049 18.7118 158.708 19.2494C159.381 19.7869 159.717 20.6874 159.717 21.9508V29.3897H157.759L157.335 28.2205C157.201 28.3414 156.925 28.5094 156.508 28.7244C156.091 28.926 155.599 29.1075 155.034 29.2688C154.483 29.43 153.931 29.5107 153.379 29.5107ZM154.59 27.7568C154.967 27.7568 155.465 27.6627 156.084 27.4745C156.716 27.2729 157.093 27.1385 157.214 27.0713V24.249L154.873 24.3699C153.702 24.464 153.117 24.9814 153.117 25.9222V26.3658C153.117 26.8496 153.251 27.199 153.521 27.4141C153.803 27.6291 154.16 27.7433 154.59 27.7568Z" fill="#11CDE1"/>
<path d="M162.197 18.5841H164.135L164.7 20.3178C165.171 19.7265 165.669 19.2695 166.193 18.947C166.732 18.611 167.337 18.443 168.01 18.443C168.333 18.443 168.636 18.4833 168.918 18.5639V21.1041C168.407 21.0503 167.996 21.0234 167.687 21.0234C167.055 21.0234 166.51 21.1309 166.052 21.346C165.595 21.5476 165.144 21.8768 164.7 22.3338V29.3897H162.197V18.5841Z" fill="#11CDE1"/>
<path d="M174.786 29.3897C173.588 29.3897 172.727 29.1075 172.202 28.543C171.691 27.9785 171.449 27.0243 171.476 25.6803L171.557 20.6001H169.861V18.9873L171.637 18.5841L172.001 15.5601H173.958V18.5841H176.704V20.6001H173.958V25.6602C173.958 26.2918 174.073 26.7353 174.302 26.9907C174.544 27.2326 174.853 27.3737 175.23 27.4141L176.582 27.5552V29.3897H174.786Z" fill="#11CDE1"/>
<path d="M182.413 29.5107C181.7 29.5107 180.919 29.4704 180.072 29.3897C179.224 29.3225 178.612 29.2217 178.235 29.0873V27.6157H182.897C183.449 27.6157 183.846 27.5417 184.088 27.3939C184.344 27.2461 184.472 26.9437 184.472 26.4867V26.1037C184.472 25.7408 184.351 25.472 184.108 25.2973C183.88 25.1091 183.503 25.015 182.978 25.015H181.343C179.163 25.015 178.073 24.0675 178.073 22.1725V21.5677C178.073 20.5194 178.389 19.7466 179.022 19.2494C179.654 18.7386 180.724 18.4833 182.231 18.4833C182.837 18.4833 183.53 18.5303 184.31 18.6244C185.104 18.705 185.716 18.7991 186.147 18.9066V20.3783H181.747C181.222 20.3783 180.832 20.4724 180.576 20.6605C180.334 20.8353 180.213 21.1377 180.213 21.5677V21.9508C180.213 22.3674 180.341 22.6496 180.596 22.7975C180.852 22.9319 181.256 22.9991 181.807 22.9991H183.483C184.519 22.9991 185.299 23.241 185.824 23.7248C186.349 24.2087 186.611 24.8941 186.611 25.7811V26.6681C186.611 27.7165 186.261 28.4556 185.562 28.8857C184.862 29.3024 183.812 29.5107 182.413 29.5107Z" fill="#11CDE1"/>
<path d="M188.951 29.4099C188.844 29.4099 188.749 29.3763 188.669 29.3091C188.601 29.2419 188.568 29.1545 188.568 29.047V27.1318C188.568 26.8765 188.696 26.7488 188.951 26.7488H190.384C190.64 26.7488 190.768 26.8765 190.768 27.1318V29.047C190.768 29.2889 190.64 29.4099 190.384 29.4099H188.951Z" fill="#11CDE1"/>
<path d="M197.301 29.5107C195.875 29.5107 194.771 29.1075 193.991 28.3011C193.224 27.4813 192.84 26.0566 192.84 24.0272C192.84 22.5892 193.015 21.4669 193.365 20.6605C193.715 19.8407 194.213 19.2695 194.859 18.947C195.518 18.611 196.352 18.443 197.362 18.443C198.653 18.443 199.885 18.5841 201.055 18.8663V20.2977H198.109C197.436 20.2977 196.897 20.4052 196.494 20.6202C196.104 20.8218 195.807 21.1914 195.606 21.729C195.417 22.2666 195.323 23.0327 195.323 24.0272C195.323 25.0083 195.417 25.761 195.606 26.2851C195.807 26.7958 196.104 27.1453 196.494 27.3334C196.897 27.5216 197.442 27.6157 198.129 27.6157H201.217V29.0268C200.692 29.1612 200.073 29.2755 199.36 29.3696C198.66 29.4636 197.974 29.5107 197.301 29.5107Z" fill="#11CDE1"/>
<path d="M207.58 29.4905C206.409 29.4905 205.474 29.3225 204.774 28.9865C204.074 28.6505 203.556 28.0861 203.22 27.2931C202.897 26.5002 202.735 25.3914 202.735 23.9667C202.735 22.4884 202.897 21.3527 203.22 20.5597C203.556 19.7668 204.068 19.2158 204.754 18.9066C205.454 18.5975 206.396 18.443 207.58 18.443C208.777 18.443 209.719 18.6042 210.406 18.9268C211.105 19.2359 211.623 19.7937 211.96 20.6001C212.296 21.393 212.464 22.5152 212.464 23.9667C212.464 25.4182 212.303 26.5405 211.98 27.3334C211.657 28.1264 211.146 28.6841 210.446 29.0067C209.746 29.3292 208.791 29.4905 207.58 29.4905ZM207.58 27.4947C208.185 27.4947 208.65 27.4141 208.972 27.2528C209.309 27.0915 209.558 26.7622 209.719 26.265C209.881 25.7542 209.961 24.9814 209.961 23.9466C209.961 22.9252 209.881 22.1658 209.719 21.6685C209.558 21.1578 209.309 20.8285 208.972 20.6807C208.65 20.5194 208.185 20.4388 207.58 20.4388C206.988 20.4388 206.523 20.5194 206.187 20.6807C205.864 20.8285 205.622 21.1578 205.46 21.6685C205.299 22.1658 205.218 22.9252 205.218 23.9466C205.218 24.9814 205.299 25.7542 205.46 26.265C205.622 26.7622 205.864 27.0915 206.187 27.2528C206.523 27.4141 206.988 27.4947 207.58 27.4947Z" fill="#11CDE1"/>
<path d="M214.688 18.5841H216.727L217.191 19.713C217.77 19.2964 218.355 18.9738 218.947 18.7454C219.539 18.5169 220.212 18.4026 220.965 18.4026C221.611 18.4026 222.163 18.5438 222.621 18.826C223.092 19.1082 223.455 19.4845 223.711 19.9549C224.276 19.5383 224.915 19.1754 225.628 18.8663C226.355 18.5572 227.048 18.4026 227.707 18.4026C229.981 18.4026 231.118 19.6996 231.118 22.2935V29.3897H228.615V22.4951C228.615 21.9172 228.454 21.4669 228.131 21.1444C227.808 20.8218 227.371 20.6605 226.819 20.6605C226.361 20.6605 225.884 20.7479 225.386 20.9226C224.901 21.0973 224.444 21.3325 224.013 21.6282C224.108 21.897 224.155 22.2061 224.155 22.5556V29.3897H221.652V22.4951C221.652 21.9172 221.49 21.4669 221.167 21.1444C220.844 20.8218 220.407 20.6605 219.855 20.6605C219.357 20.6605 218.9 20.7345 218.483 20.8823C218.066 21.0301 217.635 21.2519 217.191 21.5476V29.3897H214.688V18.5841Z" fill="#11CDE1"/>
<path d="M58.0981 13.7018H53.3135V12.6444H64.0635V13.7018H59.2789V27.5703H58.0981V13.7018Z" fill="#EC2079"/>
<path d="M69.0469 27.6924C67.9068 27.6924 67.0177 27.5229 66.3798 27.184C65.7554 26.8315 65.3075 26.2553 65.036 25.4555C64.7646 24.6557 64.6288 23.544 64.6288 22.1205C64.6288 20.6835 64.7713 19.5719 65.0564 18.7856C65.3414 17.9858 65.8029 17.4231 66.4409 17.0978C67.0924 16.7724 67.9814 16.6097 69.108 16.6097C70.0581 16.6097 70.825 16.7182 71.4087 16.9351C71.9923 17.152 72.4267 17.518 72.7117 18.0332C72.9968 18.5484 73.1393 19.2533 73.1393 20.148C73.1393 21.0292 72.8814 21.6732 72.3656 22.0799C71.8634 22.473 71.1304 22.6696 70.1667 22.6696H65.8097C65.8233 23.7135 65.9251 24.5269 66.1151 25.1098C66.3051 25.6792 66.6445 26.0994 67.1331 26.3706C67.6353 26.6282 68.3615 26.7569 69.3116 26.7569H72.895V27.4687C71.5512 27.6178 70.2685 27.6924 69.0469 27.6924ZM70.0853 21.8359C70.7775 21.8359 71.2797 21.7138 71.5919 21.4698C71.9041 21.2258 72.0602 20.7852 72.0602 20.148C72.0602 19.4702 71.9652 18.9415 71.7752 18.5619C71.5851 18.1823 71.2797 17.918 70.859 17.7688C70.4382 17.6062 69.8545 17.5248 69.108 17.5248C68.2257 17.5248 67.5471 17.6536 67.072 17.9112C66.6105 18.1552 66.278 18.5822 66.0744 19.1923C65.8844 19.8024 65.7893 20.6835 65.7893 21.8359H70.0853Z" fill="#EC2079"/>
<path d="M79.9393 27.6924C78.5684 27.6924 77.5097 27.2924 76.7632 26.4926C76.0302 25.6927 75.6637 24.249 75.6637 22.1612C75.6637 20.7106 75.8334 19.5854 76.1727 18.7856C76.5257 17.9722 77.0075 17.4096 77.6183 17.0978C78.2427 16.786 79.0231 16.6301 79.9597 16.6301C81.2763 16.6301 82.4504 16.7046 83.482 16.8538V17.5655H80.2244C79.4507 17.5655 78.8195 17.6943 78.3309 17.9519C77.8558 18.1959 77.4894 18.6568 77.2315 19.3346C76.9736 20.0125 76.8446 20.975 76.8446 22.2222C76.8446 23.4017 76.9804 24.3235 77.2518 24.9878C77.5233 25.6521 77.9033 26.113 78.392 26.3706C78.8806 26.6146 79.4914 26.7366 80.2244 26.7366H83.6448V27.4483C82.3961 27.611 81.1609 27.6924 79.9393 27.6924Z" fill="#EC2079"/>
<path d="M86.0521 12.0547H87.233V17.9519C87.8166 17.5452 88.4681 17.213 89.1875 16.9554C89.9205 16.6843 90.6466 16.5487 91.366 16.5487C92.4383 16.5487 93.2663 16.8877 93.8499 17.5655C94.4336 18.2433 94.7254 19.0974 94.7254 20.1277V27.5703H93.5445V20.2294C93.5445 19.4838 93.3138 18.8669 92.8523 18.3789C92.4044 17.8773 91.8004 17.6265 91.0403 17.6265C90.3209 17.6265 89.6829 17.7214 89.1264 17.9112C88.5835 18.0874 87.9523 18.3721 87.233 18.7653V27.5703H86.0521V12.0547Z" fill="#EC2079"/>
<defs>
<linearGradient id="paint0_linear_4380_27894" x1="34.7365" y1="11.9542" x2="49.3449" y2="11.9542" gradientUnits="userSpaceOnUse">
<stop stop-color="#662F8A"/>
<stop offset="1" stop-color="#EC2079"/>
</linearGradient>
<linearGradient id="paint1_linear_4380_27894" x1="0" y1="0.738281" x2="33.8984" y2="0.738281" gradientUnits="userSpaceOnUse">
<stop stop-color="#662F8A"/>
<stop offset="1" stop-color="#EC2079"/>
</linearGradient>
<linearGradient id="paint2_linear_4380_27894" x1="-0.302119" y1="0.738281" x2="23.4199" y2="0.738281" gradientUnits="userSpaceOnUse">
<stop stop-color="#662F8A"/>
<stop offset="1" stop-color="#EC2079"/>
</linearGradient>
<linearGradient id="paint3_linear_4380_27894" x1="14.2881" y1="27.7768" x2="49.4637" y2="27.7768" gradientUnits="userSpaceOnUse">
<stop stop-color="#11CDE1"/>
<stop offset="0.5" stop-color="#2196F3"/>
<stop offset="1" stop-color="#3F51B5"/>
</linearGradient>
<linearGradient id="paint4_linear_4380_27894" x1="23.1866" y1="41.8745" x2="58.9216" y2="19.6187" gradientUnits="userSpaceOnUse">
<stop stop-color="#11CDE1"/>
<stop offset="0.5" stop-color="#2196F3"/>
<stop offset="1" stop-color="#3F51B5"/>
</linearGradient>
</defs>
</svg>
