<svg width="75" height="76" viewBox="0 0 75 76" fill="none" xmlns="http://www.w3.org/2000/svg">
<g clip-path="url(#clip0_4380_26821)">
<path opacity="0.2" d="M23.4375 59.5391C28.6152 59.5391 32.8125 55.3417 32.8125 50.1641C32.8125 44.9864 28.6152 40.7891 23.4375 40.7891C18.2598 40.7891 14.0625 44.9864 14.0625 50.1641C14.0625 55.3417 18.2598 59.5391 23.4375 59.5391Z" fill="#044AB4"/>
<path opacity="0.2" d="M23.4375 29.0703C28.6152 29.0703 32.8125 24.873 32.8125 19.6953C32.8125 14.5176 28.6152 10.3203 23.4375 10.3203C18.2598 10.3203 14.0625 14.5176 14.0625 19.6953C14.0625 24.873 18.2598 29.0703 23.4375 29.0703Z" fill="#044AB4"/>
<path opacity="0.2" d="M51.5625 59.5391C56.7402 59.5391 60.9375 55.3417 60.9375 50.1641C60.9375 44.9864 56.7402 40.7891 51.5625 40.7891C46.3848 40.7891 42.1875 44.9864 42.1875 50.1641C42.1875 55.3417 46.3848 59.5391 51.5625 59.5391Z" fill="#044AB4"/>
<path opacity="0.2" d="M51.5625 29.0703C56.7402 29.0703 60.9375 24.873 60.9375 19.6953C60.9375 14.5176 56.7402 10.3203 51.5625 10.3203C46.3848 10.3203 42.1875 14.5176 42.1875 19.6953C42.1875 24.873 46.3848 29.0703 51.5625 29.0703Z" fill="#044AB4"/>
<path d="M23.4375 59.5391C28.6152 59.5391 32.8125 55.3417 32.8125 50.1641C32.8125 44.9864 28.6152 40.7891 23.4375 40.7891C18.2598 40.7891 14.0625 44.9864 14.0625 50.1641C14.0625 55.3417 18.2598 59.5391 23.4375 59.5391Z" stroke="#044AB4" stroke-width="1.66667" stroke-linecap="round" stroke-linejoin="round"/>
<path d="M9.375 66.5703C11.0124 64.3872 13.1355 62.6152 15.5763 61.3948C18.0171 60.1744 20.7086 59.5391 23.4375 59.5391C26.1664 59.5391 28.8579 60.1744 31.2987 61.3948C33.7395 62.6152 35.8626 64.3872 37.5 66.5703" stroke="#044AB4" stroke-width="1.66667" stroke-linecap="round" stroke-linejoin="round"/>
<path d="M23.4375 29.0703C28.6152 29.0703 32.8125 24.873 32.8125 19.6953C32.8125 14.5176 28.6152 10.3203 23.4375 10.3203C18.2598 10.3203 14.0625 14.5176 14.0625 19.6953C14.0625 24.873 18.2598 29.0703 23.4375 29.0703Z" stroke="#044AB4" stroke-width="1.66667" stroke-linecap="round" stroke-linejoin="round"/>
<path d="M9.375 36.1016C11.0124 33.9184 13.1355 32.1465 15.5763 30.9261C18.0171 29.7057 20.7086 29.0703 23.4375 29.0703C26.1664 29.0703 28.8579 29.7057 31.2987 30.9261C33.7395 32.1465 35.8626 33.9184 37.5 36.1016" stroke="#044AB4" stroke-width="1.66667" stroke-linecap="round" stroke-linejoin="round"/>
<path d="M51.5625 59.5391C56.7402 59.5391 60.9375 55.3417 60.9375 50.1641C60.9375 44.9864 56.7402 40.7891 51.5625 40.7891C46.3848 40.7891 42.1875 44.9864 42.1875 50.1641C42.1875 55.3417 46.3848 59.5391 51.5625 59.5391Z" stroke="#044AB4" stroke-width="1.66667" stroke-linecap="round" stroke-linejoin="round"/>
<path d="M37.5 66.5703C39.1374 64.3872 41.2605 62.6152 43.7013 61.3948C46.1421 60.1744 48.8336 59.5391 51.5625 59.5391C54.2914 59.5391 56.9829 60.1744 59.4237 61.3948C61.8645 62.6152 63.9876 64.3872 65.625 66.5703" stroke="#044AB4" stroke-width="1.66667" stroke-linecap="round" stroke-linejoin="round"/>
<path d="M51.5625 29.0703C56.7402 29.0703 60.9375 24.873 60.9375 19.6953C60.9375 14.5176 56.7402 10.3203 51.5625 10.3203C46.3848 10.3203 42.1875 14.5176 42.1875 19.6953C42.1875 24.873 46.3848 29.0703 51.5625 29.0703Z" stroke="#044AB4" stroke-width="1.66667" stroke-linecap="round" stroke-linejoin="round"/>
<path d="M37.5 36.1016C39.1374 33.9184 41.2605 32.1465 43.7013 30.9261C46.1421 29.7057 48.8336 29.0703 51.5625 29.0703C54.2914 29.0703 56.9829 29.7057 59.4237 30.9261C61.8645 32.1465 63.9876 33.9184 65.625 36.1016" stroke="#044AB4" stroke-width="1.66667" stroke-linecap="round" stroke-linejoin="round"/>
</g>
<defs>
<clipPath id="clip0_4380_26821">
<rect width="75" height="75" fill="white" transform="translate(0 0.945312)"/>
</clipPath>
</defs>
</svg>
