<svg width="584" height="262" viewBox="0 0 584 262" fill="none" xmlns="http://www.w3.org/2000/svg">
<path d="M139.975 236.401C139.975 236.401 131.845 249.319 135.041 249.821C138.237 250.323 144.954 239.085 144.954 239.085L163.338 234.621L149.484 233.301L139.975 236.401Z" fill="white" stroke="#263238" stroke-width="1.27201" stroke-linecap="round" stroke-linejoin="round"/>
<path opacity="0.3" d="M139.975 236.401C139.975 236.401 131.845 249.319 135.041 249.821C138.237 250.323 144.954 239.085 144.954 239.085L163.338 234.621L149.484 233.301L139.975 236.401Z" fill="black" stroke="#263238" stroke-width="1.27201" stroke-linecap="round" stroke-linejoin="round"/>
<path d="M146.162 227.561C146.162 227.561 134.775 225.064 131.641 230.001C128.508 234.939 119.23 249.593 122.736 251.258C126.243 252.923 129.206 247.526 129.206 247.526L146.162 227.561Z" fill="white" stroke="#263238" stroke-width="1.27201" stroke-linecap="round" stroke-linejoin="round"/>
<path d="M192.736 242.576C185.268 244.964 177.308 245.74 169.466 244.844L156.512 248.834C156.512 248.834 145.125 254.015 139.82 251.403C134.514 248.791 153.317 243.021 153.317 243.021C153.317 243.021 165.96 237.954 162.19 236.734C158.42 235.514 144.148 235.758 141.356 237.739C138.563 239.72 131.194 252.623 125.842 251.876C120.49 251.13 128.076 244.126 129.984 241.428C131.892 238.729 136.19 227.964 144.815 227.505C153.441 227.046 182.621 228.438 182.621 228.438L216.891 225.051L224.973 243.092L192.736 242.576Z" fill="white" stroke="#263238" stroke-width="1.27201" stroke-linecap="round" stroke-linejoin="round"/>
<path d="M210.623 247.038C211.579 247.672 212.729 248.006 213.904 247.991C215.08 247.975 216.219 247.611 217.155 246.951C218.187 247.358 219.327 247.475 220.43 247.286C221.534 247.097 222.553 246.611 223.36 245.889C225.858 243.349 226.075 221.059 219.156 218.547C217.155 217.829 212.159 217.901 211.399 220.485C210.866 220.284 210.289 220.203 209.716 220.248C209.143 220.292 208.589 220.461 208.099 220.741C207.61 221.021 207.198 221.403 206.898 221.857C206.598 222.311 206.418 222.825 206.373 223.355C205.69 227.374 210.003 231.12 208.56 242.674C208.435 243.507 208.561 244.355 208.925 245.126C209.29 245.896 209.877 246.558 210.623 247.038Z" fill="#498CFE" stroke="#263238" stroke-width="1.27201" stroke-linecap="round" stroke-linejoin="round"/>
<path opacity="0.3" d="M210.623 247.038C211.579 247.672 212.729 248.006 213.904 247.991C215.08 247.975 216.219 247.611 217.155 246.951C218.187 247.358 219.327 247.475 220.43 247.286C221.534 247.097 222.553 246.611 223.36 245.889C225.858 243.349 226.075 221.059 219.156 218.547C217.155 217.829 212.159 217.901 211.399 220.485C210.866 220.284 210.289 220.203 209.716 220.248C209.143 220.292 208.589 220.461 208.099 220.741C207.61 221.021 207.198 221.403 206.898 221.857C206.598 222.311 206.418 222.825 206.373 223.355C205.69 227.374 210.003 231.12 208.56 242.674C208.435 243.507 208.561 244.355 208.925 245.126C209.29 245.896 209.877 246.558 210.623 247.038Z" fill="black" stroke="#263238" stroke-width="1.27201" stroke-linecap="round" stroke-linejoin="round"/>
<path d="M218.535 241.799C218.527 235.727 217.131 229.725 214.439 224.188" stroke="#263238" stroke-width="1.27201" stroke-linecap="round" stroke-linejoin="round"/>
<path d="M381.628 233.748C380.48 241.915 379.177 250.756 377.687 260.358H244.52L245.156 244.484C237.197 246.263 221.73 245.173 221.73 245.173V221.706C231.132 216.782 232.59 218.16 232.59 218.16C232.59 218.16 233.071 160.892 238.702 146.597C240.85 141.214 244.685 136.546 249.717 133.191C251.057 132.268 252.461 131.429 253.921 130.679L254.123 130.564C255.674 129.804 257.551 129 259.692 128.167L260.281 127.952C281.132 120.072 326.633 110.929 369.031 127.694C371.994 128.871 396.195 139.564 398.258 154.964C399.375 163.82 392.891 207.654 381.628 233.748Z" fill="#498CFE"/>
<mask id="mask0_4622_30381" style="mask-type:luminance" maskUnits="userSpaceOnUse" x="221" y="118" width="178" height="143">
<path d="M381.622 233.752C380.474 241.918 379.171 250.76 377.682 260.362H244.514L245.15 244.488C237.192 246.267 221.725 245.177 221.725 245.177V221.709C231.126 216.786 232.584 218.164 232.584 218.164C232.584 218.164 233.065 160.896 238.696 146.6C240.844 141.217 244.679 136.55 249.711 133.195C251.051 132.272 252.455 131.433 253.915 130.683L254.117 130.568C255.668 129.807 257.545 129.004 259.686 128.171L260.276 127.956C281.126 120.076 326.627 110.933 369.025 127.698C371.988 128.875 396.189 139.567 398.252 154.968C399.369 163.824 392.885 207.658 381.622 233.752Z" fill="white"/>
</mask>
<g mask="url(#mask0_4622_30381)">
<path opacity="0.2" d="M360.525 163.141L347.246 220.165C345.183 218.658 339.241 218.557 331.732 219.218C333.365 217.557 334.719 215.68 335.75 213.649C355.778 173.46 360.138 163.944 360.525 163.141Z" fill="black"/>
<path opacity="0.2" d="M384.787 225.793C381.553 237.147 379.179 248.695 377.681 260.355H244.514L245.739 242.069C254.039 240.978 268.606 239.859 283.732 237.376C284.892 241.754 285.013 246.313 284.089 250.738C284.089 250.738 345.336 257.771 365.891 253.193C371.755 251.887 377.061 244.308 381.606 233.874C382.708 231.333 383.763 228.621 384.787 225.793Z" fill="black"/>
<path opacity="0.3" d="M234.122 219.236C234.122 219.236 231.128 216.781 221.711 221.704V245.172C221.711 245.172 237.224 244.669 243.306 241.612C248.549 244.612 247.618 189.683 248.549 160.102C240.948 162.039 240.343 175.416 239.164 188.004C238.19 198.502 236.506 208.933 234.122 219.236Z" fill="black"/>
</g>
<path d="M381.628 233.748C380.48 241.915 379.177 250.756 377.687 260.358H244.52L245.156 244.484C237.197 246.263 221.73 245.173 221.73 245.173V221.706C231.132 216.782 232.59 218.16 232.59 218.16C232.59 218.16 233.071 160.892 238.702 146.597C240.85 141.214 244.685 136.546 249.717 133.191C251.057 132.268 252.461 131.429 253.921 130.679L254.123 130.564C255.674 129.804 257.551 129 259.692 128.167L260.281 127.952C281.132 120.072 326.633 110.929 369.031 127.694C371.994 128.871 396.195 139.564 398.258 154.964C399.375 163.82 392.891 207.654 381.628 233.748Z" stroke="#263238" stroke-width="1.27201" stroke-linecap="round" stroke-linejoin="round"/>
<path d="M398.194 155.008C398.194 155.352 398.287 155.754 398.302 156.199C398.985 167.222 392.5 208.817 381.61 233.877C377.064 244.312 371.759 251.89 365.895 253.196C345.339 257.775 284.092 250.742 284.092 250.742C285.691 242.965 284.056 234.917 279.516 228.208C279.516 228.208 339.646 214.601 347.247 220.17L360.558 163.089" stroke="#263238" stroke-width="1.27201" stroke-linecap="round" stroke-linejoin="round"/>
<path d="M351.436 223.285C355.722 225.192 359.396 228.101 362.093 231.725" stroke="#263238" stroke-width="1.27201" stroke-linecap="round" stroke-linejoin="round"/>
<path d="M198.259 225.321C198.259 225.321 192.643 224.23 190.363 226.599C188.082 228.967 178.309 242.545 181.613 245.128C184.917 247.712 191.635 233.517 191.635 233.517L198.259 225.321Z" fill="white" stroke="#263238" stroke-width="1.27201" stroke-linecap="round" stroke-linejoin="round"/>
<path d="M209.523 225.076C209.523 225.076 197.113 222.608 194.274 226.124C191.435 229.641 175.782 247.84 185.555 248.414L201.069 232.224L209.523 225.076Z" fill="white" stroke="#263238" stroke-width="1.27201" stroke-linecap="round" stroke-linejoin="round"/>
<path d="M237.663 244.426C237.663 244.426 224.864 247.01 219.667 247.957C214.47 248.905 204.821 255.134 199.112 252.651C193.403 250.168 217.728 241.025 217.728 241.025L226.105 237.91L237.663 244.426Z" fill="#BFBFBF" stroke="#263238" stroke-width="1.27201" stroke-linecap="round" stroke-linejoin="round"/>
<path d="M248.025 173.579C248.212 169.087 248.382 164.594 248.568 160.102" stroke="#263238" stroke-width="1.27201" stroke-linecap="round" stroke-linejoin="round"/>
<path d="M244.52 260.359C246.893 233.189 247.777 179.695 247.777 179.695" stroke="#263238" stroke-width="1.27201" stroke-linecap="round" stroke-linejoin="round"/>
<path d="M284.123 229.773H239.956C239.956 229.773 205.703 220.257 200.009 227.648C194.316 235.04 182.122 246.307 185.551 248.417C188.979 250.527 203.453 235.227 203.453 235.227L216.019 235.327C216.019 235.327 205.361 239.633 203.081 241.729C200.8 243.824 195.852 249.824 198.427 250.886C201.002 251.948 209.473 244.197 209.473 244.197C209.473 244.197 222.023 241.327 225.064 242.762C234.82 247.382 246.107 248.408 256.649 245.633L290.329 249.508L284.123 229.773Z" fill="white" stroke="#263238" stroke-width="1.27201" stroke-linecap="round" stroke-linejoin="round"/>
<path d="M355.956 182.85C354.738 176.314 354.691 169.636 355.816 163.086" stroke="#263238" stroke-width="1.27201" stroke-linecap="round" stroke-linejoin="round"/>
<path d="M365.961 148.62C365.961 148.62 387.37 122.527 398.198 155.008" stroke="#263238" stroke-width="1.27201" stroke-linecap="round" stroke-linejoin="round"/>
<path d="M275.037 226.542C275.795 225.709 276.82 225.12 277.964 224.862C279.108 224.604 280.311 224.69 281.398 225.107C282.288 224.472 283.361 224.096 284.482 224.024C285.602 223.953 286.721 224.19 287.696 224.705C290.799 226.6 297.005 248.129 290.97 252.162C289.232 253.31 284.377 254.387 282.887 252.076C282.421 252.393 281.881 252.604 281.311 252.692C280.74 252.78 280.155 252.742 279.603 252.581C279.051 252.42 278.549 252.141 278.135 251.766C277.722 251.392 277.41 250.932 277.225 250.425C275.487 246.679 278.668 242.072 274.122 231.207C273.8 230.426 273.715 229.579 273.876 228.756C274.038 227.934 274.439 227.168 275.037 226.542Z" fill="#498CFE"/>
<mask id="mask1_4622_30381" style="mask-type:luminance" maskUnits="userSpaceOnUse" x="273" y="224" width="21" height="30">
<path d="M275.037 226.538C275.795 225.705 276.82 225.116 277.964 224.858C279.108 224.6 280.311 224.686 281.398 225.103C282.288 224.469 283.361 224.092 284.482 224.02C285.602 223.949 286.721 224.186 287.696 224.701C290.799 226.596 297.005 248.125 290.97 252.158C289.232 253.307 284.377 254.383 282.887 252.072C282.421 252.389 281.881 252.6 281.311 252.688C280.74 252.776 280.155 252.738 279.603 252.577C279.051 252.416 278.549 252.137 278.135 251.763C277.722 251.388 277.41 250.929 277.225 250.422C275.487 246.675 278.668 242.068 274.122 231.203C273.8 230.422 273.715 229.575 273.876 228.752C274.038 227.93 274.439 227.164 275.037 226.538Z" fill="white"/>
</mask>
<g mask="url(#mask1_4622_30381)">
<path opacity="0.3" d="M275.037 226.538C275.795 225.705 276.82 225.116 277.964 224.858C279.108 224.6 280.311 224.686 281.398 225.103C282.288 224.469 283.361 224.092 284.482 224.02C285.602 223.949 286.721 224.186 287.696 224.701C290.799 226.596 297.005 248.125 290.97 252.158C289.232 253.307 284.377 254.383 282.887 252.072C282.421 252.389 281.881 252.6 281.311 252.688C280.74 252.776 280.155 252.738 279.603 252.577C279.051 252.416 278.549 252.137 278.135 251.763C277.722 251.388 277.41 250.929 277.225 250.422C275.487 246.675 278.668 242.068 274.122 231.203C273.8 230.422 273.715 229.575 273.876 228.752C274.038 227.93 274.439 227.164 275.037 226.538Z" fill="black"/>
</g>
<path d="M275.037 226.542C275.795 225.709 276.82 225.12 277.964 224.862C279.108 224.604 280.311 224.69 281.398 225.107C282.288 224.472 283.361 224.096 284.482 224.024C285.602 223.953 286.721 224.19 287.696 224.705C290.799 226.6 297.005 248.129 290.97 252.162C289.232 253.31 284.377 254.387 282.887 252.076C282.421 252.393 281.881 252.604 281.311 252.692C280.74 252.78 280.155 252.742 279.603 252.581C279.051 252.42 278.549 252.141 278.135 251.766C277.722 251.392 277.41 250.932 277.225 250.425C275.487 246.679 278.668 242.072 274.122 231.207C273.8 230.426 273.715 229.579 273.876 228.756C274.038 227.934 274.439 227.168 275.037 226.542Z" stroke="#263238" stroke-width="1.27201" stroke-linecap="round" stroke-linejoin="round"/>
<path d="M284.838 237.723C285.385 241.05 285.427 244.432 284.962 247.77" stroke="#263238" stroke-width="1.27201" stroke-linecap="round" stroke-linejoin="round"/>
<path d="M304.292 173.263C304.261 173.816 304.052 174.348 303.694 174.791C303.335 175.235 302.843 175.57 302.278 175.754C301.714 175.939 301.103 175.964 300.523 175.827C299.943 175.69 299.42 175.397 299.02 174.985C298.62 174.573 298.361 174.06 298.277 173.512C298.192 172.963 298.285 172.404 298.544 171.905C298.802 171.406 299.216 170.988 299.731 170.706C300.246 170.424 300.84 170.29 301.438 170.321C302.23 170.379 302.969 170.717 303.5 171.265C304.031 171.812 304.315 172.528 304.292 173.263Z" fill="white" stroke="#263238" stroke-width="1.27201" stroke-linecap="round" stroke-linejoin="round"/>
<path d="M302.058 216.609C302.02 217.158 301.808 217.684 301.448 218.121C301.088 218.558 300.596 218.887 300.034 219.066C299.472 219.245 298.866 219.266 298.291 219.126C297.716 218.987 297.199 218.693 296.805 218.282C296.41 217.871 296.156 217.361 296.074 216.817C295.992 216.273 296.086 215.718 296.344 215.223C296.602 214.728 297.013 214.314 297.525 214.035C298.036 213.756 298.626 213.623 299.219 213.653C300.019 213.697 300.767 214.033 301.3 214.588C301.832 215.142 302.105 215.869 302.058 216.609Z" fill="white" stroke="#263238" stroke-width="1.27201" stroke-linecap="round" stroke-linejoin="round"/>
<path d="M329.765 120.187L327.562 91.2656L295.201 98.2699L293.432 121.421C291.4 121.651 289.461 121.924 287.553 122.182L295.465 139.736L310.978 141.616L335.707 120.531C333.767 120.388 331.72 120.273 329.765 120.187Z" fill="white"/>
<mask id="mask2_4622_30381" style="mask-type:luminance" maskUnits="userSpaceOnUse" x="287" y="91" width="49" height="51">
<path d="M329.763 120.191L327.56 91.2695L295.199 98.2738L293.43 121.425C291.398 121.655 289.459 121.927 287.551 122.186L295.463 139.739L310.976 141.62L335.705 120.535C333.765 120.392 331.718 120.277 329.763 120.191Z" fill="white"/>
</mask>
<g mask="url(#mask2_4622_30381)">
<path d="M294.719 108.436C294.936 129.018 320.921 122.703 328.119 102.149L327.545 91.2695L295.2 98.2738L294.719 108.436Z" fill="#263238"/>
</g>
<path d="M329.765 120.187L327.562 91.2656L295.201 98.2699L293.432 121.421C291.4 121.651 289.461 121.924 287.553 122.182L295.465 139.736L310.978 141.616L335.707 120.531C333.767 120.388 331.72 120.273 329.765 120.187Z" stroke="#263238" stroke-width="1.27201" stroke-linecap="round" stroke-linejoin="round"/>
<path d="M274.908 66.8515C274.908 66.8515 263.087 47.9344 261.349 37.9591C255.935 7.14327 279.965 17.5348 279.965 17.5348C279.965 17.5348 297.03 3.45455 318.144 5.92326C339.258 8.39197 344.905 16.731 359.162 21.855C359.162 21.855 348.457 72.0904 334.759 83.3718C321.061 94.6532 274.908 66.8515 274.908 66.8515Z" fill="#263238" stroke="#263238" stroke-width="1.27201" stroke-linecap="round" stroke-linejoin="round"/>
<path d="M281.132 22.1132C281.132 22.1132 275.811 10.1428 289.308 1" stroke="#263238" stroke-width="1.27201" stroke-linecap="round" stroke-linejoin="round"/>
<path d="M304.369 14.9206C320.177 8.46181 327.236 19.2265 344.875 22.0971" stroke="#BFBFBF" stroke-width="1.27201" stroke-miterlimit="10"/>
<path d="M292.162 22.113C293.599 20.44 295.336 19.0078 297.297 17.8789" stroke="#BFBFBF" stroke-width="1.27201" stroke-miterlimit="10"/>
<path d="M308.387 26.8039C308.387 26.8039 315.228 20.7327 328.802 28.6268C332.899 31.122 337.511 32.8033 342.346 33.5642" stroke="#BFBFBF" stroke-width="1.27201" stroke-miterlimit="10"/>
<path d="M329.305 39.9537C309.634 40.4274 289.311 32.2031 289.311 32.2031C270.974 42.4368 273.704 59.0719 273.704 59.0719C277.893 98.8295 283.555 109.422 303.63 109.422C323.704 109.422 340.024 89.3279 341.343 60.6937C333.772 61.0239 329.305 39.9537 329.305 39.9537Z" fill="white" stroke="#263238" stroke-width="1.27201" stroke-linecap="round" stroke-linejoin="round"/>
<path d="M339.648 59.0708C340.098 58.4544 340.697 57.9431 341.397 57.577C342.096 57.2109 342.879 57 343.682 56.9609C347.25 56.9609 349.887 61.2668 348.63 66.6492C347.374 72.0315 345.729 76.3231 342.161 76.3231C341.346 76.2957 340.559 76.0393 339.905 75.5881C339.251 75.1368 338.761 74.5121 338.5 73.797" fill="white"/>
<path d="M339.648 59.0708C340.098 58.4544 340.697 57.9431 341.397 57.577C342.096 57.2109 342.879 57 343.682 56.9609C347.25 56.9609 349.887 61.2668 348.63 66.6492C347.374 72.0315 345.729 76.3231 342.161 76.3231C341.346 76.2957 340.559 76.0393 339.905 75.5881C339.251 75.1368 338.761 74.5121 338.5 73.797" stroke="#263238" stroke-width="1.27201" stroke-linecap="round" stroke-linejoin="round"/>
<path d="M300.54 78.5928C300.54 78.5928 302.944 81.6356 298.337 83.9177C293.729 86.1999 290.068 86.1568 288.889 83.5446C287.71 80.9323 292.83 59.1445 292.83 59.1445" stroke="#263238" stroke-width="1.27201" stroke-linecap="round" stroke-linejoin="round"/>
<path d="M292.05 62.6285C289.568 61.4659 279.639 57.4471 270.207 62.9299L270.812 71.3695C270.812 71.3695 274.287 73.1349 282.261 73.1349C284.87 73.1793 287.475 72.9286 290.018 72.3885" stroke="#263238" stroke-width="1.27201" stroke-linecap="round" stroke-linejoin="round"/>
<path d="M300.293 62.9351L303.178 71.7334C303.178 71.7334 304.358 73.1687 312.347 73.1687C320.336 73.1687 322.958 71.4033 322.958 71.4033L322.725 62.9637C322.725 62.9637 311.137 56.6485 300.293 62.9351Z" stroke="#263238" stroke-width="1.27201" stroke-linecap="round" stroke-linejoin="round"/>
<path d="M292.689 62.9375H300.291" stroke="#263238" stroke-width="1.27201" stroke-linecap="round" stroke-linejoin="round"/>
<path d="M294.301 91.8963C298.454 92.991 302.872 92.8656 306.944 91.5375C310.078 90.4428 312.808 88.5401 314.81 86.0547" stroke="#263238" stroke-width="1.27201" stroke-linecap="round" stroke-linejoin="round"/>
<path d="M306.947 54.6073C316.922 50.8037 321.328 55.368 321.328 55.368" stroke="#263238" stroke-width="1.27201" stroke-linecap="round" stroke-linejoin="round"/>
<path d="M280.623 54.2364C282.337 53.4771 284.248 53.1807 286.136 53.3813C288.024 53.5819 289.813 54.2713 291.296 55.3702" stroke="#263238" stroke-width="1.27201" stroke-linecap="round" stroke-linejoin="round"/>
<path d="M310.918 61.0234C311.848 61.0234 312.469 62.4588 312.469 64.138C312.469 65.8173 311.693 67.2383 310.794 67.2383C309.894 67.2383 309.242 65.803 309.242 64.138C309.242 62.4731 310.002 61.0234 310.918 61.0234Z" fill="#263238"/>
<path d="M286.14 60.6406C287.056 60.6406 287.692 62.0759 287.692 63.7552C287.692 65.4345 286.916 66.8554 286.016 66.8554C285.116 66.8554 284.465 65.4202 284.465 63.7552C284.465 62.0903 285.241 60.6406 286.14 60.6406Z" fill="#263238"/>
<path d="M269.605 44.7891C269.926 46.4825 270.446 48.1382 271.157 49.7265" stroke="#BFBFBF" stroke-width="1.27201" stroke-miterlimit="10"/>
<path d="M281.506 25.8306C271.702 23.3906 267.824 28.8447 268.553 37.4565" stroke="#BFBFBF" stroke-width="1.27201" stroke-miterlimit="10"/>
<path d="M291.883 120.071L303.828 139.964L332.512 119.023L341.34 120.172L322.723 150.528C322.554 150.801 322.327 151.04 322.055 151.23C321.784 151.42 321.473 151.558 321.143 151.634C320.813 151.71 320.469 151.724 320.133 151.675C319.797 151.625 319.475 151.514 319.186 151.346L303.316 142.074L290.905 149.079C290.542 149.284 290.129 149.401 289.704 149.419C289.279 149.438 288.856 149.356 288.474 149.183C288.092 149.01 287.763 148.751 287.519 148.429C287.274 148.107 287.121 147.733 287.073 147.342L283.971 121.42L291.883 120.071Z" fill="#498CFE"/>
<mask id="mask3_4622_30381" style="mask-type:luminance" maskUnits="userSpaceOnUse" x="283" y="119" width="59" height="33">
<path d="M291.881 120.071L303.826 139.964L332.51 119.023L341.338 120.172L322.721 150.528C322.552 150.801 322.325 151.04 322.053 151.23C321.782 151.42 321.471 151.558 321.141 151.634C320.811 151.71 320.467 151.724 320.131 151.675C319.795 151.625 319.473 151.514 319.184 151.346L303.314 142.074L290.903 149.079C290.54 149.284 290.127 149.401 289.702 149.419C289.277 149.438 288.854 149.356 288.472 149.183C288.09 149.01 287.761 148.751 287.517 148.429C287.272 148.107 287.119 147.733 287.071 147.342L283.969 121.42L291.881 120.071Z" fill="white"/>
</mask>
<g mask="url(#mask3_4622_30381)">
<path opacity="0.3" d="M290.826 119.944L303.826 139.966L333.023 118.652L341.803 119.944L322.768 150.53C322.599 150.803 322.372 151.042 322.1 151.232C321.829 151.422 321.518 151.56 321.188 151.636C320.858 151.712 320.514 151.726 320.178 151.677C319.842 151.627 319.52 151.516 319.231 151.348L303.361 142.076L290.95 149.081C290.587 149.286 290.174 149.403 289.749 149.421C289.324 149.44 288.901 149.359 288.519 149.185C288.137 149.012 287.808 148.753 287.563 148.431C287.319 148.109 287.166 147.735 287.118 147.344L284.016 121.422L290.826 119.944Z" fill="black"/>
</g>
<path d="M291.883 120.071L303.828 139.964L332.512 119.023L341.34 120.172L322.723 150.528C322.554 150.801 322.327 151.04 322.055 151.23C321.784 151.42 321.473 151.558 321.143 151.634C320.813 151.71 320.469 151.724 320.133 151.675C319.797 151.625 319.475 151.514 319.186 151.346L303.316 142.074L290.905 149.079C290.542 149.284 290.129 149.401 289.704 149.419C289.279 149.438 288.856 149.356 288.474 149.183C288.092 149.01 287.763 148.751 287.519 148.429C287.274 148.107 287.121 147.733 287.073 147.342L283.971 121.42L291.883 120.071Z" stroke="#263238" stroke-width="1.27201" stroke-linecap="round" stroke-linejoin="round"/>
<path d="M114.021 250.742H192.022V260.359H114.021C113.198 260.359 112.409 260.056 111.827 259.518C111.245 258.98 110.918 258.249 110.918 257.488V253.57C110.93 252.816 111.262 252.097 111.843 251.568C112.424 251.039 113.206 250.742 114.021 250.742Z" fill="#263238" stroke="#263238" stroke-width="1.27201" stroke-linecap="round" stroke-linejoin="round"/>
<path d="M259.131 260.359H192.02V250.742L259.301 254.833C259.839 254.869 260.343 255.091 260.711 255.456C261.079 255.821 261.285 256.3 261.287 256.799V258.392C261.287 258.653 261.231 258.911 261.122 259.151C261.014 259.392 260.854 259.61 260.654 259.793C260.453 259.976 260.215 260.12 259.954 260.217C259.692 260.314 259.413 260.362 259.131 260.359Z" fill="#498CFE" stroke="#263238" stroke-width="1.27201" stroke-linecap="round" stroke-linejoin="round"/>
<path d="M322.771 64.3561L339.65 59.0742L337.649 61.4138" stroke="#263238" stroke-width="1.27201" stroke-linecap="round" stroke-linejoin="round"/>
<path d="M430.884 82.3239C430.884 82.3239 411.446 27.4095 460.36 23.5629C509.274 19.7163 514.998 61.8565 519.482 82.9841C522.988 99.5043 556.373 129.717 530.527 152.266C503.565 175.819 437.881 167.954 434.095 134.482C430.31 101.011 433.739 94.1507 430.884 82.3239Z" fill="#263238" stroke="#263238" stroke-width="1.27201" stroke-linecap="round" stroke-linejoin="round"/>
<path d="M487.912 91.0977C487.912 91.0977 485.787 115.498 499.361 136.381C499.361 136.381 481.071 141.907 461.989 136.654C462.78 130.191 462.392 123.65 460.841 117.306L460.189 114.651L474.059 103.556L487.912 91.0977Z" fill="white"/>
<mask id="mask4_4622_30381" style="mask-type:luminance" maskUnits="userSpaceOnUse" x="460" y="91" width="40" height="48">
<path d="M487.914 91.0938C487.914 91.0938 485.789 115.494 499.363 136.377C499.363 136.377 481.073 141.903 461.991 136.65C462.782 130.187 462.394 123.647 460.843 117.302L460.191 114.647L474.06 103.552L487.914 91.0938Z" fill="white"/>
</mask>
<g mask="url(#mask4_4622_30381)">
<path d="M454.342 109.426C456.87 122.53 459.182 125.386 471.189 123.047C480.079 121.31 487.665 108.966 488.099 99.9957C487.663 95.9225 487.45 91.8314 487.463 87.7383L474.059 103.527L454.342 109.426Z" fill="#263238"/>
</g>
<path d="M487.912 91.0977C487.912 91.0977 485.787 115.498 499.361 136.381C499.361 136.381 481.071 141.907 461.989 136.654C462.78 130.191 462.392 123.65 460.841 117.306L460.189 114.651L474.059 103.556L487.912 91.0977Z" stroke="#263238" stroke-width="1.27201" stroke-linecap="round" stroke-linejoin="round"/>
<path d="M351.814 230.421C351.814 230.421 324.743 218.938 323.223 228.44C321.703 237.942 328.327 252.61 353.117 245.391L405.134 251.735C405.134 251.735 414.039 235.329 404.529 226.388C404.513 226.388 358.687 232.976 351.814 230.421Z" fill="white" stroke="#263238" stroke-width="1.27201" stroke-linecap="round" stroke-linejoin="round"/>
<path d="M310.1 240.695C310.1 240.695 305.818 241.973 305.182 244.599C304.546 247.226 303.165 250.943 304.81 250.958C306.454 250.972 308.455 245.733 308.455 245.733L312.629 244.728L310.1 240.695Z" fill="white" stroke="#263238" stroke-width="1.27201" stroke-linecap="round" stroke-linejoin="round"/>
<path d="M338.453 215.769L310.311 218.496L314.509 255.582L342.652 252.855L338.453 215.769Z" fill="white" stroke="#263238" stroke-width="1.27201" stroke-linecap="round" stroke-linejoin="round"/>
<path d="M310.298 218.492L306.102 218.898L310.3 255.985L314.497 255.578L310.298 218.492Z" fill="#498CFE" stroke="#263238" stroke-width="1.27201" stroke-linecap="round" stroke-linejoin="round"/>
<path d="M330.885 210.394C329.277 210.568 327.805 211.316 326.784 212.48C325.764 213.644 325.276 215.131 325.425 216.623C325.448 216.754 325.479 216.883 325.518 217.011L326.929 216.882L328.481 216.738C328.446 216.606 328.42 216.472 328.403 216.336C328.343 215.822 328.43 215.302 328.656 214.829C328.882 214.357 329.239 213.947 329.691 213.642C330.142 213.338 330.673 213.148 331.229 213.094C331.784 213.039 332.346 213.121 332.857 213.331C333.367 213.541 333.809 213.872 334.138 214.29C334.466 214.708 334.67 215.199 334.728 215.714C334.786 216.228 334.697 216.747 334.469 217.219C334.241 217.692 333.882 218.1 333.43 218.403C333.61 218.865 333.93 219.27 334.35 219.569C334.77 219.869 335.274 220.052 335.803 220.097C336.722 219.28 337.342 218.219 337.576 217.06C337.811 215.902 337.649 214.705 337.112 213.636C336.576 212.567 335.692 211.68 334.584 211.099C333.475 210.518 332.199 210.271 330.932 210.394H330.885Z" fill="white" stroke="#263238" stroke-width="1.27201" stroke-linecap="round" stroke-linejoin="round"/>
<path d="M315.604 226.185L325.299 225.238" stroke="#263238" stroke-width="1.27201" stroke-linecap="round" stroke-linejoin="round"/>
<path d="M316.068 230.263L334.886 228.441" stroke="#263238" stroke-width="1.27201" stroke-linecap="round" stroke-linejoin="round"/>
<path d="M316.535 234.349L325.952 233.445" stroke="#263238" stroke-width="1.27201" stroke-linecap="round" stroke-linejoin="round"/>
<path d="M316.998 238.443L332.713 236.922" stroke="#263238" stroke-width="1.27201" stroke-linecap="round" stroke-linejoin="round"/>
<path d="M317.469 242.531L326.87 241.613" stroke="#263238" stroke-width="1.27201" stroke-linecap="round" stroke-linejoin="round"/>
<path d="M317.93 246.608L338.563 244.613" stroke="#263238" stroke-width="1.27201" stroke-linecap="round" stroke-linejoin="round"/>
<path d="M318.381 250.698L328.077 249.766" stroke="#263238" stroke-width="1.27201" stroke-linecap="round" stroke-linejoin="round"/>
<path d="M325.675 210.898C324.069 211.075 322.601 211.825 321.584 212.989C320.567 214.152 320.081 215.637 320.229 217.127C320.248 217.262 320.274 217.396 320.307 217.529L321.734 217.385L323.286 217.242C323.238 217.112 323.207 216.977 323.193 216.84C323.162 216.089 323.441 215.356 323.973 214.789C324.506 214.221 325.252 213.863 326.06 213.786C326.867 213.709 327.676 213.92 328.322 214.375C328.968 214.831 329.403 215.496 329.538 216.237C329.598 216.751 329.507 217.27 329.275 217.74C329.043 218.21 328.678 218.613 328.219 218.907C328.4 219.369 328.719 219.773 329.139 220.073C329.56 220.373 330.064 220.556 330.593 220.601C331.511 219.784 332.131 218.723 332.366 217.564C332.601 216.406 332.438 215.209 331.902 214.14C331.365 213.071 330.481 212.184 329.373 211.603C328.265 211.022 326.988 210.775 325.721 210.898H325.675Z" fill="white" stroke="#263238" stroke-width="1.27201" stroke-linecap="round" stroke-linejoin="round"/>
<path d="M320.46 211.404C318.854 211.581 317.386 212.332 316.369 213.495C315.352 214.659 314.866 216.144 315.015 217.634C315.015 217.777 315.015 217.892 315.015 218.036L316.442 217.892L317.993 217.748C317.955 217.621 317.924 217.492 317.9 217.361C317.837 216.844 317.922 216.32 318.148 215.843C318.373 215.366 318.731 214.953 319.184 214.644C319.638 214.336 320.171 214.144 320.731 214.088C321.29 214.032 321.856 214.114 322.37 214.324C322.885 214.535 323.33 214.868 323.661 215.289C323.991 215.711 324.196 216.205 324.254 216.723C324.312 217.241 324.222 217.764 323.991 218.238C323.761 218.713 323.399 219.124 322.942 219.428C323.117 219.889 323.433 220.293 323.852 220.591C324.271 220.889 324.774 221.068 325.3 221.107C325.979 220.518 326.5 219.792 326.823 218.985C327.146 218.178 327.262 217.312 327.162 216.457C326.974 214.974 326.169 213.616 324.918 212.673C323.667 211.73 322.068 211.275 320.46 211.404Z" fill="white" stroke="#263238" stroke-width="1.27201" stroke-linecap="round" stroke-linejoin="round"/>
<path d="M315.26 211.903C313.652 212.077 312.18 212.825 311.159 213.989C310.139 215.153 309.651 216.64 309.8 218.132C309.822 218.268 309.853 218.402 309.893 218.534L311.304 218.391L312.856 218.247C312.822 218.119 312.797 217.99 312.778 217.86C312.718 217.346 312.805 216.826 313.031 216.353C313.257 215.88 313.614 215.471 314.066 215.166C314.517 214.861 315.048 214.672 315.604 214.617C316.159 214.562 316.721 214.644 317.232 214.854C317.742 215.064 318.184 215.395 318.513 215.813C318.841 216.232 319.045 216.723 319.103 217.237C319.161 217.751 319.072 218.271 318.844 218.743C318.616 219.215 318.257 219.623 317.805 219.927C317.986 220.387 318.306 220.789 318.726 221.087C319.147 221.384 319.651 221.564 320.178 221.606C320.851 221.013 321.368 220.286 321.691 219.48C322.014 218.674 322.133 217.811 322.04 216.956C321.852 215.459 321.037 214.09 319.768 213.145C318.5 212.2 316.881 211.754 315.26 211.903Z" fill="white" stroke="#263238" stroke-width="1.27201" stroke-linecap="round" stroke-linejoin="round"/>
<path d="M307.522 218.364C307.456 217.846 307.54 217.321 307.765 216.843C307.99 216.364 308.348 215.95 308.802 215.64C309.256 215.331 309.791 215.139 310.351 215.082C310.912 215.026 311.479 215.108 311.994 215.32C312.509 215.532 312.955 215.866 313.285 216.289C313.616 216.711 313.82 217.208 313.876 217.727C313.932 218.246 313.839 218.769 313.606 219.244C313.373 219.719 313.008 220.129 312.548 220.431C312.73 220.891 313.049 221.294 313.47 221.591C313.891 221.889 314.394 222.069 314.922 222.111C315.803 221.33 316.412 220.323 316.669 219.219C316.926 218.116 316.821 216.966 316.366 215.919C315.912 214.871 315.128 213.974 314.118 213.341C313.107 212.709 311.915 212.371 310.694 212.371C309.474 212.371 308.282 212.709 307.271 213.341C306.26 213.974 305.477 214.871 305.022 215.919C304.568 216.966 304.462 218.116 304.72 219.219C304.977 220.323 305.586 221.33 306.467 222.111L306.11 218.881L307.661 218.738C307.601 218.618 307.554 218.493 307.522 218.364Z" fill="white" stroke="#263238" stroke-width="1.27201" stroke-linecap="round" stroke-linejoin="round"/>
<path d="M302.852 228.885C303.116 229.427 303.422 229.95 303.767 230.45C303.468 231.439 303.413 232.477 303.606 233.488C303.8 234.5 304.237 235.458 304.884 236.292C304.884 236.292 305.008 240.382 306.575 241.028C308.142 241.674 310.64 242.463 310.593 241.315C310.547 240.167 309.818 236.737 306.994 235.976C306.994 235.976 310.237 236.564 309.88 234.899C309.523 233.234 308.902 230.823 306.917 230.134L305.846 229.704C305.846 229.704 308.421 230.134 308.204 228.34C307.987 226.546 307.77 224.436 306.296 223.934C305.955 223.819 305.567 223.718 305.164 223.618C302.992 223.144 301.596 226.302 302.852 228.885Z" fill="white" stroke="#263238" stroke-width="1.27201" stroke-linecap="round" stroke-linejoin="round"/>
<path d="M348.774 230.103C348.774 230.103 345.749 223.903 340.8 220.673C335.851 217.444 333.99 211.157 331.973 212.679C329.956 214.2 331.787 220.874 334.92 223.157C338.054 225.439 334.548 230.534 342.258 236.821" fill="white"/>
<path d="M348.774 230.103C348.774 230.103 345.749 223.903 340.8 220.673C335.851 217.444 333.99 211.157 331.973 212.679C329.956 214.2 331.787 220.874 334.92 223.157C338.054 225.439 334.548 230.534 342.258 236.821" stroke="#263238" stroke-width="1.27201" stroke-linecap="round" stroke-linejoin="round"/>
<path d="M531.01 248.2C530.327 252.104 529.598 256.156 528.823 260.357H422.431C422.26 259.036 423.269 256.381 424.231 251.745C412.378 255.463 391.652 249.693 391.652 249.693C394.228 243.42 392.444 227.489 392.444 227.489L404.513 225.12C404.513 225.12 409.524 176.579 413.34 162.671C417.389 147.916 439.542 131.812 514.054 136.563C514.054 136.563 548.432 135.96 553.768 157.044C558.795 176.722 532.437 247.296 531.01 248.2Z" fill="#498CFE"/>
<mask id="mask5_4622_30381" style="mask-type:luminance" maskUnits="userSpaceOnUse" x="391" y="135" width="164" height="126">
<path d="M531.008 248.204C530.325 252.108 529.596 256.16 528.821 260.361H422.429C422.258 259.04 423.267 256.385 424.229 251.749C412.376 255.467 391.65 249.697 391.65 249.697C394.226 243.424 392.442 227.493 392.442 227.493L404.511 225.124C404.511 225.124 409.522 176.583 413.338 162.675C417.387 147.92 439.54 131.816 514.052 136.567C514.052 136.567 548.43 135.964 553.766 157.048C558.793 176.726 532.435 247.3 531.008 248.204Z" fill="white"/>
</mask>
<g mask="url(#mask5_4622_30381)">
<path opacity="0.2" d="M424.227 251.765C415.99 254.348 403.501 252.353 396.645 250.889C398.429 249.626 399.546 247.043 399.964 243.713C405.549 242.909 411.134 234.699 414.811 197.381C415.68 188.626 417.541 183.129 419.93 179.426C417.521 187.824 417.425 196.647 419.651 205.089C420.985 210.098 425.174 222.155 425.546 227.149C426.291 235.372 425.848 243.65 424.227 251.765Z" fill="black"/>
<path opacity="0.2" d="M530.991 248.218C530.329 252.122 529.605 256.169 528.819 260.361H422.428C424.336 254.964 429.021 229.272 422.428 213.656C422.164 213.025 445.279 204.04 460.762 207.714C526.384 223.287 503.781 173.109 522.521 163.98L506.356 222.641L497.529 225.239C516.641 226.33 511.119 252.84 511.119 252.84C518.138 253.702 525.247 252.049 530.991 248.218Z" fill="black"/>
</g>
<path d="M531.01 248.2C530.327 252.104 529.598 256.156 528.823 260.357H422.431C422.26 259.036 423.269 256.381 424.231 251.745C412.378 255.463 391.652 249.693 391.652 249.693C394.228 243.42 392.444 227.489 392.444 227.489L404.513 225.12C404.513 225.12 409.524 176.579 413.34 162.671C417.389 147.916 439.542 131.812 514.054 136.563C514.054 136.563 548.432 135.96 553.768 157.044C558.795 176.722 532.437 247.296 531.01 248.2Z" stroke="#263238" stroke-width="1.27201" stroke-linecap="round" stroke-linejoin="round"/>
<path d="M394.428 224.765C394.428 224.765 398.461 226.76 399.78 235.53C401.099 244.3 399.066 251.849 393.807 251.735C388.548 251.62 387.602 249.711 388.688 247.902C389.774 246.094 392.07 243.668 390.317 236.162C388.114 226.76 383.584 227.622 383.584 227.622C383.584 227.622 389.619 222.268 394.428 224.765Z" fill="#498CFE" stroke="#263238" stroke-width="1.27201" stroke-linecap="round" stroke-linejoin="round"/>
<path opacity="0.2" d="M399.966 243.766C399.547 247.038 398.415 249.622 396.646 250.942C395.838 251.527 394.832 251.827 393.807 251.789C388.533 251.674 387.602 249.765 388.688 247.957C389.774 246.148 392.07 243.723 390.317 236.216C388.114 226.815 383.584 227.676 383.584 227.676C383.584 227.676 389.634 222.323 394.443 224.806C394.443 224.806 398.477 226.801 399.796 235.57C400.215 238.285 400.273 241.038 399.966 243.766Z" fill="black"/>
<path d="M495.778 119.027C495.778 119.027 469.033 126.534 456.871 122.529L454.342 137.557C454.342 137.557 466.179 147.087 504.094 135.361L495.778 119.027Z" fill="#498CFE" stroke="#263238" stroke-width="1.27201" stroke-linecap="round" stroke-linejoin="round"/>
<path d="M400.742 220.384C403.923 229.958 406.762 237.608 403.954 238.455C401.146 239.302 398.834 231.407 395.654 221.82C392.474 212.232 389.635 204.596 392.443 203.764C395.251 202.931 397.562 210.797 400.742 220.384Z" fill="#498CFE" stroke="#263238" stroke-width="1.27201" stroke-linecap="round" stroke-linejoin="round"/>
<path d="M395.247 220.617L400.335 219.181C399.59 216.928 398.892 214.775 398.225 212.852L393.152 214.287C393.773 216.225 394.487 218.349 395.247 220.617Z" fill="#263238"/>
<path d="M394.787 208.3C394.787 208.3 397.161 203.894 399.348 207.008C401.535 210.123 401.985 219.581 403.537 219.596" stroke="#263238" stroke-width="1.27201" stroke-linecap="round" stroke-linejoin="round"/>
<path d="M426.342 161.426C424.403 166.923 421.688 172.908 419.935 179.496C417.526 187.895 417.43 196.718 419.656 205.159C420.99 210.168 425.179 222.225 425.551 227.22C426.291 235.424 425.847 243.682 424.232 251.778C423.271 256.399 422.262 259.055 422.433 260.389" stroke="#263238" stroke-width="1.27201" stroke-linecap="round" stroke-linejoin="round"/>
<path d="M492.194 226.872C492.194 226.872 448.911 232.34 434.313 232.613C432.079 232.613 425.377 231.895 425.377 231.895L414.998 225.479C414.998 225.479 407.009 224.388 403.084 225.207L398.616 230.618C398.616 230.618 393.047 232.283 396.227 236.187C395.896 237.102 395.859 238.087 396.121 239.022C396.382 239.957 396.931 240.802 397.701 241.454C397.701 241.454 397.949 244.856 400.4 246.219C400.4 246.219 400.881 249.391 403.581 250.296C406.28 251.2 423.174 248.702 428.325 247.353C433.475 246.004 483.428 253.238 503.022 252.793C503.022 252.822 519.807 234.622 492.194 226.872Z" fill="white" stroke="#263238" stroke-width="1.27201" stroke-linecap="round" stroke-linejoin="round"/>
<path d="M492.863 75.3027C492.863 75.3027 481.445 79.422 474.681 68.0258C471.749 63.0884 465.823 52.7973 465.823 52.7973C464.132 56.8305 466.211 62.9736 466.211 62.9736C462.333 61.4091 454.855 61.0359 454.855 61.0359C452.202 56.931 451.427 47.6016 451.427 47.6016C447.75 53.3427 448.805 61.4378 448.805 61.4378C442.804 61.9722 437.124 64.1964 432.531 67.8105C433.509 71.4705 433.85 77.183 433.524 89.0529C433.105 104.54 441.157 108.788 449.038 114.587C456.918 120.385 478.374 123.371 485.789 93.0573C485.789 93.0573 501.302 87.7037 493.732 76.4653L492.863 75.3027Z" fill="white" stroke="#263238" stroke-width="1.27201" stroke-linecap="round" stroke-linejoin="round"/>
<path d="M480.141 56.6484C482.451 61.2632 485.819 65.3573 490.012 68.6464C494.204 71.9355 499.121 74.3406 504.419 75.6948" stroke="#BFBFBF" stroke-width="1.27201" stroke-miterlimit="10"/>
<path d="M476.062 45.1641C476.425 47.0496 476.944 48.9066 477.614 50.7186" stroke="#BFBFBF" stroke-width="1.27201" stroke-miterlimit="10"/>
<path d="M483.818 45.8633C483.818 45.8633 492.63 61.4219 506.406 61.7951" stroke="#BFBFBF" stroke-width="1.27201" stroke-miterlimit="10"/>
<path d="M510.826 85.4375C510.826 85.4375 533.243 119.023 533.243 138.543" stroke="#BFBFBF" stroke-width="1.27201" stroke-miterlimit="10"/>
<path d="M504.9 94.3984C504.9 94.3984 510.439 113.129 519.359 122.53" stroke="#BFBFBF" stroke-width="1.27201" stroke-miterlimit="10"/>
<path d="M434.455 45.6953C433.784 48.4588 433.343 51.2659 433.137 54.0918" stroke="#BFBFBF" stroke-width="1.27201" stroke-miterlimit="10"/>
<path d="M452.802 28.0977C452.802 28.0977 442.361 29.9061 435.551 41.288" stroke="#BFBFBF" stroke-width="1.27201" stroke-miterlimit="10"/>
<path d="M439.588 115.066C439.588 115.066 439.247 130.137 447.562 138.605" stroke="#BFBFBF" stroke-width="1.27201" stroke-miterlimit="10"/>
<path d="M454.342 68.9433C465.651 66.8909 470.6 72.2158 470.6 72.2158" stroke="#263238" stroke-width="1.27201" stroke-linecap="round" stroke-linejoin="round"/>
<path d="M435.508 73.357C436.756 72.1918 438.25 71.277 439.896 70.6695C441.543 70.062 443.308 69.7749 445.08 69.8261" stroke="#263238" stroke-width="1.27201" stroke-linecap="round" stroke-linejoin="round"/>
<path d="M461.708 104.014C465.198 102.177 467.138 97.3828 467.138 97.3828L466.408 97.756C461.858 100.007 456.899 101.466 451.779 102.062C452.975 103.348 454.594 104.235 456.388 104.587C458.181 104.94 460.05 104.739 461.708 104.014Z" stroke="#263238" stroke-width="1.27201" stroke-linecap="round" stroke-linejoin="round"/>
<path d="M447.873 94.0528C446.399 93.8806 442.195 92.0434 441.838 89.4025C441.73 88.6131 442.35 87.8954 443.266 87.2639C445.077 86.0869 446.534 84.5014 447.498 82.6578C448.461 80.8142 448.9 78.7734 448.773 76.7288C448.773 76.4417 448.773 76.2695 448.773 76.2695" stroke="#263238" stroke-width="1.27201" stroke-linecap="round" stroke-linejoin="round"/>
<path d="M462.33 73.1516C463.401 73.0224 464.502 74.673 464.781 76.8116C465.061 78.9502 464.44 80.773 463.354 80.9022C462.268 81.0314 461.198 79.3808 460.903 77.2422C460.608 75.1036 461.26 73.2664 462.33 73.1516Z" fill="#263238"/>
<path d="M443.686 79.3402C443.965 81.4357 443.345 83.2298 442.29 83.3447C441.235 83.4595 440.164 81.9093 439.885 79.7707C439.606 77.6321 440.226 75.8668 441.281 75.7519C442.336 75.6371 443.407 77.2303 443.686 79.3402Z" fill="#263238"/>
<path d="M478.402 74.9482C478.402 74.9482 476.959 71.159 478.603 69.207" stroke="#263238" stroke-width="1.27201" stroke-linecap="round" stroke-linejoin="round"/>
<path d="M530.996 248.218C525.249 252.055 518.132 253.709 511.107 252.84C511.107 252.84 516.63 226.33 497.518 225.239L506.345 222.641L522.51 163.98" stroke="#263238" stroke-width="1.27201" stroke-linecap="round" stroke-linejoin="round"/>
<path d="M511.105 222.637C511.105 222.637 521.344 225.134 524.214 233.287" stroke="#263238" stroke-width="1.27201" stroke-linecap="round" stroke-linejoin="round"/>
<path d="M469.33 128.241C479.072 128.18 488.692 126.224 497.565 122.5" stroke="#263238" stroke-width="1.27201" stroke-linecap="round" stroke-linejoin="round"/>
<path d="M456.143 126.836C458.331 127.364 460.562 127.728 462.813 127.926" stroke="#263238" stroke-width="1.27201" stroke-linecap="round" stroke-linejoin="round"/>
<path d="M499.762 143.652C502.523 142.753 505.419 141.696 508.449 140.48" stroke="#263238" stroke-width="1.27201" stroke-linecap="round" stroke-linejoin="round"/>
<path d="M451.842 143.871C451.842 143.871 462.251 153.014 489.788 146.483" stroke="#263238" stroke-width="1.27201" stroke-linecap="round" stroke-linejoin="round"/>
<path d="M460.84 189.312C460.84 189.312 462.391 211.373 480.139 219.597" stroke="#263238" stroke-width="1.27201" stroke-linecap="round" stroke-linejoin="round"/>
<path d="M491.758 227.216C491.758 227.216 495.233 220.126 505.627 223.628C505.627 223.628 515.447 226.757 518.394 236.101C521.342 245.444 517.65 253.784 510.483 254.128C503.315 254.472 502.012 253.956 503.222 251.918C504.494 249.692 505.205 247.23 505.302 244.714C505.398 242.199 504.878 239.696 503.781 237.392C499.328 227.532 491.758 227.216 491.758 227.216Z" fill="#498CFE"/>
<mask id="mask6_4622_30381" style="mask-type:luminance" maskUnits="userSpaceOnUse" x="491" y="222" width="29" height="33">
<path d="M491.76 227.22C491.76 227.22 495.235 220.13 505.629 223.632C505.629 223.632 515.449 226.761 518.396 236.105C521.344 245.448 517.652 253.787 510.485 254.132C503.317 254.476 502.014 253.96 503.224 251.922C504.496 249.696 505.207 247.234 505.304 244.718C505.4 242.203 504.88 239.7 503.783 237.396C499.33 227.536 491.76 227.22 491.76 227.22Z" fill="white"/>
</mask>
<g mask="url(#mask6_4622_30381)">
<g opacity="0.2">
<path d="M491.76 227.22C491.76 227.22 495.235 220.13 505.629 223.632C505.629 223.632 515.449 226.761 518.396 236.105C521.344 245.448 517.652 253.787 510.485 254.132C503.317 254.476 502.014 253.96 503.224 251.922C504.496 249.696 505.207 247.234 505.304 244.718C505.4 242.203 504.88 239.7 503.783 237.396C499.33 227.536 491.76 227.22 491.76 227.22Z" fill="black"/>
</g>
</g>
<path d="M491.758 227.216C491.758 227.216 495.233 220.126 505.627 223.628C505.627 223.628 515.447 226.757 518.394 236.101C521.342 245.444 517.65 253.784 510.483 254.128C503.315 254.472 502.012 253.956 503.222 251.918C504.494 249.692 505.205 247.23 505.302 244.714C505.398 242.199 504.878 239.696 503.781 237.392C499.328 227.532 491.758 227.216 491.758 227.216Z" stroke="#263238" stroke-width="1.27201" stroke-linecap="round" stroke-linejoin="round"/>
<path d="M232.922 221.372L218.805 115.017C218.537 113.354 217.646 111.83 216.288 110.713C214.93 109.595 213.191 108.955 211.374 108.902H195.209L213.918 227.443H227.151C227.983 227.458 228.808 227.305 229.569 226.994C230.33 226.684 231.009 226.224 231.558 225.646C232.107 225.068 232.514 224.386 232.75 223.648C232.985 222.91 233.044 222.133 232.922 221.372Z" fill="#498CFE" stroke="#263238" stroke-width="1.27201" stroke-linecap="round" stroke-linejoin="round"/>
<path d="M223.617 227.445H60.974C59.1601 227.389 57.4246 226.747 56.0697 225.63C54.7148 224.513 53.8262 222.991 53.5585 221.33L39.4413 114.975C39.3166 114.213 39.3736 113.436 39.6081 112.696C39.8426 111.957 40.2491 111.275 40.7989 110.696C41.3488 110.118 42.0287 109.657 42.7911 109.348C43.5535 109.038 44.3799 108.887 45.2123 108.904H207.918C209.732 108.959 211.467 109.601 212.822 110.719C214.177 111.836 215.065 113.357 215.333 115.018L229.45 221.373C229.573 222.139 229.513 222.921 229.274 223.664C229.035 224.406 228.623 225.091 228.066 225.669C227.51 226.248 226.824 226.707 226.055 227.014C225.286 227.321 224.454 227.468 223.617 227.445Z" fill="#263238"/>
<mask id="mask7_4622_30381" style="mask-type:luminance" maskUnits="userSpaceOnUse" x="39" y="108" width="191" height="120">
<path d="M223.621 227.441H60.9779C59.164 227.385 57.4285 226.743 56.0736 225.626C54.7187 224.509 53.8301 222.987 53.5625 221.326L39.4452 114.971C39.3205 114.209 39.3775 113.432 39.612 112.693C39.8465 111.953 40.253 111.271 40.8028 110.692C41.3527 110.114 42.0326 109.654 42.795 109.344C43.5574 109.034 44.3838 108.883 45.2162 108.9H207.922C209.735 108.955 211.471 109.598 212.826 110.715C214.181 111.832 215.069 113.353 215.337 115.014L229.454 221.369C229.577 222.136 229.517 222.917 229.278 223.66C229.039 224.402 228.626 225.087 228.07 225.666C227.514 226.244 226.827 226.703 226.059 227.01C225.29 227.317 224.458 227.464 223.621 227.441Z" fill="white"/>
</mask>
<g mask="url(#mask7_4622_30381)">
<path opacity="0.1" d="M223.621 227.441H60.9779C59.164 227.385 57.4285 226.743 56.0736 225.626C54.7187 224.509 53.8301 222.987 53.5625 221.326L39.4452 114.971C39.3205 114.209 39.3775 113.432 39.612 112.693C39.8465 111.953 40.253 111.271 40.8028 110.692C41.3527 110.114 42.0326 109.654 42.795 109.344C43.5574 109.034 44.3838 108.883 45.2162 108.9H207.922C209.735 108.955 211.471 109.598 212.826 110.715C214.181 111.832 215.069 113.353 215.337 115.014L229.454 221.369C229.577 222.136 229.517 222.917 229.278 223.66C229.039 224.402 228.626 225.087 228.07 225.666C227.514 226.244 226.827 226.703 226.059 227.01C225.29 227.317 224.458 227.464 223.621 227.441Z" fill="white"/>
</g>
<path d="M223.617 227.445H60.974C59.1601 227.389 57.4246 226.747 56.0697 225.63C54.7148 224.513 53.8262 222.991 53.5585 221.33L39.4413 114.975C39.3166 114.213 39.3736 113.436 39.6081 112.696C39.8426 111.957 40.2491 111.275 40.7989 110.696C41.3488 110.118 42.0287 109.657 42.7911 109.348C43.5535 109.038 44.3799 108.887 45.2123 108.904H207.918C209.732 108.959 211.467 109.601 212.822 110.719C214.177 111.836 215.065 113.357 215.333 115.018L229.45 221.373C229.573 222.139 229.513 222.921 229.274 223.664C229.035 224.406 228.623 225.091 228.066 225.669C227.51 226.248 226.824 226.707 226.055 227.014C225.286 227.321 224.454 227.468 223.617 227.445Z" stroke="#263238" stroke-width="1.27201" stroke-linecap="round" stroke-linejoin="round"/>
<path d="M147.804 251.658L154.304 183.151C154.331 182.759 154.272 182.365 154.128 181.995C153.985 181.625 153.76 181.286 153.47 180.999C153.179 180.713 152.827 180.484 152.437 180.329C152.047 180.173 151.626 180.093 151.201 180.094H110.199C109.43 180.09 108.686 180.351 108.113 180.825C107.539 181.3 107.177 181.955 107.096 182.663L100.022 257.298C99.9946 257.691 100.054 258.084 100.198 258.454C100.341 258.824 100.566 259.163 100.856 259.45C101.147 259.736 101.499 259.965 101.889 260.121C102.279 260.276 102.7 260.356 103.125 260.355H184.478C185.3 260.355 186.09 260.053 186.671 259.515C187.253 258.976 187.58 258.246 187.58 257.485C187.58 256.724 187.253 255.993 186.671 255.455C186.09 254.917 185.3 254.614 184.478 254.614H150.829C150.42 254.605 150.017 254.521 149.644 254.367C149.27 254.213 148.933 253.993 148.652 253.718C148.371 253.443 148.151 253.12 148.005 252.766C147.86 252.413 147.791 252.036 147.804 251.658Z" fill="#263238" stroke="#263238" stroke-width="1.27201" stroke-linecap="round" stroke-linejoin="round"/>
<path d="M187.521 257.588C187.521 256.827 187.194 256.096 186.612 255.558C186.03 255.02 185.241 254.717 184.418 254.717H150.831C150.405 254.718 149.983 254.638 149.591 254.481C149.2 254.325 148.848 254.095 148.557 253.807C148.266 253.519 148.042 253.178 147.899 252.806C147.757 252.434 147.699 252.039 147.729 251.646L154.229 183.139C154.362 182.731 154.396 182.299 154.326 181.877C154.257 181.455 154.087 181.053 153.828 180.699C153.57 180.345 153.229 180.05 152.831 179.833C152.433 179.617 151.988 179.485 151.528 179.448C151.069 179.411 150.606 179.47 150.173 179.619C149.741 179.768 149.35 180.005 149.029 180.312C148.708 180.619 148.465 180.988 148.318 181.393C148.171 181.797 148.123 182.227 148.178 182.651L141.104 257.287C141.077 257.673 141.134 258.06 141.273 258.426C141.412 258.791 141.629 259.127 141.912 259.412C142.194 259.698 142.537 259.928 142.918 260.088C143.299 260.248 143.711 260.335 144.129 260.344H184.464C185.258 260.333 186.017 260.042 186.586 259.529C187.154 259.017 187.489 258.322 187.521 257.588Z" fill="#498CFE" stroke="#263238" stroke-width="1.27201" stroke-linecap="round" stroke-linejoin="round"/>
<path d="M1 260.355H582.755" stroke="#263238" stroke-width="1.27201" stroke-linecap="round" stroke-linejoin="round"/>
</svg>
