<svg width="18" height="18" viewBox="0 0 18 18" fill="none" xmlns="http://www.w3.org/2000/svg">
<path fill-rule="evenodd" clip-rule="evenodd" d="M0 15.5498C0 16.3931 0.683004 17.0762 1.52628 17.0762H6.48694C7.33026 17.0762 8.01335 16.3931 8.01335 15.5498V9.44437C8.01335 8.60105 7.33026 7.91801 6.48694 7.91801H4.03717C3.61343 7.91801 3.27403 7.57457 3.27403 7.15487C3.27403 7.01749 3.30826 6.9221 3.30826 6.9221C3.86534 5.07507 5.27323 3.59457 7.07826 2.93832L7.08582 2.93068C7.63169 2.698 8.01331 2.15599 8.01331 1.52632C8.01331 0.683088 7.33022 0 6.4869 0C6.28085 0 6.08639 0.041916 5.90713 0.114366L5.83808 0.141246C2.4229 1.4729 0 4.79279 0 8.68115V15.5498ZM9.92137 15.5498C9.92137 16.3931 10.6044 17.0762 11.4477 17.0762H16.4084C17.2517 17.0762 17.9347 16.3931 17.9347 15.5498V9.44437C17.9347 8.60105 17.2517 7.91801 16.4084 7.91801H13.9585C13.5348 7.91801 13.1954 7.57457 13.1954 7.15487C13.1954 7.01366 13.2296 6.9221 13.2296 6.9221C13.7868 5.07507 15.1946 3.59457 16.9997 2.93832L17.0073 2.93068C17.5531 2.698 17.9347 2.15599 17.9347 1.52632C17.9347 0.683088 17.2517 0 16.4084 0C16.2023 0 16.0078 0.041916 15.8286 0.114366L15.7595 0.141246C12.3443 1.4729 9.92137 4.79279 9.92137 8.68115V15.5498Z" fill="#EEBC00"/>
</svg>
