<svg width="97" height="113" viewBox="0 0 97 113" fill="none" xmlns="http://www.w3.org/2000/svg">
<path d="M59.636 45.9188L44.3895 44.8265C43.6158 44.781 43.0469 44.1211 43.0924 43.3474C43.1607 42.5737 43.8206 41.982 44.5943 42.0503L59.8408 43.1198C60.6145 43.1881 61.2062 43.848 61.1379 44.6217C61.0924 45.3954 60.4097 45.9871 59.636 45.9188Z" fill="#FEB546"/>
<path d="M55.2483 0L60.596 13.0619L74.3633 16.0885L63.5998 25.1909L64.9879 39.2313L52.9955 31.7901L40.0701 37.4563L43.438 23.7572L34.0625 13.1985L48.1257 12.1744L55.2483 0Z" fill="#FEB546"/>
<path d="M55.2501 0L53.8848 19.1605L60.5978 13.0619L55.2501 0Z" fill="#F4A640"/>
<path d="M74.3651 16.0879L53.8848 19.1599L63.6016 25.1903L74.3651 16.0879Z" fill="#F4A640"/>
<path d="M53.883 19.156L48.1257 12.1699L34.0625 13.1939L53.883 19.156Z" fill="#F4A640"/>
<path d="M40.0703 37.456L53.8832 19.1602L43.4382 23.7569L40.0703 37.456Z" fill="#F4A640"/>
<path d="M64.9885 39.2309L53.8836 19.1602L52.9961 31.7897L64.9885 39.2309Z" fill="#F4A640"/>
<path d="M63.0074 54.6366L39.8418 52.9982L40.4107 44.8516L63.5763 46.5128L63.0074 54.6366Z" fill="#6F747A"/>
<g style="mix-blend-mode:multiply">
<path d="M39.9101 52.1133L39.8418 53.0008L63.0074 54.6392L63.0756 53.7517L39.9101 52.1133Z" fill="#CDD6E0"/>
</g>
<g style="mix-blend-mode:multiply">
<path d="M40.4335 44.6211L40.3652 45.5086L63.5308 47.1698L63.5991 46.2823L40.4335 44.6211Z" fill="#CDD6E0"/>
</g>
<path d="M63.3939 46.9013L40.5697 45.2629C39.978 45.2173 39.5457 44.7167 39.5912 44.1478C39.6367 43.5562 40.1373 43.1238 40.7062 43.1693L63.5305 44.8077C64.1221 44.8305 64.5545 45.3311 64.509 45.9228C64.4635 46.4917 63.9628 46.924 63.3939 46.9013Z" fill="#F4A640"/>
<path d="M63.3016 56.5743L38.9527 54.8221C38.7935 54.8221 38.6797 54.6855 38.6797 54.5262L38.7935 53.0016C38.8162 52.8423 38.9528 52.7285 39.112 52.7285L63.461 54.4807C63.6202 54.4807 63.734 54.6173 63.7113 54.7766L63.5975 56.3012C63.5975 56.4605 63.4609 56.5743 63.3016 56.5743Z" fill="#6F747A"/>
<path d="M55.8831 51.9757L47.0765 51.3613C45.9842 51.2702 45.1423 50.3145 45.2333 49.2222C45.3016 48.1299 46.2573 47.3107 47.3496 47.379L56.1562 48.0161C57.2712 48.0844 58.0904 49.0402 57.9994 50.1324C57.9311 51.2247 56.9754 52.0667 55.8831 51.9757Z" fill="#FEB546"/>
<g style="mix-blend-mode:multiply">
<path d="M47.1228 50.6972C46.3491 50.629 45.7574 49.9008 45.9167 49.1043C46.0532 48.4444 46.6904 47.9893 47.3731 48.0576L56.0659 48.672C56.7485 48.7175 57.3174 49.2409 57.3402 49.9235C57.3857 50.7428 56.7258 51.3799 55.9293 51.3117L47.1228 50.6972Z" fill="#D9D9D9"/>
</g>
<path d="M54.6093 43.6072L49.7168 43.2659L49.7395 42.8108C49.8761 40.9675 50.0809 37.1218 52.9936 31.7969C55.201 37.8955 54.7686 41.3089 54.6548 43.1521L54.6093 43.6072Z" fill="#FEB546"/>
<path d="M11.4258 56.3261H9.04102C9.42728 56.0658 9.92271 55.9062 10.4517 55.9062H70.1804C73.3041 55.9062 75.8401 58.1483 75.8401 60.9193V64.1018C75.8401 66.8729 73.3041 69.1233 70.1804 69.1233L11.1151 69.1065L11.4258 56.3261Z" fill="#E03268"/>
<path d="M70.827 64.1018V60.9193C70.827 58.1483 68.2995 55.9062 65.1758 55.9062H66.4521C69.5759 55.9062 72.1118 58.1483 72.1118 60.9193V64.1018C72.1118 66.8729 69.5759 69.1233 66.4521 69.1233H65.1926C68.3079 69.1149 70.827 66.8729 70.827 64.1018Z" fill="#FEB546"/>
<path d="M56.8388 64.1018V60.9193C56.8388 58.1483 54.3112 55.9062 51.1875 55.9062H52.4639C55.5876 55.9062 58.1235 58.1483 58.1235 60.9193V64.1018C58.1235 66.8729 55.5876 69.1233 52.4639 69.1233H51.2043C54.3196 69.1149 56.8388 66.8729 56.8388 64.1018Z" fill="#FEB546"/>
<path d="M45.3328 55.9121C48.3222 55.9121 50.749 58.0618 50.749 60.7069V64.3092C50.749 66.9627 48.3222 69.104 45.3328 69.104H8.15039V68.3063H8.30154L17.7567 67.5085L19.6712 60.8664C19.6712 60.8664 15.9765 57.1885 15.7414 57.0961C15.4979 57.0037 8.30154 56.7182 8.30154 56.7182L8.15039 56.7098V55.9121H45.3328Z" fill="#FF5B7E"/>
<path d="M10.5616 62.4915C10.5616 58.6036 8.30273 56.7227 8.30273 56.7227H44.5783C47.3241 56.7227 49.5494 58.696 49.5494 61.1311V63.9022C49.5494 66.3374 47.3241 68.3107 44.5783 68.3107H8.30273C8.30273 68.3107 10.5616 67.3786 10.5616 62.4915Z" fill="#DAEEF7"/>
<g style="mix-blend-mode:multiply">
<path d="M49.5494 61.1311V63.9022C49.5494 64.2633 49.499 64.6159 49.3982 64.9602C48.1806 62.3067 45.8294 59.7456 41.3706 58.9227C30.9498 57.0082 8.30273 56.7227 8.30273 56.7227H44.5783C47.3241 56.7227 49.5494 58.696 49.5494 61.1311Z" fill="#DAEEF7"/>
</g>
<path d="M12.4103 82.7464H9.71484C10.1515 82.4105 10.7057 82.209 11.3103 82.209H78.9155C82.4507 82.209 85.3141 85.022 85.3141 88.49V92.4787C85.3141 95.9467 82.4507 98.7597 78.9155 98.7597L12.066 98.7345L12.4103 82.7464Z" fill="#07085B"/>
<path d="M50.7914 82.2266C54.1755 82.2266 56.9129 84.9136 56.9129 88.2305V92.7397C56.9129 96.0566 54.1755 98.7437 50.7914 98.7437H8.70508V97.736H8.88142L19.5793 96.7368L21.7374 88.4236C21.7374 88.4236 17.564 83.8304 17.2953 83.7128C17.0182 83.5869 8.88142 83.2342 8.88142 83.2342L8.70508 83.2258V82.2266H50.7914Z" fill="#55769F"/>
<path d="M11.4322 90.4578C11.4322 85.5959 8.87109 83.2363 8.87109 83.2363H49.9246C53.0315 83.2363 55.5507 85.7051 55.5507 88.7532V92.2212C55.5507 95.2694 53.0315 97.7381 49.9246 97.7381H8.87109C8.87109 97.7381 11.4322 96.5793 11.4322 90.4578Z" fill="#DAEEF7"/>
<g style="mix-blend-mode:multiply">
<path d="M55.5507 88.7532V92.2212C55.5507 92.6747 55.4919 93.1197 55.3911 93.548C54.0056 90.2227 51.3521 87.0234 46.297 85.9906C34.4991 83.589 8.87109 83.2363 8.87109 83.2363H49.9246C53.0315 83.2363 55.5507 85.7051 55.5507 88.7532Z" fill="#DAEEF7"/>
</g>
<path d="M87.5448 69.5156H90.2402C89.8036 69.2552 89.2494 69.0957 88.6448 69.0957H21.0144C17.4792 69.0957 14.6074 71.3209 14.6074 74.0752V77.2409C14.6074 79.9952 17.4792 82.2204 21.0144 82.2204L87.8891 82.2036L87.5448 69.5156Z" fill="#02CCC0"/>
<path d="M49.1475 69.1016C45.7634 69.1016 43.0176 71.2344 43.0176 73.8711V77.4399C43.0176 80.0766 45.7634 82.2095 49.1475 82.2095H91.2506V81.4117H91.0743L80.3763 80.6224L78.2099 74.0223C78.2099 74.0223 82.3833 70.3779 82.6604 70.2772C82.9291 70.1848 91.0743 69.8993 91.0743 69.8993H91.2506V69.1016H49.1475Z" fill="#06BFAD"/>
<path d="M88.52 75.6356C88.52 71.7729 91.0811 69.9004 91.0811 69.9004H50.0108C46.9039 69.9004 44.3848 71.8653 44.3848 74.2837V77.0295C44.3848 79.4479 46.9039 81.4128 50.0108 81.4128H91.0811C91.0811 81.4128 88.52 80.4891 88.52 75.6356Z" fill="#DAEEF7"/>
<g style="mix-blend-mode:multiply">
<path d="M44.3848 74.2837V77.0295C44.3848 77.399 44.4352 77.7433 44.5443 78.0792C45.9298 75.4509 48.5833 72.9066 53.6384 72.092C65.4447 70.1859 91.0811 69.9004 91.0811 69.9004H50.0108C46.9039 69.9004 44.3848 71.8653 44.3848 74.2837Z" fill="#DAEEF7"/>
</g>
<g opacity="0.5">
<path d="M26.9935 77.2409V74.0752C26.9935 71.3209 29.8653 69.0957 33.4005 69.0957H26.9851C23.4415 69.0957 20.5781 71.3209 20.5781 74.0752V77.2409C20.5781 79.9952 23.4415 82.2204 26.9851 82.2204H33.3166C29.8234 82.1868 26.9935 79.97 26.9935 77.2409Z" fill="#55769F"/>
</g>
<path d="M91.9967 99.2671H95.3808C94.8266 98.9732 94.138 98.7969 93.3823 98.7969H8.59659C4.15451 98.7969 0.560547 101.282 0.560547 104.356V107.899C0.560547 110.973 4.15451 113.458 8.59659 113.458L92.4334 113.441L91.9967 99.2671Z" fill="#FEB546"/>
<path d="M93.2218 106.1C93.2218 101.792 96.4379 99.7012 96.4379 99.7012H44.9383C41.0421 99.7012 37.8848 101.884 37.8848 104.588V107.662C37.8848 110.366 41.0421 112.549 44.9383 112.549H96.4379C96.4379 112.549 93.2218 111.524 93.2218 106.1Z" fill="#DAEEF7"/>
</svg>
