<svg width="252" height="204" viewBox="0 0 252 204" fill="none" xmlns="http://www.w3.org/2000/svg">
<path d="M106.179 38.4531H116.859L114.016 69.028L130.904 71.5627V73.6903H95.334V71.5627L102.614 69.028L106.179 38.4531Z" fill="#263238"/>
<path d="M147.635 57.8551C147.69 58.3233 147.646 58.7979 147.504 59.2475C147.361 59.697 147.125 60.1112 146.811 60.4625C146.497 60.8139 146.111 61.0943 145.68 61.2853C145.249 61.4762 144.782 61.5732 144.311 61.57H79.6373C78.6262 61.5494 77.6573 61.1607 76.9122 60.4768C76.1671 59.7929 75.697 58.8608 75.59 57.8551L71.7505 16.4681C71.7098 16.0646 71.7379 15.6571 71.8336 15.2631C72.0198 14.5416 72.443 13.9036 73.0353 13.4514C73.6276 12.9993 74.3546 12.7593 75.0997 12.7699H139.748C140.759 12.7905 141.728 13.1792 142.473 13.863C143.218 14.5469 143.689 15.4791 143.796 16.4847L147.635 57.8551Z" fill="#263238"/>
<path d="M79.6364 59.4849C79.1444 59.4681 78.6748 59.275 78.3132 58.941C77.9517 58.6069 77.7223 58.154 77.6667 57.6648L73.8272 16.2778C73.7972 16.1102 73.7972 15.9385 73.8272 15.7709C73.8913 15.4927 74.0515 15.2461 74.2795 15.0743C74.5075 14.9025 74.7887 14.8167 75.0738 14.8318H139.722C140.216 14.8503 140.687 15.0448 141.049 15.3801C141.412 15.7154 141.643 16.1694 141.7 16.6601L145.54 58.0471C145.562 58.234 145.545 58.4234 145.491 58.6035C145.436 58.7837 145.346 58.9507 145.224 59.0943C145.101 59.225 144.951 59.3275 144.785 59.3949C144.618 59.4623 144.439 59.493 144.26 59.4849H79.6364Z" fill="#407BFF"/>
<path opacity="0.6" d="M79.6364 59.4849C79.1444 59.4681 78.6748 59.275 78.3132 58.941C77.9517 58.6069 77.7223 58.154 77.6667 57.6648L73.8272 16.2778C73.7972 16.1102 73.7972 15.9385 73.8272 15.7709C73.8913 15.4927 74.0515 15.2461 74.2795 15.0743C74.5075 14.9025 74.7887 14.8167 75.0738 14.8318H139.722C140.216 14.8503 140.687 15.0448 141.049 15.3801C141.412 15.7154 141.643 16.1694 141.7 16.6601L145.54 58.0471C145.562 58.234 145.545 58.4234 145.491 58.6035C145.436 58.7837 145.346 58.9507 145.224 59.0943C145.101 59.225 144.951 59.3275 144.785 59.3949C144.618 59.4623 144.439 59.493 144.26 59.4849H79.6364Z" fill="white"/>
<path d="M66.9471 207.001H61.861L52.7109 79.6484H59.4675L66.9471 207.001Z" fill="#263238"/>
<path opacity="0.4" d="M66.9554 207.001H61.861L53.1597 85.9726L52.7109 79.8477H59.4675L59.8332 85.9726L66.9554 207.001Z" fill="white"/>
<path opacity="0.2" d="M59.8332 85.6651H53.1597L52.7109 79.8477H59.4675L59.8332 85.6651Z" fill="black"/>
<path d="M187.417 207.001H182.331L181.5 79.6484H188.248L187.417 207.001Z" fill="#263238"/>
<path opacity="0.5" d="M188.257 79.8477L188.124 100.4L187.425 207.001H182.331L181.633 100.4L181.5 79.8477H188.257Z" fill="white"/>
<path opacity="0.2" d="M188.257 79.8477L188.124 100.624H181.633L181.5 79.8477H188.257Z" fill="black"/>
<path d="M241.471 207.001H236.384L227.234 79.6484H233.991L241.471 207.001Z" fill="#263238"/>
<path opacity="0.5" d="M241.479 207.001H236.384L227.683 85.9726L227.234 79.8477H233.991L234.357 85.9726L241.479 207.001Z" fill="white"/>
<path opacity="0.2" d="M234.357 85.6651H227.683L227.234 79.8477H233.991L234.357 85.6651Z" fill="black"/>
<path d="M8.70526 207.001H3.61914L11.0987 79.6484H17.8553L8.70526 207.001Z" fill="#263238"/>
<path opacity="0.5" d="M17.8553 79.8477L17.4065 85.9726L8.70526 207.001H3.61914L10.7331 85.9726L11.0987 79.8477H17.8553Z" fill="white"/>
<path opacity="0.2" d="M11.0981 79.8477H17.8546L17.4059 85.6651H10.7324L11.0981 79.8477Z" fill="black"/>
<path d="M5.74609 76.457H239.342V81.0362C239.342 81.5123 239.153 81.9689 238.816 82.3055C238.479 82.6422 238.023 82.8313 237.547 82.8313H7.5412C7.06511 82.8313 6.60852 82.6422 6.27187 82.3055C5.93522 81.9689 5.74609 81.5123 5.74609 81.0362V76.457Z" fill="#407BFF"/>
<path opacity="0.6" d="M5.74609 76.457H239.342V81.0362C239.342 81.5123 239.153 81.9689 238.816 82.3055C238.479 82.6422 238.023 82.8313 237.547 82.8313H7.5412C7.06511 82.8313 6.60852 82.6422 6.27187 82.3055C5.93522 81.9689 5.74609 81.5123 5.74609 81.0362V76.457Z" fill="white"/>
<path opacity="0.2" d="M239.342 76.457H5.74609V79.6483H239.342V76.457Z" fill="black"/>
<path d="M242.502 77.284H2.59002C2.11393 77.284 1.65734 77.0949 1.3207 76.7583C0.98405 76.4216 0.794922 75.965 0.794922 75.4889C0.794917 75.0121 0.98378 74.5546 1.32019 74.2167C1.6566 73.8787 2.11317 73.6877 2.59002 73.6855H242.502C242.979 73.6877 243.435 73.8787 243.772 74.2167C244.108 74.5546 244.297 75.0121 244.297 75.4889C244.297 75.7247 244.25 75.9581 244.16 76.1759C244.07 76.3937 243.938 76.5916 243.771 76.7583C243.604 76.925 243.406 77.0572 243.189 77.1474C242.971 77.2376 242.737 77.284 242.502 77.284Z" fill="#407BFF"/>
<path opacity="0.6" d="M242.502 77.284H2.59002C2.11393 77.284 1.65734 77.0949 1.3207 76.7583C0.98405 76.4216 0.794922 75.965 0.794922 75.4889C0.794917 75.0121 0.98378 74.5546 1.32019 74.2167C1.6566 73.8787 2.11317 73.6877 2.59002 73.6855H242.502C242.979 73.6877 243.435 73.8787 243.772 74.2167C244.108 74.5546 244.297 75.0121 244.297 75.4889C244.297 75.7247 244.25 75.9581 244.16 76.1759C244.07 76.3937 243.938 76.5916 243.771 76.7583C243.604 76.925 243.406 77.0572 243.189 77.1474C242.971 77.2376 242.737 77.284 242.502 77.284Z" fill="white"/>
<path d="M116.76 73.6878L117.574 70.5879H151.274L166.798 72.142L167.388 73.6878H116.76Z" fill="#263238"/>
<path opacity="0.4" d="M151.274 70.5879V73.6878H116.76L117.574 70.5879H151.274Z" fill="black"/>
<path d="M34.7088 38.4531H45.3879L34.2351 69.028L51.1223 71.5627V73.6903H15.5527V71.5627L22.8412 69.028L34.7088 38.4531Z" fill="#263238"/>
<path d="M65.974 16.0045C65.7747 14.9799 65.2355 14.0525 64.4438 13.3723C63.652 12.6921 62.6539 12.2989 61.6109 12.2564H3.61091C2.88456 12.2266 2.17244 12.4638 1.60899 12.9231C1.04554 13.3824 0.669755 14.0322 0.552592 14.7496C0.482469 15.1538 0.482469 15.5671 0.552592 15.9713L7.90752 57.7738C8.0932 58.8145 8.63009 59.76 9.42863 60.4527C10.2272 61.1454 11.2391 61.5433 12.2955 61.5801H70.2955C70.7613 61.5916 71.2235 61.4959 71.6465 61.3005C72.0695 61.105 72.4419 60.815 72.735 60.4528C73.0281 60.0907 73.2341 59.666 73.3371 59.2116C73.4401 58.7571 73.4373 58.2852 73.3289 57.832L65.974 16.0045Z" fill="#263238"/>
<path opacity="0.2" d="M73.3127 57.8051C73.4211 58.2582 73.4239 58.7302 73.3209 59.1846C73.2179 59.639 73.0119 60.0637 72.7188 60.4259C72.4257 60.7881 72.0533 61.0781 71.6303 61.2736C71.2073 61.469 70.7451 61.5647 70.2793 61.5532H13.9581C12.9143 61.5136 11.9146 61.1214 11.1223 60.4408C10.3299 59.7601 9.79153 58.831 9.59501 57.8051L2.24009 16.0025C2.16997 15.5983 2.16997 15.1851 2.24009 14.7809C2.35726 14.0634 2.73304 13.4137 3.29649 12.9543C3.85994 12.495 4.57206 12.2579 5.29841 12.2877H61.6363C62.6792 12.3302 63.6773 12.7233 64.4691 13.4035C65.2609 14.0837 65.8001 15.0111 65.9994 16.0358L73.3127 57.8051Z" fill="white"/>
<path d="M13.7831 59.4601C13.2732 59.4319 12.7871 59.2355 12.4007 58.9017C12.0143 58.5679 11.7493 58.1155 11.6473 57.6152L4.33389 15.8126C4.30537 15.6421 4.30537 15.4679 4.33389 15.2974C4.37505 15.022 4.51859 14.7724 4.73583 14.5983C4.95306 14.4242 5.228 14.3385 5.50569 14.3583H61.8435C62.3517 14.3851 62.8364 14.5801 63.2216 14.9126C63.6067 15.2451 63.8704 15.6962 63.9711 16.1949L71.3343 57.9975C71.3717 58.1812 71.3704 58.3707 71.3303 58.5539C71.2902 58.7371 71.2123 58.9099 71.1016 59.0612C70.9874 59.1924 70.8453 59.2964 70.6857 59.3654C70.526 59.4345 70.3529 59.4668 70.1791 59.4601H13.7831Z" fill="#407BFF"/>
<path opacity="0.6" d="M13.7831 59.4601C13.2732 59.4319 12.7871 59.2355 12.4007 58.9017C12.0143 58.5679 11.7493 58.1155 11.6473 57.6152L4.33389 15.8126C4.30537 15.6421 4.30537 15.4679 4.33389 15.2974C4.37505 15.022 4.51859 14.7724 4.73583 14.5983C4.95306 14.4242 5.228 14.3385 5.50569 14.3583H61.8435C62.3517 14.3851 62.8364 14.5801 63.2216 14.9126C63.6067 15.2451 63.8704 15.6962 63.9711 16.1949L71.3343 57.9975C71.3717 58.1812 71.3704 58.3707 71.3303 58.5539C71.2902 58.7371 71.2123 58.9099 71.1016 59.0612C70.9874 59.1924 70.8453 59.2964 70.6857 59.3654C70.526 59.4345 70.3529 59.4668 70.1791 59.4601H13.7831Z" fill="#407BFF"/>
<path d="M174.33 38.4531H185.009L173.856 69.028L190.743 71.5627V73.6903H155.174V71.5627L162.454 69.028L174.33 38.4531Z" fill="#263238"/>
<path d="M211.75 16.4689C211.705 15.4736 211.28 14.5334 210.563 13.8422C209.845 13.151 208.89 12.7615 207.894 12.754H149.894C149.135 12.7481 148.395 12.9878 147.784 13.4371C147.173 13.8865 146.724 14.5214 146.503 15.2472C146.385 15.6403 146.334 16.0506 146.354 16.4606L148.057 57.8393C148.104 58.833 148.53 59.7711 149.247 60.4606C149.964 61.15 150.918 61.5384 151.913 61.5458H209.913C210.393 61.5487 210.869 61.4536 211.311 61.2662C211.752 61.0788 212.151 60.8031 212.483 60.456C212.814 60.109 213.071 59.6978 213.238 59.2479C213.405 58.7979 213.479 58.3186 213.454 57.8393L211.75 16.4689Z" fill="#263238"/>
<path opacity="0.4" d="M213.456 57.851C213.481 58.3303 213.407 58.8096 213.24 59.2596C213.073 59.7095 212.816 60.1207 212.485 60.4677C212.153 60.8148 211.754 61.0905 211.313 61.2779C210.871 61.4653 210.395 61.5604 209.915 61.5575H153.577C152.583 61.5501 151.628 61.1618 150.911 60.4723C150.194 59.7829 149.768 58.8448 149.721 57.851L148.018 16.4723C147.999 16.0623 148.049 15.652 148.167 15.2589C148.388 14.5332 148.837 13.8982 149.448 13.4488C150.059 12.9995 150.799 12.7599 151.558 12.7657H207.896C208.892 12.7732 209.847 13.1628 210.565 13.854C211.282 14.5452 211.707 15.4853 211.752 16.4806L213.456 57.851Z" fill="white"/>
<path d="M153.684 59.4757C153.199 59.4658 152.736 59.2726 152.388 58.935C152.039 58.5973 151.831 58.1402 151.806 57.6556L150.103 16.277C150.092 16.1036 150.109 15.9298 150.152 15.7617C150.235 15.4849 150.407 15.2434 150.642 15.075C150.876 14.9065 151.16 14.8207 151.449 14.8309H207.787C208.273 14.8446 208.736 15.0399 209.085 15.3783C209.435 15.7168 209.644 16.1738 209.673 16.6592L211.377 58.0379C211.389 58.2287 211.362 58.42 211.298 58.6001C211.234 58.7801 211.133 58.9452 211.003 59.0851C210.874 59.2125 210.721 59.3127 210.552 59.3798C210.384 59.4469 210.204 59.4795 210.022 59.4757H153.684Z" fill="#407BFF"/>
<path opacity="0.6" d="M153.684 59.4757C153.199 59.4658 152.736 59.2726 152.388 58.935C152.039 58.5973 151.831 58.1402 151.806 57.6556L150.103 16.277C150.092 16.1036 150.109 15.9298 150.152 15.7617C150.235 15.4849 150.407 15.2434 150.642 15.075C150.876 14.9065 151.16 14.8207 151.449 14.8309H207.787C208.273 14.8446 208.736 15.0399 209.085 15.3783C209.435 15.7168 209.644 16.1738 209.673 16.6592L211.377 58.0379C211.389 58.2287 211.362 58.42 211.298 58.6001C211.234 58.7801 211.133 58.9452 211.003 59.0851C210.874 59.2125 210.721 59.3127 210.552 59.3798C210.384 59.4469 210.204 59.4795 210.022 59.4757H153.684Z" fill="#407BFF"/>
<path opacity="0.4" d="M153.684 59.4757C153.199 59.4658 152.736 59.2726 152.388 58.935C152.039 58.5973 151.831 58.1402 151.806 57.6556L150.103 16.277C150.092 16.1036 150.109 15.9298 150.152 15.7617C150.235 15.4849 150.407 15.2434 150.642 15.075C150.876 14.9065 151.16 14.8207 151.449 14.8309H207.787C208.273 14.8446 208.736 15.0399 209.085 15.3783C209.435 15.7168 209.644 16.1738 209.673 16.6592L211.377 58.0379C211.389 58.2287 211.362 58.42 211.298 58.6001C211.234 58.7801 211.133 58.9452 211.003 59.0851C210.874 59.2125 210.721 59.3127 210.552 59.3798C210.384 59.4469 210.204 59.4795 210.022 59.4757H153.684Z" fill="black"/>
<path d="M204.993 19.2338H163.631L163.598 18.4609H204.96L204.993 19.2338Z" fill="white"/>
<path d="M205.095 21.5971H168.295L168.262 20.8242H205.061L205.095 21.5971Z" fill="white"/>
<path d="M205.201 23.9579H181.939L181.906 23.1934H205.168L205.201 23.9579Z" fill="white"/>
<path d="M205.311 26.3212H175.11L175.068 25.5566H205.269L205.311 26.3212Z" fill="white"/>
<path d="M205.412 28.6869H185.383L185.35 27.9141H205.378L205.412 28.6869Z" fill="white"/>
<path d="M205.727 35.892H164.373L164.34 35.1191H205.694L205.727 35.892Z" fill="white"/>
<path d="M205.833 38.2494H169.033L169 37.4766H205.8L205.833 38.2494Z" fill="white"/>
<path d="M205.941 40.6127H182.68L182.646 39.8398H205.908L205.941 40.6127Z" fill="white"/>
<path d="M206.043 42.9819H175.842L175.809 42.209H206.009L206.043 42.9819Z" fill="white"/>
<path d="M206.15 45.3393H186.113L186.08 44.5664H206.117L206.15 45.3393Z" fill="white"/>
<path d="M115.821 44.3542H79.7364L77.6172 20.752H113.702L115.821 44.3542Z" fill="#407BFF"/>
<path d="M115.821 44.3542H79.7364L77.6172 20.752H113.702L115.821 44.3542Z" fill="#407BFF"/>
<path d="M114.392 43.1708H80.9502L79.3379 25.1699H112.78L114.392 43.1708Z" fill="#263238"/>
<path d="M107.111 28.6362H82.3697L82.2949 27.8633H107.036L107.111 28.6362Z" fill="white"/>
<path d="M94.4541 31.0034H82.5865L82.5117 30.2305H94.3793L94.4541 31.0034Z" fill="white"/>
<path d="M97.7458 33.3764H82.795L82.7285 32.6035H97.6794L97.7458 33.3764Z" fill="white"/>
<path d="M88.2812 35.7514H83.0123L82.9375 34.9785H88.2064L88.2812 35.7514Z" fill="white"/>
<path d="M86.6326 38.1186H83.2169L83.1504 37.3457H86.5578L86.6326 38.1186Z" fill="white"/>
<path d="M139.647 56.155H103.571L101.443 32.5527H137.528L139.647 56.155Z" fill="#407BFF"/>
<path d="M139.647 56.155H103.571L101.443 32.5527H137.528L139.647 56.155Z" fill="#407BFF"/>
<path d="M138.229 54.9716H104.787L103.166 36.9707H136.608L138.229 54.9716Z" fill="#263238"/>
<path d="M130.938 40.4409H106.197L106.131 39.668H130.872L130.938 40.4409Z" fill="white"/>
<path d="M118.282 42.8041H106.414L106.348 42.0312H118.215L118.282 42.8041Z" fill="white"/>
<path d="M121.582 45.1855H106.631L106.557 44.4043H121.507L121.582 45.1855Z" fill="white"/>
<path d="M112.105 47.5502H106.836L106.77 46.7773H112.038L112.105 47.5502Z" fill="white"/>
<path d="M110.468 49.9194H107.053L106.986 49.1465H110.394L110.468 49.9194Z" fill="white"/>
<path opacity="0.6" d="M69.4378 54.9757H13.2246L6.64258 18.3008H62.8641L69.4378 54.9757Z" fill="white"/>
<path opacity="0.6" d="M28.725 53.5349H14.0982L8.67969 23.334H23.3064L28.725 53.5349Z" fill="white"/>
<path opacity="0.6" d="M30.0372 53.5349H68.0002L62.5817 23.334H24.627L30.0372 53.5349Z" fill="white"/>
<g opacity="0.4">
<path d="M21.8433 26.4208H11.2306L11.0977 25.6562H21.7104L21.8433 26.4208Z" fill="black"/>
<path d="M17.6953 28.706H11.6452L11.5039 27.9414H17.5541L17.6953 28.706Z" fill="black"/>
<path d="M20.3557 30.9877H12.0534L11.9121 30.2148H20.2144L20.3557 30.9877Z" fill="black"/>
<path d="M17.7305 33.2646H12.4616L12.3203 32.5H17.5893L17.7305 33.2646Z" fill="black"/>
<path d="M16.285 35.5556H12.8693L12.7363 34.791H16.1437L16.285 35.5556Z" fill="black"/>
<path d="M23.8882 37.8373H13.2839L13.1426 37.0645H23.7553L23.8882 37.8373Z" fill="black"/>
<path d="M19.7403 40.1142H13.6901L13.5488 39.3496H19.599L19.7403 40.1142Z" fill="black"/>
<path d="M22.4006 42.4052H14.0983L13.957 41.6406H22.2594L22.4006 42.4052Z" fill="black"/>
<path d="M19.773 44.6786H14.5041L14.3711 43.9141H19.64L19.773 44.6786Z" fill="black"/>
<path d="M18.326 46.9638H14.9103L14.7773 46.1992H18.1847L18.326 46.9638Z" fill="black"/>
<path d="M20.5977 49.2514H15.3288L15.1875 48.4785H20.4565L20.5977 49.2514Z" fill="black"/>
<path d="M19.1507 51.5282H15.735L15.5938 50.7637H19.0094L19.1507 51.5282Z" fill="black"/>
</g>
<g opacity="0.4">
<path d="M55.0877 26.4208H27.8537L27.7207 25.6562H54.9547L55.0877 26.4208Z" fill="black"/>
<path d="M50.9397 28.706H28.2682L28.127 27.9414H50.7984L50.9397 28.706Z" fill="black"/>
<path d="M53.6001 30.9877H28.6764L28.5352 30.2148H53.4588L53.6001 30.9877Z" fill="black"/>
<path d="M50.9749 33.2646H29.0846L28.9434 32.5H50.8336L50.9749 33.2646Z" fill="black"/>
<path d="M49.5293 35.5556H29.4923L29.3594 34.791H49.388L49.5293 35.5556Z" fill="black"/>
<path d="M57.1326 37.8373H29.9069L29.7656 37.0645H56.9996L57.1326 37.8373Z" fill="black"/>
<path d="M52.9846 40.1142H30.3132L30.1719 39.3496H52.8433L52.9846 40.1142Z" fill="black"/>
<path d="M55.645 42.4052H30.7214L30.5801 41.6406H55.5037L55.645 42.4052Z" fill="black"/>
<path d="M53.0173 44.6786H31.1271L30.9941 43.9141H52.8844L53.0173 44.6786Z" fill="black"/>
<path d="M51.5703 46.9638H31.5334L31.4004 46.1992H51.429L51.5703 46.9638Z" fill="black"/>
<path d="M53.8421 49.2514H31.9518L31.8105 48.4785H53.7008L53.8421 49.2514Z" fill="black"/>
<path d="M52.3867 51.5282H32.3581L32.2168 50.7637H52.2538L52.3867 51.5282Z" fill="black"/>
</g>
<path d="M181.399 198.037L174.776 197.131L173.861 181.391L180.468 182.305L181.399 198.037Z" fill="#EBB376"/>
<path opacity="0.2" d="M180.468 182.306L173.861 181.4L174.385 190.393L180.992 190.974L180.468 182.306Z" fill="black"/>
<path d="M174.279 196.334L181.759 195.86C181.821 195.853 181.884 195.859 181.944 195.877C182.004 195.894 182.06 195.924 182.109 195.963C182.158 196.002 182.198 196.051 182.228 196.106C182.258 196.161 182.276 196.222 182.282 196.284L183.014 202.185C183.025 202.338 183.006 202.492 182.957 202.638C182.908 202.785 182.831 202.919 182.73 203.035C182.629 203.151 182.505 203.246 182.367 203.314C182.229 203.382 182.079 203.422 181.925 203.431C179.316 203.556 178.061 203.481 174.77 203.664C172.75 203.78 168.769 204.213 165.977 203.938C163.185 203.664 163.534 200.922 164.739 200.789C167.589 200.464 171.387 198.37 173.157 196.774C173.472 196.507 173.867 196.352 174.279 196.334Z" fill="#263238"/>
<path d="M174.119 197.145C174.119 197.029 174.011 195.142 173.288 194.544C173.182 194.465 173.06 194.409 172.932 194.379C172.803 194.349 172.67 194.345 172.54 194.369C172.405 194.382 172.278 194.437 172.176 194.526C172.074 194.616 172.004 194.736 171.975 194.868C172.006 195.439 172.238 195.981 172.631 196.397C172.077 196.067 171.422 195.946 170.786 196.056C170.696 196.1 170.617 196.165 170.558 196.247C170.498 196.328 170.46 196.422 170.445 196.522C170.406 196.67 170.409 196.826 170.453 196.972C170.497 197.119 170.581 197.251 170.695 197.353C171.07 197.591 171.521 197.68 171.958 197.602C172.551 197.553 173.137 197.436 173.703 197.253C173.712 197.257 173.722 197.26 173.732 197.26C173.742 197.26 173.752 197.257 173.761 197.253C173.763 197.236 173.763 197.22 173.761 197.203C173.761 197.203 173.919 197.203 173.928 197.145H174.069H174.119ZM172.282 194.934C172.282 194.843 172.34 194.727 172.556 194.685H172.631C172.694 194.679 172.757 194.687 172.816 194.709C172.874 194.731 172.928 194.765 172.972 194.81C173.396 195.159 173.512 196.214 173.537 196.846L173.404 196.771C172.825 196.31 172.428 195.66 172.282 194.934ZM170.919 197.137C170.85 197.065 170.8 196.977 170.774 196.882C170.748 196.786 170.746 196.685 170.77 196.588C170.775 196.539 170.793 196.493 170.822 196.453C170.851 196.414 170.89 196.383 170.936 196.364C171.36 196.164 172.498 196.655 173.304 197.095C172.132 197.403 171.252 197.419 170.919 197.137Z" fill="#407BFF"/>
<path d="M181.135 105.526L182.747 95.404L219.863 93.1602C219.863 93.1602 223.81 114.219 220.777 119.829C215.367 129.843 186.196 124.815 177.653 125.771C182.756 146.639 182.257 187.419 182.257 187.419L170.065 188.35C170.065 188.35 160.691 144.412 158.788 123.527C157.508 109.466 169.184 109.781 181.135 105.526Z" fill="#263238"/>
<path opacity="0.2" d="M181.135 105.526L182.747 95.404L219.863 93.1602C219.863 93.1602 223.81 114.219 220.777 119.829C215.367 129.843 186.196 124.815 177.653 125.771C182.756 146.639 182.257 187.419 182.257 187.419L170.065 188.35C170.065 188.35 160.691 144.412 158.788 123.527C157.508 109.466 169.184 109.781 181.135 105.526Z" fill="black"/>
<path d="M153.984 19.7757C154.15 21.3381 153.485 22.6844 152.496 22.8007C151.507 22.9171 150.56 21.7287 150.385 20.1746C150.21 18.6205 150.884 17.2575 151.873 17.1495C152.862 17.0414 153.809 18.2133 153.984 19.7757Z" stroke="#263238" stroke-width="0.5" stroke-miterlimit="10"/>
<path d="M154.007 27.8135C154.159 28.1667 154.331 28.5107 154.522 28.844C155.586 30.7465 157.203 32.2799 159.16 33.2404C159.652 33.4892 160.163 33.6977 160.689 33.8637C162.07 34.3243 163.536 34.4708 164.981 34.2925C166.426 34.1143 167.813 33.6157 169.041 32.8331C170.142 32.1173 171.091 31.1909 171.833 30.1073C175.008 25.5863 174.152 21.1318 173.304 13.486C173.133 11.7008 172.508 9.9891 171.489 8.51339C170.47 7.03769 169.09 5.84696 167.482 5.05427C165.873 4.26159 164.088 3.89326 162.297 3.98426C160.506 4.07526 158.768 4.62258 157.248 5.57423C150.325 9.85422 151.215 21.2813 154.007 27.8135Z" fill="#E4897B"/>
<path opacity="0.2" d="M159.16 33.243C159.652 33.4919 160.164 33.7003 160.689 33.8663C162.07 34.3269 163.537 34.4735 164.982 34.2952C166.427 34.1169 167.814 33.6183 169.042 32.8358C168.548 31.982 167.947 31.1945 167.255 30.4922C164.348 30.613 161.538 31.568 159.16 33.243Z" fill="black"/>
<path d="M179.18 35.2696C177.876 40.2061 169.407 44.1703 169.407 44.1703C169.407 44.1703 163.698 45.982 163.731 43.8046C166.29 41.486 166.806 39.2504 166.274 37.1561C165.906 35.8956 165.287 34.7225 164.454 33.7072C164.013 33.1286 163.541 32.5738 163.041 32.0451L168.027 18.748C169.831 24.2331 173.87 33.8734 179.18 35.2696Z" fill="#E4897B"/>
<path d="M155.079 11.0853C155.079 11.0853 152.935 18.3073 160.34 23.4931C160.34 23.4931 163.457 30.1416 165.193 30.9727C166.93 31.8037 170.845 31.2968 172.174 30.9727C173.504 30.6486 180.327 24.9641 178.357 11.6421C176.388 -1.67984 165.193 2.50042 165.193 2.50042L155.079 11.0853Z" fill="#263238"/>
<path d="M161.347 20.0288C161.323 20.7649 161.136 21.4865 160.799 22.1417C160.463 22.797 159.986 23.3696 159.402 23.8184C157.973 24.7326 156.593 22.7298 156.427 20.4194C156.294 18.3667 156.859 15.3582 158.571 15.433C160.283 15.5078 161.538 17.9179 161.347 20.0288Z" fill="#E4897B"/>
<path d="M169.781 1.94212C169.781 1.94212 161.561 -0.31007 155.146 3.08898C155.146 3.08898 156.409 2.25792 156.026 1.21078C155.644 0.163641 152.702 3.9533 152.702 3.9533C152.702 3.9533 153.691 0.346474 153.085 0.0140478C152.478 -0.318378 148.705 5.33286 150.591 8.07537C150.591 8.07537 146.935 5.58219 147.583 7.52688C148.231 9.47157 148.231 12.8374 156.666 11.1919C165.102 9.54636 169.781 1.94212 169.781 1.94212Z" fill="#263238"/>
<path d="M150.383 20.1763L156.408 17.6582" stroke="#263238" stroke-width="0.5" stroke-miterlimit="10"/>
<path d="M162.791 38.2096C162.791 38.2096 168.351 31.345 177.227 31.4365L182.653 35.9658L162.791 38.2096Z" fill="#407BFF"/>
<path opacity="0.5" d="M162.791 38.2096C162.791 38.2096 168.351 31.345 177.227 31.4365L182.653 35.9658L162.791 38.2096Z" fill="white"/>
<path d="M129.217 66.67L123.175 63.9192C123.175 63.9192 118.139 62.9801 116.053 63.4538C113.967 63.9275 109.405 70.1771 109.479 70.9334C109.554 71.6897 117.458 73.5596 117.632 73.5596C117.807 73.5596 121.222 71.6315 121.222 71.6315L126.799 73.5596L129.217 66.67Z" fill="#E4897B"/>
<path d="M183.684 188.017L169.032 188.981L167.777 182.707L183.875 181.959L183.684 188.017Z" fill="#407BFF"/>
<path opacity="0.2" d="M183.684 188.017L169.032 188.981L167.777 182.707L183.875 181.959L183.684 188.017Z" fill="white"/>
<path d="M166.124 197.981L159.459 198.471L155.287 183.271L161.944 182.789L166.124 197.981Z" fill="#EBB376"/>
<path d="M158.561 198.705H158.445C158.445 198.605 158.104 196.735 157.298 196.295C157.194 196.243 157.081 196.217 156.965 196.217C156.85 196.217 156.736 196.243 156.633 196.295C156.506 196.334 156.396 196.416 156.322 196.526C156.248 196.637 156.214 196.769 156.226 196.901C156.387 197.452 156.733 197.931 157.206 198.256C156.6 198.048 155.939 198.066 155.345 198.306C155.264 198.366 155.2 198.445 155.16 198.537C155.119 198.629 155.102 198.73 155.112 198.829C155.102 198.986 155.136 199.143 155.211 199.281C155.286 199.42 155.399 199.534 155.536 199.611C155.953 199.773 156.415 199.773 156.832 199.611C157.41 199.439 157.967 199.205 158.495 198.913H158.553C158.553 198.913 158.553 198.871 158.553 198.854C158.565 198.847 158.576 198.836 158.583 198.823C158.591 198.811 158.595 198.796 158.596 198.782C158.597 198.767 158.594 198.752 158.588 198.739C158.582 198.726 158.573 198.714 158.561 198.705ZM156.558 196.843C156.558 196.752 156.558 196.635 156.783 196.552H156.857C156.917 196.536 156.98 196.532 157.041 196.541C157.103 196.549 157.162 196.57 157.215 196.602C157.697 196.86 158.046 197.874 158.187 198.48L158.037 198.439C157.381 198.032 156.616 197.284 156.558 196.835V196.843ZM155.686 199.287C155.603 199.231 155.537 199.155 155.492 199.066C155.447 198.978 155.425 198.879 155.428 198.78C155.424 198.731 155.431 198.682 155.45 198.637C155.469 198.593 155.498 198.553 155.536 198.522C155.918 198.239 157.132 198.522 158.029 198.746C156.924 199.287 156.076 199.486 155.686 199.278V199.287Z" fill="#407BFF"/>
<path opacity="0.2" d="M161.944 182.789L155.287 183.279L157.672 191.964L164.254 191.158L161.944 182.789Z" fill="black"/>
<path d="M153.028 190.895L164.729 187.446C164.729 187.446 157.724 147.904 150.601 134.192C151.133 134.017 151.84 133.793 152.712 133.535C154.283 133.061 156.369 132.471 158.821 131.79C175.874 127.061 210.438 118.194 210.438 118.194L194.648 103.459C194.648 103.459 131.753 113.049 130.448 129.621C129.875 137.591 153.028 190.895 153.028 190.895Z" fill="#263238"/>
<path d="M166.282 187.701L152.146 191.699L149.611 185.823L165.202 181.734L166.282 187.701Z" fill="#407BFF"/>
<path opacity="0.2" d="M166.282 187.701L152.146 191.699L149.611 185.823L165.202 181.734L166.282 187.701Z" fill="white"/>
<path d="M158.811 197.787L166.025 195.776C166.144 195.737 166.274 195.746 166.386 195.802C166.498 195.858 166.584 195.956 166.623 196.075L168.576 201.693C168.658 201.996 168.616 202.319 168.461 202.592C168.305 202.864 168.048 203.064 167.745 203.148C165.211 203.804 163.972 203.979 160.789 204.86C158.836 205.4 155.03 206.646 152.246 206.962C149.462 207.278 149.229 204.519 150.376 204.145C153.102 203.231 156.368 200.388 157.781 198.46C158.037 198.125 158.401 197.887 158.811 197.787Z" fill="#263238"/>
<path d="M154.164 44.9587C154.164 44.9587 164.677 33.1908 178.714 34.4042C192.75 35.6175 206.812 46.4546 213.801 63.4914C220.79 80.5283 222.943 106.291 222.943 106.291C222.943 106.291 200.222 112.79 177.135 106.865C172.299 85.2895 164.572 64.466 154.164 44.9587Z" fill="#407BFF"/>
<path opacity="0.6" d="M154.164 44.9587C154.164 44.9587 164.677 33.1908 178.714 34.4042C192.75 35.6175 206.812 46.4546 213.801 63.4914C220.79 80.5283 222.943 106.291 222.943 106.291C222.943 106.291 200.222 112.79 177.135 106.865C172.299 85.2895 164.572 64.466 154.164 44.9587Z" fill="white"/>
<path d="M154.167 44.957C150.627 48.6386 140.496 65.5176 137.612 66.1492C134.728 66.7808 130.532 64.1796 127.241 65.1685C123.95 66.1575 120.592 69.1576 121.34 71.0691C122.088 72.9805 129.825 78.0999 139.407 78.3824C147.61 78.6151 164.896 58.1959 164.896 58.1959C164.896 50.2592 154.167 44.957 154.167 44.957Z" fill="#407BFF"/>
<path opacity="0.5" d="M154.167 44.957C150.627 48.6386 140.496 65.5176 137.612 66.1492C134.728 66.7808 130.532 64.1796 127.241 65.1685C123.95 66.1575 120.592 69.1576 121.34 71.0691C122.088 72.9805 129.825 78.0999 139.407 78.3824C147.61 78.6151 164.896 58.1959 164.896 58.1959C164.896 50.2592 154.167 44.957 154.167 44.957Z" fill="white"/>
<path d="M222.072 111.906C198.237 116.51 174.86 107.086 174.86 107.086C174.86 107.086 174.801 105.374 174.502 102.706C174.394 101.692 174.245 100.537 174.062 99.2905C173.879 98.0439 173.679 96.9552 173.43 95.7003C172.752 92.1156 171.742 88.6017 170.413 85.2039C169.092 81.9212 168.061 79.2203 167.272 77.0013C167.156 76.6855 167.048 76.3781 166.948 76.0789C166.607 75.1065 166.316 74.2339 166.067 73.461C164.405 68.1754 164.596 67.1698 164.596 67.1698C170.629 68.0009 171.078 55.5931 163.009 46.3517C161.323 44.3609 158.949 43.0789 156.36 42.7615C156.36 42.7615 155.529 41.4484 164.047 36.6532C168.635 34.0685 173.771 35.9717 177.569 35.9717C183.669 35.9717 184.583 35.1406 184.583 35.1406C194.556 35.1406 206.59 48.2964 214.36 63.9453C214.751 64.7265 215.133 65.516 215.499 66.3138C215.864 67.1117 216.247 67.976 216.604 68.807C219.282 74.9009 221.116 81.3317 222.056 87.9215C222.139 88.5947 222.222 89.2429 222.288 89.8745C222.396 90.7721 222.488 91.6281 222.579 92.4508C222.687 93.4647 222.779 94.4288 222.862 95.3346C224.374 111.274 222.072 111.906 222.072 111.906Z" fill="#407BFF"/>
<path opacity="0.3" d="M167.307 76.998L177.122 85.0178L173.465 95.697C172.787 92.1123 171.777 88.5984 170.448 85.2007C169.127 81.918 168.096 79.217 167.307 76.998Z" fill="white"/>
<path opacity="0.3" d="M182.654 68.8184L196.948 84.9161L193.99 98.8281L177.119 85.0158L182.654 68.8184Z" fill="white"/>
<path opacity="0.3" d="M201.063 65.5898L214.31 80.6986L210.487 100.154L196.949 84.9121L201.063 65.5898Z" fill="white"/>
<path opacity="0.3" d="M222.337 89.8361L214.309 80.6943L216.652 68.752C219.33 74.8458 221.165 81.2766 222.104 87.8664C222.187 88.5812 222.27 89.2294 222.337 89.8361Z" fill="white"/>
<g opacity="0.3">
<path d="M215.55 66.2767L213.057 76.7232L200.109 62.8278L195.953 81.2026L181.568 64.0744L176.232 82.3578L166.982 76.0417C166.642 75.0694 166.351 74.1968 166.102 73.4239L175.243 79.6901L180.811 60.5756L195.048 77.5543L199.145 59.3789L212.101 73.3242L214.378 63.9082C214.802 64.6894 215.184 65.4789 215.55 66.2767Z" fill="white"/>
</g>
<g opacity="0.3">
<path d="M222.903 95.3214L216.769 88.1743L212.614 108.585L198.976 93.5845L196.001 105.743L179.047 91.1661L174.526 102.701C174.418 101.687 174.269 100.532 174.086 99.2856L178.358 88.3737L195.029 102.71L198.104 90.1605L211.642 105.045L215.797 84.5176L222.603 92.4376C222.736 93.4515 222.828 94.4156 222.903 95.3214Z" fill="white"/>
</g>
<path d="M233.023 132.328H158.294V126.768C158.294 125.666 158.732 124.609 159.511 123.83C160.29 123.051 161.347 122.613 162.449 122.613L228.868 122.613C229.97 122.613 231.027 123.051 231.806 123.83C232.586 124.609 233.023 125.666 233.023 126.768V132.328Z" fill="#407BFF"/>
<path opacity="0.2" d="M233.023 132.328H158.294V126.768C158.294 125.666 158.732 124.609 159.511 123.83C160.29 123.051 161.347 122.613 162.449 122.613L228.868 122.613C229.97 122.613 231.027 123.051 231.806 123.83C232.586 124.609 233.023 125.666 233.023 126.768V132.328Z" fill="black"/>
<path d="M230.591 187.635L206.648 185.283V151.625H197.14V185.266L173.098 187.635C171.946 187.747 170.877 188.284 170.099 189.141C169.321 189.998 168.891 191.115 168.893 192.272V195.871H234.779V192.272C234.781 191.117 234.353 190.003 233.579 189.146C232.805 188.289 231.74 187.75 230.591 187.635Z" fill="#263238"/>
<path opacity="0.2" d="M230.591 187.635L206.648 185.283V151.625H197.14V185.266L173.098 187.635C171.946 187.747 170.877 188.284 170.099 189.141C169.321 189.998 168.891 191.115 168.893 192.272V195.871H234.779V192.272C234.781 191.117 234.353 190.003 233.579 189.146C232.805 188.289 231.74 187.75 230.591 187.635Z" fill="white"/>
<path d="M171.444 206.535C174.873 206.535 177.652 203.756 177.652 200.327C177.652 196.899 174.873 194.119 171.444 194.119C168.016 194.119 165.236 196.899 165.236 200.327C165.236 203.756 168.016 206.535 171.444 206.535Z" fill="#263238"/>
<path d="M232.263 206.535C235.691 206.535 238.471 203.756 238.471 200.327C238.471 196.899 235.691 194.119 232.263 194.119C228.834 194.119 226.055 196.899 226.055 200.327C226.055 203.756 228.834 206.535 232.263 206.535Z" fill="#263238"/>
<path d="M195.521 128.895H208.278V155.43C208.278 156.341 207.917 157.214 207.273 157.857C206.629 158.501 205.756 158.863 204.846 158.863H198.954C198.043 158.863 197.17 158.501 196.527 157.857C195.883 157.214 195.521 156.341 195.521 155.43V128.895Z" fill="#263238"/>
<path opacity="0.3" d="M195.521 128.895H208.278V155.43C208.278 156.341 207.917 157.214 207.273 157.857C206.629 158.501 205.756 158.863 204.846 158.863H198.954C198.043 158.863 197.17 158.501 196.527 157.857C195.883 157.214 195.521 156.341 195.521 155.43V128.895Z" fill="white"/>
<path d="M187.699 128.9C187.699 128.9 199.633 90.9284 201.628 35.5297C201.752 32.3474 203.105 29.3372 205.401 27.1306C207.698 24.9241 210.76 23.6929 213.944 23.6953H236.034C239.293 23.6931 242.42 24.9815 244.731 27.2787C247.042 29.5759 248.349 32.6949 248.367 35.9535C248.45 56.0819 247.046 97.2196 235.693 130.695L187.699 128.9Z" fill="#407BFF"/>
<path opacity="0.2" d="M187.699 128.9C187.699 128.9 199.633 90.9284 201.628 35.5297C201.752 32.3474 203.105 29.3372 205.401 27.1306C207.698 24.9241 210.76 23.6929 213.944 23.6953H236.034C239.293 23.6931 242.42 24.9815 244.731 27.2787C247.042 29.5759 248.349 32.6949 248.367 35.9535C248.45 56.0819 247.046 97.2196 235.693 130.695L187.699 128.9Z" fill="black"/>
<path d="M195.236 128.41C195.236 128.41 206.58 88.0531 208.459 36.9925C208.57 34.0557 209.817 31.2768 211.936 29.2402C214.054 27.2036 216.88 26.068 219.819 26.0723H240.189C243.195 26.07 246.08 27.2589 248.213 29.3786C250.345 31.4984 251.55 34.3765 251.566 37.3831C251.641 55.9407 250.344 97.5937 239.873 128.443L195.236 128.41Z" fill="#263238"/>
<path opacity="0.3" d="M239.873 128.41H195.236C195.236 128.41 206.58 88.0531 208.459 36.9925C208.57 34.0557 209.817 31.2768 211.936 29.2402C214.054 27.2036 216.88 26.068 219.819 26.0723H240.189C243.195 26.07 246.08 27.2589 248.213 29.3786C250.345 31.4984 251.55 34.3765 251.566 37.3831C251.641 55.9075 250.328 97.5604 239.873 128.41Z" fill="white"/>
<path d="M203.98 99.0762C203.98 99.0762 179.763 94.1813 156.385 96.583C133.007 98.9848 167.388 129.502 167.388 129.502H172.208C172.208 129.502 153.991 110.129 155.005 105.309C156.019 100.489 201.894 106.847 201.894 106.847L203.98 99.0762Z" fill="#263238"/>
<path opacity="0.3" d="M203.98 99.0762C203.98 99.0762 179.763 94.1813 156.385 96.583C133.007 98.9848 167.388 129.502 167.388 129.502H172.208C172.208 129.502 153.991 110.129 155.005 105.309C156.019 100.489 201.894 106.847 201.894 106.847L203.98 99.0762Z" fill="white"/>
<path opacity="0.2" d="M239.875 128.41H200.225C200.225 128.41 211.569 88.0531 213.447 36.9925C213.559 34.0557 214.805 31.2768 216.924 29.2402C219.043 27.2036 221.869 26.068 224.808 26.0723H240.19C243.197 26.07 246.082 27.2589 248.214 29.3786C250.347 31.4984 251.552 34.3765 251.568 37.3831C251.643 55.9075 250.33 97.5604 239.875 128.41Z" fill="black"/>
<path d="M157.299 132.328H239.001C239.924 132.328 240.672 131.58 240.672 130.658V129.145C240.672 128.223 239.924 127.475 239.001 127.475L157.299 127.475C156.377 127.475 155.629 128.223 155.629 129.145V130.658C155.629 131.58 156.377 132.328 157.299 132.328Z" fill="#263238"/>
<path opacity="0.6" d="M157.299 132.328H239.001C239.924 132.328 240.672 131.58 240.672 130.658V129.145C240.672 128.223 239.924 127.475 239.001 127.475L157.299 127.475C156.377 127.475 155.629 128.223 155.629 129.145V130.658C155.629 131.58 156.377 132.328 157.299 132.328Z" fill="white"/>
</svg>
